<svg width="27" height="27" viewBox="0 0 27 27" fill="none" xmlns="http://www.w3.org/2000/svg">
<path d="M12.4076 2.85719C12.7418 2.6716 13.1178 2.57422 13.5 2.57422C13.8822 2.57422 14.2582 2.6716 14.5924 2.85719L23.0468 7.55294C23.222 7.65041 23.3681 7.79296 23.4697 7.96584C23.5714 8.13872 23.625 8.33563 23.625 8.53619V17.8006C23.6249 18.2018 23.5175 18.5957 23.314 18.9415C23.1104 19.2872 22.8181 19.5723 22.4674 19.7671L14.5924 24.1433C14.2582 24.3289 13.8822 24.4263 13.5 24.4263C13.1178 24.4263 12.7418 24.3289 12.4076 24.1433L4.53262 19.7671C4.18202 19.5724 3.88984 19.2875 3.6863 18.9419C3.48277 18.5964 3.3753 18.2027 3.375 17.8017V8.53619C3.37499 8.33563 3.4286 8.13872 3.53027 7.96584C3.63194 7.79296 3.77797 7.65041 3.95325 7.55294L12.4087 2.85719H12.4076Z" stroke="#394149" stroke-width="2" stroke-linecap="round" stroke-linejoin="round"/>
<path d="M13.5 13.5V24.75M3.375 7.875L13.5 13.5L3.375 7.875ZM13.5 13.5L23.625 7.875L13.5 13.5Z" stroke="#394149" stroke-width="2" stroke-linejoin="round"/>
<path d="M6.75 13.869L10.125 15.75M8.4375 10.6875L18.5625 5.0625L8.4375 10.6875Z" stroke="#394149" stroke-width="2" stroke-linecap="round" stroke-linejoin="round"/>
</svg>
