<svg width="37" height="38" viewBox="0 0 37 38" fill="none" xmlns="http://www.w3.org/2000/svg">
<path d="M7.65625 11.1016H28.7701C29.198 11.1016 29.621 11.1912 30.0121 11.3648C30.4031 11.5383 30.7535 11.7918 31.0405 12.109C31.3276 12.4263 31.545 12.8001 31.6788 13.2065C31.8125 13.6129 31.8596 14.0428 31.817 14.4685L30.8984 23.6551C30.8228 24.4107 30.4692 25.1113 29.9062 25.6208C29.3431 26.1304 28.6109 26.4125 27.8515 26.4126H13.2295C12.5213 26.4129 11.8349 26.1677 11.2872 25.7188C10.7394 25.2699 10.3642 24.645 10.2254 23.9506L7.65625 11.1016Z" stroke="white" stroke-width="3" stroke-linejoin="round"/>
<path d="M24.4979 32.5364H27.5601M7.65581 11.101L6.41561 6.13561C6.33267 5.80451 6.14147 5.51062 5.87239 5.30063C5.60331 5.09063 5.27177 4.97657 4.93044 4.97656H3.0625L7.65581 11.101ZM12.2491 32.5364H15.3113H12.2491Z" stroke="white" stroke-width="3" stroke-linecap="round" stroke-linejoin="round"/>
</svg>
