<svg width="659" height="150" viewBox="0 0 659 150" fill="none" xmlns="http://www.w3.org/2000/svg">
<path d="M25.055 25.795C27.4817 26.2283 29.54 27.5067 31.23 29.63C32.92 31.7533 33.765 34.1583 33.765 36.845C33.765 39.1417 33.1583 41.2217 31.945 43.085C30.775 44.905 29.0633 46.3567 26.81 47.44C24.5567 48.48 21.935 49 18.945 49H0.875V3.825H18.1C21.1767 3.825 23.82 4.345 26.03 5.385C28.24 6.425 29.9083 7.83333 31.035 9.61C32.1617 11.3433 32.725 13.2933 32.725 15.46C32.725 18.06 32.0317 20.2267 30.645 21.96C29.2583 23.6933 27.395 24.9717 25.055 25.795ZM8.285 22.805H17.45C19.8767 22.805 21.7617 22.2633 23.105 21.18C24.4917 20.0533 25.185 18.45 25.185 16.37C25.185 14.3333 24.4917 12.7517 23.105 11.625C21.7617 10.455 19.8767 9.87 17.45 9.87H8.285V22.805ZM18.295 42.955C20.8083 42.955 22.78 42.3483 24.21 41.135C25.64 39.9217 26.355 38.2317 26.355 36.065C26.355 33.855 25.5967 32.1 24.08 30.8C22.5633 29.5 20.5483 28.85 18.035 28.85H8.285V42.955H18.295ZM74.6424 30.215C74.6424 31.5583 74.5557 32.7717 74.3824 33.855H47.0174C47.234 36.715 48.2957 39.0117 50.2024 40.745C52.1091 42.4783 54.4491 43.345 57.2224 43.345C61.2091 43.345 64.0257 41.6767 65.6724 38.34H73.6674C72.5841 41.6333 70.6124 44.3417 67.7524 46.465C64.9357 48.545 61.4257 49.585 57.2224 49.585C53.7991 49.585 50.7224 48.8267 47.9924 47.31C45.3057 45.75 43.1824 43.5833 41.6224 40.81C40.1057 37.9933 39.3474 34.7433 39.3474 31.06C39.3474 27.3767 40.084 24.1483 41.5574 21.375C43.074 18.5583 45.1757 16.3917 47.8624 14.875C50.5924 13.3583 53.7124 12.6 57.2224 12.6C60.6024 12.6 63.6141 13.3367 66.2574 14.81C68.9007 16.2833 70.9591 18.3633 72.4324 21.05C73.9057 23.6933 74.6424 26.7483 74.6424 30.215ZM66.9074 27.875C66.8641 25.145 65.8891 22.9567 63.9824 21.31C62.0757 19.6633 59.7141 18.84 56.8974 18.84C54.3407 18.84 52.1524 19.6633 50.3324 21.31C48.5124 22.9133 47.429 25.1017 47.0824 27.875H66.9074ZM79.4646 30.93C79.4646 27.3333 80.2012 24.1483 81.6746 21.375C83.1912 18.6017 85.2279 16.4567 87.7846 14.94C90.3846 13.38 93.2446 12.6 96.3646 12.6C99.1812 12.6 101.63 13.1633 103.71 14.29C105.833 15.3733 107.523 16.7383 108.78 18.385V13.185H116.255V49H108.78V43.67C107.523 45.36 105.811 46.7683 103.645 47.895C101.478 49.0217 99.0079 49.585 96.2346 49.585C93.1579 49.585 90.3412 48.805 87.7846 47.245C85.2279 45.6417 83.1912 43.4317 81.6746 40.615C80.2012 37.755 79.4646 34.5267 79.4646 30.93ZM108.78 31.06C108.78 28.59 108.26 26.445 107.22 24.625C106.223 22.805 104.901 21.4183 103.255 20.465C101.608 19.5117 99.8312 19.035 97.9246 19.035C96.0179 19.035 94.2412 19.5117 92.5946 20.465C90.9479 21.375 89.6046 22.74 88.5646 24.56C87.5679 26.3367 87.0696 28.46 87.0696 30.93C87.0696 33.4 87.5679 35.5667 88.5646 37.43C89.6046 39.2933 90.9479 40.7233 92.5946 41.72C94.2846 42.6733 96.0612 43.15 97.9246 43.15C99.8312 43.15 101.608 42.6733 103.255 41.72C104.901 40.7667 106.223 39.38 107.22 37.56C108.26 35.6967 108.78 33.53 108.78 31.06ZM158.422 13.185V49H151.012V44.775C149.842 46.2483 148.304 47.4183 146.397 48.285C144.534 49.1083 142.541 49.52 140.417 49.52C137.601 49.52 135.066 48.935 132.812 47.765C130.602 46.595 128.847 44.8617 127.547 42.565C126.291 40.2683 125.662 37.495 125.662 34.245V13.185H133.007V33.14C133.007 36.3467 133.809 38.8167 135.412 40.55C137.016 42.24 139.204 43.085 141.977 43.085C144.751 43.085 146.939 42.24 148.542 40.55C150.189 38.8167 151.012 36.3467 151.012 33.14V13.185H158.422ZM176.844 19.23V39.055C176.844 40.3983 177.148 41.3733 177.754 41.98C178.404 42.5433 179.488 42.825 181.004 42.825H185.554V49H179.704C176.368 49 173.811 48.22 172.034 46.66C170.258 45.1 169.369 42.565 169.369 39.055V19.23H165.144V13.185H169.369V4.28H176.844V13.185H185.554V19.23H176.844ZM224.624 13.185L202.654 65.835H194.984L202.264 48.415L188.159 13.185H196.414L206.489 40.485L216.954 13.185H224.624ZM278.691 17.28C278.691 19.5767 278.149 21.7433 277.066 23.78C275.982 25.8167 274.249 27.485 271.866 28.785C269.482 30.0417 266.427 30.67 262.701 30.67H254.511V49H247.101V3.825H262.701C266.167 3.825 269.092 4.43166 271.476 5.645C273.902 6.815 275.701 8.41833 276.871 10.455C278.084 12.4917 278.691 14.7667 278.691 17.28ZM262.701 24.625C265.517 24.625 267.619 23.9967 269.006 22.74C270.392 21.44 271.086 19.62 271.086 17.28C271.086 12.34 268.291 9.87 262.701 9.87H254.511V24.625H262.701ZM293.168 18.385C294.251 16.565 295.681 15.1567 297.458 14.16C299.278 13.12 301.423 12.6 303.893 12.6V20.27H302.008C299.104 20.27 296.894 21.0067 295.378 22.48C293.904 23.9533 293.168 26.51 293.168 30.15V49H285.758V13.185H293.168V18.385ZM326.239 49.585C322.859 49.585 319.804 48.8267 317.074 47.31C314.344 45.75 312.199 43.5833 310.639 40.81C309.079 37.9933 308.299 34.7433 308.299 31.06C308.299 27.42 309.101 24.1917 310.704 21.375C312.307 18.5583 314.496 16.3917 317.269 14.875C320.042 13.3583 323.141 12.6 326.564 12.6C329.987 12.6 333.086 13.3583 335.859 14.875C338.632 16.3917 340.821 18.5583 342.424 21.375C344.027 24.1917 344.829 27.42 344.829 31.06C344.829 34.7 344.006 37.9283 342.359 40.745C340.712 43.5617 338.459 45.75 335.599 47.31C332.782 48.8267 329.662 49.585 326.239 49.585ZM326.239 43.15C328.146 43.15 329.922 42.695 331.569 41.785C333.259 40.875 334.624 39.51 335.664 37.69C336.704 35.87 337.224 33.66 337.224 31.06C337.224 28.46 336.726 26.2717 335.729 24.495C334.732 22.675 333.411 21.31 331.764 20.4C330.117 19.49 328.341 19.035 326.434 19.035C324.527 19.035 322.751 19.49 321.104 20.4C319.501 21.31 318.222 22.675 317.269 24.495C316.316 26.2717 315.839 28.46 315.839 31.06C315.839 34.9167 316.814 37.9067 318.764 40.03C320.757 42.11 323.249 43.15 326.239 43.15ZM349.684 30.93C349.684 27.3333 350.421 24.1483 351.894 21.375C353.411 18.6017 355.448 16.4567 358.004 14.94C360.604 13.38 363.486 12.6 366.649 12.6C368.989 12.6 371.286 13.12 373.539 14.16C375.836 15.1567 377.656 16.5 378.999 18.19V0.899999H386.474V49H378.999V43.605C377.786 45.3383 376.096 46.7683 373.929 47.895C371.806 49.0217 369.358 49.585 366.584 49.585C363.464 49.585 360.604 48.805 358.004 47.245C355.448 45.6417 353.411 43.4317 351.894 40.615C350.421 37.755 349.684 34.5267 349.684 30.93ZM378.999 31.06C378.999 28.59 378.479 26.445 377.439 24.625C376.443 22.805 375.121 21.4183 373.474 20.465C371.828 19.5117 370.051 19.035 368.144 19.035C366.238 19.035 364.461 19.5117 362.814 20.465C361.168 21.375 359.824 22.74 358.784 24.56C357.788 26.3367 357.289 28.46 357.289 30.93C357.289 33.4 357.788 35.5667 358.784 37.43C359.824 39.2933 361.168 40.7233 362.814 41.72C364.504 42.6733 366.281 43.15 368.144 43.15C370.051 43.15 371.828 42.6733 373.474 41.72C375.121 40.7667 376.443 39.38 377.439 37.56C378.479 35.6967 378.999 33.53 378.999 31.06ZM428.642 13.185V49H421.232V44.775C420.062 46.2483 418.524 47.4183 416.617 48.285C414.754 49.1083 412.76 49.52 410.637 49.52C407.82 49.52 405.285 48.935 403.032 47.765C400.822 46.595 399.067 44.8617 397.767 42.565C396.51 40.2683 395.882 37.495 395.882 34.245V13.185H403.227V33.14C403.227 36.3467 404.029 38.8167 405.632 40.55C407.235 42.24 409.424 43.085 412.197 43.085C414.97 43.085 417.159 42.24 418.762 40.55C420.409 38.8167 421.232 36.3467 421.232 33.14V13.185H428.642ZM435.949 31.06C435.949 27.3767 436.686 24.1483 438.159 21.375C439.676 18.5583 441.756 16.3917 444.399 14.875C447.042 13.3583 450.076 12.6 453.499 12.6C457.832 12.6 461.407 13.64 464.224 15.72C467.084 17.7567 469.012 20.6817 470.009 24.495H462.014C461.364 22.7183 460.324 21.3317 458.894 20.335C457.464 19.3383 455.666 18.84 453.499 18.84C450.466 18.84 448.039 19.9233 446.219 22.09C444.442 24.2133 443.554 27.2033 443.554 31.06C443.554 34.9167 444.442 37.9283 446.219 40.095C448.039 42.2617 450.466 43.345 453.499 43.345C457.789 43.345 460.627 41.46 462.014 37.69H470.009C468.969 41.33 467.019 44.2333 464.159 46.4C461.299 48.5233 457.746 49.585 453.499 49.585C450.076 49.585 447.042 48.8267 444.399 47.31C441.756 45.75 439.676 43.5833 438.159 40.81C436.686 37.9933 435.949 34.7433 435.949 31.06ZM486.039 19.23V39.055C486.039 40.3983 486.342 41.3733 486.949 41.98C487.599 42.5433 488.682 42.825 490.199 42.825H494.749V49H488.899C485.562 49 483.005 48.22 481.229 46.66C479.452 45.1 478.564 42.565 478.564 39.055V19.23H474.339V13.185H478.564V4.28H486.039V13.185H494.749V19.23H486.039ZM547.648 3.825V9.87H535.623V49H528.213V9.87H516.123V3.825H547.648ZM573.677 12.6C576.407 12.6 578.834 13.185 580.957 14.355C583.124 15.525 584.814 17.2583 586.027 19.555C587.284 21.8517 587.912 24.625 587.912 27.875V49H580.567V28.98C580.567 25.7733 579.766 23.325 578.162 21.635C576.559 19.9017 574.371 19.035 571.597 19.035C568.824 19.035 566.614 19.9017 564.967 21.635C563.364 23.325 562.562 25.7733 562.562 28.98V49H555.152V0.899999H562.562V17.345C563.819 15.8283 565.401 14.6583 567.307 13.835C569.257 13.0117 571.381 12.6 573.677 12.6ZM594.894 30.93C594.894 27.3333 595.631 24.1483 597.104 21.375C598.621 18.6017 600.658 16.4567 603.214 14.94C605.814 13.38 608.674 12.6 611.794 12.6C614.611 12.6 617.059 13.1633 619.139 14.29C621.263 15.3733 622.953 16.7383 624.209 18.385V13.185H631.684V49H624.209V43.67C622.953 45.36 621.241 46.7683 619.074 47.895C616.908 49.0217 614.438 49.585 611.664 49.585C608.588 49.585 605.771 48.805 603.214 47.245C600.658 45.6417 598.621 43.4317 597.104 40.615C595.631 37.755 594.894 34.5267 594.894 30.93ZM624.209 31.06C624.209 28.59 623.689 26.445 622.649 24.625C621.653 22.805 620.331 21.4183 618.684 20.465C617.038 19.5117 615.261 19.035 613.354 19.035C611.448 19.035 609.671 19.5117 608.024 20.465C606.378 21.375 605.034 22.74 603.994 24.56C602.998 26.3367 602.499 28.46 602.499 30.93C602.499 33.4 602.998 35.5667 603.994 37.43C605.034 39.2933 606.378 40.7233 608.024 41.72C609.714 42.6733 611.491 43.15 613.354 43.15C615.261 43.15 617.038 42.6733 618.684 41.72C620.331 40.7667 621.653 39.38 622.649 37.56C623.689 35.6967 624.209 33.53 624.209 31.06ZM650.062 19.23V39.055C650.062 40.3983 650.365 41.3733 650.972 41.98C651.622 42.5433 652.705 42.825 654.222 42.825H658.772V49H652.922C649.585 49 647.029 48.22 645.252 46.66C643.475 45.1 642.587 42.565 642.587 39.055V19.23H638.362V13.185H642.587V4.28H650.062V13.185H658.772V19.23H650.062ZM24.34 133L13.94 114.93H8.285V133H0.875V87.825H16.475C19.9417 87.825 22.8667 88.4317 25.25 89.645C27.6767 90.8583 29.475 92.4833 30.645 94.52C31.8583 96.5567 32.465 98.8317 32.465 101.345C32.465 104.292 31.5983 106.978 29.865 109.405C28.175 111.788 25.5533 113.413 22 114.28L33.18 133H24.34ZM8.285 109.015H16.475C19.2483 109.015 21.3283 108.322 22.715 106.935C24.145 105.548 24.86 103.685 24.86 101.345C24.86 99.005 24.1667 97.185 22.78 95.885C21.3933 94.5417 19.2917 93.87 16.475 93.87H8.285V109.015ZM74.7693 114.215C74.7693 115.558 74.6827 116.772 74.5093 117.855H47.1443C47.361 120.715 48.4227 123.012 50.3293 124.745C52.236 126.478 54.576 127.345 57.3493 127.345C61.336 127.345 64.1527 125.677 65.7993 122.34H73.7943C72.711 125.633 70.7393 128.342 67.8793 130.465C65.0627 132.545 61.5527 133.585 57.3493 133.585C53.926 133.585 50.8493 132.827 48.1193 131.31C45.4327 129.75 43.3093 127.583 41.7493 124.81C40.2327 121.993 39.4743 118.743 39.4743 115.06C39.4743 111.377 40.211 108.148 41.6843 105.375C43.201 102.558 45.3027 100.392 47.9893 98.875C50.7193 97.3583 53.8393 96.6 57.3493 96.6C60.7293 96.6 63.741 97.3367 66.3843 98.81C69.0277 100.283 71.086 102.363 72.5593 105.05C74.0327 107.693 74.7693 110.748 74.7693 114.215ZM67.0343 111.875C66.991 109.145 66.016 106.957 64.1093 105.31C62.2027 103.663 59.841 102.84 57.0243 102.84C54.4677 102.84 52.2793 103.663 50.4593 105.31C48.6393 106.913 47.556 109.102 47.2093 111.875H67.0343ZM79.5915 114.93C79.5915 111.333 80.3282 108.148 81.8015 105.375C83.3182 102.602 85.3549 100.457 87.9115 98.94C90.5115 97.38 93.3715 96.6 96.4915 96.6C99.3082 96.6 101.757 97.1633 103.837 98.29C105.96 99.3733 107.65 100.738 108.907 102.385V97.185H116.382V133H108.907V127.67C107.65 129.36 105.938 130.768 103.772 131.895C101.605 133.022 99.1349 133.585 96.3615 133.585C93.2849 133.585 90.4682 132.805 87.9115 131.245C85.3549 129.642 83.3182 127.432 81.8015 124.615C80.3282 121.755 79.5915 118.527 79.5915 114.93ZM108.907 115.06C108.907 112.59 108.387 110.445 107.347 108.625C106.35 106.805 105.028 105.418 103.382 104.465C101.735 103.512 99.9582 103.035 98.0515 103.035C96.1449 103.035 94.3682 103.512 92.7215 104.465C91.0749 105.375 89.7315 106.74 88.6915 108.56C87.6949 110.337 87.1965 112.46 87.1965 114.93C87.1965 117.4 87.6949 119.567 88.6915 121.43C89.7315 123.293 91.0749 124.723 92.7215 125.72C94.4115 126.673 96.1882 127.15 98.0515 127.15C99.9582 127.15 101.735 126.673 103.382 125.72C105.028 124.767 106.35 123.38 107.347 121.56C108.387 119.697 108.907 117.53 108.907 115.06ZM133.524 84.9V133H126.114V84.9H133.524ZM150.663 84.9V133H143.253V84.9H150.663ZM192.632 97.185L170.662 149.835H162.992L170.272 132.415L156.167 97.185H164.422L174.497 124.485L184.962 97.185H192.632Z" fill="#394149"/>
<path d="M290.818 87.825L277.428 133H269.043L259.553 98.81L249.478 133L241.158 133.065L228.353 87.825H236.218L245.578 124.615L255.718 87.825H264.038L273.463 124.42L282.888 87.825H290.818ZM312.465 133.585C309.085 133.585 306.03 132.827 303.3 131.31C300.57 129.75 298.425 127.583 296.865 124.81C295.305 121.993 294.525 118.743 294.525 115.06C294.525 111.42 295.326 108.192 296.93 105.375C298.533 102.558 300.721 100.392 303.495 98.875C306.268 97.3583 309.366 96.6 312.79 96.6C316.213 96.6 319.311 97.3583 322.085 98.875C324.858 100.392 327.046 102.558 328.65 105.375C330.253 108.192 331.055 111.42 331.055 115.06C331.055 118.7 330.231 121.928 328.585 124.745C326.938 127.562 324.685 129.75 321.825 131.31C319.008 132.827 315.888 133.585 312.465 133.585ZM312.465 127.15C314.371 127.15 316.148 126.695 317.795 125.785C319.485 124.875 320.85 123.51 321.89 121.69C322.93 119.87 323.45 117.66 323.45 115.06C323.45 112.46 322.951 110.272 321.955 108.495C320.958 106.675 319.636 105.31 317.99 104.4C316.343 103.49 314.566 103.035 312.66 103.035C310.753 103.035 308.976 103.49 307.33 104.4C305.726 105.31 304.448 106.675 303.495 108.495C302.541 110.272 302.065 112.46 302.065 115.06C302.065 118.917 303.04 121.907 304.99 124.03C306.983 126.11 309.475 127.15 312.465 127.15ZM345.79 102.385C346.873 100.565 348.303 99.1567 350.08 98.16C351.9 97.12 354.045 96.6 356.515 96.6V104.27H354.63C351.727 104.27 349.517 105.007 348 106.48C346.527 107.953 345.79 110.51 345.79 114.15V133H338.38V97.185H345.79V102.385ZM377.496 115.125L394.006 133H383.996L370.736 117.595V133H363.326V84.9H370.736V112.85L383.736 97.185H394.006L377.496 115.125ZM412.317 133.585C409.501 133.585 406.966 133.087 404.712 132.09C402.502 131.05 400.747 129.663 399.447 127.93C398.147 126.153 397.454 124.182 397.367 122.015H405.037C405.167 123.532 405.882 124.81 407.182 125.85C408.526 126.847 410.194 127.345 412.187 127.345C414.267 127.345 415.871 126.955 416.997 126.175C418.167 125.352 418.752 124.312 418.752 123.055C418.752 121.712 418.102 120.715 416.802 120.065C415.546 119.415 413.531 118.7 410.757 117.92C408.071 117.183 405.882 116.468 404.192 115.775C402.502 115.082 401.029 114.02 399.772 112.59C398.559 111.16 397.952 109.275 397.952 106.935C397.952 105.028 398.516 103.295 399.642 101.735C400.769 100.132 402.372 98.875 404.452 97.965C406.576 97.055 409.002 96.6 411.732 96.6C415.806 96.6 419.077 97.64 421.547 99.72C424.061 101.757 425.404 104.552 425.577 108.105H418.167C418.037 106.502 417.387 105.223 416.217 104.27C415.047 103.317 413.466 102.84 411.472 102.84C409.522 102.84 408.027 103.208 406.987 103.945C405.947 104.682 405.427 105.657 405.427 106.87C405.427 107.823 405.774 108.625 406.467 109.275C407.161 109.925 408.006 110.445 409.002 110.835C409.999 111.182 411.472 111.637 413.422 112.2C416.022 112.893 418.146 113.608 419.792 114.345C421.482 115.038 422.934 116.078 424.147 117.465C425.361 118.852 425.989 120.693 426.032 122.99C426.032 125.027 425.469 126.847 424.342 128.45C423.216 130.053 421.612 131.31 419.532 132.22C417.496 133.13 415.091 133.585 412.317 133.585Z" fill="#C28566"/>
</svg>
