<svg width="161" height="62" viewBox="0 0 161 62" fill="none" xmlns="http://www.w3.org/2000/svg">
<rect width="161" height="62" fill="#C28566"/>
<g clip-path="url(#clip0_6_6731)">
<path d="M140 30.0336C139.399 29.9866 138.849 29.9866 138.248 29.9866C137.647 29.9866 137.096 29.9396 136.496 29.8926C135.194 29.7987 133.942 29.6577 132.641 29.5638C130.188 29.3758 127.684 29.1879 125.231 29.1409C122.978 29.047 120.675 29 118.423 29C117.822 29 117.221 29 116.67 29C114.417 29.047 112.165 29.047 109.912 29.094C104.655 29.2349 99.3483 29.3758 94.0916 29.6107C88.9351 29.8456 83.7785 30.0805 78.672 30.3624C76.1689 30.5034 73.6156 30.6443 71.1124 30.7852C68.3589 31.0201 65.6054 31.1611 62.902 31.349C57.2448 31.7718 51.6377 32.1477 45.9805 32.5705C41.0742 32.9463 36.2181 33.4631 31.3619 34.1208C28.258 34.5906 25.1039 35.1074 22 35.6242C25.5545 35.8591 29.1591 35.953 32.7637 36C35.1167 36 37.4697 35.953 39.7726 35.906C41.2745 35.8591 42.7764 35.7651 44.3284 35.6711C45.2796 35.6242 46.1807 35.5302 47.0819 35.4362C49.535 35.2013 52.0382 35.0134 54.4913 34.7785C57.3449 34.5436 60.1485 34.2617 63.0021 34.0268C65.9058 33.7919 68.8596 33.557 71.7633 33.3221C74.3666 33.1342 77.0199 32.9463 79.6733 32.7584C82.2266 32.5705 84.8299 32.4295 87.3831 32.2886C89.9864 32.1477 92.5397 32.0067 95.143 31.8658C97.7964 31.7248 100.4 31.6779 103.053 31.5839C107.859 31.396 112.665 31.349 117.521 31.302C120.225 31.302 122.878 31.2081 125.582 31.1141C128.235 31.0201 130.888 30.9262 133.492 30.7852C134.543 30.7383 135.644 30.6913 136.696 30.5973C137.196 30.5503 137.747 30.5034 138.248 30.4094C138.698 30.3154 139.149 30.1745 139.599 30.1275C139.75 30.0805 139.85 30.0336 140 30.0336Z" fill="#FAEBE3"/>
</g>
<path d="M33.688 39.154C32.6613 39.154 31.7373 38.978 30.916 38.626C30.0947 38.2593 29.4493 37.746 28.98 37.086C28.5107 36.426 28.276 35.656 28.276 34.776H30.96C31.0187 35.436 31.2753 35.9787 31.73 36.404C32.1993 36.8293 32.852 37.042 33.688 37.042C34.5533 37.042 35.228 36.8367 35.712 36.426C36.196 36.0007 36.438 35.458 36.438 34.798C36.438 34.2847 36.284 33.8667 35.976 33.544C35.6827 33.2213 35.3087 32.972 34.854 32.796C34.414 32.62 33.798 32.4293 33.006 32.224C32.0087 31.96 31.1947 31.696 30.564 31.432C29.948 31.1533 29.42 30.728 28.98 30.156C28.54 29.584 28.32 28.8213 28.32 27.868C28.32 26.988 28.54 26.218 28.98 25.558C29.42 24.898 30.036 24.392 30.828 24.04C31.62 23.688 32.5367 23.512 33.578 23.512C35.0593 23.512 36.2693 23.886 37.208 24.634C38.1613 25.3673 38.6893 26.3793 38.792 27.67H36.02C35.976 27.1127 35.712 26.636 35.228 26.24C34.744 25.844 34.106 25.646 33.314 25.646C32.5953 25.646 32.0087 25.8293 31.554 26.196C31.0993 26.5627 30.872 27.0907 30.872 27.78C30.872 28.2493 31.0113 28.638 31.29 28.946C31.5833 29.2393 31.95 29.474 32.39 29.65C32.83 29.826 33.4313 30.0167 34.194 30.222C35.206 30.5007 36.0273 30.7793 36.658 31.058C37.3033 31.3367 37.846 31.7693 38.286 32.356C38.7407 32.928 38.968 33.698 38.968 34.666C38.968 35.4433 38.7553 36.1767 38.33 36.866C37.9193 37.5553 37.3107 38.1127 36.504 38.538C35.712 38.9487 34.7733 39.154 33.688 39.154ZM46.9433 25.272C46.4887 25.272 46.1073 25.118 45.7993 24.81C45.4913 24.502 45.3373 24.1207 45.3373 23.666C45.3373 23.2113 45.4913 22.83 45.7993 22.522C46.1073 22.214 46.4887 22.06 46.9433 22.06C47.3833 22.06 47.7573 22.214 48.0653 22.522C48.3733 22.83 48.5273 23.2113 48.5273 23.666C48.5273 24.1207 48.3733 24.502 48.0653 24.81C47.7573 25.118 47.3833 25.272 46.9433 25.272ZM48.1753 26.878V39H45.6673V26.878H48.1753ZM60.0921 26.68C61.0308 26.68 61.8595 26.8707 62.5781 27.252C63.3115 27.6187 63.8835 28.0807 64.2941 28.638V26.878H66.8241V39.198C66.8241 40.3127 66.5895 41.3027 66.1201 42.168C65.6508 43.048 64.9688 43.7373 64.0741 44.236C63.1941 44.7347 62.1381 44.984 60.9061 44.984C59.2635 44.984 57.8995 44.5953 56.8141 43.818C55.7288 43.0553 55.1128 42.014 54.9661 40.694H57.4521C57.6428 41.3247 58.0461 41.8307 58.6621 42.212C59.2928 42.608 60.0408 42.806 60.9061 42.806C61.9181 42.806 62.7321 42.498 63.3481 41.882C63.9788 41.266 64.2941 40.3713 64.2941 39.198V37.174C63.8688 37.746 63.2895 38.23 62.5561 38.626C61.8375 39.0073 61.0161 39.198 60.0921 39.198C59.0361 39.198 58.0681 38.934 57.1881 38.406C56.3228 37.8633 55.6335 37.1153 55.1201 36.162C54.6215 35.194 54.3721 34.1013 54.3721 32.884C54.3721 31.6667 54.6215 30.5887 55.1201 29.65C55.6335 28.7113 56.3228 27.9853 57.1881 27.472C58.0681 26.944 59.0361 26.68 60.0921 26.68ZM64.2941 32.928C64.2941 32.092 64.1181 31.366 63.7661 30.75C63.4288 30.134 62.9815 29.6647 62.4241 29.342C61.8668 29.0193 61.2655 28.858 60.6201 28.858C59.9748 28.858 59.3735 29.0193 58.8161 29.342C58.2588 29.65 57.8041 30.112 57.4521 30.728C57.1148 31.3293 56.9461 32.048 56.9461 32.884C56.9461 33.72 57.1148 34.4533 57.4521 35.084C57.8041 35.7147 58.2588 36.1987 58.8161 36.536C59.3881 36.8587 59.9895 37.02 60.6201 37.02C61.2655 37.02 61.8668 36.8587 62.4241 36.536C62.9815 36.2133 63.4288 35.744 63.7661 35.128C64.1181 34.4973 64.2941 33.764 64.2941 32.928ZM79.9743 26.68C80.9276 26.68 81.7783 26.878 82.5263 27.274C83.2889 27.67 83.8829 28.2567 84.3083 29.034C84.7336 29.8113 84.9463 30.75 84.9463 31.85V39H82.4603V32.224C82.4603 31.1387 82.1889 30.31 81.6463 29.738C81.1036 29.1513 80.3629 28.858 79.4243 28.858C78.4856 28.858 77.7376 29.1513 77.1803 29.738C76.6376 30.31 76.3663 31.1387 76.3663 32.224V39H73.8583V26.878H76.3663V28.264C76.7769 27.7653 77.2976 27.3767 77.9283 27.098C78.5736 26.8193 79.2556 26.68 79.9743 26.68ZM103.826 23.71V33.456C103.826 34.6147 104.127 35.4873 104.728 36.074C105.344 36.6607 106.195 36.954 107.28 36.954C108.38 36.954 109.231 36.6607 109.832 36.074C110.448 35.4873 110.756 34.6147 110.756 33.456V23.71H113.264V33.412C113.264 34.6587 112.993 35.7147 112.45 36.58C111.908 37.4453 111.182 38.0907 110.272 38.516C109.363 38.9413 108.358 39.154 107.258 39.154C106.158 39.154 105.154 38.9413 104.244 38.516C103.35 38.0907 102.638 37.4453 102.11 36.58C101.582 35.7147 101.318 34.6587 101.318 33.412V23.71H103.826ZM122.778 28.66C123.203 28.1027 123.782 27.6333 124.516 27.252C125.249 26.8707 126.078 26.68 127.002 26.68C128.058 26.68 129.018 26.944 129.884 27.472C130.764 27.9853 131.453 28.7113 131.952 29.65C132.45 30.5887 132.7 31.6667 132.7 32.884C132.7 34.1013 132.45 35.194 131.952 36.162C131.453 37.1153 130.764 37.8633 129.884 38.406C129.018 38.934 128.058 39.198 127.002 39.198C126.078 39.198 125.256 39.0147 124.538 38.648C123.819 38.2667 123.232 37.7973 122.778 37.24V44.764H120.27V26.878H122.778V28.66ZM130.148 32.884C130.148 32.048 129.972 31.3293 129.62 30.728C129.282 30.112 128.828 29.65 128.256 29.342C127.698 29.0193 127.097 28.858 126.452 28.858C125.821 28.858 125.22 29.0193 124.648 29.342C124.09 29.6647 123.636 30.134 123.284 30.75C122.946 31.366 122.778 32.092 122.778 32.928C122.778 33.764 122.946 34.4973 123.284 35.128C123.636 35.744 124.09 36.2133 124.648 36.536C125.22 36.8587 125.821 37.02 126.452 37.02C127.097 37.02 127.698 36.8587 128.256 36.536C128.828 36.1987 129.282 35.7147 129.62 35.084C129.972 34.4533 130.148 33.72 130.148 32.884Z" fill="#FAEBE3"/>
<defs>
<clipPath id="clip0_6_6731">
<rect width="118" height="7" fill="white" transform="translate(22 29)"/>
</clipPath>
</defs>
</svg>
