<svg width="159" height="63" viewBox="0 0 159 63" fill="none" xmlns="http://www.w3.org/2000/svg">
<rect width="159" height="63" fill="#C28566"/>
<g clip-path="url(#clip0_6_6836)">
<path d="M139 32.0336C138.399 31.9866 137.849 31.9866 137.248 31.9866C136.647 31.9866 136.096 31.9396 135.496 31.8926C134.194 31.7987 132.942 31.6577 131.641 31.5638C129.188 31.3758 126.684 31.1879 124.231 31.1409C121.978 31.047 119.675 31 117.423 31C116.822 31 116.221 31 115.67 31C113.417 31.047 111.165 31.047 108.912 31.094C103.655 31.2349 98.3483 31.3758 93.0916 31.6107C87.9351 31.8456 82.7785 32.0805 77.672 32.3624C75.1689 32.5034 72.6156 32.6443 70.1124 32.7852C67.3589 33.0201 64.6054 33.1611 61.902 33.349C56.2448 33.7718 50.6377 34.1477 44.9805 34.5705C40.0742 34.9463 35.2181 35.4631 30.3619 36.1208C27.258 36.5906 24.1039 37.1074 21 37.6242C24.5545 37.8591 28.1591 37.953 31.7637 38C34.1167 38 36.4697 37.953 38.7726 37.906C40.2745 37.8591 41.7764 37.7651 43.3284 37.6711C44.2796 37.6242 45.1807 37.5302 46.0819 37.4362C48.535 37.2013 51.0382 37.0134 53.4913 36.7785C56.3449 36.5436 59.1485 36.2617 62.0021 36.0268C64.9058 35.7919 67.8596 35.557 70.7633 35.3221C73.3666 35.1342 76.0199 34.9463 78.6733 34.7584C81.2266 34.5705 83.8299 34.4295 86.3831 34.2886C88.9864 34.1477 91.5397 34.0067 94.143 33.8658C96.7964 33.7248 99.3997 33.6779 102.053 33.5839C106.859 33.396 111.665 33.349 116.521 33.302C119.225 33.302 121.878 33.2081 124.582 33.1141C127.235 33.0201 129.888 32.9262 132.492 32.7852C133.543 32.7383 134.644 32.6913 135.696 32.5973C136.196 32.5503 136.747 32.5034 137.248 32.4094C137.698 32.3154 138.149 32.1745 138.599 32.1275C138.75 32.0805 138.85 32.0336 139 32.0336Z" fill="#FAEBE3"/>
</g>
<path d="M33.158 26.734V31.222H38.438V33.268H33.158V37.954H39.098V40H30.65V24.688H39.098V26.734H33.158ZM51.1191 33.862L55.0351 40H52.1971L49.5791 35.886L47.1151 40H44.4971L48.4131 34.038L44.4971 27.878H47.3351L49.9531 31.992L52.4171 27.878H55.0351L51.1191 33.862ZM63.1536 29.66C63.579 29.1027 64.1583 28.6333 64.8916 28.252C65.625 27.8707 66.4536 27.68 67.3776 27.68C68.4336 27.68 69.3943 27.944 70.2596 28.472C71.1396 28.9853 71.829 29.7113 72.3276 30.65C72.8263 31.5887 73.0756 32.6667 73.0756 33.884C73.0756 35.1013 72.8263 36.194 72.3276 37.162C71.829 38.1153 71.1396 38.8633 70.2596 39.406C69.3943 39.934 68.4336 40.198 67.3776 40.198C66.4536 40.198 65.6323 40.0147 64.9136 39.648C64.195 39.2667 63.6083 38.7973 63.1536 38.24V45.764H60.6456V27.878H63.1536V29.66ZM70.5236 33.884C70.5236 33.048 70.3476 32.3293 69.9956 31.728C69.6583 31.112 69.2036 30.65 68.6316 30.342C68.0743 30.0193 67.473 29.858 66.8276 29.858C66.197 29.858 65.5956 30.0193 65.0236 30.342C64.4663 30.6647 64.0116 31.134 63.6596 31.75C63.3223 32.366 63.1536 33.092 63.1536 33.928C63.1536 34.764 63.3223 35.4973 63.6596 36.128C64.0116 36.744 64.4663 37.2133 65.0236 37.536C65.5956 37.8587 66.197 38.02 66.8276 38.02C67.473 38.02 68.0743 37.8587 68.6316 37.536C69.2036 37.1987 69.6583 36.7147 69.9956 36.084C70.3476 35.4533 70.5236 34.72 70.5236 33.884ZM81.8038 23.72V40H79.2958V23.72H81.8038ZM94.0946 40.198C92.9506 40.198 91.9166 39.9413 90.9926 39.428C90.0686 38.9 89.3426 38.1667 88.8146 37.228C88.2866 36.2747 88.0226 35.1747 88.0226 33.928C88.0226 32.696 88.2939 31.6033 88.8366 30.65C89.3792 29.6967 90.1199 28.9633 91.0586 28.45C91.9972 27.9367 93.0459 27.68 94.2046 27.68C95.3632 27.68 96.4119 27.9367 97.3506 28.45C98.2892 28.9633 99.0299 29.6967 99.5726 30.65C100.115 31.6033 100.387 32.696 100.387 33.928C100.387 35.16 100.108 36.2527 99.5506 37.206C98.9932 38.1593 98.2306 38.9 97.2626 39.428C96.3092 39.9413 95.2532 40.198 94.0946 40.198ZM94.0946 38.02C94.7399 38.02 95.3412 37.866 95.8986 37.558C96.4706 37.25 96.9326 36.788 97.2846 36.172C97.6366 35.556 97.8126 34.808 97.8126 33.928C97.8126 33.048 97.6439 32.3073 97.3066 31.706C96.9692 31.09 96.5219 30.628 95.9646 30.32C95.4072 30.012 94.8059 29.858 94.1606 29.858C93.5152 29.858 92.9139 30.012 92.3566 30.32C91.8139 30.628 91.3812 31.09 91.0586 31.706C90.7359 32.3073 90.5746 33.048 90.5746 33.928C90.5746 35.2333 90.9046 36.2453 91.5646 36.964C92.2392 37.668 93.0826 38.02 94.0946 38.02ZM109.114 29.638C109.481 29.022 109.965 28.5453 110.566 28.208C111.182 27.856 111.908 27.68 112.744 27.68V30.276H112.106C111.123 30.276 110.375 30.5253 109.862 31.024C109.363 31.5227 109.114 32.388 109.114 33.62V40H106.606V27.878H109.114V29.638ZM129.899 33.642C129.899 34.0967 129.87 34.5073 129.811 34.874H120.549C120.623 35.842 120.982 36.6193 121.627 37.206C122.273 37.7927 123.065 38.086 124.003 38.086C125.353 38.086 126.306 37.5213 126.863 36.392H129.569C129.203 37.5067 128.535 38.4233 127.567 39.142C126.614 39.846 125.426 40.198 124.003 40.198C122.845 40.198 121.803 39.9413 120.879 39.428C119.97 38.9 119.251 38.1667 118.723 37.228C118.21 36.2747 117.953 35.1747 117.953 33.928C117.953 32.6813 118.203 31.5887 118.701 30.65C119.215 29.6967 119.926 28.9633 120.835 28.45C121.759 27.9367 122.815 27.68 124.003 27.68C125.147 27.68 126.167 27.9293 127.061 28.428C127.956 28.9267 128.653 29.6307 129.151 30.54C129.65 31.4347 129.899 32.4687 129.899 33.642ZM127.281 32.85C127.267 31.926 126.937 31.1853 126.291 30.628C125.646 30.0707 124.847 29.792 123.893 29.792C123.028 29.792 122.287 30.0707 121.671 30.628C121.055 31.1707 120.689 31.9113 120.571 32.85H127.281Z" fill="#FAEBE3"/>
<defs>
<clipPath id="clip0_6_6836">
<rect width="118" height="7" fill="white" transform="translate(21 31)"/>
</clipPath>
</defs>
</svg>
