<svg width="176" height="62" viewBox="0 0 176 62" fill="none" xmlns="http://www.w3.org/2000/svg">
<rect width="176" height="62" fill="#C28566"/>
<g clip-path="url(#clip0_6_6647)">
<path d="M157 28.3289C156.297 28.2685 155.653 28.2685 154.951 28.2685C154.248 28.2685 153.604 28.2081 152.902 28.1477C151.379 28.0268 149.916 27.8456 148.393 27.7248C145.524 27.4832 142.597 27.2416 139.728 27.1812C137.093 27.0604 134.4 27 131.765 27C131.063 27 130.36 27 129.716 27C127.081 27.0604 124.447 27.0604 121.812 27.1208C115.664 27.302 109.458 27.4832 103.311 27.7852C97.28 28.0872 91.2495 28.3893 85.2775 28.7517C82.35 28.9329 79.364 29.1141 76.4366 29.2953C73.2164 29.5973 69.9962 29.7785 66.8345 30.0201C60.2185 30.5638 53.661 31.047 47.045 31.5906C41.3072 32.0738 35.6279 32.7383 29.9487 33.5839C26.3186 34.1879 22.63 34.8523 19 35.5168C23.157 35.8188 27.3725 35.9396 31.588 36C34.3398 36 37.0916 35.9396 39.7849 35.8792C41.5414 35.8188 43.2978 35.698 45.1129 35.5772C46.2253 35.5168 47.2792 35.396 48.333 35.2752C51.202 34.9732 54.1294 34.7315 56.9983 34.4295C60.3356 34.1275 63.6143 33.7651 66.9516 33.4631C70.3475 33.1611 73.8019 32.8591 77.1977 32.557C80.2423 32.3154 83.3454 32.0738 86.4484 31.8322C89.4344 31.5906 92.479 31.4094 95.465 31.2282C98.5096 31.047 101.496 30.8658 104.54 30.6846C107.643 30.5034 110.688 30.443 113.791 30.3221C119.412 30.0805 125.032 30.0201 130.712 29.9597C133.873 29.9597 136.976 29.8389 140.138 29.7181C143.241 29.5973 146.344 29.4765 149.389 29.2953C150.618 29.2349 151.906 29.1745 153.136 29.0537C153.721 28.9933 154.365 28.9329 154.951 28.8121C155.478 28.6913 156.005 28.5101 156.532 28.4497C156.707 28.3893 156.824 28.3289 157 28.3289Z" fill="#FAEBE3"/>
</g>
<path d="M26.688 39.154C25.6613 39.154 24.7373 38.978 23.916 38.626C23.0947 38.2593 22.4493 37.746 21.98 37.086C21.5107 36.426 21.276 35.656 21.276 34.776H23.96C24.0187 35.436 24.2753 35.9787 24.73 36.404C25.1993 36.8293 25.852 37.042 26.688 37.042C27.5533 37.042 28.228 36.8367 28.712 36.426C29.196 36.0007 29.438 35.458 29.438 34.798C29.438 34.2847 29.284 33.8667 28.976 33.544C28.6827 33.2213 28.3087 32.972 27.854 32.796C27.414 32.62 26.798 32.4293 26.006 32.224C25.0087 31.96 24.1947 31.696 23.564 31.432C22.948 31.1533 22.42 30.728 21.98 30.156C21.54 29.584 21.32 28.8213 21.32 27.868C21.32 26.988 21.54 26.218 21.98 25.558C22.42 24.898 23.036 24.392 23.828 24.04C24.62 23.688 25.5367 23.512 26.578 23.512C28.0593 23.512 29.2693 23.886 30.208 24.634C31.1613 25.3673 31.6893 26.3793 31.792 27.67H29.02C28.976 27.1127 28.712 26.636 28.228 26.24C27.744 25.844 27.106 25.646 26.314 25.646C25.5953 25.646 25.0087 25.8293 24.554 26.196C24.0993 26.5627 23.872 27.0907 23.872 27.78C23.872 28.2493 24.0113 28.638 24.29 28.946C24.5833 29.2393 24.95 29.474 25.39 29.65C25.83 29.826 26.4313 30.0167 27.194 30.222C28.206 30.5007 29.0273 30.7793 29.658 31.058C30.3033 31.3367 30.846 31.7693 31.286 32.356C31.7407 32.928 31.968 33.698 31.968 34.666C31.968 35.4433 31.7553 36.1767 31.33 36.866C30.9193 37.5553 30.3107 38.1127 29.504 38.538C28.712 38.9487 27.7733 39.154 26.688 39.154ZM44.9373 26.68C45.8613 26.68 46.6827 26.878 47.4013 27.274C48.1347 27.67 48.7067 28.2567 49.1173 29.034C49.5427 29.8113 49.7553 30.75 49.7553 31.85V39H47.2693V32.224C47.2693 31.1387 46.998 30.31 46.4553 29.738C45.9127 29.1513 45.172 28.858 44.2333 28.858C43.2947 28.858 42.5467 29.1513 41.9893 29.738C41.4467 30.31 41.1753 31.1387 41.1753 32.224V39H38.6673V22.72H41.1753V28.286C41.6007 27.7727 42.136 27.3767 42.7813 27.098C43.4413 26.8193 44.16 26.68 44.9373 26.68ZM61.9525 39.198C60.8085 39.198 59.7745 38.9413 58.8505 38.428C57.9265 37.9 57.2005 37.1667 56.6725 36.228C56.1445 35.2747 55.8805 34.1747 55.8805 32.928C55.8805 31.696 56.1518 30.6033 56.6945 29.65C57.2371 28.6967 57.9778 27.9633 58.9165 27.45C59.8551 26.9367 60.9038 26.68 62.0625 26.68C63.2211 26.68 64.2698 26.9367 65.2085 27.45C66.1471 27.9633 66.8878 28.6967 67.4305 29.65C67.9731 30.6033 68.2445 31.696 68.2445 32.928C68.2445 34.16 67.9658 35.2527 67.4085 36.206C66.8511 37.1593 66.0885 37.9 65.1205 38.428C64.1671 38.9413 63.1111 39.198 61.9525 39.198ZM61.9525 37.02C62.5978 37.02 63.1991 36.866 63.7565 36.558C64.3285 36.25 64.7905 35.788 65.1425 35.172C65.4945 34.556 65.6705 33.808 65.6705 32.928C65.6705 32.048 65.5018 31.3073 65.1645 30.706C64.8271 30.09 64.3798 29.628 63.8225 29.32C63.2651 29.012 62.6638 28.858 62.0185 28.858C61.3731 28.858 60.7718 29.012 60.2145 29.32C59.6718 29.628 59.2391 30.09 58.9165 30.706C58.5938 31.3073 58.4325 32.048 58.4325 32.928C58.4325 34.2333 58.7625 35.2453 59.4225 35.964C60.0971 36.668 60.9405 37.02 61.9525 37.02ZM76.9718 28.66C77.3971 28.1027 77.9764 27.6333 78.7098 27.252C79.4431 26.8707 80.2718 26.68 81.1958 26.68C82.2518 26.68 83.2124 26.944 84.0778 27.472C84.9578 27.9853 85.6471 28.7113 86.1458 29.65C86.6444 30.5887 86.8938 31.6667 86.8938 32.884C86.8938 34.1013 86.6444 35.194 86.1458 36.162C85.6471 37.1153 84.9578 37.8633 84.0778 38.406C83.2124 38.934 82.2518 39.198 81.1958 39.198C80.2718 39.198 79.4504 39.0147 78.7318 38.648C78.0131 38.2667 77.4264 37.7973 76.9718 37.24V44.764H74.4638V26.878H76.9718V28.66ZM84.3418 32.884C84.3418 32.048 84.1658 31.3293 83.8138 30.728C83.4764 30.112 83.0218 29.65 82.4498 29.342C81.8924 29.0193 81.2911 28.858 80.6458 28.858C80.0151 28.858 79.4138 29.0193 78.8418 29.342C78.2844 29.6647 77.8298 30.134 77.4778 30.75C77.1404 31.366 76.9718 32.092 76.9718 32.928C76.9718 33.764 77.1404 34.4973 77.4778 35.128C77.8298 35.744 78.2844 36.2133 78.8418 36.536C79.4138 36.8587 80.0151 37.02 80.6458 37.02C81.2911 37.02 81.8924 36.8587 82.4498 36.536C83.0218 36.1987 83.4764 35.7147 83.8138 35.084C84.1658 34.4533 84.3418 33.72 84.3418 32.884ZM115.131 39H112.623L105.077 27.582V39H102.569V23.688H105.077L112.623 35.084V23.688H115.131V39ZM127.422 39.198C126.278 39.198 125.244 38.9413 124.32 38.428C123.396 37.9 122.67 37.1667 122.142 36.228C121.614 35.2747 121.35 34.1747 121.35 32.928C121.35 31.696 121.622 30.6033 122.164 29.65C122.707 28.6967 123.448 27.9633 124.386 27.45C125.325 26.9367 126.374 26.68 127.532 26.68C128.691 26.68 129.74 26.9367 130.678 27.45C131.617 27.9633 132.358 28.6967 132.9 29.65C133.443 30.6033 133.714 31.696 133.714 32.928C133.714 34.16 133.436 35.2527 132.878 36.206C132.321 37.1593 131.558 37.9 130.59 38.428C129.637 38.9413 128.581 39.198 127.422 39.198ZM127.422 37.02C128.068 37.02 128.669 36.866 129.226 36.558C129.798 36.25 130.26 35.788 130.612 35.172C130.964 34.556 131.14 33.808 131.14 32.928C131.14 32.048 130.972 31.3073 130.634 30.706C130.297 30.09 129.85 29.628 129.292 29.32C128.735 29.012 128.134 28.858 127.488 28.858C126.843 28.858 126.242 29.012 125.684 29.32C125.142 29.628 124.709 30.09 124.386 30.706C124.064 31.3073 123.902 32.048 123.902 32.928C123.902 34.2333 124.232 35.2453 124.892 35.964C125.567 36.668 126.41 37.02 127.422 37.02ZM156.214 26.878L152.452 39H149.812L147.37 30.046L144.928 39H142.288L138.504 26.878H141.056L143.586 36.624L146.16 26.878H148.778L151.242 36.58L153.75 26.878H156.214Z" fill="#FAEBE3"/>
<defs>
<clipPath id="clip0_6_6647">
<rect width="138" height="9" fill="white" transform="translate(19 27)"/>
</clipPath>
</defs>
</svg>
