<svg width="74" height="45" viewBox="0 0 74 45" fill="none" xmlns="http://www.w3.org/2000/svg">
<path d="M0 22.5C0 10.0736 10.0736 0 22.5 0H74V45H22.5C10.0736 45 0 34.9264 0 22.5Z" fill="#C28566"/>
<path d="M50.958 25.3251C51.162 24.8391 50.579 24.4251 50.09 24.6411C49.1126 25.0701 48.0565 25.2908 46.989 25.2891C42.804 25.2891 39.412 21.9651 39.412 17.8641C39.4105 16.4794 39.8039 15.123 40.546 13.9541C40.83 13.5061 40.489 12.8861 39.969 13.0181C35.96 14.0411 33 17.6131 33 21.8621C33 26.9091 37.175 31.0001 42.326 31.0001C46.226 31.0001 49.566 28.6551 50.958 25.3251Z" stroke="white" stroke-width="2"/>
<path d="M45.6105 13.1028C45.0805 12.7488 44.4485 13.3808 44.8015 13.9108L45.4315 14.8558C45.6871 15.239 45.8235 15.6892 45.8235 16.1498C45.8235 16.6104 45.6871 17.0606 45.4315 17.4438L44.8015 18.3888C44.4485 18.9188 45.0815 19.5508 45.6115 19.1968L46.5555 18.5668C46.9387 18.3112 47.3889 18.1748 47.8495 18.1748C48.3101 18.1748 48.7604 18.3112 49.1435 18.5668L50.0885 19.1968C50.6185 19.5508 51.2505 18.9188 50.8965 18.3888L50.2665 17.4438C50.011 17.0606 49.8746 16.6104 49.8746 16.1498C49.8746 15.6892 50.011 15.239 50.2665 14.8558L50.8965 13.9108C51.2505 13.3808 50.6185 12.7488 50.0875 13.1028L49.1435 13.7328C48.7604 13.9884 48.3101 14.1247 47.8495 14.1247C47.3889 14.1247 46.9387 13.9884 46.5555 13.7328L45.6105 13.1028V13.1028Z" stroke="white" stroke-width="2"/>
</svg>
