<svg width="30" height="30" viewBox="0 0 30 30" fill="none" xmlns="http://www.w3.org/2000/svg">
<g id="carbon:delivery">
<path id="Vector" d="M3.75 15H15V16.875H3.75V15ZM1.875 10.3125H11.25V12.1875H1.875V10.3125Z" fill="#394149"/>
<path id="Vector_2" d="M28.0494 15.5681L25.2369 9.00563C25.1648 8.83695 25.0446 8.69319 24.8915 8.59219C24.7383 8.49119 24.5588 8.4374 24.3754 8.4375H21.5629V6.5625C21.5629 6.31386 21.4641 6.0754 21.2883 5.89959C21.1125 5.72377 20.874 5.625 20.6254 5.625H5.62537V7.5H19.6879V19.2712C19.2607 19.5193 18.8868 19.8495 18.5879 20.2427C18.2889 20.636 18.0708 21.0845 17.946 21.5625H12.0547C11.8266 20.6788 11.2839 19.9086 10.5285 19.3963C9.77307 18.884 8.85676 18.6649 7.95131 18.7799C7.04586 18.8949 6.21344 19.3362 5.61007 20.021C5.00671 20.7059 4.67383 21.5873 4.67383 22.5C4.67383 23.4127 5.00671 24.2941 5.61007 24.979C6.21344 25.6638 7.04586 26.1051 7.95131 26.2201C8.85676 26.3351 9.77307 26.116 10.5285 25.6037C11.2839 25.0914 11.8266 24.3212 12.0547 23.4375H17.946C18.1499 24.2421 18.6163 24.9557 19.2714 25.4655C19.9265 25.9752 20.7328 26.252 21.5629 26.252C22.3929 26.252 23.1993 25.9752 23.8543 25.4655C24.5094 24.9557 24.9758 24.2421 25.1797 23.4375H27.1879C27.4365 23.4375 27.675 23.3387 27.8508 23.1629C28.0266 22.9871 28.1254 22.7486 28.1254 22.5V15.9375C28.1254 15.8105 28.0996 15.6848 28.0494 15.5681ZM8.43787 24.375C8.06703 24.375 7.70452 24.265 7.39618 24.059C7.08784 23.853 6.84751 23.5601 6.7056 23.2175C6.56369 22.8749 6.52655 22.4979 6.5989 22.1342C6.67125 21.7705 6.84983 21.4364 7.11205 21.1742C7.37427 20.912 7.70837 20.7334 8.07208 20.661C8.43579 20.5887 8.81279 20.6258 9.15541 20.7677C9.49802 20.9096 9.79085 21.15 9.99688 21.4583C10.2029 21.7666 10.3129 22.1292 10.3129 22.5C10.3124 22.9971 10.1147 23.4738 9.76315 23.8253C9.41163 24.1768 8.935 24.3745 8.43787 24.375ZM21.5629 10.3125H23.7566L25.7666 15H21.5629V10.3125ZM21.5629 24.375C21.192 24.375 20.8295 24.265 20.5212 24.059C20.2128 23.853 19.9725 23.5601 19.8306 23.2175C19.6887 22.8749 19.6516 22.4979 19.7239 22.1342C19.7962 21.7705 19.9748 21.4364 20.237 21.1742C20.4993 20.912 20.8334 20.7334 21.1971 20.661C21.5608 20.5887 21.9378 20.6258 22.2804 20.7677C22.623 20.9096 22.9158 21.15 23.1219 21.4583C23.3279 21.7666 23.4379 22.1292 23.4379 22.5C23.4374 22.9971 23.2397 23.4738 22.8882 23.8253C22.5366 24.1768 22.06 24.3745 21.5629 24.375ZM26.2504 21.5625H25.1797C24.9732 20.7595 24.5061 20.0477 23.8515 19.5387C23.197 19.0297 22.392 18.7523 21.5629 18.75V16.875H26.2504V21.5625Z" fill="#394149"/>
</g>
</svg>
