<svg width="281" height="94" viewBox="0 0 281 94" fill="none" xmlns="http://www.w3.org/2000/svg">
<path opacity="0.2" d="M24.24 13.085C24.24 15.535 25.08 17.635 26.76 19.385C28.44 21.065 31.275 22.5 35.265 23.69C35.475 23.83 35.44 24.11 35.16 24.53C34.95 24.88 34.635 25.3 34.215 25.79C33.795 26.21 33.34 26.595 32.85 26.945C32.36 27.295 31.975 27.505 31.695 27.575C23.925 27.225 17.905 28.905 13.635 32.615C9.435 36.255 7.335 41.68 7.335 48.89C7.335 51.34 7.685 53.615 8.385 55.715C9.155 57.815 10.205 59.635 11.535 61.175C12.935 62.715 14.58 63.94 16.47 64.85C18.43 65.69 20.635 66.11 23.085 66.11C28.825 66.11 33.515 64.78 37.155 62.12C40.795 59.46 43.42 55.155 45.03 49.205C45.24 48.855 45.45 48.75 45.66 48.89C45.94 49.03 46.115 49.31 46.185 49.73C45.345 53.65 44.33 56.905 43.14 59.495C42.02 62.085 40.97 63.59 39.99 64.01C37.05 65.34 34.075 66.355 31.065 67.055C28.055 67.685 24.52 68 20.46 68C13.88 68 8.875 66.565 5.445 63.695C2.015 60.755 0.3 56.66 0.3 51.41C0.3 48.05 0.965 44.97 2.295 42.17C3.625 39.3 5.445 36.745 7.755 34.505C10.135 32.265 12.935 30.375 16.155 28.835C19.375 27.295 22.91 26.175 26.76 25.475C24.1 24.355 21.965 22.85 20.355 20.96C18.745 19.07 17.94 16.9 17.94 14.45C17.94 12.56 18.395 10.775 19.305 9.09499C20.285 7.345 21.685 5.84 23.505 4.58C25.325 3.32 27.565 2.305 30.225 1.535C32.885 0.764996 35.93 0.379994 39.36 0.379994C41.25 0.379994 43.035 0.554994 44.715 0.904994C46.395 1.255 47.865 1.71 49.125 2.27C50.455 2.83 51.47 3.495 52.17 4.26499C52.94 4.965 53.325 5.665 53.325 6.365C53.325 6.925 53.185 7.62499 52.905 8.465C52.695 9.305 52.38 10.145 51.96 10.985C51.61 11.825 51.225 12.63 50.805 13.4C50.455 14.1 50.175 14.59 49.965 14.87C49.755 15.01 49.545 15.01 49.335 14.87C49.125 14.73 49.055 14.52 49.125 14.24C49.545 13.47 49.825 12.63 49.965 11.72C50.105 10.81 49.965 9.865 49.545 8.885C48.705 7.135 47.13 5.665 44.82 4.475C42.58 3.215 39.92 2.585 36.84 2.585C32.64 2.585 29.49 3.565 27.39 5.525C25.29 7.415 24.24 9.935 24.24 13.085ZM75.868 61.175C76.078 61.035 76.288 61.035 76.498 61.175C76.708 61.315 76.778 61.525 76.708 61.805C75.728 63.345 74.433 64.78 72.823 66.11C71.213 67.37 69.533 68 67.783 68C66.033 68 64.528 67.23 63.268 65.69C62.008 64.08 60.853 61.56 59.803 58.13C57.983 61.35 56.128 63.8 54.238 65.48C52.418 67.16 50.598 68 48.778 68C47.658 68 47.098 67.265 47.098 65.795C47.098 63.835 47.693 61.77 48.883 59.6C49.023 59.46 49.198 59.46 49.408 59.6C49.618 59.74 49.688 59.915 49.618 60.125C49.198 61.175 49.128 62.05 49.408 62.75C49.758 63.45 50.353 63.8 51.193 63.8C53.713 63.8 56.408 61.35 59.278 56.45C58.788 54.7 58.473 53.09 58.333 51.62C58.193 50.08 58.088 48.75 58.018 47.63C57.948 46.51 57.843 45.67 57.703 45.11C57.633 44.48 57.423 44.165 57.073 44.165C56.513 44.165 55.953 44.585 55.393 45.425C54.833 46.195 54.378 47 54.028 47.84C53.888 48.05 53.678 48.12 53.398 48.05C53.188 47.98 53.118 47.84 53.188 47.63C53.328 47 53.608 46.335 54.028 45.635C54.448 44.865 54.938 44.165 55.498 43.535C56.128 42.835 56.793 42.275 57.493 41.855C58.263 41.365 59.068 41.12 59.908 41.12C60.678 41.12 61.238 41.435 61.588 42.065C62.008 42.695 62.323 43.5 62.533 44.48C62.743 45.46 62.883 46.615 62.953 47.945C63.093 49.275 63.268 50.605 63.478 51.935C65.158 48.855 67.048 46.3 69.148 44.27C71.318 42.17 73.383 41.12 75.343 41.12C76.323 41.12 77.128 41.435 77.758 42.065C78.388 42.625 78.703 43.395 78.703 44.375C78.703 45.005 78.458 45.845 77.968 46.895C77.548 47.945 77.093 48.855 76.603 49.625C76.393 49.765 76.183 49.765 75.973 49.625C75.833 49.485 75.763 49.31 75.763 49.1C76.463 47.98 76.638 47 76.288 46.16C76.008 45.32 75.343 44.9 74.293 44.9C72.473 44.9 70.723 45.565 69.043 46.895C67.433 48.225 65.718 50.57 63.898 53.93C64.738 57.29 65.788 59.985 67.048 62.015C68.378 64.045 69.708 65.06 71.038 65.06C71.948 65.06 72.788 64.675 73.558 63.905C74.398 63.135 75.168 62.225 75.868 61.175ZM102.349 41.12C103.889 41.12 105.114 41.89 106.024 43.43C107.004 44.9 107.494 46.65 107.494 48.68C107.494 51.55 106.899 54.175 105.709 56.555C104.589 58.865 103.084 60.895 101.194 62.645C99.3043 64.325 97.1343 65.655 94.6843 66.635C92.2343 67.545 89.7493 68 87.2293 68C86.0393 68 85.0243 67.86 84.1843 67.58C82.9943 71.01 81.9093 74.685 80.9293 78.605C80.0193 82.525 79.5643 86.165 79.5643 89.525C79.5643 91.135 80.3343 91.765 81.8743 91.415C82.4343 91.345 82.9593 91.205 83.4493 90.995C84.0093 90.785 84.5343 90.505 85.0243 90.155C85.3043 90.155 85.4443 90.295 85.4443 90.575C85.5143 90.855 85.4793 91.135 85.3393 91.415C84.9193 91.625 84.2893 91.835 83.4493 92.045C82.6793 92.325 81.8393 92.57 80.9293 92.78C80.0193 93.06 79.1093 93.27 78.1993 93.41C77.2893 93.55 76.5193 93.62 75.8893 93.62C75.3293 93.62 74.8743 93.48 74.5243 93.2C74.1743 92.92 73.9993 92.5 73.9993 91.94C73.9993 88.37 74.5943 84.205 75.7843 79.445C76.9043 74.755 78.3743 69.89 80.1943 64.85C79.7743 64.29 79.5293 63.835 79.4593 63.485C79.3893 63.205 79.9143 62.89 81.0343 62.54C81.9443 60.02 82.9243 57.5 83.9743 54.98C85.0243 52.46 86.0743 49.975 87.1243 47.525C88.4543 44.655 89.0493 42.87 88.9093 42.17C88.8393 41.47 88.4193 41.33 87.6493 41.75C86.5993 42.31 85.4443 43.29 84.1843 44.69C84.0443 44.83 83.8693 44.795 83.6593 44.585C83.5193 44.305 83.4843 44.095 83.5543 43.955C84.0443 43.395 84.6743 42.8 85.4443 42.17C86.2143 41.47 87.0193 40.84 87.8593 40.28C88.7693 39.72 89.6443 39.265 90.4843 38.915C91.3243 38.495 92.0593 38.285 92.6893 38.285C93.4593 38.285 93.9493 38.635 94.1593 39.335C94.4393 39.965 94.4043 40.665 94.0543 41.435C93.1443 43.885 91.9543 46.65 90.4843 49.73C91.1843 48.75 91.9893 47.77 92.8993 46.79C93.8093 45.74 94.7543 44.795 95.7343 43.955C96.7843 43.115 97.8693 42.45 98.9893 41.96C100.109 41.4 101.229 41.12 102.349 41.12ZM89.8543 65.9C91.5343 65.9 93.1093 65.585 94.5793 64.955C96.0493 64.255 97.3093 63.275 98.3593 62.015C99.4793 60.685 100.354 59.075 100.984 57.185C101.684 55.225 102.034 52.985 102.034 50.465C102.034 48.785 101.719 47.42 101.089 46.37C100.459 45.32 99.5493 44.795 98.3593 44.795C96.7493 44.795 94.8243 46.23 92.5843 49.1C90.3443 51.97 88.2793 55.995 86.3893 61.175C86.1793 61.735 85.9693 62.33 85.7593 62.96C85.5493 63.52 85.3393 64.115 85.1293 64.745C86.2493 65.515 87.8243 65.9 89.8543 65.9ZM133.421 46.37C133.421 50.36 128.136 53.09 117.566 54.56C117.496 55.26 117.426 55.96 117.356 56.66C117.356 57.36 117.356 58.095 117.356 58.865C117.356 60.685 117.776 62.085 118.616 63.065C119.456 64.045 120.786 64.535 122.606 64.535C123.936 64.535 125.301 64.15 126.701 63.38C128.101 62.61 129.221 61.63 130.061 60.44C130.341 60.3 130.551 60.37 130.691 60.65C130.831 60.86 130.866 61.105 130.796 61.385C129.396 63.205 127.611 64.78 125.441 66.11C123.341 67.37 121.066 68 118.616 68C116.166 68 114.381 67.405 113.261 66.215C112.211 64.955 111.686 63.205 111.686 60.965C111.686 58.795 112.141 56.555 113.051 54.245C113.961 51.865 115.116 49.695 116.516 47.735C117.986 45.775 119.631 44.2 121.451 43.01C123.341 41.75 125.231 41.12 127.121 41.12C129.011 41.12 130.516 41.68 131.636 42.8C132.826 43.85 133.421 45.04 133.421 46.37ZM124.286 43.85C122.676 43.85 121.276 44.62 120.086 46.16C118.966 47.63 118.196 49.94 117.776 53.09C121.136 52.74 123.621 52.11 125.231 51.2C126.841 50.22 127.646 49.03 127.646 47.63C127.646 46.58 127.331 45.705 126.701 45.005C126.071 44.235 125.266 43.85 124.286 43.85ZM147.733 44.165C147.733 45.215 147.628 46.405 147.418 47.735C147.208 49.065 146.928 50.43 146.578 51.83C147.978 48.47 149.518 45.845 151.198 43.955C152.878 42.065 154.698 41.12 156.658 41.12C157.708 41.12 158.513 41.365 159.073 41.855C159.633 42.345 159.913 42.975 159.913 43.745C159.913 44.445 159.633 45.355 159.073 46.475C158.583 47.595 158.163 48.365 157.813 48.785C157.673 48.855 157.533 48.855 157.393 48.785C157.253 48.645 157.183 48.505 157.183 48.365C157.183 47.875 156.973 47.455 156.553 47.105C156.203 46.755 155.643 46.58 154.873 46.58C152.423 46.58 150.183 48.26 148.153 51.62C146.193 54.91 144.373 59.67 142.693 65.9C142.623 66.25 142.378 66.565 141.958 66.845C141.538 67.055 141.048 67.265 140.488 67.475C139.998 67.615 139.473 67.755 138.913 67.895C138.353 67.965 137.863 68 137.443 68C136.673 68 136.463 67.58 136.813 66.74C137.443 65.27 138.038 63.695 138.598 62.015C139.228 60.265 139.788 58.515 140.278 56.765C140.768 55.015 141.188 53.335 141.538 51.725C141.888 50.045 142.168 48.505 142.378 47.105C142.518 46.055 142.553 45.25 142.483 44.69C142.483 44.13 142.203 43.85 141.643 43.85C140.943 43.85 140.208 44.165 139.438 44.795C138.738 45.355 138.073 46.09 137.443 47C137.163 47.21 136.883 47.245 136.603 47.105C136.393 46.895 136.358 46.65 136.498 46.37C136.918 45.81 137.408 45.25 137.968 44.69C138.598 44.06 139.263 43.5 139.963 43.01C140.733 42.45 141.503 41.995 142.273 41.645C143.113 41.295 143.953 41.12 144.793 41.12C145.913 41.12 146.683 41.4 147.103 41.96C147.523 42.45 147.733 43.185 147.733 44.165ZM172.399 36.605C172.189 36.815 171.944 36.815 171.664 36.605C171.454 36.395 171.279 36.115 171.139 35.765C170.999 35.345 170.929 34.925 170.929 34.505C170.929 34.015 171.034 33.595 171.244 33.245C172.014 32.265 173.134 31.04 174.604 29.57C176.144 28.03 177.719 26.735 179.329 25.685C179.469 25.615 179.644 25.685 179.854 25.895C180.064 26.035 180.134 26.175 180.064 26.315C178.594 27.645 177.194 29.255 175.864 31.145C174.534 32.965 173.379 34.785 172.399 36.605ZM161.164 48.47C160.954 48.61 160.779 48.575 160.639 48.365C160.499 48.085 160.464 47.84 160.534 47.63C163.124 45.53 166.729 43.36 171.349 41.12C171.909 41.12 172.189 41.435 172.189 42.065C171.279 43.675 170.369 45.425 169.459 47.315C168.619 49.205 167.849 51.095 167.149 52.985C166.519 54.805 165.994 56.59 165.574 58.34C165.154 60.02 164.944 61.42 164.944 62.54C164.944 63.94 165.434 64.64 166.414 64.64C167.184 64.64 167.919 64.325 168.619 63.695C169.389 62.995 170.264 62.12 171.244 61.07C171.384 60.93 171.559 60.965 171.769 61.175C171.979 61.315 172.014 61.56 171.874 61.91C170.334 63.73 168.794 65.2 167.254 66.32C165.784 67.44 164.349 68 162.949 68C160.499 68 159.274 66.845 159.274 64.535C159.274 63.275 159.449 61.805 159.799 60.125C160.219 58.375 160.744 56.625 161.374 54.875C162.074 53.055 162.809 51.305 163.579 49.625C164.419 47.875 165.259 46.37 166.099 45.11C165.329 45.53 164.454 46.055 163.474 46.685C162.564 47.315 161.794 47.91 161.164 48.47ZM198.021 46.37C198.021 50.36 192.736 53.09 182.166 54.56C182.096 55.26 182.026 55.96 181.956 56.66C181.956 57.36 181.956 58.095 181.956 58.865C181.956 60.685 182.376 62.085 183.216 63.065C184.056 64.045 185.386 64.535 187.206 64.535C188.536 64.535 189.901 64.15 191.301 63.38C192.701 62.61 193.821 61.63 194.661 60.44C194.941 60.3 195.151 60.37 195.291 60.65C195.431 60.86 195.466 61.105 195.396 61.385C193.996 63.205 192.211 64.78 190.041 66.11C187.941 67.37 185.666 68 183.216 68C180.766 68 178.981 67.405 177.861 66.215C176.811 64.955 176.286 63.205 176.286 60.965C176.286 58.795 176.741 56.555 177.651 54.245C178.561 51.865 179.716 49.695 181.116 47.735C182.586 45.775 184.231 44.2 186.051 43.01C187.941 41.75 189.831 41.12 191.721 41.12C193.611 41.12 195.116 41.68 196.236 42.8C197.426 43.85 198.021 45.04 198.021 46.37ZM188.886 43.85C187.276 43.85 185.876 44.62 184.686 46.16C183.566 47.63 182.796 49.94 182.376 53.09C185.736 52.74 188.221 52.11 189.831 51.2C191.441 50.22 192.246 49.03 192.246 47.63C192.246 46.58 191.931 45.705 191.301 45.005C190.671 44.235 189.866 43.85 188.886 43.85ZM231.023 60.65C231.163 60.51 231.338 60.545 231.548 60.755C231.758 60.895 231.828 61.105 231.758 61.385C230.498 63.135 229.028 64.675 227.348 66.005C225.738 67.335 224.128 68 222.518 68C221.328 68 220.383 67.615 219.683 66.845C219.053 66.075 218.738 65.06 218.738 63.8C218.738 61.35 219.158 58.69 219.998 55.82C220.908 52.95 222.098 50.045 223.568 47.105C223.778 46.615 223.883 46.09 223.883 45.53C223.883 44.83 223.568 44.48 222.938 44.48C220.348 44.48 217.478 46.265 214.328 49.835C211.178 53.335 208.273 58.935 205.613 66.635C205.543 66.845 205.298 67.055 204.878 67.265C204.528 67.405 204.108 67.545 203.618 67.685C203.128 67.755 202.638 67.825 202.148 67.895C201.658 67.965 201.273 68 200.993 68C200.643 68 200.363 67.93 200.153 67.79C200.013 67.65 200.013 67.405 200.153 67.055C201.343 64.045 202.533 60.755 203.723 57.185C204.983 53.545 206.068 49.905 206.978 46.265C207.188 45.565 207.223 45.075 207.083 44.795C206.943 44.445 206.698 44.27 206.348 44.27C205.578 44.27 204.843 44.62 204.143 45.32C203.443 45.95 202.813 46.65 202.253 47.42C202.043 47.56 201.833 47.525 201.623 47.315C201.483 47.105 201.448 46.895 201.518 46.685C201.868 46.195 202.323 45.635 202.883 45.005C203.513 44.375 204.213 43.78 204.983 43.22C205.753 42.59 206.558 42.1 207.398 41.75C208.238 41.33 209.078 41.12 209.918 41.12C211.108 41.12 211.878 41.505 212.228 42.275C212.648 42.975 212.753 43.85 212.543 44.9C212.193 46.44 211.808 47.91 211.388 49.31C211.038 50.64 210.583 52.145 210.023 53.825C210.863 52.285 211.878 50.78 213.068 49.31C214.328 47.77 215.693 46.405 217.163 45.215C218.703 43.955 220.348 42.975 222.098 42.275C223.848 41.505 225.703 41.12 227.663 41.12C228.503 41.12 229.133 41.33 229.553 41.75C230.043 42.17 230.288 42.66 230.288 43.22C230.288 44.2 230.043 45.075 229.553 45.845C228.083 48.505 226.823 51.27 225.773 54.14C224.793 56.94 224.303 59.46 224.303 61.7C224.303 63.52 224.898 64.43 226.088 64.43C226.858 64.43 227.628 64.115 228.398 63.485C229.168 62.855 230.043 61.91 231.023 60.65ZM252.681 50.57C252.261 50.71 252.051 50.535 252.051 50.045C252.541 48.575 252.436 47.28 251.736 46.16C251.106 45.04 249.916 44.48 248.166 44.48C245.926 44.48 244.106 45.88 242.706 48.68C241.376 51.48 240.711 55.12 240.711 59.6C240.711 62.89 242.006 64.535 244.596 64.535C245.786 64.535 247.081 64.115 248.481 63.275C249.951 62.365 251.281 61.21 252.471 59.81C252.751 59.67 252.996 59.705 253.206 59.915C253.416 60.125 253.451 60.37 253.311 60.65C251.561 62.89 249.601 64.675 247.431 66.005C245.261 67.335 242.951 68 240.501 68C238.961 68 237.666 67.475 236.616 66.425C235.566 65.305 235.041 63.765 235.041 61.805C235.041 59.355 235.531 56.905 236.511 54.455C237.561 51.935 238.891 49.695 240.501 47.735C242.111 45.775 243.861 44.2 245.751 43.01C247.641 41.75 249.496 41.12 251.316 41.12C252.926 41.12 254.186 41.575 255.096 42.485C256.006 43.395 256.461 44.41 256.461 45.53C256.461 45.95 256.321 46.405 256.041 46.895C255.831 47.385 255.516 47.875 255.096 48.365C254.746 48.855 254.326 49.31 253.836 49.73C253.416 50.15 253.031 50.43 252.681 50.57ZM280.77 46.37C280.77 50.36 275.485 53.09 264.915 54.56C264.845 55.26 264.775 55.96 264.705 56.66C264.705 57.36 264.705 58.095 264.705 58.865C264.705 60.685 265.125 62.085 265.965 63.065C266.805 64.045 268.135 64.535 269.955 64.535C271.285 64.535 272.65 64.15 274.05 63.38C275.45 62.61 276.57 61.63 277.41 60.44C277.69 60.3 277.9 60.37 278.04 60.65C278.18 60.86 278.215 61.105 278.145 61.385C276.745 63.205 274.96 64.78 272.79 66.11C270.69 67.37 268.415 68 265.965 68C263.515 68 261.73 67.405 260.61 66.215C259.56 64.955 259.035 63.205 259.035 60.965C259.035 58.795 259.49 56.555 260.4 54.245C261.31 51.865 262.465 49.695 263.865 47.735C265.335 45.775 266.98 44.2 268.8 43.01C270.69 41.75 272.58 41.12 274.47 41.12C276.36 41.12 277.865 41.68 278.985 42.8C280.175 43.85 280.77 45.04 280.77 46.37ZM271.635 43.85C270.025 43.85 268.625 44.62 267.435 46.16C266.315 47.63 265.545 49.94 265.125 53.09C268.485 52.74 270.97 52.11 272.58 51.2C274.19 50.22 274.995 49.03 274.995 47.63C274.995 46.58 274.68 45.705 274.05 45.005C273.42 44.235 272.615 43.85 271.635 43.85Z" fill="#394149"/>
</svg>
