<svg width="18" height="18" viewBox="0 0 18 18" fill="none" xmlns="http://www.w3.org/2000/svg">
<g id="akar-icons:eye">
<g id="Group">
<path id="Vector" d="M15.9434 8.2215C16.2989 8.6865 16.2989 9.31425 15.9434 9.7785C14.8236 11.2403 12.1371 14.25 9.00062 14.25C5.86412 14.25 3.17762 11.2403 2.05787 9.7785C1.88491 9.55585 1.79102 9.28194 1.79102 9C1.79102 8.71806 1.88491 8.44415 2.05787 8.2215C3.17762 6.75975 5.86412 3.75 9.00062 3.75C12.1371 3.75 14.8236 6.75975 15.9434 8.2215V8.2215Z" stroke="white" stroke-width="2" stroke-linecap="round" stroke-linejoin="round"/>
<path id="Vector_2" d="M9 11.25C10.2426 11.25 11.25 10.2426 11.25 9C11.25 7.75736 10.2426 6.75 9 6.75C7.75736 6.75 6.75 7.75736 6.75 9C6.75 10.2426 7.75736 11.25 9 11.25Z" stroke="white" stroke-width="2" stroke-linecap="round" stroke-linejoin="round"/>
</g>
</g>
</svg>
