<svg width="542" height="80" viewBox="0 0 542 80" fill="none" xmlns="http://www.w3.org/2000/svg">
<path opacity="0.2" d="M84.46 15.95C84.74 16.16 84.775 16.51 84.565 17C84.355 17.42 84.005 17.875 83.515 18.365C83.095 18.785 82.57 19.17 81.94 19.52C81.31 19.87 80.75 20.045 80.26 20.045C78.58 19.905 76.865 19.73 75.115 19.52C73.435 19.31 71.755 19.065 70.075 18.785C68.605 19.205 67.31 19.835 66.19 20.675C65.14 21.445 64.16 22.495 63.25 23.825C62.41 25.155 61.605 26.835 60.835 28.865C60.135 30.825 59.4 33.24 58.63 36.11C58.14 37.72 57.685 39.295 57.265 40.835C56.845 42.375 56.355 43.845 55.795 45.245H66.61C66.96 45.385 67.065 45.56 66.925 45.77C66.855 45.91 66.54 46.05 65.98 46.19C64.16 46.26 62.375 46.33 60.625 46.4C58.875 46.4 57.125 46.435 55.375 46.505C51.175 58.055 45.82 66.525 39.31 71.915C32.87 77.305 25.135 80 16.105 80C11.065 80 7.145 78.81 4.345 76.43C1.615 74.05 0.25 70.76 0.25 66.56C0.25 64.11 0.95 61.835 2.35 59.735C3.82 57.635 5.885 55.99 8.545 54.8C8.825 54.8 9.035 54.94 9.175 55.22C9.315 55.43 9.315 55.64 9.175 55.85C7.915 56.83 6.97 57.915 6.34 59.105C5.78 60.225 5.5 61.8 5.5 63.83C5.5 65.65 5.815 67.33 6.445 68.87C7.075 70.34 8.055 71.67 9.385 72.86C10.715 73.98 12.43 74.855 14.53 75.485C16.63 76.115 19.15 76.43 22.09 76.43C25.45 76.43 28.39 76.01 30.91 75.17C33.5 74.33 35.845 72.825 37.945 70.655C40.045 68.415 42.005 65.37 43.825 61.52C45.645 57.67 47.5 52.735 49.39 46.715C45.82 46.855 42.355 47.065 38.995 47.345C35.635 47.625 32.345 48.01 29.125 48.5C28.915 48.43 28.95 48.29 29.23 48.08C29.51 47.8 29.895 47.52 30.385 47.24C30.945 46.96 31.54 46.715 32.17 46.505C32.8 46.225 33.29 46.05 33.64 45.98C38.89 45.7 44.28 45.49 49.81 45.35C50.16 44.23 50.51 43.075 50.86 41.885C51.21 40.695 51.56 39.47 51.91 38.21C53.45 32.54 55.41 28.2 57.79 25.19C60.17 22.11 63.425 19.835 67.555 18.365C63.775 17.805 60.135 17.315 56.635 16.895C53.205 16.405 49.915 16.16 46.765 16.16C41.515 16.16 37.175 17.175 33.745 19.205C30.315 21.165 27.795 24.56 26.185 29.39C25.975 29.6 25.765 29.635 25.555 29.495C25.345 29.355 25.24 29.11 25.24 28.76C26.78 23.79 29.79 19.8 34.27 16.79C38.82 13.78 44.42 12.275 51.07 12.275C53.66 12.275 56.25 12.415 58.84 12.695C61.5 12.975 64.195 13.325 66.925 13.745C69.655 14.095 72.455 14.48 75.325 14.9C78.265 15.32 81.31 15.67 84.46 15.95ZM87.5608 58.37C87.5608 62.36 82.2758 65.09 71.7058 66.56C71.6358 67.26 71.5658 67.96 71.4958 68.66C71.4958 69.36 71.4958 70.095 71.4958 70.865C71.4958 72.685 71.9158 74.085 72.7558 75.065C73.5958 76.045 74.9258 76.535 76.7458 76.535C78.0758 76.535 79.4408 76.15 80.8408 75.38C82.2408 74.61 83.3608 73.63 84.2008 72.44C84.4808 72.3 84.6908 72.37 84.8308 72.65C84.9708 72.86 85.0058 73.105 84.9358 73.385C83.5358 75.205 81.7508 76.78 79.5808 78.11C77.4808 79.37 75.2058 80 72.7558 80C70.3058 80 68.5208 79.405 67.4008 78.215C66.3508 76.955 65.8258 75.205 65.8258 72.965C65.8258 70.795 66.2808 68.555 67.1908 66.245C68.1008 63.865 69.2558 61.695 70.6558 59.735C72.1258 57.775 73.7708 56.2 75.5908 55.01C77.4808 53.75 79.3708 53.12 81.2608 53.12C83.1508 53.12 84.6558 53.68 85.7758 54.8C86.9658 55.85 87.5608 57.04 87.5608 58.37ZM78.4258 55.85C76.8158 55.85 75.4158 56.62 74.2258 58.16C73.1058 59.63 72.3358 61.94 71.9158 65.09C75.2758 64.74 77.7608 64.11 79.3708 63.2C80.9808 62.22 81.7858 61.03 81.7858 59.63C81.7858 58.58 81.4708 57.705 80.8408 57.005C80.2108 56.235 79.4058 55.85 78.4258 55.85ZM119.513 73.385C119.653 73.245 119.828 73.245 120.038 73.385C120.248 73.525 120.318 73.735 120.248 74.015C118.988 75.835 117.588 77.305 116.048 78.425C114.508 79.475 113.038 80 111.638 80C110.028 80 108.978 78.88 108.488 76.64C108.068 74.33 108.313 71.6 109.223 68.45C107.333 71.46 105.268 74.05 103.028 76.22C100.858 78.32 98.5478 79.58 96.0978 80C94.4178 80 93.1228 79.23 92.2128 77.69C91.3028 76.15 90.8478 74.365 90.8478 72.335C90.8478 70.025 91.4078 67.75 92.5278 65.51C93.6478 63.2 95.1178 61.135 96.9378 59.315C98.8278 57.495 100.893 56.025 103.133 54.905C105.443 53.715 107.753 53.12 110.063 53.12C112.513 53.12 114.438 53.715 115.838 54.905C116.538 54.415 117.413 53.995 118.463 53.645C119.583 53.295 120.563 53.12 121.403 53.12C121.683 53.12 121.823 53.295 121.823 53.645C120.213 55.605 118.813 57.775 117.623 60.155C116.503 62.465 115.628 64.705 114.998 66.875C114.368 68.975 113.983 70.865 113.843 72.545C113.703 74.225 113.843 75.38 114.263 76.01C114.613 76.43 115.208 76.57 116.048 76.43C116.888 76.22 118.043 75.205 119.513 73.385ZM99.3528 76.115C100.193 76.115 101.208 75.59 102.398 74.54C103.658 73.49 104.953 72.09 106.283 70.34C107.613 68.59 108.908 66.63 110.168 64.46C111.498 62.29 112.653 60.085 113.633 57.845C113.353 56.935 112.688 56.2 111.638 55.64C110.658 55.08 109.503 54.8 108.173 54.8C106.563 54.8 105.058 55.22 103.658 56.06C102.258 56.83 101.033 57.95 99.9828 59.42C99.0028 60.82 98.1978 62.535 97.5678 64.565C97.0078 66.525 96.7278 68.695 96.7278 71.075C96.7278 72.615 96.9728 73.84 97.4628 74.75C98.0228 75.66 98.6528 76.115 99.3528 76.115ZM145.253 53.645C145.603 53.785 145.743 53.995 145.673 54.275C145.603 54.485 145.288 54.66 144.728 54.8C143.678 54.8 142.453 54.835 141.053 54.905C139.723 54.975 138.288 55.08 136.748 55.22C135.348 58.65 134.193 62.01 133.283 65.3C132.373 68.52 131.918 71.145 131.918 73.175C131.918 75.555 132.828 76.745 134.648 76.745C136.468 76.745 138.498 75.17 140.738 72.02C140.948 71.88 141.123 71.88 141.263 72.02C141.473 72.16 141.543 72.405 141.473 72.755C140.283 74.715 138.778 76.43 136.958 77.9C135.138 79.3 133.353 80 131.603 80C129.783 80 128.418 79.58 127.508 78.74C126.668 77.83 126.248 76.605 126.248 75.065C126.248 73.035 126.738 70.235 127.718 66.665C128.698 63.095 129.958 59.455 131.498 55.745C129.678 55.955 127.998 56.235 126.458 56.585C126.108 56.515 126.003 56.34 126.143 56.06C126.353 55.78 126.668 55.5 127.088 55.22C127.578 54.87 128.138 54.59 128.768 54.38C129.398 54.1 129.993 53.96 130.553 53.96C130.833 53.96 131.113 53.96 131.393 53.96C131.673 53.96 131.953 53.925 132.233 53.855C133.143 51.825 134.088 49.865 135.068 47.975C136.048 46.085 137.028 44.37 138.008 42.83C138.428 42.34 138.988 41.92 139.688 41.57C140.458 41.15 141.193 40.835 141.893 40.625C142.593 40.415 143.153 40.31 143.573 40.31C144.063 40.24 144.273 40.345 144.203 40.625C143.013 42.445 141.823 44.475 140.633 46.715C139.513 48.955 138.428 51.3 137.378 53.75C138.708 53.68 140.038 53.645 141.368 53.645C142.768 53.645 144.063 53.645 145.253 53.645ZM149.298 80C146.358 80 144.888 78.39 144.888 75.17C144.888 74.05 144.993 72.755 145.203 71.285C145.483 69.815 145.868 68.31 146.358 66.77C146.918 65.16 147.548 63.55 148.248 61.94C148.948 60.33 149.788 58.79 150.768 57.32C149.998 57.81 149.263 58.335 148.563 58.895C147.863 59.385 147.233 59.91 146.673 60.47C146.463 60.61 146.253 60.575 146.043 60.365C145.903 60.085 145.903 59.84 146.043 59.63C147.233 58.37 148.913 57.075 151.083 55.745C153.323 54.415 155.458 53.365 157.488 52.595C157.838 52.595 158.083 52.7 158.223 52.91C158.433 53.05 158.468 53.26 158.328 53.54C156.088 56.48 154.268 59.665 152.868 63.095C151.538 66.525 150.873 69.85 150.873 73.07C150.873 75.1 151.503 76.115 152.763 76.115C153.673 76.115 154.793 75.52 156.123 74.33C157.453 73.07 158.853 71.46 160.323 69.5C161.793 67.47 163.263 65.195 164.733 62.675C166.273 60.155 167.673 57.6 168.933 55.01C169.143 54.59 169.738 54.17 170.718 53.75C171.768 53.33 172.818 53.12 173.868 53.12C174.918 53.12 175.233 53.4 174.813 53.96C173.833 55.78 172.958 57.495 172.188 59.105C171.488 60.645 170.893 62.185 170.403 63.725C169.913 65.265 169.528 66.84 169.248 68.45C169.038 69.99 168.933 71.705 168.933 73.595C168.933 75.835 169.528 76.955 170.718 76.955C171.908 76.955 173.238 75.905 174.708 73.805C174.918 73.665 175.128 73.665 175.338 73.805C175.548 73.945 175.618 74.155 175.548 74.435C174.358 76.255 173.028 77.655 171.558 78.635C170.158 79.545 168.863 80 167.673 80C164.733 80 163.263 78.285 163.263 74.855C163.263 71.285 163.893 67.75 165.153 64.25C162.493 69.08 159.693 72.93 156.753 75.8C153.813 78.6 151.328 80 149.298 80ZM190.672 56.165C190.672 57.215 190.567 58.405 190.357 59.735C190.147 61.065 189.867 62.43 189.517 63.83C190.917 60.47 192.457 57.845 194.137 55.955C195.817 54.065 197.637 53.12 199.597 53.12C200.647 53.12 201.452 53.365 202.012 53.855C202.572 54.345 202.852 54.975 202.852 55.745C202.852 56.445 202.572 57.355 202.012 58.475C201.522 59.595 201.102 60.365 200.752 60.785C200.612 60.855 200.472 60.855 200.332 60.785C200.192 60.645 200.122 60.505 200.122 60.365C200.122 59.875 199.912 59.455 199.492 59.105C199.142 58.755 198.582 58.58 197.812 58.58C195.362 58.58 193.122 60.26 191.092 63.62C189.132 66.91 187.312 71.67 185.632 77.9C185.562 78.25 185.317 78.565 184.897 78.845C184.477 79.055 183.987 79.265 183.427 79.475C182.937 79.615 182.412 79.755 181.852 79.895C181.292 79.965 180.802 80 180.382 80C179.612 80 179.402 79.58 179.752 78.74C180.382 77.27 180.977 75.695 181.537 74.015C182.167 72.265 182.727 70.515 183.217 68.765C183.707 67.015 184.127 65.335 184.477 63.725C184.827 62.045 185.107 60.505 185.317 59.105C185.457 58.055 185.492 57.25 185.422 56.69C185.422 56.13 185.142 55.85 184.582 55.85C183.882 55.85 183.147 56.165 182.377 56.795C181.677 57.355 181.012 58.09 180.382 59C180.102 59.21 179.822 59.245 179.542 59.105C179.332 58.895 179.297 58.65 179.437 58.37C179.857 57.81 180.347 57.25 180.907 56.69C181.537 56.06 182.202 55.5 182.902 55.01C183.672 54.45 184.442 53.995 185.212 53.645C186.052 53.295 186.892 53.12 187.732 53.12C188.852 53.12 189.622 53.4 190.042 53.96C190.462 54.45 190.672 55.185 190.672 56.165ZM223.528 58.37C223.528 62.36 218.243 65.09 207.673 66.56C207.603 67.26 207.533 67.96 207.463 68.66C207.463 69.36 207.463 70.095 207.463 70.865C207.463 72.685 207.883 74.085 208.723 75.065C209.563 76.045 210.893 76.535 212.713 76.535C214.043 76.535 215.408 76.15 216.808 75.38C218.208 74.61 219.328 73.63 220.168 72.44C220.448 72.3 220.658 72.37 220.798 72.65C220.938 72.86 220.973 73.105 220.903 73.385C219.503 75.205 217.718 76.78 215.548 78.11C213.448 79.37 211.173 80 208.723 80C206.273 80 204.488 79.405 203.368 78.215C202.318 76.955 201.793 75.205 201.793 72.965C201.793 70.795 202.248 68.555 203.158 66.245C204.068 63.865 205.223 61.695 206.623 59.735C208.093 57.775 209.738 56.2 211.558 55.01C213.448 53.75 215.338 53.12 217.228 53.12C219.118 53.12 220.623 53.68 221.743 54.8C222.933 55.85 223.528 57.04 223.528 58.37ZM214.393 55.85C212.783 55.85 211.383 56.62 210.193 58.16C209.073 59.63 208.303 61.94 207.883 65.09C211.243 64.74 213.728 64.11 215.338 63.2C216.948 62.22 217.753 61.03 217.753 59.63C217.753 58.58 217.438 57.705 216.808 57.005C216.178 56.235 215.373 55.85 214.393 55.85ZM288.45 0.619996C289.5 0.619996 290.34 0.899996 290.97 1.46C291.67 2.02 292.16 2.755 292.44 3.66499C292.72 4.57499 292.79 5.625 292.65 6.815C292.51 7.935 292.16 9.055 291.6 10.175C291.46 10.315 291.285 10.385 291.075 10.385C290.865 10.315 290.725 10.14 290.655 9.86C290.795 8.81 290.515 8.04 289.815 7.54999C289.115 6.99 288.135 6.71 286.875 6.71C283.095 6.71 279.455 7.97 275.955 10.49C272.455 13.01 269.13 16.895 265.98 22.145C262.9 27.325 260.03 33.94 257.37 41.99C254.78 49.97 252.435 59.49 250.335 70.55C249.985 72.09 249.95 73.42 250.23 74.54C250.51 75.59 251.035 76.115 251.805 76.115C252.575 76.115 253.31 75.8 254.01 75.17C254.71 74.54 255.34 73.735 255.9 72.755C256.04 72.615 256.215 72.615 256.425 72.755C256.705 72.895 256.81 73.105 256.74 73.385C256.39 74.085 255.865 74.82 255.165 75.59C254.535 76.36 253.8 77.095 252.96 77.795C252.19 78.425 251.35 78.95 250.44 79.37C249.6 79.79 248.83 80 248.13 80C246.59 80 245.505 79.44 244.875 78.32C244.245 77.2 244 75.94 244.14 74.54C244.28 73.35 244.455 72.23 244.665 71.18C244.875 70.13 245.12 69.01 245.4 67.82C244 70.83 242.04 73.455 239.52 75.695C237 77.865 234.515 79.3 232.065 80C230.455 80 229.16 79.405 228.18 78.215C227.2 77.025 226.71 75.485 226.71 73.595C226.71 70.865 227.2 68.275 228.18 65.825C229.16 63.305 230.49 61.1 232.17 59.21C233.85 57.32 235.845 55.815 238.155 54.695C240.465 53.575 242.95 53.015 245.61 53.015C247.08 53.015 248.375 53.26 249.495 53.75C250.755 49.97 252.26 46.05 254.01 41.99C255.76 37.86 257.685 33.835 259.785 29.915C261.885 25.995 264.09 22.25 266.4 18.68C268.78 15.11 271.195 11.995 273.645 9.335C276.095 6.675 278.58 4.575 281.1 3.035C283.62 1.425 286.07 0.619996 288.45 0.619996ZM235.425 75.905C236.195 75.905 237.105 75.52 238.155 74.75C239.205 73.91 240.29 72.825 241.41 71.495C242.53 70.095 243.58 68.52 244.56 66.77C245.54 64.95 246.38 63.025 247.08 60.995C247.36 60.365 247.605 59.735 247.815 59.105C248.025 58.405 248.2 57.74 248.34 57.11C248.06 56.27 247.5 55.675 246.66 55.325C245.89 54.905 245.015 54.695 244.035 54.695C242.565 54.695 241.13 55.15 239.73 56.06C238.33 56.9 237.105 58.09 236.055 59.63C235.005 61.17 234.13 62.99 233.43 65.09C232.8 67.19 232.485 69.5 232.485 72.02C232.485 73.14 232.73 74.085 233.22 74.855C233.78 75.555 234.515 75.905 235.425 75.905ZM347.436 12.59C350.656 13.01 353.561 13.815 356.151 15.005C358.741 16.195 360.911 17.7 362.661 19.52C364.481 21.27 365.881 23.3 366.861 25.61C367.841 27.85 368.331 30.23 368.331 32.75C368.331 36.04 367.666 39.12 366.336 41.99C365.076 44.86 363.256 47.345 360.876 49.445C358.566 51.545 355.731 53.225 352.371 54.485C349.011 55.675 345.231 56.27 341.031 56.27C336.481 56.27 332.701 55.15 329.691 52.91C325.281 62.36 320.101 69.255 314.151 73.595C308.201 77.865 301.796 80 294.936 80C289.126 80 284.821 78.565 282.021 75.695C279.291 72.755 277.926 69.08 277.926 64.67C277.926 63.34 278.136 62.01 278.556 60.68C279.046 59.28 279.711 57.985 280.551 56.795C281.391 55.535 282.406 54.415 283.596 53.435C284.856 52.455 286.256 51.65 287.796 51.02C288.006 50.88 288.181 50.88 288.321 51.02C288.531 51.16 288.566 51.405 288.426 51.755C286.326 52.875 284.786 54.38 283.806 56.27C282.826 58.16 282.336 60.19 282.336 62.36C282.336 64.25 282.651 66.07 283.281 67.82C283.911 69.5 284.891 70.97 286.221 72.23C287.621 73.49 289.371 74.505 291.471 75.275C293.571 75.975 296.091 76.325 299.031 76.325C302.391 76.325 305.331 75.905 307.851 75.065C310.371 74.225 312.646 72.755 314.676 70.655C316.776 68.555 318.666 65.72 320.346 62.15C322.096 58.51 323.846 53.925 325.596 48.395C324.336 46.365 323.461 44.16 322.971 41.78C323.041 41.5 323.181 41.29 323.391 41.15C323.601 41.01 323.776 41.045 323.916 41.255C324.406 43.285 325.141 45.105 326.121 46.715C326.401 45.805 326.646 44.86 326.856 43.88C327.136 42.9 327.416 41.92 327.696 40.94C329.446 34.71 331.371 29.53 333.471 25.4C335.571 21.27 337.951 17.945 340.611 15.425C340.261 15.355 339.736 15.32 339.036 15.32C331.616 15.32 325.386 17.035 320.346 20.465C315.306 23.825 311.771 29.005 309.741 36.005C309.531 36.215 309.286 36.25 309.006 36.11C308.796 35.9 308.691 35.55 308.691 35.06C311.071 28.06 315.026 22.53 320.556 18.47C326.156 14.41 333.506 12.38 342.606 12.38H344.286C346.946 10.63 349.921 9.335 353.211 8.49499C353.561 8.49499 353.736 8.66999 353.736 9.01999C353.736 9.29999 353.561 9.51 353.211 9.65C351.111 10.28 349.186 11.26 347.436 12.59ZM342.186 54.17C345.126 54.17 347.786 53.68 350.166 52.7C352.546 51.72 354.576 50.355 356.256 48.605C358.006 46.855 359.336 44.825 360.246 42.515C361.156 40.205 361.611 37.72 361.611 35.06C361.611 30.09 360.106 25.89 357.096 22.46C354.156 18.96 349.921 16.72 344.391 15.74C340.891 20.15 337.986 26.87 335.676 35.9C334.906 38.77 334.066 41.5 333.156 44.09C332.316 46.61 331.406 48.99 330.426 51.23C333.296 53.19 337.216 54.17 342.186 54.17ZM373.191 56.165C373.191 57.215 373.086 58.405 372.876 59.735C372.666 61.065 372.386 62.43 372.036 63.83C373.436 60.47 374.976 57.845 376.656 55.955C378.336 54.065 380.156 53.12 382.116 53.12C383.166 53.12 383.971 53.365 384.531 53.855C385.091 54.345 385.371 54.975 385.371 55.745C385.371 56.445 385.091 57.355 384.531 58.475C384.041 59.595 383.621 60.365 383.271 60.785C383.131 60.855 382.991 60.855 382.851 60.785C382.711 60.645 382.641 60.505 382.641 60.365C382.641 59.875 382.431 59.455 382.011 59.105C381.661 58.755 381.101 58.58 380.331 58.58C377.881 58.58 375.641 60.26 373.611 63.62C371.651 66.91 369.831 71.67 368.151 77.9C368.081 78.25 367.836 78.565 367.416 78.845C366.996 79.055 366.506 79.265 365.946 79.475C365.456 79.615 364.931 79.755 364.371 79.895C363.811 79.965 363.321 80 362.901 80C362.131 80 361.921 79.58 362.271 78.74C362.901 77.27 363.496 75.695 364.056 74.015C364.686 72.265 365.246 70.515 365.736 68.765C366.226 67.015 366.646 65.335 366.996 63.725C367.346 62.045 367.626 60.505 367.836 59.105C367.976 58.055 368.011 57.25 367.941 56.69C367.941 56.13 367.661 55.85 367.101 55.85C366.401 55.85 365.666 56.165 364.896 56.795C364.196 57.355 363.531 58.09 362.901 59C362.621 59.21 362.341 59.245 362.061 59.105C361.851 58.895 361.816 58.65 361.956 58.37C362.376 57.81 362.866 57.25 363.426 56.69C364.056 56.06 364.721 55.5 365.421 55.01C366.191 54.45 366.961 53.995 367.731 53.645C368.571 53.295 369.411 53.12 370.251 53.12C371.371 53.12 372.141 53.4 372.561 53.96C372.981 54.45 373.191 55.185 373.191 56.165ZM399.957 53.12C402.407 53.12 404.227 53.855 405.417 55.325C406.607 56.795 407.202 58.51 407.202 60.47C407.202 63.2 406.642 65.755 405.522 68.135C404.472 70.445 403.142 72.51 401.532 74.33C399.992 76.08 398.312 77.48 396.492 78.53C394.672 79.51 393.027 80 391.557 80C389.177 80 387.357 79.3 386.097 77.9C384.907 76.43 384.312 74.575 384.312 72.335C384.312 70.305 384.732 68.17 385.572 65.93C386.482 63.69 387.637 61.625 389.037 59.735C390.507 57.845 392.187 56.27 394.077 55.01C395.967 53.75 397.927 53.12 399.957 53.12ZM394.182 76.745C396.352 76.745 398.172 75.625 399.642 73.385C401.182 71.075 401.952 67.925 401.952 63.935C401.952 61.835 401.532 60.085 400.692 58.685C399.852 57.285 398.627 56.585 397.017 56.585C394.777 56.585 392.957 57.67 391.557 59.84C390.157 62.01 389.457 65.195 389.457 69.395C389.457 71.845 389.877 73.7 390.717 74.96C391.627 76.15 392.782 76.745 394.182 76.745ZM473.122 0.619996C474.172 0.619996 475.012 0.899996 475.642 1.46C476.342 2.02 476.832 2.755 477.112 3.66499C477.392 4.57499 477.462 5.625 477.322 6.815C477.182 7.935 476.832 9.055 476.272 10.175C476.132 10.315 475.957 10.385 475.747 10.385C475.537 10.315 475.397 10.14 475.327 9.86C475.467 8.81 475.187 8.04 474.487 7.54999C473.787 6.99 472.807 6.71 471.547 6.71C467.767 6.71 464.127 7.97 460.627 10.49C457.127 13.01 453.802 16.895 450.652 22.145C447.572 27.325 444.702 33.94 442.042 41.99C439.452 49.97 437.107 59.49 435.007 70.55C434.657 72.09 434.622 73.42 434.902 74.54C435.182 75.59 435.707 76.115 436.477 76.115C437.247 76.115 437.982 75.8 438.682 75.17C439.382 74.54 440.012 73.735 440.572 72.755C440.712 72.615 440.887 72.615 441.097 72.755C441.377 72.895 441.482 73.105 441.412 73.385C441.062 74.085 440.537 74.82 439.837 75.59C439.207 76.36 438.472 77.095 437.632 77.795C436.862 78.425 436.022 78.95 435.112 79.37C434.272 79.79 433.502 80 432.802 80C431.262 80 430.177 79.44 429.547 78.32C428.917 77.2 428.672 75.94 428.812 74.54C428.952 73.35 429.127 72.23 429.337 71.18C429.547 70.13 429.792 69.01 430.072 67.82C428.672 70.83 426.712 73.455 424.192 75.695C421.672 77.865 419.187 79.3 416.737 80C415.127 80 413.832 79.405 412.852 78.215C411.872 77.025 411.382 75.485 411.382 73.595C411.382 70.865 411.872 68.275 412.852 65.825C413.832 63.305 415.162 61.1 416.842 59.21C418.522 57.32 420.517 55.815 422.827 54.695C425.137 53.575 427.622 53.015 430.282 53.015C431.752 53.015 433.047 53.26 434.167 53.75C435.427 49.97 436.932 46.05 438.682 41.99C440.432 37.86 442.357 33.835 444.457 29.915C446.557 25.995 448.762 22.25 451.072 18.68C453.452 15.11 455.867 11.995 458.317 9.335C460.767 6.675 463.252 4.575 465.772 3.035C468.292 1.425 470.742 0.619996 473.122 0.619996ZM420.097 75.905C420.867 75.905 421.777 75.52 422.827 74.75C423.877 73.91 424.962 72.825 426.082 71.495C427.202 70.095 428.252 68.52 429.232 66.77C430.212 64.95 431.052 63.025 431.752 60.995C432.032 60.365 432.277 59.735 432.487 59.105C432.697 58.405 432.872 57.74 433.012 57.11C432.732 56.27 432.172 55.675 431.332 55.325C430.562 54.905 429.687 54.695 428.707 54.695C427.237 54.695 425.802 55.15 424.402 56.06C423.002 56.9 421.777 58.09 420.727 59.63C419.677 61.17 418.802 62.99 418.102 65.09C417.472 67.19 417.157 69.5 417.157 72.02C417.157 73.14 417.402 74.085 417.892 74.855C418.452 75.555 419.187 75.905 420.097 75.905ZM449.328 80C446.388 80 444.918 78.39 444.918 75.17C444.918 74.05 445.023 72.755 445.233 71.285C445.513 69.815 445.898 68.31 446.388 66.77C446.948 65.16 447.578 63.55 448.278 61.94C448.978 60.33 449.818 58.79 450.798 57.32C450.028 57.81 449.293 58.335 448.593 58.895C447.893 59.385 447.263 59.91 446.703 60.47C446.493 60.61 446.283 60.575 446.073 60.365C445.933 60.085 445.933 59.84 446.073 59.63C447.263 58.37 448.943 57.075 451.113 55.745C453.353 54.415 455.488 53.365 457.518 52.595C457.868 52.595 458.113 52.7 458.253 52.91C458.463 53.05 458.498 53.26 458.358 53.54C456.118 56.48 454.298 59.665 452.898 63.095C451.568 66.525 450.903 69.85 450.903 73.07C450.903 75.1 451.533 76.115 452.793 76.115C453.703 76.115 454.823 75.52 456.153 74.33C457.483 73.07 458.883 71.46 460.353 69.5C461.823 67.47 463.293 65.195 464.763 62.675C466.303 60.155 467.703 57.6 468.963 55.01C469.173 54.59 469.768 54.17 470.748 53.75C471.798 53.33 472.848 53.12 473.898 53.12C474.948 53.12 475.263 53.4 474.843 53.96C473.863 55.78 472.988 57.495 472.218 59.105C471.518 60.645 470.923 62.185 470.433 63.725C469.943 65.265 469.558 66.84 469.278 68.45C469.068 69.99 468.963 71.705 468.963 73.595C468.963 75.835 469.558 76.955 470.748 76.955C471.938 76.955 473.268 75.905 474.738 73.805C474.948 73.665 475.158 73.665 475.368 73.805C475.578 73.945 475.648 74.155 475.578 74.435C474.388 76.255 473.058 77.655 471.588 78.635C470.188 79.545 468.893 80 467.703 80C464.763 80 463.293 78.285 463.293 74.855C463.293 71.285 463.923 67.75 465.183 64.25C462.523 69.08 459.723 72.93 456.783 75.8C453.843 78.6 451.358 80 449.328 80ZM497.211 62.57C496.791 62.71 496.581 62.535 496.581 62.045C497.071 60.575 496.966 59.28 496.266 58.16C495.636 57.04 494.446 56.48 492.696 56.48C490.456 56.48 488.636 57.88 487.236 60.68C485.906 63.48 485.241 67.12 485.241 71.6C485.241 74.89 486.536 76.535 489.126 76.535C490.316 76.535 491.611 76.115 493.011 75.275C494.481 74.365 495.811 73.21 497.001 71.81C497.281 71.67 497.526 71.705 497.736 71.915C497.946 72.125 497.981 72.37 497.841 72.65C496.091 74.89 494.131 76.675 491.961 78.005C489.791 79.335 487.481 80 485.031 80C483.491 80 482.196 79.475 481.146 78.425C480.096 77.305 479.571 75.765 479.571 73.805C479.571 71.355 480.061 68.905 481.041 66.455C482.091 63.935 483.421 61.695 485.031 59.735C486.641 57.775 488.391 56.2 490.281 55.01C492.171 53.75 494.026 53.12 495.846 53.12C497.456 53.12 498.716 53.575 499.626 54.485C500.536 55.395 500.991 56.41 500.991 57.53C500.991 57.95 500.851 58.405 500.571 58.895C500.361 59.385 500.046 59.875 499.626 60.365C499.276 60.855 498.856 61.31 498.366 61.73C497.946 62.15 497.561 62.43 497.211 62.57ZM523.725 53.645C524.075 53.785 524.215 53.995 524.145 54.275C524.075 54.485 523.76 54.66 523.2 54.8C522.15 54.8 520.925 54.835 519.525 54.905C518.195 54.975 516.76 55.08 515.22 55.22C513.82 58.65 512.665 62.01 511.755 65.3C510.845 68.52 510.39 71.145 510.39 73.175C510.39 75.555 511.3 76.745 513.12 76.745C514.94 76.745 516.97 75.17 519.21 72.02C519.42 71.88 519.595 71.88 519.735 72.02C519.945 72.16 520.015 72.405 519.945 72.755C518.755 74.715 517.25 76.43 515.43 77.9C513.61 79.3 511.825 80 510.075 80C508.255 80 506.89 79.58 505.98 78.74C505.14 77.83 504.72 76.605 504.72 75.065C504.72 73.035 505.21 70.235 506.19 66.665C507.17 63.095 508.43 59.455 509.97 55.745C508.15 55.955 506.47 56.235 504.93 56.585C504.58 56.515 504.475 56.34 504.615 56.06C504.825 55.78 505.14 55.5 505.56 55.22C506.05 54.87 506.61 54.59 507.24 54.38C507.87 54.1 508.465 53.96 509.025 53.96C509.305 53.96 509.585 53.96 509.865 53.96C510.145 53.96 510.425 53.925 510.705 53.855C511.615 51.825 512.56 49.865 513.54 47.975C514.52 46.085 515.5 44.37 516.48 42.83C516.9 42.34 517.46 41.92 518.16 41.57C518.93 41.15 519.665 40.835 520.365 40.625C521.065 40.415 521.625 40.31 522.045 40.31C522.535 40.24 522.745 40.345 522.675 40.625C521.485 42.445 520.295 44.475 519.105 46.715C517.985 48.955 516.9 51.3 515.85 53.75C517.18 53.68 518.51 53.645 519.84 53.645C521.24 53.645 522.535 53.645 523.725 53.645ZM536.275 53.12C537.815 53.12 539.04 53.33 539.95 53.75C540.93 54.17 541.42 54.695 541.42 55.325C541.42 56.095 541.21 56.97 540.79 57.95C540.44 58.93 540.09 59.735 539.74 60.365C539.6 60.505 539.425 60.54 539.215 60.47C539.005 60.33 538.9 60.12 538.9 59.84C539.11 59.35 539.215 58.65 539.215 57.74C539.215 56.76 538.935 55.955 538.375 55.325C537.885 54.695 537.185 54.38 536.275 54.38C535.085 54.38 534.105 54.765 533.335 55.535C532.635 56.235 532.285 57.25 532.285 58.58C532.285 59.7 532.565 60.785 533.125 61.835C533.755 62.815 534.42 63.83 535.12 64.88C535.89 65.86 536.59 66.945 537.22 68.135C537.85 69.255 538.165 70.55 538.165 72.02C538.165 74.54 537.15 76.5 535.12 77.9C533.09 79.3 530.43 80 527.14 80C524.76 80 522.87 79.615 521.47 78.845C520.14 78.075 519.475 77.235 519.475 76.325C519.475 76.045 519.58 75.66 519.79 75.17C520 74.68 520.28 74.155 520.63 73.595C520.98 73.035 521.365 72.475 521.785 71.915C522.205 71.355 522.66 70.9 523.15 70.55C523.36 70.41 523.535 70.445 523.675 70.655C523.885 70.865 523.92 71.075 523.78 71.285C523.36 71.705 523.045 72.16 522.835 72.65C522.625 73.07 522.52 73.665 522.52 74.435C522.52 75.695 522.94 76.745 523.78 77.585C524.62 78.355 525.705 78.74 527.035 78.74C528.855 78.74 530.255 78.25 531.235 77.27C532.285 76.22 532.81 74.96 532.81 73.49C532.81 72.16 532.495 70.935 531.865 69.815C531.305 68.625 530.675 67.505 529.975 66.455C529.275 65.335 528.61 64.215 527.98 63.095C527.42 61.975 527.14 60.785 527.14 59.525C527.14 57.705 527.91 56.2 529.45 55.01C530.99 53.75 533.265 53.12 536.275 53.12Z" fill="#394149"/>
</svg>
