<svg width="34" height="34" viewBox="0 0 34 34" fill="none" xmlns="http://www.w3.org/2000/svg">
<rect width="34" height="34" rx="17" fill="white"/>
<path fill-rule="evenodd" clip-rule="evenodd" d="M27.4889 17.2514C27.4889 16.4679 27.4185 15.7145 27.2879 14.9912H16.8809V19.2656H22.8278C22.5716 20.6468 21.7931 21.8171 20.6228 22.6006V25.3732H24.1939C26.2834 23.4495 27.4889 20.6167 27.4889 17.2514Z" fill="#4285F4"/>
<path fill-rule="evenodd" clip-rule="evenodd" d="M16.8815 28.0501C19.865 28.0501 22.3663 27.0606 24.1946 25.373L20.6234 22.6004C19.634 23.2634 18.3682 23.6552 16.8815 23.6552C14.0035 23.6552 11.5675 21.7114 10.6985 19.0996H7.00684V21.9626C8.82506 25.5739 12.562 28.0501 16.8815 28.0501Z" fill="#34A853"/>
<path fill-rule="evenodd" clip-rule="evenodd" d="M10.6981 19.1C10.4771 18.437 10.3515 17.7288 10.3515 17.0005C10.3515 16.2722 10.4771 15.564 10.6981 14.901V12.0381H7.00637C6.25799 13.5298 5.83105 15.2175 5.83105 17.0005C5.83105 18.7836 6.25799 20.4712 7.00637 21.963L10.6981 19.1Z" fill="#FBBC05"/>
<path fill-rule="evenodd" clip-rule="evenodd" d="M16.8815 10.3451C18.5039 10.3451 19.9604 10.9026 21.1056 11.9976L24.275 8.82822C22.3613 7.04515 19.86 5.9502 16.8815 5.9502C12.562 5.9502 8.82506 8.4264 7.00684 12.0377L10.6985 14.9007C11.5675 12.2889 14.0035 10.3451 16.8815 10.3451Z" fill="#EA4335"/>
</svg>
