<svg width="24" height="20" viewBox="0 0 24 20" fill="none" xmlns="http://www.w3.org/2000/svg">
<g id="fa-solid:home" clip-path="url(#clip0_6_6412)">
<path id="Vector" d="M11.6827 5.78945L4.00062 11.7211V18.1231C4.00062 18.2888 4.07086 18.4478 4.19588 18.565C4.32091 18.6822 4.49048 18.7481 4.66729 18.7481L9.33645 18.7367C9.51268 18.7359 9.6814 18.6697 9.8057 18.5526C9.93001 18.4354 9.99979 18.2769 9.99978 18.1117V14.373C9.99978 14.2073 10.07 14.0483 10.195 13.9311C10.3201 13.8139 10.4896 13.748 10.6665 13.748H13.3331C13.5099 13.748 13.6795 13.8139 13.8045 13.9311C13.9295 14.0483 13.9998 14.2073 13.9998 14.373V18.109C13.9995 18.1912 14.0165 18.2727 14.0499 18.3488C14.0833 18.4248 14.1324 18.4939 14.1943 18.5522C14.2562 18.6104 14.3298 18.6566 14.4108 18.6882C14.4919 18.7197 14.5787 18.7359 14.6664 18.7359L19.3339 18.7481C19.5108 18.7481 19.6803 18.6822 19.8054 18.565C19.9304 18.4478 20.0006 18.2888 20.0006 18.1231V11.7168L12.3202 5.78945C12.2299 5.72122 12.1174 5.68401 12.0014 5.68401C11.8855 5.68401 11.773 5.72122 11.6827 5.78945ZM23.8173 9.8211L20.3339 7.1293V1.71875C20.3339 1.59443 20.2813 1.4752 20.1875 1.38729C20.0937 1.29939 19.9666 1.25 19.8339 1.25H17.5006C17.368 1.25 17.2408 1.29939 17.1471 1.38729C17.0533 1.4752 17.0006 1.59443 17.0006 1.71875V4.55508L13.2702 1.67773C12.9122 1.40155 12.463 1.25055 11.9994 1.25055C11.5357 1.25055 11.0865 1.40155 10.7285 1.67773L0.181458 9.8211C0.130828 9.86033 0.0889391 9.90853 0.0581858 9.96294C0.0274324 10.0174 0.00841698 10.0769 0.0022259 10.1382C-0.00396519 10.1995 0.00278944 10.2614 0.0221038 10.3202C0.0414182 10.3791 0.0729138 10.4338 0.114791 10.4813L1.17729 11.6922C1.21905 11.7398 1.27042 11.7792 1.32846 11.8082C1.38649 11.8372 1.45005 11.8551 1.5155 11.861C1.58094 11.8669 1.64699 11.8607 1.70986 11.8427C1.77272 11.8246 1.83118 11.7951 1.88187 11.7559L11.6827 4.18789C11.773 4.11966 11.8855 4.08245 12.0014 4.08245C12.1174 4.08245 12.2299 4.11966 12.3202 4.18789L22.1214 11.7559C22.1721 11.7951 22.2304 11.8246 22.2932 11.8428C22.356 11.8609 22.4219 11.8672 22.4873 11.8614C22.5527 11.8556 22.6163 11.8378 22.6743 11.8089C22.7324 11.7801 22.7838 11.7408 22.8256 11.6934L23.8881 10.4824C23.9299 10.4347 23.9613 10.3797 23.9804 10.3206C23.9995 10.2615 24.0059 10.1994 23.9993 10.138C23.9928 10.0765 23.9733 10.0169 23.942 9.96249C23.9108 9.90811 23.8684 9.86006 23.8173 9.8211Z" fill="#C28566"/>
</g>
<defs>
<clipPath id="clip0_6_6412">
<rect width="24" height="20" fill="white"/>
</clipPath>
</defs>
</svg>
