<svg width="20" height="14" viewBox="0 0 20 14" fill="none" xmlns="http://www.w3.org/2000/svg">
<g id="Icn_password">
<path id="Shape" fill-rule="evenodd" clip-rule="evenodd" d="M10 0C5.45455 0 1.54545 2.79279 0 6.75676C1.54545 10.7207 5.45455 13.5135 10 13.5135C14.5455 13.5135 18.4545 10.7207 20 6.75676C18.4545 2.79279 14.5455 0 10 0ZM10.0005 11.261C7.45508 11.261 5.45508 9.27898 5.45508 6.75646C5.45508 4.23394 7.45508 2.25195 10.0005 2.25195C12.546 2.25195 14.546 4.23394 14.546 6.75646C14.546 9.27898 12.546 11.261 10.0005 11.261ZM10.0007 4.05371C8.45526 4.05371 7.27344 5.22488 7.27344 6.75641C7.27344 8.28794 8.45526 9.45912 10.0007 9.45912C11.5462 9.45912 12.728 8.28794 12.728 6.75641C12.728 5.22488 11.5462 4.05371 10.0007 4.05371Z" fill="#C28566"/>
</g>
</svg>
