<svg width="62" height="60" viewBox="0 0 62 60" fill="none" xmlns="http://www.w3.org/2000/svg">
<path d="M44.8381 26.7425C44.0801 27.5051 43.4997 28.4255 43.1381 29.4379C42.7765 30.4505 42.6427 31.5303 42.7461 32.6005L42.7101 32.5645C42.8165 33.8243 42.6465 35.0919 42.2123 36.2793C41.7781 37.4665 41.0901 38.5447 40.1963 39.4387C39.3023 40.3325 38.2241 41.0207 37.0367 41.4547C35.8495 41.8889 34.5817 42.0589 33.3221 41.9525L33.3581 41.9885C31.8513 41.8483 30.3379 42.1761 29.0241 42.9275C27.7105 43.6789 26.6605 44.8171 26.0175 46.1871C25.3745 47.5571 25.1695 49.0919 25.4307 50.5827C25.6921 52.0733 26.4067 53.4471 27.4773 54.5167C28.5479 55.5863 29.9223 56.2997 31.4131 56.5595C32.9041 56.8195 34.4387 56.6131 35.8081 55.9689C37.1775 55.3245 38.3147 54.2737 39.0649 52.9593C39.8151 51.6449 40.1417 50.1313 40.0001 48.6245L40.0381 48.6605C39.9317 47.4009 40.1015 46.1331 40.5357 44.9457C40.9699 43.7585 41.6581 42.6803 42.5519 41.7863C43.4459 40.8925 44.5241 40.2043 45.7113 39.7703C46.8987 39.3361 48.1663 39.1661 49.4261 39.2725L49.3881 39.2365C50.6189 39.3471 51.8579 39.1453 52.9901 38.6497C54.1221 38.1541 55.1109 37.3807 55.8645 36.4013C56.6181 35.4219 57.1125 34.2679 57.3013 33.0467C57.4903 31.8253 57.3679 30.5761 56.9455 29.4145C56.5231 28.2531 55.8143 27.2171 54.8849 26.4025C53.9555 25.5879 52.8355 25.0211 51.6287 24.7547C50.4219 24.4883 49.1673 24.5307 47.9813 24.8781C46.7953 25.2257 45.7163 25.8669 44.8441 26.7425H44.8381Z" fill="#C28566"/>
<path d="M30.0843 37.2705L30.0463 37.2345C31.1169 37.3423 32.1981 37.2109 33.2119 36.8497C34.2255 36.4885 35.1463 35.9067 35.9075 35.1461C36.6685 34.3855 37.2513 33.4651 37.6131 32.4517C37.9751 31.4383 38.1073 30.3573 38.0003 29.2865L38.0383 29.3225C37.9319 28.0627 38.1019 26.7951 38.5359 25.6077C38.9701 24.4205 39.6583 23.3423 40.5521 22.4483C41.4461 21.5545 42.5243 20.8663 43.7115 20.4323C44.8989 19.998 46.1665 19.8282 47.4263 19.9345L47.3883 19.8985C48.8953 20.0401 50.4091 19.7132 51.7235 18.9627C53.0381 18.2122 54.0889 17.0745 54.7329 15.7047C55.3769 14.335 55.5827 12.7999 55.3223 11.3089C55.0619 9.81791 54.3479 8.44355 53.2775 7.37327C52.2073 6.30301 50.8329 5.58893 49.3419 5.32849C47.8509 5.06803 46.3159 5.27385 44.9461 5.91789C43.5763 6.56191 42.4387 7.61281 41.6881 8.92723C40.9375 10.2416 40.6107 11.7556 40.7523 13.2625L40.7163 13.2245C40.8229 14.4843 40.6533 15.7522 40.2193 16.9396C39.7853 18.1271 39.0971 19.2054 38.2033 20.0995C37.3093 20.9933 36.2309 21.6815 35.0435 22.1155C33.8559 22.5495 32.5881 22.7191 31.3283 22.6125L31.3643 22.6505C30.2937 22.5427 29.2123 22.6741 28.1987 23.0353C27.1851 23.3963 26.2643 23.9783 25.5031 24.7389C24.7419 25.4995 24.1593 26.4199 23.7973 27.4333C23.4355 28.4467 23.3033 29.5277 23.4103 30.5985L23.3743 30.5625C23.4803 31.8221 23.3101 33.0897 22.8759 34.2769C22.4415 35.4639 21.7535 36.5421 20.8597 37.4359C19.9658 38.3297 18.8877 39.0177 17.7006 39.4521C16.5135 39.8863 15.2459 40.0565 13.9863 39.9505L14.0223 39.9865C12.5153 39.8449 11.0014 40.1717 9.68699 40.9223C8.37259 41.6729 7.32169 42.8105 6.67767 44.1803C6.03363 45.5501 5.82779 47.0851 6.08825 48.5761C6.34871 50.0671 7.06279 51.4415 8.13305 52.5117C9.20333 53.5821 10.5777 54.2961 12.0687 54.5565C13.5597 54.8169 15.0948 54.6111 16.4645 53.9671C17.8343 53.3231 18.972 52.2723 19.7225 50.9579C20.4731 49.6433 20.7999 48.1295 20.6583 46.6225L20.6963 46.6585C20.5899 45.3987 20.7599 44.1311 21.1941 42.9437C21.6281 41.7565 22.3163 40.6783 23.2101 39.7843C24.1041 38.8905 25.1823 38.2023 26.3695 37.7683C27.5569 37.3341 28.8245 37.1641 30.0843 37.2705Z" fill="#394149"/>
<path d="M16.6804 33.2579C17.4385 32.4955 18.0188 31.5751 18.3801 30.5625C18.7414 29.5499 18.8747 28.4699 18.7704 27.3999L18.8084 27.4359C18.702 26.1759 18.8719 24.9077 19.3063 23.7201C19.7408 22.5325 20.4292 21.4541 21.3236 20.5601C22.218 19.6661 23.2966 18.9781 24.4844 18.5442C25.6722 18.1103 26.9404 17.9409 28.2004 18.0479L28.1624 18.0119C29.6688 18.153 31.1822 17.826 32.496 17.0756C33.8098 16.3251 34.86 15.1876 35.5038 13.8183C36.1474 12.449 36.353 10.9145 36.0926 9.42406C35.8322 7.9336 35.1182 6.55976 34.0484 5.48988C32.9786 4.42 31.6046 3.70616 30.1142 3.44572C28.6238 3.18526 27.0892 3.3909 25.72 4.03454C24.3506 4.67818 23.2132 5.72852 22.4628 7.04232C21.7122 8.35612 21.3852 9.86944 21.5264 11.3759L21.4904 11.3399C21.5968 12.5996 21.4268 13.8673 20.9926 15.0546C20.5584 16.2419 19.8705 17.3201 18.9765 18.214C18.0826 19.1079 17.0044 19.796 15.8171 20.2301C14.6298 20.6643 13.3621 20.8343 12.1024 20.7279L12.1384 20.7639C10.9076 20.6535 9.66874 20.8557 8.53678 21.3515C7.40482 21.8473 6.41632 22.6209 5.6629 23.6005C4.90948 24.5799 4.41552 25.7339 4.22676 26.9551C4.03802 28.1765 4.1606 29.4257 4.58314 30.5869C5.00568 31.7483 5.71454 32.7841 6.644 33.5985C7.57346 34.4131 8.69346 34.9797 9.90022 35.2461C11.107 35.5123 12.3614 35.4697 13.5474 35.1223C14.7333 34.7747 15.8123 34.1335 16.6844 33.2579H16.6804Z" fill="#C28566"/>
</svg>
