<svg width="511" height="88" viewBox="0 0 511 88" fill="none" xmlns="http://www.w3.org/2000/svg">
<path opacity="0.2" d="M67.98 0.274996C70.15 0.274996 71.9 1.045 73.23 2.585C74.56 4.055 75.225 5.87499 75.225 8.045C75.225 9.445 74.91 11.09 74.28 12.98C73.65 14.8 72.985 16.305 72.285 17.495C72.005 17.705 71.69 17.74 71.34 17.6C71.06 17.46 70.955 17.215 71.025 16.865C71.445 15.605 71.62 14.345 71.55 13.085C71.48 11.825 71.13 10.67 70.5 9.61999C69.87 8.57 68.89 7.73 67.56 7.1C66.3 6.4 64.69 6.05 62.73 6.05C60.07 6.05 57.76 6.54 55.8 7.52C53.91 8.43 52.16 10.075 50.55 12.455C48.94 14.765 47.435 17.88 46.035 21.8C44.635 25.72 43.2 30.62 41.73 36.5C39.28 45.88 35.885 53.125 31.545 58.235C34.695 59.425 37.985 60.51 41.415 61.49C44.915 62.4 48.765 62.855 52.965 62.855C56.465 62.855 59.125 62.225 60.945 60.965C62.765 59.705 64.27 57.885 65.46 55.505C65.74 55.295 65.985 55.295 66.195 55.505C66.475 55.645 66.58 55.925 66.51 56.345C64.83 60.125 62.59 63.03 59.79 65.06C56.99 67.02 53.245 68 48.555 68C44.425 68 40.645 67.405 37.215 66.215C33.855 64.955 30.565 63.625 27.345 62.225C22.235 66.075 15.97 68 8.55 68C5.75 68 3.65 67.51 2.25 66.53C0.85 65.55 0.15 64.325 0.15 62.855C0.15 61.945 0.465 60.965 1.095 59.915C1.795 58.865 2.74 57.885 3.93 56.975C5.12 56.065 6.52 55.295 8.13 54.665C9.81 54.035 11.665 53.72 13.695 53.72C16.285 53.72 18.805 54.07 21.255 54.77C23.775 55.4 26.33 56.205 28.92 57.185C30.11 55.225 31.265 52.775 32.385 49.835C33.505 46.895 34.625 43.29 35.745 39.02C37.355 33 39.28 27.61 41.52 22.85C43.76 18.02 46.245 13.96 48.975 10.67C51.775 7.31 54.75 4.755 57.9 3.005C61.12 1.185 64.48 0.274996 67.98 0.274996ZM13.275 65.27C15.795 65.27 18.035 65.025 19.995 64.535C22.025 63.975 23.845 62.925 25.455 61.385C22.865 60.265 20.24 59.285 17.58 58.445C14.92 57.605 12.085 57.185 9.075 57.185C5.855 57.185 4.245 58.27 4.245 60.44C4.245 61.84 5.015 62.995 6.555 63.905C8.165 64.815 10.405 65.27 13.275 65.27ZM99.7745 61.385C99.9145 61.245 100.089 61.245 100.299 61.385C100.509 61.525 100.579 61.735 100.509 62.015C99.2495 63.835 97.8495 65.305 96.3095 66.425C94.7695 67.475 93.2995 68 91.8995 68C90.2895 68 89.2395 66.88 88.7495 64.64C88.3295 62.33 88.5745 59.6 89.4845 56.45C87.5945 59.46 85.5295 62.05 83.2895 64.22C81.1195 66.32 78.8095 67.58 76.3595 68C74.6795 68 73.3845 67.23 72.4745 65.69C71.5645 64.15 71.1095 62.365 71.1095 60.335C71.1095 58.025 71.6695 55.75 72.7895 53.51C73.9095 51.2 75.3795 49.135 77.1995 47.315C79.0895 45.495 81.1545 44.025 83.3945 42.905C85.7045 41.715 88.0145 41.12 90.3245 41.12C92.7745 41.12 94.6995 41.715 96.0995 42.905C96.7995 42.415 97.6745 41.995 98.7245 41.645C99.8445 41.295 100.824 41.12 101.664 41.12C101.944 41.12 102.084 41.295 102.084 41.645C100.474 43.605 99.0745 45.775 97.8845 48.155C96.7645 50.465 95.8895 52.705 95.2595 54.875C94.6295 56.975 94.2445 58.865 94.1045 60.545C93.9645 62.225 94.1045 63.38 94.5245 64.01C94.8745 64.43 95.4695 64.57 96.3095 64.43C97.1495 64.22 98.3045 63.205 99.7745 61.385ZM79.6145 64.115C80.4545 64.115 81.4695 63.59 82.6595 62.54C83.9195 61.49 85.2145 60.09 86.5445 58.34C87.8745 56.59 89.1695 54.63 90.4295 52.46C91.7595 50.29 92.9145 48.085 93.8945 45.845C93.6145 44.935 92.9495 44.2 91.8995 43.64C90.9195 43.08 89.7645 42.8 88.4345 42.8C86.8245 42.8 85.3195 43.22 83.9195 44.06C82.5195 44.83 81.2945 45.95 80.2445 47.42C79.2645 48.82 78.4595 50.535 77.8295 52.565C77.2695 54.525 76.9895 56.695 76.9895 59.075C76.9895 60.615 77.2345 61.84 77.7245 62.75C78.2845 63.66 78.9145 64.115 79.6145 64.115ZM125.515 41.645C125.865 41.785 126.005 41.995 125.935 42.275C125.865 42.485 125.55 42.66 124.99 42.8C123.94 42.8 122.715 42.835 121.315 42.905C119.985 42.975 118.55 43.08 117.01 43.22C115.61 46.65 114.455 50.01 113.545 53.3C112.635 56.52 112.18 59.145 112.18 61.175C112.18 63.555 113.09 64.745 114.91 64.745C116.73 64.745 118.76 63.17 121 60.02C121.21 59.88 121.385 59.88 121.525 60.02C121.735 60.16 121.805 60.405 121.735 60.755C120.545 62.715 119.04 64.43 117.22 65.9C115.4 67.3 113.615 68 111.865 68C110.045 68 108.68 67.58 107.77 66.74C106.93 65.83 106.51 64.605 106.51 63.065C106.51 61.035 107 58.235 107.98 54.665C108.96 51.095 110.22 47.455 111.76 43.745C109.94 43.955 108.26 44.235 106.72 44.585C106.37 44.515 106.265 44.34 106.405 44.06C106.615 43.78 106.93 43.5 107.35 43.22C107.84 42.87 108.4 42.59 109.03 42.38C109.66 42.1 110.255 41.96 110.815 41.96C111.095 41.96 111.375 41.96 111.655 41.96C111.935 41.96 112.215 41.925 112.495 41.855C113.405 39.825 114.35 37.865 115.33 35.975C116.31 34.085 117.29 32.37 118.27 30.83C118.69 30.34 119.25 29.92 119.95 29.57C120.72 29.15 121.455 28.835 122.155 28.625C122.855 28.415 123.415 28.31 123.835 28.31C124.325 28.24 124.535 28.345 124.465 28.625C123.275 30.445 122.085 32.475 120.895 34.715C119.775 36.955 118.69 39.3 117.64 41.75C118.97 41.68 120.3 41.645 121.63 41.645C123.03 41.645 124.325 41.645 125.515 41.645ZM146.675 46.37C146.675 50.36 141.39 53.09 130.82 54.56C130.75 55.26 130.68 55.96 130.61 56.66C130.61 57.36 130.61 58.095 130.61 58.865C130.61 60.685 131.03 62.085 131.87 63.065C132.71 64.045 134.04 64.535 135.86 64.535C137.19 64.535 138.555 64.15 139.955 63.38C141.355 62.61 142.475 61.63 143.315 60.44C143.595 60.3 143.805 60.37 143.945 60.65C144.085 60.86 144.12 61.105 144.05 61.385C142.65 63.205 140.865 64.78 138.695 66.11C136.595 67.37 134.32 68 131.87 68C129.42 68 127.635 67.405 126.515 66.215C125.465 64.955 124.94 63.205 124.94 60.965C124.94 58.795 125.395 56.555 126.305 54.245C127.215 51.865 128.37 49.695 129.77 47.735C131.24 45.775 132.885 44.2 134.705 43.01C136.595 41.75 138.485 41.12 140.375 41.12C142.265 41.12 143.77 41.68 144.89 42.8C146.08 43.85 146.675 45.04 146.675 46.37ZM137.54 43.85C135.93 43.85 134.53 44.62 133.34 46.16C132.22 47.63 131.45 49.94 131.03 53.09C134.39 52.74 136.875 52.11 138.485 51.2C140.095 50.22 140.9 49.03 140.9 47.63C140.9 46.58 140.585 45.705 139.955 45.005C139.325 44.235 138.52 43.85 137.54 43.85ZM162.982 41.12C164.522 41.12 165.747 41.33 166.657 41.75C167.637 42.17 168.127 42.695 168.127 43.325C168.127 44.095 167.917 44.97 167.497 45.95C167.147 46.93 166.797 47.735 166.447 48.365C166.307 48.505 166.132 48.54 165.922 48.47C165.712 48.33 165.607 48.12 165.607 47.84C165.817 47.35 165.922 46.65 165.922 45.74C165.922 44.76 165.642 43.955 165.082 43.325C164.592 42.695 163.892 42.38 162.982 42.38C161.792 42.38 160.812 42.765 160.042 43.535C159.342 44.235 158.992 45.25 158.992 46.58C158.992 47.7 159.272 48.785 159.832 49.835C160.462 50.815 161.127 51.83 161.827 52.88C162.597 53.86 163.297 54.945 163.927 56.135C164.557 57.255 164.872 58.55 164.872 60.02C164.872 62.54 163.857 64.5 161.827 65.9C159.797 67.3 157.137 68 153.847 68C151.467 68 149.577 67.615 148.177 66.845C146.847 66.075 146.182 65.235 146.182 64.325C146.182 64.045 146.287 63.66 146.497 63.17C146.707 62.68 146.987 62.155 147.337 61.595C147.687 61.035 148.072 60.475 148.492 59.915C148.912 59.355 149.367 58.9 149.857 58.55C150.067 58.41 150.242 58.445 150.382 58.655C150.592 58.865 150.627 59.075 150.487 59.285C150.067 59.705 149.752 60.16 149.542 60.65C149.332 61.07 149.227 61.665 149.227 62.435C149.227 63.695 149.647 64.745 150.487 65.585C151.327 66.355 152.412 66.74 153.742 66.74C155.562 66.74 156.962 66.25 157.942 65.27C158.992 64.22 159.517 62.96 159.517 61.49C159.517 60.16 159.202 58.935 158.572 57.815C158.012 56.625 157.382 55.505 156.682 54.455C155.982 53.335 155.317 52.215 154.687 51.095C154.127 49.975 153.847 48.785 153.847 47.525C153.847 45.705 154.617 44.2 156.157 43.01C157.697 41.75 159.972 41.12 162.982 41.12ZM191.653 41.645C192.003 41.785 192.143 41.995 192.073 42.275C192.003 42.485 191.688 42.66 191.128 42.8C190.078 42.8 188.853 42.835 187.453 42.905C186.123 42.975 184.688 43.08 183.148 43.22C181.748 46.65 180.593 50.01 179.683 53.3C178.773 56.52 178.318 59.145 178.318 61.175C178.318 63.555 179.228 64.745 181.048 64.745C182.868 64.745 184.898 63.17 187.138 60.02C187.348 59.88 187.523 59.88 187.663 60.02C187.873 60.16 187.943 60.405 187.873 60.755C186.683 62.715 185.178 64.43 183.358 65.9C181.538 67.3 179.753 68 178.003 68C176.183 68 174.818 67.58 173.908 66.74C173.068 65.83 172.648 64.605 172.648 63.065C172.648 61.035 173.138 58.235 174.118 54.665C175.098 51.095 176.358 47.455 177.898 43.745C176.078 43.955 174.398 44.235 172.858 44.585C172.508 44.515 172.403 44.34 172.543 44.06C172.753 43.78 173.068 43.5 173.488 43.22C173.978 42.87 174.538 42.59 175.168 42.38C175.798 42.1 176.393 41.96 176.953 41.96C177.233 41.96 177.513 41.96 177.793 41.96C178.073 41.96 178.353 41.925 178.633 41.855C179.543 39.825 180.488 37.865 181.468 35.975C182.448 34.085 183.428 32.37 184.408 30.83C184.828 30.34 185.388 29.92 186.088 29.57C186.858 29.15 187.593 28.835 188.293 28.625C188.993 28.415 189.553 28.31 189.973 28.31C190.463 28.24 190.673 28.345 190.603 28.625C189.413 30.445 188.223 32.475 187.033 34.715C185.913 36.955 184.828 39.3 183.778 41.75C185.108 41.68 186.438 41.645 187.768 41.645C189.168 41.645 190.463 41.645 191.653 41.645ZM252.649 41.12C254.399 41.12 255.764 41.785 256.744 43.115C257.724 44.375 258.214 45.81 258.214 47.42C258.214 47.77 258.074 48.05 257.794 48.26C257.514 48.4 257.234 48.295 256.954 47.945C256.394 47.175 255.624 46.545 254.644 46.055C253.734 45.565 252.614 45.32 251.284 45.32C249.604 45.32 248.134 45.74 246.874 46.58C245.614 47.35 244.389 48.365 243.199 49.625C242.079 50.885 240.994 52.32 239.944 53.93C238.894 55.47 237.739 57.01 236.479 58.55C238.299 60.16 240.364 61.455 242.674 62.435C244.984 63.345 247.469 63.8 250.129 63.8C251.529 63.8 252.684 63.555 253.594 63.065C254.574 62.505 255.379 61.84 256.009 61.07C256.219 60.72 256.499 60.615 256.849 60.755C257.269 60.895 257.304 61.28 256.954 61.91C256.044 63.73 254.714 65.2 252.964 66.32C251.214 67.44 248.974 68 246.244 68C243.584 68 241.099 67.545 238.789 66.635C236.549 65.655 234.519 64.325 232.699 62.645C230.949 64.255 228.919 65.55 226.609 66.53C224.369 67.51 221.639 68 218.419 68C214.569 68 211.489 67.055 209.179 65.165C206.939 63.275 205.819 60.65 205.819 57.29C205.819 54.98 206.274 53.02 207.184 51.41C208.094 49.8 209.284 48.4 210.754 47.21C212.224 45.95 213.869 44.865 215.689 43.955C217.579 43.045 219.469 42.1 221.359 41.12C221.079 39.65 220.869 38.215 220.729 36.815C220.589 35.345 220.519 33.945 220.519 32.615C220.519 30.935 220.834 29.22 221.464 27.47C222.094 25.72 222.934 24.18 223.984 22.85C225.104 21.45 226.364 20.33 227.764 19.49C229.234 18.58 230.739 18.125 232.279 18.125C234.379 18.125 235.919 18.755 236.899 20.015C237.949 21.205 238.474 22.745 238.474 24.635C238.474 26.665 238.124 28.45 237.424 29.99C236.724 31.46 235.779 32.825 234.589 34.085C233.469 35.275 232.139 36.36 230.599 37.34C229.129 38.32 227.624 39.265 226.084 40.175C226.854 43.535 228.009 46.72 229.549 49.73C231.159 52.74 233.084 55.365 235.324 57.605C236.724 55.855 238.054 54.035 239.314 52.145C240.574 50.185 241.869 48.4 243.199 46.79C244.529 45.11 245.929 43.745 247.399 42.695C248.939 41.645 250.689 41.12 252.649 41.12ZM224.719 29.465C224.719 32.475 225.034 35.555 225.664 38.705C227.904 37.305 229.759 35.66 231.229 33.77C232.769 31.81 233.539 29.255 233.539 26.105C233.539 24.635 233.224 23.41 232.594 22.43C231.964 21.38 230.949 20.855 229.549 20.855C227.939 20.855 226.714 21.52 225.874 22.85C225.104 24.11 224.719 26.315 224.719 29.465ZM211.699 54.98C211.699 58.13 212.539 60.58 214.219 62.33C215.969 64.08 218.629 64.955 222.199 64.955C224.089 64.955 225.769 64.64 227.239 64.01C228.779 63.38 230.214 62.54 231.544 61.49C229.094 59.04 227.029 56.17 225.349 52.88C223.739 49.59 222.514 46.16 221.674 42.59C220.344 43.36 219.049 44.165 217.789 45.005C216.599 45.845 215.549 46.755 214.639 47.735C213.729 48.715 212.994 49.8 212.434 50.99C211.944 52.18 211.699 53.51 211.699 54.98ZM334.948 4.475C330.188 4.475 325.813 5.49 321.823 7.52C317.903 9.48 314.508 12.21 311.638 15.71C308.838 19.14 306.633 23.2 305.023 27.89C303.483 32.51 302.713 37.515 302.713 42.905C302.713 47.665 303.553 51.27 305.233 53.72C306.983 56.17 309.643 57.395 313.213 57.395C317.343 57.395 320.913 56.275 323.923 54.035C326.933 51.725 329.033 48.47 330.223 44.27C330.363 43.71 330.818 43.255 331.588 42.905C332.358 42.485 333.163 42.205 334.003 42.065C334.843 41.925 335.613 41.925 336.313 42.065C337.013 42.135 337.363 42.38 337.363 42.8C335.123 50.71 332.463 57.5 329.383 63.17C326.303 68.84 322.838 73.46 318.988 77.03C315.138 80.67 310.938 83.33 306.388 85.01C301.838 86.69 297.008 87.53 291.898 87.53C284.968 87.53 279.683 86.095 276.043 83.225C272.473 80.355 270.688 76.47 270.688 71.57C270.688 68.63 271.598 65.9 273.418 63.38C275.238 60.86 278.038 58.9 281.818 57.5C282.168 57.36 282.378 57.5 282.448 57.92C282.518 58.27 282.413 58.585 282.133 58.865C280.453 59.845 279.193 61.14 278.353 62.75C277.583 64.29 277.198 66.39 277.198 69.05C277.198 74.3 278.703 78.36 281.713 81.23C284.793 84.17 289.098 85.64 294.628 85.64C298.408 85.64 301.908 85.045 305.128 83.855C308.348 82.735 311.323 80.88 314.053 78.29C316.783 75.77 319.268 72.41 321.508 68.21C323.748 64.08 325.813 59.005 327.703 52.985C325.533 54.805 323.048 56.345 320.248 57.605C317.518 58.795 314.473 59.39 311.113 59.39C300.753 59.39 295.573 54.7 295.573 45.32C295.573 42.1 296.098 38.775 297.148 35.345C298.268 31.845 299.808 28.45 301.768 25.16C303.728 21.8 306.073 18.65 308.803 15.71C311.533 12.7 314.508 10.075 317.728 7.835C321.018 5.595 324.518 3.81 328.228 2.48C331.938 1.15 335.788 0.484999 339.778 0.484999C343.138 0.484999 345.833 1.22 347.863 2.69C349.893 4.16 350.908 6.015 350.908 8.255C350.908 9.025 350.663 9.935 350.173 10.985C349.683 12.035 349.053 13.12 348.283 14.24C347.583 15.29 346.848 16.34 346.078 17.39C345.308 18.37 344.678 19.245 344.188 20.015C343.978 20.155 343.733 20.155 343.453 20.015C343.173 19.805 343.068 19.56 343.138 19.28C344.118 17.74 344.818 16.375 345.238 15.185C345.728 13.995 345.973 12.7 345.973 11.3C345.973 9.34 345.063 7.73 343.243 6.47C341.493 5.14 338.728 4.475 334.948 4.475ZM352.94 44.165C352.94 45.215 352.835 46.405 352.625 47.735C352.415 49.065 352.135 50.43 351.785 51.83C353.185 48.47 354.725 45.845 356.405 43.955C358.085 42.065 359.905 41.12 361.865 41.12C362.915 41.12 363.72 41.365 364.28 41.855C364.84 42.345 365.12 42.975 365.12 43.745C365.12 44.445 364.84 45.355 364.28 46.475C363.79 47.595 363.37 48.365 363.02 48.785C362.88 48.855 362.74 48.855 362.6 48.785C362.46 48.645 362.39 48.505 362.39 48.365C362.39 47.875 362.18 47.455 361.76 47.105C361.41 46.755 360.85 46.58 360.08 46.58C357.63 46.58 355.39 48.26 353.36 51.62C351.4 54.91 349.58 59.67 347.9 65.9C347.83 66.25 347.585 66.565 347.165 66.845C346.745 67.055 346.255 67.265 345.695 67.475C345.205 67.615 344.68 67.755 344.12 67.895C343.56 67.965 343.07 68 342.65 68C341.88 68 341.67 67.58 342.02 66.74C342.65 65.27 343.245 63.695 343.805 62.015C344.435 60.265 344.995 58.515 345.485 56.765C345.975 55.015 346.395 53.335 346.745 51.725C347.095 50.045 347.375 48.505 347.585 47.105C347.725 46.055 347.76 45.25 347.69 44.69C347.69 44.13 347.41 43.85 346.85 43.85C346.15 43.85 345.415 44.165 344.645 44.795C343.945 45.355 343.28 46.09 342.65 47C342.37 47.21 342.09 47.245 341.81 47.105C341.6 46.895 341.565 46.65 341.705 46.37C342.125 45.81 342.615 45.25 343.175 44.69C343.805 44.06 344.47 43.5 345.17 43.01C345.94 42.45 346.71 41.995 347.48 41.645C348.32 41.295 349.16 41.12 350 41.12C351.12 41.12 351.89 41.4 352.31 41.96C352.73 42.45 352.94 43.185 352.94 44.165ZM385.796 46.37C385.796 50.36 380.511 53.09 369.941 54.56C369.871 55.26 369.801 55.96 369.731 56.66C369.731 57.36 369.731 58.095 369.731 58.865C369.731 60.685 370.151 62.085 370.991 63.065C371.831 64.045 373.161 64.535 374.981 64.535C376.311 64.535 377.676 64.15 379.076 63.38C380.476 62.61 381.596 61.63 382.436 60.44C382.716 60.3 382.926 60.37 383.066 60.65C383.206 60.86 383.241 61.105 383.171 61.385C381.771 63.205 379.986 64.78 377.816 66.11C375.716 67.37 373.441 68 370.991 68C368.541 68 366.756 67.405 365.636 66.215C364.586 64.955 364.061 63.205 364.061 60.965C364.061 58.795 364.516 56.555 365.426 54.245C366.336 51.865 367.491 49.695 368.891 47.735C370.361 45.775 372.006 44.2 373.826 43.01C375.716 41.75 377.606 41.12 379.496 41.12C381.386 41.12 382.891 41.68 384.011 42.8C385.201 43.85 385.796 45.04 385.796 46.37ZM376.661 43.85C375.051 43.85 373.651 44.62 372.461 46.16C371.341 47.63 370.571 49.94 370.151 53.09C373.511 52.74 375.996 52.11 377.606 51.2C379.216 50.22 380.021 49.03 380.021 47.63C380.021 46.58 379.706 45.705 379.076 45.005C378.446 44.235 377.641 43.85 376.661 43.85ZM417.748 61.385C417.888 61.245 418.063 61.245 418.273 61.385C418.483 61.525 418.553 61.735 418.483 62.015C417.223 63.835 415.823 65.305 414.283 66.425C412.743 67.475 411.273 68 409.873 68C408.263 68 407.213 66.88 406.723 64.64C406.303 62.33 406.548 59.6 407.458 56.45C405.568 59.46 403.503 62.05 401.263 64.22C399.093 66.32 396.783 67.58 394.333 68C392.653 68 391.358 67.23 390.448 65.69C389.538 64.15 389.083 62.365 389.083 60.335C389.083 58.025 389.643 55.75 390.763 53.51C391.883 51.2 393.353 49.135 395.173 47.315C397.063 45.495 399.128 44.025 401.368 42.905C403.678 41.715 405.988 41.12 408.298 41.12C410.748 41.12 412.673 41.715 414.073 42.905C414.773 42.415 415.648 41.995 416.698 41.645C417.818 41.295 418.798 41.12 419.638 41.12C419.918 41.12 420.058 41.295 420.058 41.645C418.448 43.605 417.048 45.775 415.858 48.155C414.738 50.465 413.863 52.705 413.233 54.875C412.603 56.975 412.218 58.865 412.078 60.545C411.938 62.225 412.078 63.38 412.498 64.01C412.848 64.43 413.443 64.57 414.283 64.43C415.123 64.22 416.278 63.205 417.748 61.385ZM397.588 64.115C398.428 64.115 399.443 63.59 400.633 62.54C401.893 61.49 403.188 60.09 404.518 58.34C405.848 56.59 407.143 54.63 408.403 52.46C409.733 50.29 410.888 48.085 411.868 45.845C411.588 44.935 410.923 44.2 409.873 43.64C408.893 43.08 407.738 42.8 406.408 42.8C404.798 42.8 403.293 43.22 401.893 44.06C400.493 44.83 399.268 45.95 398.218 47.42C397.238 48.82 396.433 50.535 395.803 52.565C395.243 54.525 394.963 56.695 394.963 59.075C394.963 60.615 395.208 61.84 395.698 62.75C396.258 63.66 396.888 64.115 397.588 64.115ZM443.489 41.645C443.839 41.785 443.979 41.995 443.909 42.275C443.839 42.485 443.524 42.66 442.964 42.8C441.914 42.8 440.689 42.835 439.289 42.905C437.959 42.975 436.524 43.08 434.984 43.22C433.584 46.65 432.429 50.01 431.519 53.3C430.609 56.52 430.154 59.145 430.154 61.175C430.154 63.555 431.064 64.745 432.884 64.745C434.704 64.745 436.734 63.17 438.974 60.02C439.184 59.88 439.359 59.88 439.499 60.02C439.709 60.16 439.779 60.405 439.709 60.755C438.519 62.715 437.014 64.43 435.194 65.9C433.374 67.3 431.589 68 429.839 68C428.019 68 426.654 67.58 425.744 66.74C424.904 65.83 424.484 64.605 424.484 63.065C424.484 61.035 424.974 58.235 425.954 54.665C426.934 51.095 428.194 47.455 429.734 43.745C427.914 43.955 426.234 44.235 424.694 44.585C424.344 44.515 424.239 44.34 424.379 44.06C424.589 43.78 424.904 43.5 425.324 43.22C425.814 42.87 426.374 42.59 427.004 42.38C427.634 42.1 428.229 41.96 428.789 41.96C429.069 41.96 429.349 41.96 429.629 41.96C429.909 41.96 430.189 41.925 430.469 41.855C431.379 39.825 432.324 37.865 433.304 35.975C434.284 34.085 435.264 32.37 436.244 30.83C436.664 30.34 437.224 29.92 437.924 29.57C438.694 29.15 439.429 28.835 440.129 28.625C440.829 28.415 441.389 28.31 441.809 28.31C442.299 28.24 442.509 28.345 442.439 28.625C441.249 30.445 440.059 32.475 438.869 34.715C437.749 36.955 436.664 39.3 435.614 41.75C436.944 41.68 438.274 41.645 439.604 41.645C441.004 41.645 442.299 41.645 443.489 41.645ZM464.649 46.37C464.649 50.36 459.364 53.09 448.794 54.56C448.724 55.26 448.654 55.96 448.584 56.66C448.584 57.36 448.584 58.095 448.584 58.865C448.584 60.685 449.004 62.085 449.844 63.065C450.684 64.045 452.014 64.535 453.834 64.535C455.164 64.535 456.529 64.15 457.929 63.38C459.329 62.61 460.449 61.63 461.289 60.44C461.569 60.3 461.779 60.37 461.919 60.65C462.059 60.86 462.094 61.105 462.024 61.385C460.624 63.205 458.839 64.78 456.669 66.11C454.569 67.37 452.294 68 449.844 68C447.394 68 445.609 67.405 444.489 66.215C443.439 64.955 442.914 63.205 442.914 60.965C442.914 58.795 443.369 56.555 444.279 54.245C445.189 51.865 446.344 49.695 447.744 47.735C449.214 45.775 450.859 44.2 452.679 43.01C454.569 41.75 456.459 41.12 458.349 41.12C460.239 41.12 461.744 41.68 462.864 42.8C464.054 43.85 464.649 45.04 464.649 46.37ZM455.514 43.85C453.904 43.85 452.504 44.62 451.314 46.16C450.194 47.63 449.424 49.94 449.004 53.09C452.364 52.74 454.849 52.11 456.459 51.2C458.069 50.22 458.874 49.03 458.874 47.63C458.874 46.58 458.559 45.705 457.929 45.005C457.299 44.235 456.494 43.85 455.514 43.85ZM480.956 41.12C482.496 41.12 483.721 41.33 484.631 41.75C485.611 42.17 486.101 42.695 486.101 43.325C486.101 44.095 485.891 44.97 485.471 45.95C485.121 46.93 484.771 47.735 484.421 48.365C484.281 48.505 484.106 48.54 483.896 48.47C483.686 48.33 483.581 48.12 483.581 47.84C483.791 47.35 483.896 46.65 483.896 45.74C483.896 44.76 483.616 43.955 483.056 43.325C482.566 42.695 481.866 42.38 480.956 42.38C479.766 42.38 478.786 42.765 478.016 43.535C477.316 44.235 476.966 45.25 476.966 46.58C476.966 47.7 477.246 48.785 477.806 49.835C478.436 50.815 479.101 51.83 479.801 52.88C480.571 53.86 481.271 54.945 481.901 56.135C482.531 57.255 482.846 58.55 482.846 60.02C482.846 62.54 481.831 64.5 479.801 65.9C477.771 67.3 475.111 68 471.821 68C469.441 68 467.551 67.615 466.151 66.845C464.821 66.075 464.156 65.235 464.156 64.325C464.156 64.045 464.261 63.66 464.471 63.17C464.681 62.68 464.961 62.155 465.311 61.595C465.661 61.035 466.046 60.475 466.466 59.915C466.886 59.355 467.341 58.9 467.831 58.55C468.041 58.41 468.216 58.445 468.356 58.655C468.566 58.865 468.601 59.075 468.461 59.285C468.041 59.705 467.726 60.16 467.516 60.65C467.306 61.07 467.201 61.665 467.201 62.435C467.201 63.695 467.621 64.745 468.461 65.585C469.301 66.355 470.386 66.74 471.716 66.74C473.536 66.74 474.936 66.25 475.916 65.27C476.966 64.22 477.491 62.96 477.491 61.49C477.491 60.16 477.176 58.935 476.546 57.815C475.986 56.625 475.356 55.505 474.656 54.455C473.956 53.335 473.291 52.215 472.661 51.095C472.101 49.975 471.821 48.785 471.821 47.525C471.821 45.705 472.591 44.2 474.131 43.01C475.671 41.75 477.946 41.12 480.956 41.12ZM509.626 41.645C509.976 41.785 510.116 41.995 510.046 42.275C509.976 42.485 509.661 42.66 509.101 42.8C508.051 42.8 506.826 42.835 505.426 42.905C504.096 42.975 502.661 43.08 501.121 43.22C499.721 46.65 498.566 50.01 497.656 53.3C496.746 56.52 496.291 59.145 496.291 61.175C496.291 63.555 497.201 64.745 499.021 64.745C500.841 64.745 502.871 63.17 505.111 60.02C505.321 59.88 505.496 59.88 505.636 60.02C505.846 60.16 505.916 60.405 505.846 60.755C504.656 62.715 503.151 64.43 501.331 65.9C499.511 67.3 497.726 68 495.976 68C494.156 68 492.791 67.58 491.881 66.74C491.041 65.83 490.621 64.605 490.621 63.065C490.621 61.035 491.111 58.235 492.091 54.665C493.071 51.095 494.331 47.455 495.871 43.745C494.051 43.955 492.371 44.235 490.831 44.585C490.481 44.515 490.376 44.34 490.516 44.06C490.726 43.78 491.041 43.5 491.461 43.22C491.951 42.87 492.511 42.59 493.141 42.38C493.771 42.1 494.366 41.96 494.926 41.96C495.206 41.96 495.486 41.96 495.766 41.96C496.046 41.96 496.326 41.925 496.606 41.855C497.516 39.825 498.461 37.865 499.441 35.975C500.421 34.085 501.401 32.37 502.381 30.83C502.801 30.34 503.361 29.92 504.061 29.57C504.831 29.15 505.566 28.835 506.266 28.625C506.966 28.415 507.526 28.31 507.946 28.31C508.436 28.24 508.646 28.345 508.576 28.625C507.386 30.445 506.196 32.475 505.006 34.715C503.886 36.955 502.801 39.3 501.751 41.75C503.081 41.68 504.411 41.645 505.741 41.645C507.141 41.645 508.436 41.645 509.626 41.645Z" fill="#394149"/>
</svg>
