<svg width="72" height="26" viewBox="0 0 72 26" fill="none" xmlns="http://www.w3.org/2000/svg">
<path d="M5.315 21.115H13.365V25H0.415V0.57H5.315V21.115ZM34.7845 5.61V25H29.8495V22.55C29.2195 23.39 28.3911 24.055 27.3645 24.545C26.3611 25.0117 25.2645 25.245 24.0745 25.245C22.5578 25.245 21.2161 24.93 20.0495 24.3C18.8828 23.6467 17.9611 22.7017 17.2845 21.465C16.6311 20.205 16.3045 18.7117 16.3045 16.985V5.61H21.2045V16.285C21.2045 17.825 21.5895 19.015 22.3595 19.855C23.1295 20.6717 24.1795 21.08 25.5095 21.08C26.8628 21.08 27.9245 20.6717 28.6945 19.855C29.4645 19.015 29.8495 17.825 29.8495 16.285V5.61H34.7845ZM47.7041 20.485L52.6041 5.61H57.8191L50.6441 25H44.6941L37.5541 5.61H42.8041L47.7041 20.485ZM65.4713 8.62C66.1013 7.59333 66.9179 6.78833 67.9213 6.205C68.9479 5.62167 70.1146 5.33 71.4213 5.33V10.475H70.1263C68.5863 10.475 67.4196 10.8367 66.6263 11.56C65.8563 12.2833 65.4713 13.5433 65.4713 15.34V25H60.5713V5.61H65.4713V8.62Z" fill="#394149"/>
</svg>
