<svg width="473" height="79" viewBox="0 0 473 79" fill="none" xmlns="http://www.w3.org/2000/svg">
<path opacity="0.2" d="M123.995 11.38C126.235 11.38 127.845 12.29 128.825 14.11C129.875 15.86 130.4 18.52 130.4 22.09C130.33 22.51 130.12 22.755 129.77 22.825C129.42 22.895 129.175 22.72 129.035 22.3C128.895 21.18 128.37 20.095 127.46 19.045C126.55 17.995 125.045 17.47 122.945 17.47C120.705 17.47 118.43 18.345 116.12 20.095C113.81 21.845 111.535 24.19 109.295 27.13C107.125 30.07 105.06 33.535 103.1 37.525C101.21 41.445 99.495 45.61 97.955 50.02C96.485 54.43 95.295 58.98 94.385 63.67C93.475 68.29 92.95 72.77 92.81 77.11C92.81 77.88 92.74 78.405 92.6 78.685C92.46 78.895 92.215 79 91.865 79C91.515 79 91.27 78.86 91.13 78.58C90.99 78.23 90.85 77.845 90.71 77.425C87.56 65.875 83.745 55.655 79.265 46.765C74.785 37.875 69.71 30.805 64.04 25.555C62.5 34.165 60.295 41.795 57.425 48.445C54.625 55.095 51.3 60.695 47.45 65.245C43.67 69.725 39.435 73.155 34.745 75.535C30.125 77.845 25.225 79 20.045 79C16.755 79 13.885 78.615 11.435 77.845C8.985 77.005 6.955 75.885 5.345 74.485C3.735 73.085 2.51 71.44 1.67 69.55C0.9 67.66 0.515 65.595 0.515 63.355C0.515 60.555 1.18 57.825 2.51 55.165C3.91 52.435 5.905 50.23 8.495 48.55C8.845 48.41 9.09 48.48 9.23 48.76C9.37 49.04 9.37 49.355 9.23 49.705C7.97 50.965 6.955 52.4 6.185 54.01C5.485 55.55 5.135 57.195 5.135 58.945C5.135 63.355 6.605 66.89 9.545 69.55C12.485 72.21 16.895 73.54 22.775 73.54C32.855 73.54 41.29 69.41 48.08 61.15C54.87 52.82 59.49 40.325 61.94 23.665C58.79 21.145 55.57 19.22 52.28 17.89C48.99 16.49 45.56 15.79 41.99 15.79C38.63 15.79 35.83 16.56 33.59 18.1C31.42 19.64 29.845 21.32 28.865 23.14C28.655 23.35 28.41 23.42 28.13 23.35C27.92 23.28 27.78 23.07 27.71 22.72C28.34 21.39 29.25 20.06 30.44 18.73C31.63 17.33 32.995 16.105 34.535 15.055C36.145 13.935 37.895 13.06 39.785 12.43C41.745 11.73 43.775 11.38 45.875 11.38C48.815 11.38 51.685 11.905 54.485 12.955C57.355 13.935 60.12 15.37 62.78 17.26C62.92 16.84 63.13 16.385 63.41 15.895C63.69 15.335 63.97 14.845 64.25 14.425C64.6 14.005 64.88 13.725 65.09 13.585C65.37 13.375 65.545 13.41 65.615 13.69C65.545 14.6 65.475 15.51 65.405 16.42C65.335 17.26 65.23 18.1 65.09 18.94C68.17 21.39 71.075 24.33 73.805 27.76C76.605 31.12 79.16 34.795 81.47 38.785C83.85 42.775 85.985 47.01 87.875 51.49C89.765 55.9 91.375 60.38 92.705 64.93C93.265 61.08 94.105 57.09 95.225 52.96C96.345 48.83 97.71 44.805 99.32 40.885C100.93 36.895 102.68 33.115 104.57 29.545C106.53 25.975 108.56 22.86 110.66 20.2C112.83 17.47 115.035 15.335 117.275 13.795C119.515 12.185 121.755 11.38 123.995 11.38ZM125.167 57.37C125.167 61.36 119.882 64.09 109.312 65.56C109.242 66.26 109.172 66.96 109.102 67.66C109.102 68.36 109.102 69.095 109.102 69.865C109.102 71.685 109.522 73.085 110.362 74.065C111.202 75.045 112.532 75.535 114.352 75.535C115.682 75.535 117.047 75.15 118.447 74.38C119.847 73.61 120.967 72.63 121.807 71.44C122.087 71.3 122.297 71.37 122.437 71.65C122.577 71.86 122.612 72.105 122.542 72.385C121.142 74.205 119.357 75.78 117.187 77.11C115.087 78.37 112.812 79 110.362 79C107.912 79 106.127 78.405 105.007 77.215C103.957 75.955 103.432 74.205 103.432 71.965C103.432 69.795 103.887 67.555 104.797 65.245C105.707 62.865 106.862 60.695 108.262 58.735C109.732 56.775 111.377 55.2 113.197 54.01C115.087 52.75 116.977 52.12 118.867 52.12C120.757 52.12 122.262 52.68 123.382 53.8C124.572 54.85 125.167 56.04 125.167 57.37ZM116.032 54.85C114.422 54.85 113.022 55.62 111.832 57.16C110.712 58.63 109.942 60.94 109.522 64.09C112.882 63.74 115.367 63.11 116.977 62.2C118.587 61.22 119.392 60.03 119.392 58.63C119.392 57.58 119.077 56.705 118.447 56.005C117.817 55.235 117.012 54.85 116.032 54.85ZM163.524 52.12C164.714 52.12 165.729 52.785 166.569 54.115C167.409 55.375 167.829 57.02 167.829 59.05C167.829 61.78 167.199 64.37 165.939 66.82C164.749 69.2 163.244 71.3 161.424 73.12C159.604 74.94 157.644 76.375 155.544 77.425C153.444 78.475 151.519 79 149.769 79C148.089 79 146.829 78.475 145.989 77.425C145.219 76.375 144.834 74.94 144.834 73.12C144.834 71.44 144.974 69.515 145.254 67.345C145.534 65.175 145.849 63.39 146.199 61.99C144.799 63.81 143.329 65.98 141.789 68.5C140.249 71.02 138.709 73.61 137.169 76.27C136.749 77.04 136.084 77.705 135.174 78.265C134.264 78.755 133.389 79 132.549 79C131.989 79 131.779 78.615 131.919 77.845C132.409 76.165 132.794 74.1 133.074 71.65C133.424 69.13 133.599 66.68 133.599 64.3C133.599 61.92 133.424 59.855 133.074 58.105C132.794 56.355 132.234 55.305 131.394 54.955C130.904 54.815 130.344 54.955 129.714 55.375C129.084 55.795 128.594 56.39 128.244 57.16C128.104 57.3 127.929 57.3 127.719 57.16C127.509 56.95 127.439 56.705 127.509 56.425C127.859 55.585 128.664 54.675 129.924 53.695C131.254 52.645 132.654 52.12 134.124 52.12C135.804 52.12 136.994 52.995 137.694 54.745C138.464 56.495 138.849 59.365 138.849 63.355C138.849 65.175 138.779 66.855 138.639 68.395C138.499 69.865 138.324 71.16 138.114 72.28C139.514 69.83 140.844 67.73 142.104 65.98C143.364 64.23 144.554 62.62 145.674 61.15C146.094 60.59 146.444 59.96 146.724 59.26C147.074 58.49 147.424 57.44 147.774 56.11C147.844 55.69 148.159 55.305 148.719 54.955C149.349 54.535 149.979 54.22 150.609 54.01C151.309 53.8 151.904 53.695 152.394 53.695C152.884 53.625 153.129 53.765 153.129 54.115C152.009 56.425 151.169 59.12 150.609 62.2C150.049 65.21 149.769 68.01 149.769 70.6C149.769 72.35 150.189 73.645 151.029 74.485C151.869 75.255 152.884 75.64 154.074 75.64C155.334 75.64 156.524 75.255 157.644 74.485C158.834 73.715 159.884 72.7 160.794 71.44C161.704 70.18 162.439 68.71 162.999 67.03C163.559 65.28 163.839 63.46 163.839 61.57C163.839 58.84 163.314 57.09 162.264 56.32C161.214 55.55 160.094 55.655 158.904 56.635C158.624 56.705 158.414 56.67 158.274 56.53C158.134 56.32 158.099 56.11 158.169 55.9C158.379 55.55 158.729 55.165 159.219 54.745C159.709 54.255 160.199 53.835 160.689 53.485C161.249 53.065 161.774 52.75 162.264 52.54C162.824 52.26 163.244 52.12 163.524 52.12ZM292.184 17.575C292.394 17.715 292.499 17.925 292.499 18.205C292.499 18.415 292.289 18.73 291.869 19.15C289.559 21.67 287.494 24.575 285.674 27.865C283.854 31.085 282.314 34.62 281.054 38.47C279.794 42.32 278.814 46.38 278.114 50.65C277.414 54.92 277.064 59.295 277.064 63.775C277.064 67.135 277.449 69.76 278.219 71.65C279.059 73.47 280.494 74.38 282.524 74.38C285.324 74.38 287.984 72.42 290.504 68.5C290.714 68.36 290.924 68.36 291.134 68.5C291.344 68.64 291.414 68.85 291.344 69.13C289.524 72.07 287.494 74.45 285.254 76.27C283.084 78.09 281.054 79 279.164 79C276.364 79 274.229 77.915 272.759 75.745C271.359 73.575 270.659 70.495 270.659 66.505C270.659 60.905 271.289 55.2 272.549 49.39C269.259 49.39 266.004 49.425 262.784 49.495C259.634 49.565 256.554 49.67 253.544 49.81C251.234 52.26 248.994 54.57 246.824 56.74C244.724 58.91 242.659 60.905 240.629 62.725C235.029 67.835 229.254 71.825 223.304 74.695C217.424 77.565 210.949 79 203.879 79C200.099 79 197.054 78.16 194.744 76.48C192.504 74.8 190.999 72.665 190.229 70.075C189.529 67.485 189.564 64.65 190.334 61.57C191.104 58.49 192.644 55.515 194.954 52.645C195.164 52.505 195.409 52.54 195.689 52.75C195.969 52.89 196.074 53.205 196.004 53.695C194.394 55.445 193.484 57.475 193.274 59.785C193.134 62.025 193.624 64.16 194.744 66.19C195.934 68.15 197.754 69.83 200.204 71.23C202.654 72.56 205.734 73.225 209.444 73.225C215.394 73.225 220.959 72 226.139 69.55C231.389 67.1 236.324 63.775 240.944 59.575C242.554 58.175 244.164 56.67 245.774 55.06C247.384 53.45 249.064 51.77 250.814 50.02C248.364 50.16 246.054 50.335 243.884 50.545C241.714 50.685 239.684 50.895 237.794 51.175C237.444 51.105 237.374 50.93 237.584 50.65C237.794 50.37 238.109 50.09 238.529 49.81C238.949 49.46 239.439 49.18 239.999 48.97C240.629 48.69 241.224 48.515 241.784 48.445C242.694 48.375 244.094 48.34 245.984 48.34C247.944 48.27 250.149 48.2 252.599 48.13C256.519 44.07 260.859 39.695 265.619 35.005C270.449 30.245 276.154 25.275 282.734 20.095C278.044 18.555 273.179 17.295 268.139 16.315C263.169 15.265 258.374 14.74 253.754 14.74C248.504 14.74 244.199 16.21 240.839 19.15C237.479 22.02 235.414 26.57 234.644 32.8C234.504 33.15 234.294 33.29 234.014 33.22C233.804 33.15 233.664 32.94 233.594 32.59C234.434 25.73 236.989 20.48 241.259 16.84C245.529 13.2 251.059 11.38 257.849 11.38C260.719 11.38 263.729 11.59 266.879 12.01C270.029 12.36 273.109 12.85 276.119 13.48C279.199 14.04 282.104 14.705 284.834 15.475C287.634 16.175 290.084 16.875 292.184 17.575ZM272.864 48.025C273.984 42.985 275.559 38.085 277.589 33.325C279.619 28.565 282.104 24.19 285.044 20.2C278.884 25.17 273.389 30 268.559 34.69C263.729 39.38 259.284 43.86 255.224 48.13C258.584 48.06 261.874 48.025 265.094 48.025C268.384 48.025 270.974 48.025 272.864 48.025ZM305.798 55.165C305.798 56.215 305.693 57.405 305.483 58.735C305.273 60.065 304.993 61.43 304.643 62.83C306.043 59.47 307.583 56.845 309.263 54.955C310.943 53.065 312.763 52.12 314.723 52.12C315.773 52.12 316.578 52.365 317.138 52.855C317.698 53.345 317.978 53.975 317.978 54.745C317.978 55.445 317.698 56.355 317.138 57.475C316.648 58.595 316.228 59.365 315.878 59.785C315.738 59.855 315.598 59.855 315.458 59.785C315.318 59.645 315.248 59.505 315.248 59.365C315.248 58.875 315.038 58.455 314.618 58.105C314.268 57.755 313.708 57.58 312.938 57.58C310.488 57.58 308.248 59.26 306.218 62.62C304.258 65.91 302.438 70.67 300.758 76.9C300.688 77.25 300.443 77.565 300.023 77.845C299.603 78.055 299.113 78.265 298.553 78.475C298.063 78.615 297.538 78.755 296.978 78.895C296.418 78.965 295.928 79 295.508 79C294.738 79 294.528 78.58 294.878 77.74C295.508 76.27 296.103 74.695 296.663 73.015C297.293 71.265 297.853 69.515 298.343 67.765C298.833 66.015 299.253 64.335 299.603 62.725C299.953 61.045 300.233 59.505 300.443 58.105C300.583 57.055 300.618 56.25 300.548 55.69C300.548 55.13 300.268 54.85 299.708 54.85C299.008 54.85 298.273 55.165 297.503 55.795C296.803 56.355 296.138 57.09 295.508 58C295.228 58.21 294.948 58.245 294.668 58.105C294.458 57.895 294.423 57.65 294.563 57.37C294.983 56.81 295.473 56.25 296.033 55.69C296.663 55.06 297.328 54.5 298.028 54.01C298.798 53.45 299.568 52.995 300.338 52.645C301.178 52.295 302.018 52.12 302.858 52.12C303.978 52.12 304.748 52.4 305.168 52.96C305.588 53.45 305.798 54.185 305.798 55.165ZM328.049 55.165C328.049 56.215 327.944 57.405 327.734 58.735C327.524 60.065 327.244 61.43 326.894 62.83C328.294 59.47 329.834 56.845 331.514 54.955C333.194 53.065 335.014 52.12 336.974 52.12C338.024 52.12 338.829 52.365 339.389 52.855C339.949 53.345 340.229 53.975 340.229 54.745C340.229 55.445 339.949 56.355 339.389 57.475C338.899 58.595 338.479 59.365 338.129 59.785C337.989 59.855 337.849 59.855 337.709 59.785C337.569 59.645 337.499 59.505 337.499 59.365C337.499 58.875 337.289 58.455 336.869 58.105C336.519 57.755 335.959 57.58 335.189 57.58C332.739 57.58 330.499 59.26 328.469 62.62C326.509 65.91 324.689 70.67 323.009 76.9C322.939 77.25 322.694 77.565 322.274 77.845C321.854 78.055 321.364 78.265 320.804 78.475C320.314 78.615 319.789 78.755 319.229 78.895C318.669 78.965 318.179 79 317.759 79C316.989 79 316.779 78.58 317.129 77.74C317.759 76.27 318.354 74.695 318.914 73.015C319.544 71.265 320.104 69.515 320.594 67.765C321.084 66.015 321.504 64.335 321.854 62.725C322.204 61.045 322.484 59.505 322.694 58.105C322.834 57.055 322.869 56.25 322.799 55.69C322.799 55.13 322.519 54.85 321.959 54.85C321.259 54.85 320.524 55.165 319.754 55.795C319.054 56.355 318.389 57.09 317.759 58C317.479 58.21 317.199 58.245 316.919 58.105C316.709 57.895 316.674 57.65 316.814 57.37C317.234 56.81 317.724 56.25 318.284 55.69C318.914 55.06 319.579 54.5 320.279 54.01C321.049 53.45 321.819 52.995 322.589 52.645C323.429 52.295 324.269 52.12 325.109 52.12C326.229 52.12 326.999 52.4 327.419 52.96C327.839 53.45 328.049 54.185 328.049 55.165ZM352.715 47.605C352.505 47.815 352.26 47.815 351.98 47.605C351.77 47.395 351.595 47.115 351.455 46.765C351.315 46.345 351.245 45.925 351.245 45.505C351.245 45.015 351.35 44.595 351.56 44.245C352.33 43.265 353.45 42.04 354.92 40.57C356.46 39.03 358.035 37.735 359.645 36.685C359.785 36.615 359.96 36.685 360.17 36.895C360.38 37.035 360.45 37.175 360.38 37.315C358.91 38.645 357.51 40.255 356.18 42.145C354.85 43.965 353.695 45.785 352.715 47.605ZM341.48 59.47C341.27 59.61 341.095 59.575 340.955 59.365C340.815 59.085 340.78 58.84 340.85 58.63C343.44 56.53 347.045 54.36 351.665 52.12C352.225 52.12 352.505 52.435 352.505 53.065C351.595 54.675 350.685 56.425 349.775 58.315C348.935 60.205 348.165 62.095 347.465 63.985C346.835 65.805 346.31 67.59 345.89 69.34C345.47 71.02 345.26 72.42 345.26 73.54C345.26 74.94 345.75 75.64 346.73 75.64C347.5 75.64 348.235 75.325 348.935 74.695C349.705 73.995 350.58 73.12 351.56 72.07C351.7 71.93 351.875 71.965 352.085 72.175C352.295 72.315 352.33 72.56 352.19 72.91C350.65 74.73 349.11 76.2 347.57 77.32C346.1 78.44 344.665 79 343.265 79C340.815 79 339.59 77.845 339.59 75.535C339.59 74.275 339.765 72.805 340.115 71.125C340.535 69.375 341.06 67.625 341.69 65.875C342.39 64.055 343.125 62.305 343.895 60.625C344.735 58.875 345.575 57.37 346.415 56.11C345.645 56.53 344.77 57.055 343.79 57.685C342.88 58.315 342.11 58.91 341.48 59.47ZM365.946 77.53C364.966 77.88 363.811 78.23 362.481 78.58C361.221 78.86 359.961 79 358.701 79C357.861 79 357.616 78.545 357.966 77.635C359.156 74.695 360.171 71.51 361.011 68.08C361.851 64.58 362.446 61.465 362.796 58.735C363.006 56.285 362.621 55.06 361.641 55.06C360.591 55.06 359.296 55.865 357.756 57.475C357.406 57.615 357.126 57.58 356.916 57.37C356.706 57.16 356.671 56.915 356.811 56.635C358.071 55.375 359.471 54.325 361.011 53.485C362.621 52.575 364.231 52.12 365.841 52.12C366.891 52.12 367.591 52.435 367.941 53.065C368.291 53.695 368.466 54.5 368.466 55.48C368.466 56.81 368.326 58.385 368.046 60.205C367.766 62.025 367.381 63.95 366.891 65.98C366.471 67.94 365.981 69.9 365.421 71.86C364.931 73.75 364.441 75.465 363.951 77.005C365.911 76.515 367.836 75.605 369.726 74.275C371.686 72.945 373.436 71.405 374.976 69.655C376.516 67.905 377.741 66.015 378.651 63.985C379.631 61.885 380.121 59.785 380.121 57.685C380.121 55.865 379.561 54.955 378.441 54.955C377.811 54.955 377.286 55.095 376.866 55.375C376.516 55.585 376.131 56.005 375.711 56.635C375.501 56.775 375.326 56.74 375.186 56.53C375.046 56.32 375.011 56.11 375.081 55.9C375.571 55.13 376.411 54.325 377.601 53.485C378.861 52.575 380.156 52.12 381.486 52.12C382.606 52.12 383.446 52.54 384.006 53.38C384.636 54.15 384.951 55.13 384.951 56.32C384.951 58.35 384.426 60.415 383.376 62.515C382.326 64.545 380.926 66.505 379.176 68.395C377.426 70.285 375.396 72.035 373.086 73.645C370.776 75.185 368.396 76.48 365.946 77.53ZM417.363 72.385C417.503 72.245 417.678 72.245 417.888 72.385C418.098 72.525 418.168 72.735 418.098 73.015C416.838 74.835 415.438 76.305 413.898 77.425C412.358 78.475 410.888 79 409.488 79C407.878 79 406.828 77.88 406.338 75.64C405.918 73.33 406.163 70.6 407.073 67.45C405.183 70.46 403.118 73.05 400.878 75.22C398.708 77.32 396.398 78.58 393.948 79C392.268 79 390.973 78.23 390.063 76.69C389.153 75.15 388.698 73.365 388.698 71.335C388.698 69.025 389.258 66.75 390.378 64.51C391.498 62.2 392.968 60.135 394.788 58.315C396.678 56.495 398.743 55.025 400.983 53.905C403.293 52.715 405.603 52.12 407.913 52.12C410.363 52.12 412.288 52.715 413.688 53.905C414.388 53.415 415.263 52.995 416.313 52.645C417.433 52.295 418.413 52.12 419.253 52.12C419.533 52.12 419.673 52.295 419.673 52.645C418.063 54.605 416.663 56.775 415.473 59.155C414.353 61.465 413.478 63.705 412.848 65.875C412.218 67.975 411.833 69.865 411.693 71.545C411.553 73.225 411.693 74.38 412.113 75.01C412.463 75.43 413.058 75.57 413.898 75.43C414.738 75.22 415.893 74.205 417.363 72.385ZM397.203 75.115C398.043 75.115 399.058 74.59 400.248 73.54C401.508 72.49 402.803 71.09 404.133 69.34C405.463 67.59 406.758 65.63 408.018 63.46C409.348 61.29 410.503 59.085 411.483 56.845C411.203 55.935 410.538 55.2 409.488 54.64C408.508 54.08 407.353 53.8 406.023 53.8C404.413 53.8 402.908 54.22 401.508 55.06C400.108 55.83 398.883 56.95 397.833 58.42C396.853 59.82 396.048 61.535 395.418 63.565C394.858 65.525 394.578 67.695 394.578 70.075C394.578 71.615 394.823 72.84 395.313 73.75C395.873 74.66 396.503 75.115 397.203 75.115ZM467.884 0.984997C468.934 0.984997 469.774 1.265 470.404 1.825C471.104 2.315 471.559 3.015 471.769 3.925C472.049 4.765 472.084 5.745 471.874 6.865C471.734 7.985 471.349 9.105 470.719 10.225C470.579 10.365 470.404 10.365 470.194 10.225C469.984 10.085 469.844 9.91 469.774 9.7C469.914 8.86 469.599 8.16 468.829 7.6C468.129 7.04 467.009 6.76 465.469 6.76C462.599 6.76 459.694 7.845 456.754 10.015C453.884 12.115 451.084 14.915 448.354 18.415C445.624 21.915 443.069 25.94 440.689 30.49C438.309 35.04 436.244 39.73 434.494 44.56C432.744 49.39 431.344 54.185 430.294 58.945C429.314 63.705 428.824 68.045 428.824 71.965C428.824 74.065 429.419 75.115 430.609 75.115C431.449 75.115 432.254 74.765 433.024 74.065C433.864 73.365 434.809 72.315 435.859 70.915C436.069 70.775 436.244 70.81 436.384 71.02C436.594 71.16 436.664 71.37 436.594 71.65C435.194 73.75 433.549 75.5 431.659 76.9C429.769 78.3 428.054 79 426.514 79C425.184 79 424.239 78.615 423.679 77.845C423.189 77.075 422.944 76.095 422.944 74.905C422.944 71.615 423.644 67.52 425.044 62.62C426.444 57.65 428.299 52.435 430.609 46.975C432.989 41.445 435.719 35.95 438.799 30.49C441.879 25.03 445.064 20.13 448.354 15.79C451.714 11.38 455.074 7.81 458.434 5.07999C461.794 2.35 464.944 0.984997 467.884 0.984997ZM451.86 52.12C453.4 52.12 454.625 52.33 455.535 52.75C456.515 53.17 457.005 53.695 457.005 54.325C457.005 55.095 456.795 55.97 456.375 56.95C456.025 57.93 455.675 58.735 455.325 59.365C455.185 59.505 455.01 59.54 454.8 59.47C454.59 59.33 454.485 59.12 454.485 58.84C454.695 58.35 454.8 57.65 454.8 56.74C454.8 55.76 454.52 54.955 453.96 54.325C453.47 53.695 452.77 53.38 451.86 53.38C450.67 53.38 449.69 53.765 448.92 54.535C448.22 55.235 447.87 56.25 447.87 57.58C447.87 58.7 448.15 59.785 448.71 60.835C449.34 61.815 450.005 62.83 450.705 63.88C451.475 64.86 452.175 65.945 452.805 67.135C453.435 68.255 453.75 69.55 453.75 71.02C453.75 73.54 452.735 75.5 450.705 76.9C448.675 78.3 446.015 79 442.725 79C440.345 79 438.455 78.615 437.055 77.845C435.725 77.075 435.06 76.235 435.06 75.325C435.06 75.045 435.165 74.66 435.375 74.17C435.585 73.68 435.865 73.155 436.215 72.595C436.565 72.035 436.95 71.475 437.37 70.915C437.79 70.355 438.245 69.9 438.735 69.55C438.945 69.41 439.12 69.445 439.26 69.655C439.47 69.865 439.505 70.075 439.365 70.285C438.945 70.705 438.63 71.16 438.42 71.65C438.21 72.07 438.105 72.665 438.105 73.435C438.105 74.695 438.525 75.745 439.365 76.585C440.205 77.355 441.29 77.74 442.62 77.74C444.44 77.74 445.84 77.25 446.82 76.27C447.87 75.22 448.395 73.96 448.395 72.49C448.395 71.16 448.08 69.935 447.45 68.815C446.89 67.625 446.26 66.505 445.56 65.455C444.86 64.335 444.195 63.215 443.565 62.095C443.005 60.975 442.725 59.785 442.725 58.525C442.725 56.705 443.495 55.2 445.035 54.01C446.575 52.75 448.85 52.12 451.86 52.12Z" fill="#394149"/>
</svg>
