<svg width="15" height="15" viewBox="0 0 15 15" fill="none" xmlns="http://www.w3.org/2000/svg">
<g clip-path="url(#clip0_6_5470)">
<path d="M6.46319 9.92057C6.06869 11.9861 5.58794 13.9661 4.16219 15.0003C3.72269 11.8788 4.80794 9.53507 5.31269 7.04657C4.45244 5.59907 5.41619 2.68757 7.22894 3.40532C9.46019 4.28732 5.29694 8.78432 8.09144 9.34682C11.0097 9.93257 12.2007 4.28432 10.3909 2.44757C7.77719 -0.205929 2.78144 2.38532 3.39644 6.18407C3.54569 7.11257 4.50494 7.39382 3.77969 8.67557C2.10644 8.30507 1.60694 6.98507 1.67144 5.22557C1.77494 2.34557 4.25819 0.330321 6.74969 0.0505709C9.90044 -0.302679 12.8577 1.20782 13.2664 4.17107C13.7262 7.51682 11.8444 11.1408 8.47469 10.8798C7.56119 10.8086 7.17869 10.3556 6.46319 9.92057Z" fill="#394149"/>
</g>
<defs>
<clipPath id="clip0_6_5470">
<rect width="15" height="15" fill="white"/>
</clipPath>
</defs>
</svg>
