<svg width="532" height="106" viewBox="0 0 532 106" fill="none" xmlns="http://www.w3.org/2000/svg">
<path opacity="0.2" d="M69.76 12.59C72.98 13.01 75.885 13.815 78.475 15.005C81.065 16.195 83.235 17.7 84.985 19.52C86.805 21.27 88.205 23.3 89.185 25.61C90.165 27.85 90.655 30.23 90.655 32.75C90.655 36.04 89.99 39.12 88.66 41.99C87.4 44.86 85.58 47.345 83.2 49.445C80.89 51.545 78.055 53.225 74.695 54.485C71.335 55.675 67.555 56.27 63.355 56.27C58.805 56.27 55.025 55.15 52.015 52.91C47.605 62.36 42.425 69.255 36.475 73.595C30.525 77.865 24.12 80 17.26 80C11.45 80 7.145 78.565 4.345 75.695C1.615 72.755 0.25 69.08 0.25 64.67C0.25 63.34 0.46 62.01 0.88 60.68C1.37 59.28 2.035 57.985 2.875 56.795C3.715 55.535 4.73 54.415 5.92 53.435C7.18 52.455 8.58 51.65 10.12 51.02C10.33 50.88 10.505 50.88 10.645 51.02C10.855 51.16 10.89 51.405 10.75 51.755C8.65 52.875 7.11 54.38 6.13 56.27C5.15 58.16 4.66 60.19 4.66 62.36C4.66 64.25 4.975 66.07 5.605 67.82C6.235 69.5 7.215 70.97 8.545 72.23C9.945 73.49 11.695 74.505 13.795 75.275C15.895 75.975 18.415 76.325 21.355 76.325C24.715 76.325 27.655 75.905 30.175 75.065C32.695 74.225 34.97 72.755 37 70.655C39.1 68.555 40.99 65.72 42.67 62.15C44.42 58.51 46.17 53.925 47.92 48.395C46.66 46.365 45.785 44.16 45.295 41.78C45.365 41.5 45.505 41.29 45.715 41.15C45.925 41.01 46.1 41.045 46.24 41.255C46.73 43.285 47.465 45.105 48.445 46.715C48.725 45.805 48.97 44.86 49.18 43.88C49.46 42.9 49.74 41.92 50.02 40.94C51.77 34.71 53.695 29.53 55.795 25.4C57.895 21.27 60.275 17.945 62.935 15.425C62.585 15.355 62.06 15.32 61.36 15.32C53.94 15.32 47.71 17.035 42.67 20.465C37.63 23.825 34.095 29.005 32.065 36.005C31.855 36.215 31.61 36.25 31.33 36.11C31.12 35.9 31.015 35.55 31.015 35.06C33.395 28.06 37.35 22.53 42.88 18.47C48.48 14.41 55.83 12.38 64.93 12.38H66.61C69.27 10.63 72.245 9.335 75.535 8.49499C75.885 8.49499 76.06 8.66999 76.06 9.01999C76.06 9.29999 75.885 9.51 75.535 9.65C73.435 10.28 71.51 11.26 69.76 12.59ZM64.51 54.17C67.45 54.17 70.11 53.68 72.49 52.7C74.87 51.72 76.9 50.355 78.58 48.605C80.33 46.855 81.66 44.825 82.57 42.515C83.48 40.205 83.935 37.72 83.935 35.06C83.935 30.09 82.43 25.89 79.42 22.46C76.48 18.96 72.245 16.72 66.715 15.74C63.215 20.15 60.31 26.87 58 35.9C57.23 38.77 56.39 41.5 55.48 44.09C54.64 46.61 53.73 48.99 52.75 51.23C55.62 53.19 59.54 54.17 64.51 54.17ZM100.03 53.12C102.48 53.12 104.3 53.855 105.49 55.325C106.68 56.795 107.275 58.51 107.275 60.47C107.275 63.2 106.715 65.755 105.595 68.135C104.545 70.445 103.215 72.51 101.605 74.33C100.065 76.08 98.3854 77.48 96.5654 78.53C94.7454 79.51 93.1004 80 91.6304 80C89.2504 80 87.4304 79.3 86.1704 77.9C84.9804 76.43 84.3854 74.575 84.3854 72.335C84.3854 70.305 84.8054 68.17 85.6454 65.93C86.5554 63.69 87.7104 61.625 89.1104 59.735C90.5804 57.845 92.2604 56.27 94.1504 55.01C96.0404 53.75 98.0004 53.12 100.03 53.12ZM94.2554 76.745C96.4254 76.745 98.2454 75.625 99.7154 73.385C101.255 71.075 102.025 67.925 102.025 63.935C102.025 61.835 101.605 60.085 100.765 58.685C99.9254 57.285 98.7004 56.585 97.0904 56.585C94.8504 56.585 93.0304 57.67 91.6304 59.84C90.2304 62.01 89.5304 65.195 89.5304 69.395C89.5304 71.845 89.9504 73.7 90.7904 74.96C91.7004 76.15 92.8554 76.745 94.2554 76.745ZM133.086 53.12C134.626 53.12 135.851 53.89 136.761 55.43C137.741 56.9 138.231 58.65 138.231 60.68C138.231 63.55 137.636 66.175 136.446 68.555C135.326 70.865 133.821 72.895 131.931 74.645C130.041 76.325 127.871 77.655 125.421 78.635C122.971 79.545 120.486 80 117.966 80C116.776 80 115.761 79.86 114.921 79.58C113.731 83.01 112.646 86.685 111.666 90.605C110.756 94.525 110.301 98.165 110.301 101.525C110.301 103.135 111.071 103.765 112.611 103.415C113.171 103.345 113.696 103.205 114.186 102.995C114.746 102.785 115.271 102.505 115.761 102.155C116.041 102.155 116.181 102.295 116.181 102.575C116.251 102.855 116.216 103.135 116.076 103.415C115.656 103.625 115.026 103.835 114.186 104.045C113.416 104.325 112.576 104.57 111.666 104.78C110.756 105.06 109.846 105.27 108.936 105.41C108.026 105.55 107.256 105.62 106.626 105.62C106.066 105.62 105.611 105.48 105.261 105.2C104.911 104.92 104.736 104.5 104.736 103.94C104.736 100.37 105.331 96.205 106.521 91.445C107.641 86.755 109.111 81.89 110.931 76.85C110.511 76.29 110.266 75.835 110.196 75.485C110.126 75.205 110.651 74.89 111.771 74.54C112.681 72.02 113.661 69.5 114.711 66.98C115.761 64.46 116.811 61.975 117.861 59.525C119.191 56.655 119.786 54.87 119.646 54.17C119.576 53.47 119.156 53.33 118.386 53.75C117.336 54.31 116.181 55.29 114.921 56.69C114.781 56.83 114.606 56.795 114.396 56.585C114.256 56.305 114.221 56.095 114.291 55.955C114.781 55.395 115.411 54.8 116.181 54.17C116.951 53.47 117.756 52.84 118.596 52.28C119.506 51.72 120.381 51.265 121.221 50.915C122.061 50.495 122.796 50.285 123.426 50.285C124.196 50.285 124.686 50.635 124.896 51.335C125.176 51.965 125.141 52.665 124.791 53.435C123.881 55.885 122.691 58.65 121.221 61.73C121.921 60.75 122.726 59.77 123.636 58.79C124.546 57.74 125.491 56.795 126.471 55.955C127.521 55.115 128.606 54.45 129.726 53.96C130.846 53.4 131.966 53.12 133.086 53.12ZM120.591 77.9C122.271 77.9 123.846 77.585 125.316 76.955C126.786 76.255 128.046 75.275 129.096 74.015C130.216 72.685 131.091 71.075 131.721 69.185C132.421 67.225 132.771 64.985 132.771 62.465C132.771 60.785 132.456 59.42 131.826 58.37C131.196 57.32 130.286 56.795 129.096 56.795C127.486 56.795 125.561 58.23 123.321 61.1C121.081 63.97 119.016 67.995 117.126 73.175C116.916 73.735 116.706 74.33 116.496 74.96C116.286 75.52 116.076 76.115 115.866 76.745C116.986 77.515 118.561 77.9 120.591 77.9ZM147.042 80C144.102 80 142.632 78.39 142.632 75.17C142.632 74.05 142.737 72.755 142.947 71.285C143.227 69.815 143.612 68.31 144.102 66.77C144.662 65.16 145.292 63.55 145.992 61.94C146.692 60.33 147.532 58.79 148.512 57.32C147.742 57.81 147.007 58.335 146.307 58.895C145.607 59.385 144.977 59.91 144.417 60.47C144.207 60.61 143.997 60.575 143.787 60.365C143.647 60.085 143.647 59.84 143.787 59.63C144.977 58.37 146.657 57.075 148.827 55.745C151.067 54.415 153.202 53.365 155.232 52.595C155.582 52.595 155.827 52.7 155.967 52.91C156.177 53.05 156.212 53.26 156.072 53.54C153.832 56.48 152.012 59.665 150.612 63.095C149.282 66.525 148.617 69.85 148.617 73.07C148.617 75.1 149.247 76.115 150.507 76.115C151.417 76.115 152.537 75.52 153.867 74.33C155.197 73.07 156.597 71.46 158.067 69.5C159.537 67.47 161.007 65.195 162.477 62.675C164.017 60.155 165.417 57.6 166.677 55.01C166.887 54.59 167.482 54.17 168.462 53.75C169.512 53.33 170.562 53.12 171.612 53.12C172.662 53.12 172.977 53.4 172.557 53.96C171.577 55.78 170.702 57.495 169.932 59.105C169.232 60.645 168.637 62.185 168.147 63.725C167.657 65.265 167.272 66.84 166.992 68.45C166.782 69.99 166.677 71.705 166.677 73.595C166.677 75.835 167.272 76.955 168.462 76.955C169.652 76.955 170.982 75.905 172.452 73.805C172.662 73.665 172.872 73.665 173.082 73.805C173.292 73.945 173.362 74.155 173.292 74.435C172.102 76.255 170.772 77.655 169.302 78.635C167.902 79.545 166.607 80 165.417 80C162.477 80 161.007 78.285 161.007 74.855C161.007 71.285 161.637 67.75 162.897 64.25C160.237 69.08 157.437 72.93 154.497 75.8C151.557 78.6 149.072 80 147.042 80ZM222.226 1.985C223.276 1.985 224.116 2.265 224.746 2.825C225.446 3.315 225.901 4.015 226.111 4.925C226.391 5.765 226.426 6.745 226.216 7.865C226.076 8.985 225.691 10.105 225.061 11.225C224.921 11.365 224.746 11.365 224.536 11.225C224.326 11.085 224.186 10.91 224.116 10.7C224.256 9.86 223.941 9.16 223.171 8.6C222.471 8.04 221.351 7.76 219.811 7.76C216.941 7.76 214.036 8.845 211.096 11.015C208.226 13.115 205.426 15.915 202.696 19.415C199.966 22.915 197.411 26.94 195.031 31.49C192.651 36.04 190.586 40.73 188.836 45.56C187.086 50.39 185.686 55.185 184.636 59.945C183.656 64.705 183.166 69.045 183.166 72.965C183.166 75.065 183.761 76.115 184.951 76.115C185.791 76.115 186.596 75.765 187.366 75.065C188.206 74.365 189.151 73.315 190.201 71.915C190.411 71.775 190.586 71.81 190.726 72.02C190.936 72.16 191.006 72.37 190.936 72.65C189.536 74.75 187.891 76.5 186.001 77.9C184.111 79.3 182.396 80 180.856 80C179.526 80 178.581 79.615 178.021 78.845C177.531 78.075 177.286 77.095 177.286 75.905C177.286 72.615 177.986 68.52 179.386 63.62C180.786 58.65 182.641 53.435 184.951 47.975C187.331 42.445 190.061 36.95 193.141 31.49C196.221 26.03 199.406 21.13 202.696 16.79C206.056 12.38 209.416 8.81 212.776 6.07999C216.136 3.35 219.286 1.985 222.226 1.985ZM221.847 73.385C221.987 73.245 222.162 73.245 222.372 73.385C222.582 73.525 222.652 73.735 222.582 74.015C221.322 75.835 219.922 77.305 218.382 78.425C216.842 79.475 215.372 80 213.972 80C212.362 80 211.312 78.88 210.822 76.64C210.402 74.33 210.647 71.6 211.557 68.45C209.667 71.46 207.602 74.05 205.362 76.22C203.192 78.32 200.882 79.58 198.432 80C196.752 80 195.457 79.23 194.547 77.69C193.637 76.15 193.182 74.365 193.182 72.335C193.182 70.025 193.742 67.75 194.862 65.51C195.982 63.2 197.452 61.135 199.272 59.315C201.162 57.495 203.227 56.025 205.467 54.905C207.777 53.715 210.087 53.12 212.397 53.12C214.847 53.12 216.772 53.715 218.172 54.905C218.872 54.415 219.747 53.995 220.797 53.645C221.917 53.295 222.897 53.12 223.737 53.12C224.017 53.12 224.157 53.295 224.157 53.645C222.547 55.605 221.147 57.775 219.957 60.155C218.837 62.465 217.962 64.705 217.332 66.875C216.702 68.975 216.317 70.865 216.177 72.545C216.037 74.225 216.177 75.38 216.597 76.01C216.947 76.43 217.542 76.57 218.382 76.43C219.222 76.22 220.377 75.205 221.847 73.385ZM201.687 76.115C202.527 76.115 203.542 75.59 204.732 74.54C205.992 73.49 207.287 72.09 208.617 70.34C209.947 68.59 211.242 66.63 212.502 64.46C213.832 62.29 214.987 60.085 215.967 57.845C215.687 56.935 215.022 56.2 213.972 55.64C212.992 55.08 211.837 54.8 210.507 54.8C208.897 54.8 207.392 55.22 205.992 56.06C204.592 56.83 203.367 57.95 202.317 59.42C201.337 60.82 200.532 62.535 199.902 64.565C199.342 66.525 199.062 68.695 199.062 71.075C199.062 72.615 199.307 73.84 199.797 74.75C200.357 75.66 200.987 76.115 201.687 76.115ZM238.557 56.165C238.557 57.215 238.452 58.405 238.242 59.735C238.032 61.065 237.752 62.43 237.402 63.83C238.802 60.47 240.342 57.845 242.022 55.955C243.702 54.065 245.522 53.12 247.482 53.12C248.532 53.12 249.337 53.365 249.897 53.855C250.457 54.345 250.737 54.975 250.737 55.745C250.737 56.445 250.457 57.355 249.897 58.475C249.407 59.595 248.987 60.365 248.637 60.785C248.497 60.855 248.357 60.855 248.217 60.785C248.077 60.645 248.007 60.505 248.007 60.365C248.007 59.875 247.797 59.455 247.377 59.105C247.027 58.755 246.467 58.58 245.697 58.58C243.247 58.58 241.007 60.26 238.977 63.62C237.017 66.91 235.197 71.67 233.517 77.9C233.447 78.25 233.202 78.565 232.782 78.845C232.362 79.055 231.872 79.265 231.312 79.475C230.822 79.615 230.297 79.755 229.737 79.895C229.177 79.965 228.687 80 228.267 80C227.497 80 227.287 79.58 227.637 78.74C228.267 77.27 228.862 75.695 229.422 74.015C230.052 72.265 230.612 70.515 231.102 68.765C231.592 67.015 232.012 65.335 232.362 63.725C232.712 62.045 232.992 60.505 233.202 59.105C233.342 58.055 233.377 57.25 233.307 56.69C233.307 56.13 233.027 55.85 232.467 55.85C231.767 55.85 231.032 56.165 230.262 56.795C229.562 57.355 228.897 58.09 228.267 59C227.987 59.21 227.707 59.245 227.427 59.105C227.217 58.895 227.182 58.65 227.322 58.37C227.742 57.81 228.232 57.25 228.792 56.69C229.422 56.06 230.087 55.5 230.787 55.01C231.557 54.45 232.327 53.995 233.097 53.645C233.937 53.295 234.777 53.12 235.617 53.12C236.737 53.12 237.507 53.4 237.927 53.96C238.347 54.45 238.557 55.185 238.557 56.165ZM337.079 12.59C340.299 13.01 343.204 13.815 345.794 15.005C348.384 16.195 350.554 17.7 352.304 19.52C354.124 21.27 355.524 23.3 356.504 25.61C357.484 27.85 357.974 30.23 357.974 32.75C357.974 36.04 357.309 39.12 355.979 41.99C354.719 44.86 352.899 47.345 350.519 49.445C348.209 51.545 345.374 53.225 342.014 54.485C338.654 55.675 334.874 56.27 330.674 56.27C326.124 56.27 322.344 55.15 319.334 52.91C314.924 62.36 309.744 69.255 303.794 73.595C297.844 77.865 291.439 80 284.579 80C278.769 80 274.464 78.565 271.664 75.695C268.934 72.755 267.569 69.08 267.569 64.67C267.569 63.34 267.779 62.01 268.199 60.68C268.689 59.28 269.354 57.985 270.194 56.795C271.034 55.535 272.049 54.415 273.239 53.435C274.499 52.455 275.899 51.65 277.439 51.02C277.649 50.88 277.824 50.88 277.964 51.02C278.174 51.16 278.209 51.405 278.069 51.755C275.969 52.875 274.429 54.38 273.449 56.27C272.469 58.16 271.979 60.19 271.979 62.36C271.979 64.25 272.294 66.07 272.924 67.82C273.554 69.5 274.534 70.97 275.864 72.23C277.264 73.49 279.014 74.505 281.114 75.275C283.214 75.975 285.734 76.325 288.674 76.325C292.034 76.325 294.974 75.905 297.494 75.065C300.014 74.225 302.289 72.755 304.319 70.655C306.419 68.555 308.309 65.72 309.989 62.15C311.739 58.51 313.489 53.925 315.239 48.395C313.979 46.365 313.104 44.16 312.614 41.78C312.684 41.5 312.824 41.29 313.034 41.15C313.244 41.01 313.419 41.045 313.559 41.255C314.049 43.285 314.784 45.105 315.764 46.715C316.044 45.805 316.289 44.86 316.499 43.88C316.779 42.9 317.059 41.92 317.339 40.94C319.089 34.71 321.014 29.53 323.114 25.4C325.214 21.27 327.594 17.945 330.254 15.425C329.904 15.355 329.379 15.32 328.679 15.32C321.259 15.32 315.029 17.035 309.989 20.465C304.949 23.825 301.414 29.005 299.384 36.005C299.174 36.215 298.929 36.25 298.649 36.11C298.439 35.9 298.334 35.55 298.334 35.06C300.714 28.06 304.669 22.53 310.199 18.47C315.799 14.41 323.149 12.38 332.249 12.38H333.929C336.589 10.63 339.564 9.335 342.854 8.49499C343.204 8.49499 343.379 8.66999 343.379 9.01999C343.379 9.29999 343.204 9.51 342.854 9.65C340.754 10.28 338.829 11.26 337.079 12.59ZM331.829 54.17C334.769 54.17 337.429 53.68 339.809 52.7C342.189 51.72 344.219 50.355 345.899 48.605C347.649 46.855 348.979 44.825 349.889 42.515C350.799 40.205 351.254 37.72 351.254 35.06C351.254 30.09 349.749 25.89 346.739 22.46C343.799 18.96 339.564 16.72 334.034 15.74C330.534 20.15 327.629 26.87 325.319 35.9C324.549 38.77 323.709 41.5 322.799 44.09C321.959 46.61 321.049 48.99 320.069 51.23C322.939 53.19 326.859 54.17 331.829 54.17ZM362.835 56.165C362.835 57.215 362.73 58.405 362.52 59.735C362.31 61.065 362.03 62.43 361.68 63.83C363.08 60.47 364.62 57.845 366.3 55.955C367.98 54.065 369.8 53.12 371.76 53.12C372.81 53.12 373.615 53.365 374.175 53.855C374.735 54.345 375.015 54.975 375.015 55.745C375.015 56.445 374.735 57.355 374.175 58.475C373.685 59.595 373.265 60.365 372.915 60.785C372.775 60.855 372.635 60.855 372.495 60.785C372.355 60.645 372.285 60.505 372.285 60.365C372.285 59.875 372.075 59.455 371.655 59.105C371.305 58.755 370.745 58.58 369.975 58.58C367.525 58.58 365.285 60.26 363.255 63.62C361.295 66.91 359.475 71.67 357.795 77.9C357.725 78.25 357.48 78.565 357.06 78.845C356.64 79.055 356.15 79.265 355.59 79.475C355.1 79.615 354.575 79.755 354.015 79.895C353.455 79.965 352.965 80 352.545 80C351.775 80 351.565 79.58 351.915 78.74C352.545 77.27 353.14 75.695 353.7 74.015C354.33 72.265 354.89 70.515 355.38 68.765C355.87 67.015 356.29 65.335 356.64 63.725C356.99 62.045 357.27 60.505 357.48 59.105C357.62 58.055 357.655 57.25 357.585 56.69C357.585 56.13 357.305 55.85 356.745 55.85C356.045 55.85 355.31 56.165 354.54 56.795C353.84 57.355 353.175 58.09 352.545 59C352.265 59.21 351.985 59.245 351.705 59.105C351.495 58.895 351.46 58.65 351.6 58.37C352.02 57.81 352.51 57.25 353.07 56.69C353.7 56.06 354.365 55.5 355.065 55.01C355.835 54.45 356.605 53.995 357.375 53.645C358.215 53.295 359.055 53.12 359.895 53.12C361.015 53.12 361.785 53.4 362.205 53.96C362.625 54.45 362.835 55.185 362.835 56.165ZM389.601 53.12C392.051 53.12 393.871 53.855 395.061 55.325C396.251 56.795 396.846 58.51 396.846 60.47C396.846 63.2 396.286 65.755 395.166 68.135C394.116 70.445 392.786 72.51 391.176 74.33C389.636 76.08 387.956 77.48 386.136 78.53C384.316 79.51 382.671 80 381.201 80C378.821 80 377.001 79.3 375.741 77.9C374.551 76.43 373.956 74.575 373.956 72.335C373.956 70.305 374.376 68.17 375.216 65.93C376.126 63.69 377.281 61.625 378.681 59.735C380.151 57.845 381.831 56.27 383.721 55.01C385.611 53.75 387.571 53.12 389.601 53.12ZM383.826 76.745C385.996 76.745 387.816 75.625 389.286 73.385C390.826 71.075 391.596 67.925 391.596 63.935C391.596 61.835 391.176 60.085 390.336 58.685C389.496 57.285 388.271 56.585 386.661 56.585C384.421 56.585 382.601 57.67 381.201 59.84C379.801 62.01 379.101 65.195 379.101 69.395C379.101 71.845 379.521 73.7 380.361 74.96C381.271 76.15 382.426 76.745 383.826 76.745ZM462.766 0.619996C463.816 0.619996 464.656 0.899996 465.286 1.46C465.986 2.02 466.476 2.755 466.756 3.66499C467.036 4.57499 467.106 5.625 466.966 6.815C466.826 7.935 466.476 9.055 465.916 10.175C465.776 10.315 465.601 10.385 465.391 10.385C465.181 10.315 465.041 10.14 464.971 9.86C465.111 8.81 464.831 8.04 464.131 7.54999C463.431 6.99 462.451 6.71 461.191 6.71C457.411 6.71 453.771 7.97 450.271 10.49C446.771 13.01 443.446 16.895 440.296 22.145C437.216 27.325 434.346 33.94 431.686 41.99C429.096 49.97 426.751 59.49 424.651 70.55C424.301 72.09 424.266 73.42 424.546 74.54C424.826 75.59 425.351 76.115 426.121 76.115C426.891 76.115 427.626 75.8 428.326 75.17C429.026 74.54 429.656 73.735 430.216 72.755C430.356 72.615 430.531 72.615 430.741 72.755C431.021 72.895 431.126 73.105 431.056 73.385C430.706 74.085 430.181 74.82 429.481 75.59C428.851 76.36 428.116 77.095 427.276 77.795C426.506 78.425 425.666 78.95 424.756 79.37C423.916 79.79 423.146 80 422.446 80C420.906 80 419.821 79.44 419.191 78.32C418.561 77.2 418.316 75.94 418.456 74.54C418.596 73.35 418.771 72.23 418.981 71.18C419.191 70.13 419.436 69.01 419.716 67.82C418.316 70.83 416.356 73.455 413.836 75.695C411.316 77.865 408.831 79.3 406.381 80C404.771 80 403.476 79.405 402.496 78.215C401.516 77.025 401.026 75.485 401.026 73.595C401.026 70.865 401.516 68.275 402.496 65.825C403.476 63.305 404.806 61.1 406.486 59.21C408.166 57.32 410.161 55.815 412.471 54.695C414.781 53.575 417.266 53.015 419.926 53.015C421.396 53.015 422.691 53.26 423.811 53.75C425.071 49.97 426.576 46.05 428.326 41.99C430.076 37.86 432.001 33.835 434.101 29.915C436.201 25.995 438.406 22.25 440.716 18.68C443.096 15.11 445.511 11.995 447.961 9.335C450.411 6.675 452.896 4.575 455.416 3.035C457.936 1.425 460.386 0.619996 462.766 0.619996ZM409.741 75.905C410.511 75.905 411.421 75.52 412.471 74.75C413.521 73.91 414.606 72.825 415.726 71.495C416.846 70.095 417.896 68.52 418.876 66.77C419.856 64.95 420.696 63.025 421.396 60.995C421.676 60.365 421.921 59.735 422.131 59.105C422.341 58.405 422.516 57.74 422.656 57.11C422.376 56.27 421.816 55.675 420.976 55.325C420.206 54.905 419.331 54.695 418.351 54.695C416.881 54.695 415.446 55.15 414.046 56.06C412.646 56.9 411.421 58.09 410.371 59.63C409.321 61.17 408.446 62.99 407.746 65.09C407.116 67.19 406.801 69.5 406.801 72.02C406.801 73.14 407.046 74.085 407.536 74.855C408.096 75.555 408.831 75.905 409.741 75.905ZM438.971 80C436.031 80 434.561 78.39 434.561 75.17C434.561 74.05 434.666 72.755 434.876 71.285C435.156 69.815 435.541 68.31 436.031 66.77C436.591 65.16 437.221 63.55 437.921 61.94C438.621 60.33 439.461 58.79 440.441 57.32C439.671 57.81 438.936 58.335 438.236 58.895C437.536 59.385 436.906 59.91 436.346 60.47C436.136 60.61 435.926 60.575 435.716 60.365C435.576 60.085 435.576 59.84 435.716 59.63C436.906 58.37 438.586 57.075 440.756 55.745C442.996 54.415 445.131 53.365 447.161 52.595C447.511 52.595 447.756 52.7 447.896 52.91C448.106 53.05 448.141 53.26 448.001 53.54C445.761 56.48 443.941 59.665 442.541 63.095C441.211 66.525 440.546 69.85 440.546 73.07C440.546 75.1 441.176 76.115 442.436 76.115C443.346 76.115 444.466 75.52 445.796 74.33C447.126 73.07 448.526 71.46 449.996 69.5C451.466 67.47 452.936 65.195 454.406 62.675C455.946 60.155 457.346 57.6 458.606 55.01C458.816 54.59 459.411 54.17 460.391 53.75C461.441 53.33 462.491 53.12 463.541 53.12C464.591 53.12 464.906 53.4 464.486 53.96C463.506 55.78 462.631 57.495 461.861 59.105C461.161 60.645 460.566 62.185 460.076 63.725C459.586 65.265 459.201 66.84 458.921 68.45C458.711 69.99 458.606 71.705 458.606 73.595C458.606 75.835 459.201 76.955 460.391 76.955C461.581 76.955 462.911 75.905 464.381 73.805C464.591 73.665 464.801 73.665 465.011 73.805C465.221 73.945 465.291 74.155 465.221 74.435C464.031 76.255 462.701 77.655 461.231 78.635C459.831 79.545 458.536 80 457.346 80C454.406 80 452.936 78.285 452.936 74.855C452.936 71.285 453.566 67.75 454.826 64.25C452.166 69.08 449.366 72.93 446.426 75.8C443.486 78.6 441.001 80 438.971 80ZM486.854 62.57C486.434 62.71 486.224 62.535 486.224 62.045C486.714 60.575 486.609 59.28 485.909 58.16C485.279 57.04 484.089 56.48 482.339 56.48C480.099 56.48 478.279 57.88 476.879 60.68C475.549 63.48 474.884 67.12 474.884 71.6C474.884 74.89 476.179 76.535 478.769 76.535C479.959 76.535 481.254 76.115 482.654 75.275C484.124 74.365 485.454 73.21 486.644 71.81C486.924 71.67 487.169 71.705 487.379 71.915C487.589 72.125 487.624 72.37 487.484 72.65C485.734 74.89 483.774 76.675 481.604 78.005C479.434 79.335 477.124 80 474.674 80C473.134 80 471.839 79.475 470.789 78.425C469.739 77.305 469.214 75.765 469.214 73.805C469.214 71.355 469.704 68.905 470.684 66.455C471.734 63.935 473.064 61.695 474.674 59.735C476.284 57.775 478.034 56.2 479.924 55.01C481.814 53.75 483.669 53.12 485.489 53.12C487.099 53.12 488.359 53.575 489.269 54.485C490.179 55.395 490.634 56.41 490.634 57.53C490.634 57.95 490.494 58.405 490.214 58.895C490.004 59.385 489.689 59.875 489.269 60.365C488.919 60.855 488.499 61.31 488.009 61.73C487.589 62.15 487.204 62.43 486.854 62.57ZM513.369 53.645C513.719 53.785 513.859 53.995 513.789 54.275C513.719 54.485 513.404 54.66 512.844 54.8C511.794 54.8 510.569 54.835 509.169 54.905C507.839 54.975 506.404 55.08 504.864 55.22C503.464 58.65 502.309 62.01 501.399 65.3C500.489 68.52 500.034 71.145 500.034 73.175C500.034 75.555 500.944 76.745 502.764 76.745C504.584 76.745 506.614 75.17 508.854 72.02C509.064 71.88 509.239 71.88 509.379 72.02C509.589 72.16 509.659 72.405 509.589 72.755C508.399 74.715 506.894 76.43 505.074 77.9C503.254 79.3 501.469 80 499.719 80C497.899 80 496.534 79.58 495.624 78.74C494.784 77.83 494.364 76.605 494.364 75.065C494.364 73.035 494.854 70.235 495.834 66.665C496.814 63.095 498.074 59.455 499.614 55.745C497.794 55.955 496.114 56.235 494.574 56.585C494.224 56.515 494.119 56.34 494.259 56.06C494.469 55.78 494.784 55.5 495.204 55.22C495.694 54.87 496.254 54.59 496.884 54.38C497.514 54.1 498.109 53.96 498.669 53.96C498.949 53.96 499.229 53.96 499.509 53.96C499.789 53.96 500.069 53.925 500.349 53.855C501.259 51.825 502.204 49.865 503.184 47.975C504.164 46.085 505.144 44.37 506.124 42.83C506.544 42.34 507.104 41.92 507.804 41.57C508.574 41.15 509.309 40.835 510.009 40.625C510.709 40.415 511.269 40.31 511.689 40.31C512.179 40.24 512.389 40.345 512.319 40.625C511.129 42.445 509.939 44.475 508.749 46.715C507.629 48.955 506.544 51.3 505.494 53.75C506.824 53.68 508.154 53.645 509.484 53.645C510.884 53.645 512.179 53.645 513.369 53.645ZM525.919 53.12C527.459 53.12 528.684 53.33 529.594 53.75C530.574 54.17 531.064 54.695 531.064 55.325C531.064 56.095 530.854 56.97 530.434 57.95C530.084 58.93 529.734 59.735 529.384 60.365C529.244 60.505 529.069 60.54 528.859 60.47C528.649 60.33 528.544 60.12 528.544 59.84C528.754 59.35 528.859 58.65 528.859 57.74C528.859 56.76 528.579 55.955 528.019 55.325C527.529 54.695 526.829 54.38 525.919 54.38C524.729 54.38 523.749 54.765 522.979 55.535C522.279 56.235 521.929 57.25 521.929 58.58C521.929 59.7 522.209 60.785 522.769 61.835C523.399 62.815 524.064 63.83 524.764 64.88C525.534 65.86 526.234 66.945 526.864 68.135C527.494 69.255 527.809 70.55 527.809 72.02C527.809 74.54 526.794 76.5 524.764 77.9C522.734 79.3 520.074 80 516.784 80C514.404 80 512.514 79.615 511.114 78.845C509.784 78.075 509.119 77.235 509.119 76.325C509.119 76.045 509.224 75.66 509.434 75.17C509.644 74.68 509.924 74.155 510.274 73.595C510.624 73.035 511.009 72.475 511.429 71.915C511.849 71.355 512.304 70.9 512.794 70.55C513.004 70.41 513.179 70.445 513.319 70.655C513.529 70.865 513.564 71.075 513.424 71.285C513.004 71.705 512.689 72.16 512.479 72.65C512.269 73.07 512.164 73.665 512.164 74.435C512.164 75.695 512.584 76.745 513.424 77.585C514.264 78.355 515.349 78.74 516.679 78.74C518.499 78.74 519.899 78.25 520.879 77.27C521.929 76.22 522.454 74.96 522.454 73.49C522.454 72.16 522.139 70.935 521.509 69.815C520.949 68.625 520.319 67.505 519.619 66.455C518.919 65.335 518.254 64.215 517.624 63.095C517.064 61.975 516.784 60.785 516.784 59.525C516.784 57.705 517.554 56.2 519.094 55.01C520.634 53.75 522.909 53.12 525.919 53.12Z" fill="#394149"/>
</svg>
