<svg width="277" height="14" viewBox="0 0 277 14" fill="none" xmlns="http://www.w3.org/2000/svg">
<path d="M0.48575 11C0.40575 11 0.34175 10.976 0.29375 10.928C0.24575 10.88 0.22175 10.816 0.22175 10.736V2.876C0.22175 2.788 0.24575 2.72 0.29375 2.672C0.34175 2.624 0.40575 2.6 0.48575 2.6H3.40175C3.96175 2.6 4.44575 2.696 4.85375 2.888C5.26975 3.072 5.58975 3.348 5.81375 3.716C6.04575 4.084 6.16175 4.54 6.16175 5.084C6.16175 5.628 6.04575 6.084 5.81375 6.452C5.58975 6.82 5.26975 7.1 4.85375 7.292C4.44575 7.476 3.96175 7.568 3.40175 7.568H0.97775V10.736C0.97775 10.816 0.95375 10.88 0.90575 10.928C0.85775 10.976 0.78975 11 0.70175 11H0.48575ZM0.97775 6.848H3.34175C4.03775 6.848 4.55375 6.696 4.88975 6.392C5.23375 6.088 5.40575 5.652 5.40575 5.084C5.40575 4.516 5.23375 4.08 4.88975 3.776C4.55375 3.472 4.03775 3.32 3.34175 3.32H0.97775V6.848ZM7.86491 11C7.78491 11 7.72091 10.976 7.67291 10.928C7.62491 10.88 7.60091 10.816 7.60091 10.736V5.036C7.60091 4.956 7.62491 4.892 7.67291 4.844C7.72091 4.788 7.78491 4.76 7.86491 4.76H8.05691C8.13691 4.76 8.20091 4.788 8.24891 4.844C8.30491 4.892 8.33291 4.956 8.33291 5.036V5.588C8.47691 5.308 8.68491 5.1 8.95691 4.964C9.22891 4.828 9.56491 4.76 9.96491 4.76H10.4089C10.4889 4.76 10.5529 4.784 10.6009 4.832C10.6489 4.88 10.6729 4.944 10.6729 5.024V5.192C10.6729 5.272 10.6489 5.336 10.6009 5.384C10.5529 5.432 10.4889 5.456 10.4089 5.456H9.89291C9.41291 5.456 9.03291 5.596 8.75291 5.876C8.47291 6.156 8.33291 6.536 8.33291 7.016V10.736C8.33291 10.816 8.30491 10.88 8.24891 10.928C8.20091 10.976 8.13691 11 8.05691 11H7.86491ZM12.0368 11C11.9568 11 11.8928 10.976 11.8448 10.928C11.7968 10.88 11.7728 10.816 11.7728 10.736V5.024C11.7728 4.944 11.7968 4.88 11.8448 4.832C11.8928 4.784 11.9568 4.76 12.0368 4.76H12.2408C12.3208 4.76 12.3848 4.784 12.4328 4.832C12.4808 4.88 12.5048 4.944 12.5048 5.024V10.736C12.5048 10.816 12.4808 10.88 12.4328 10.928C12.3848 10.976 12.3208 11 12.2408 11H12.0368ZM11.9048 3.476C11.8248 3.476 11.7608 3.452 11.7128 3.404C11.6648 3.356 11.6408 3.292 11.6408 3.212V2.756C11.6408 2.676 11.6648 2.612 11.7128 2.564C11.7608 2.508 11.8248 2.48 11.9048 2.48H12.3608C12.4408 2.48 12.5048 2.508 12.5528 2.564C12.6088 2.612 12.6368 2.676 12.6368 2.756V3.212C12.6368 3.292 12.6088 3.356 12.5528 3.404C12.5048 3.452 12.4408 3.476 12.3608 3.476H11.9048ZM16.5927 11C16.4647 11 16.3647 10.972 16.2927 10.916C16.2287 10.86 16.1767 10.788 16.1367 10.7L13.9287 5.132C13.9127 5.084 13.9047 5.04 13.9047 5C13.9047 4.936 13.9287 4.88 13.9767 4.832C14.0247 4.784 14.0807 4.76 14.1447 4.76H14.3967C14.4767 4.76 14.5367 4.784 14.5767 4.832C14.6247 4.872 14.6527 4.908 14.6607 4.94L16.6887 10.124L18.7167 4.94C18.7327 4.908 18.7607 4.872 18.8007 4.832C18.8407 4.784 18.9007 4.76 18.9807 4.76H19.2327C19.2967 4.76 19.3527 4.784 19.4007 4.832C19.4487 4.88 19.4727 4.936 19.4727 5C19.4727 5.04 19.4647 5.084 19.4487 5.132L17.2407 10.7C17.2087 10.788 17.1567 10.86 17.0847 10.916C17.0127 10.972 16.9127 11 16.7847 11H16.5927ZM22.3356 11.12C21.9516 11.12 21.5956 11.04 21.2676 10.88C20.9476 10.72 20.6876 10.508 20.4876 10.244C20.2876 9.972 20.1876 9.668 20.1876 9.332C20.1876 8.788 20.4076 8.352 20.8476 8.024C21.2876 7.696 21.8596 7.484 22.5636 7.388L24.4596 7.124V6.704C24.4596 6.28 24.3276 5.948 24.0636 5.708C23.8076 5.46 23.3956 5.336 22.8276 5.336C22.4116 5.336 22.0756 5.42 21.8196 5.588C21.5636 5.748 21.3876 5.96 21.2916 6.224C21.2516 6.344 21.1756 6.404 21.0636 6.404H20.8716C20.7756 6.404 20.7076 6.38 20.6676 6.332C20.6276 6.276 20.6076 6.212 20.6076 6.14C20.6076 6.028 20.6476 5.888 20.7276 5.72C20.8156 5.552 20.9476 5.388 21.1236 5.228C21.2996 5.06 21.5276 4.92 21.8076 4.808C22.0876 4.696 22.4276 4.64 22.8276 4.64C23.2996 4.64 23.6876 4.704 23.9916 4.832C24.3036 4.96 24.5436 5.128 24.7116 5.336C24.8876 5.536 25.0116 5.76 25.0836 6.008C25.1556 6.256 25.1916 6.5 25.1916 6.74V10.736C25.1916 10.816 25.1676 10.88 25.1196 10.928C25.0716 10.976 25.0076 11 24.9276 11H24.7236C24.6436 11 24.5796 10.976 24.5316 10.928C24.4836 10.88 24.4596 10.816 24.4596 10.736V10.172C24.3636 10.316 24.2276 10.46 24.0516 10.604C23.8756 10.748 23.6476 10.872 23.3676 10.976C23.0956 11.072 22.7516 11.12 22.3356 11.12ZM22.4556 10.424C22.8236 10.424 23.1596 10.344 23.4636 10.184C23.7676 10.024 24.0076 9.78 24.1836 9.452C24.3676 9.116 24.4596 8.696 24.4596 8.192V7.784L22.9116 8C22.2556 8.088 21.7596 8.24 21.4236 8.456C21.0876 8.672 20.9196 8.944 20.9196 9.272C20.9196 9.536 20.9956 9.752 21.1476 9.92C21.2996 10.088 21.4916 10.216 21.7236 10.304C21.9636 10.384 22.2076 10.424 22.4556 10.424ZM29.4532 11.12C28.8932 11.12 28.4172 11.012 28.0252 10.796C27.6332 10.572 27.3332 10.252 27.1252 9.836C26.9252 9.42 26.8172 8.928 26.8012 8.36C26.7932 8.24 26.7892 8.08 26.7892 7.88C26.7892 7.68 26.7932 7.52 26.8012 7.4C26.8172 6.824 26.9252 6.332 27.1252 5.924C27.3332 5.508 27.6332 5.192 28.0252 4.976C28.4172 4.752 28.8932 4.64 29.4532 4.64C29.8772 4.64 30.2412 4.7 30.5452 4.82C30.8572 4.932 31.1132 5.084 31.3132 5.276C31.5132 5.46 31.6652 5.664 31.7692 5.888C31.8732 6.112 31.9292 6.332 31.9372 6.548C31.9452 6.628 31.9212 6.692 31.8652 6.74C31.8092 6.788 31.7452 6.812 31.6732 6.812H31.5052C31.4252 6.812 31.3652 6.796 31.3252 6.764C31.2932 6.724 31.2572 6.656 31.2172 6.56C31.0492 6.104 30.8172 5.788 30.5212 5.612C30.2332 5.428 29.8772 5.336 29.4532 5.336C28.9092 5.336 28.4572 5.504 28.0972 5.84C27.7452 6.168 27.5572 6.708 27.5332 7.46C27.5172 7.74 27.5172 8.02 27.5332 8.3C27.5572 9.052 27.7452 9.596 28.0972 9.932C28.4572 10.26 28.9092 10.424 29.4532 10.424C29.8772 10.424 30.2332 10.336 30.5212 10.16C30.8172 9.976 31.0492 9.656 31.2172 9.2C31.2572 9.104 31.2932 9.04 31.3252 9.008C31.3652 8.968 31.4252 8.948 31.5052 8.948H31.6732C31.7452 8.948 31.8092 8.972 31.8652 9.02C31.9212 9.068 31.9452 9.132 31.9372 9.212C31.9292 9.388 31.8932 9.564 31.8292 9.74C31.7652 9.916 31.6652 10.088 31.5292 10.256C31.4012 10.424 31.2412 10.572 31.0492 10.7C30.8572 10.828 30.6252 10.928 30.3532 11C30.0892 11.08 29.7892 11.12 29.4532 11.12ZM34.4147 13.28C34.3507 13.28 34.2947 13.256 34.2467 13.208C34.1987 13.16 34.1747 13.104 34.1747 13.04C34.1747 13.008 34.1787 12.972 34.1867 12.932C34.2027 12.9 34.2227 12.856 34.2467 12.8L35.1707 10.64L32.8787 5.24C32.8307 5.12 32.8067 5.04 32.8067 5C32.8067 4.936 32.8307 4.88 32.8787 4.832C32.9267 4.784 32.9827 4.76 33.0467 4.76H33.2987C33.3787 4.76 33.4387 4.78 33.4787 4.82C33.5267 4.852 33.5587 4.892 33.5747 4.94L35.5907 9.692L37.6547 4.94C37.6787 4.892 37.7107 4.852 37.7507 4.82C37.7907 4.78 37.8507 4.76 37.9307 4.76H38.1707C38.2347 4.76 38.2907 4.784 38.3387 4.832C38.3867 4.88 38.4107 4.936 38.4107 5C38.4107 5.04 38.3867 5.12 38.3387 5.24L34.9307 13.1C34.9067 13.148 34.8747 13.188 34.8347 13.22C34.7947 13.26 34.7347 13.28 34.6547 13.28H34.4147ZM42.9311 11C42.8511 11 42.7871 10.976 42.7391 10.928C42.6911 10.88 42.6671 10.816 42.6671 10.736V2.876C42.6671 2.788 42.6911 2.72 42.7391 2.672C42.7871 2.624 42.8511 2.6 42.9311 2.6H45.8471C46.4071 2.6 46.8911 2.696 47.2991 2.888C47.7151 3.072 48.0351 3.348 48.2591 3.716C48.4911 4.084 48.6071 4.54 48.6071 5.084C48.6071 5.628 48.4911 6.084 48.2591 6.452C48.0351 6.82 47.7151 7.1 47.2991 7.292C46.8911 7.476 46.4071 7.568 45.8471 7.568H43.4231V10.736C43.4231 10.816 43.3991 10.88 43.3511 10.928C43.3031 10.976 43.2351 11 43.1471 11H42.9311ZM43.4231 6.848H45.7871C46.4831 6.848 46.9991 6.696 47.3351 6.392C47.6791 6.088 47.8511 5.652 47.8511 5.084C47.8511 4.516 47.6791 4.08 47.3351 3.776C46.9991 3.472 46.4831 3.32 45.7871 3.32H43.4231V6.848ZM52.3402 11.12C51.7642 11.12 51.2802 11 50.8882 10.76C50.5042 10.52 50.2082 10.192 50.0002 9.776C49.8002 9.36 49.6922 8.896 49.6762 8.384C49.6682 8.264 49.6642 8.096 49.6642 7.88C49.6642 7.664 49.6682 7.496 49.6762 7.376C49.6922 6.856 49.8002 6.392 50.0002 5.984C50.2082 5.568 50.5042 5.24 50.8882 5C51.2802 4.76 51.7642 4.64 52.3402 4.64C52.9162 4.64 53.3962 4.76 53.7802 5C54.1722 5.24 54.4682 5.568 54.6682 5.984C54.8762 6.392 54.9882 6.856 55.0042 7.376C55.0122 7.496 55.0162 7.664 55.0162 7.88C55.0162 8.096 55.0122 8.264 55.0042 8.384C54.9882 8.896 54.8762 9.36 54.6682 9.776C54.4682 10.192 54.1722 10.52 53.7802 10.76C53.3962 11 52.9162 11.12 52.3402 11.12ZM52.3402 10.424C52.9002 10.424 53.3562 10.244 53.7082 9.884C54.0602 9.524 54.2482 9.004 54.2722 8.324C54.2802 8.204 54.2842 8.056 54.2842 7.88C54.2842 7.704 54.2802 7.556 54.2722 7.436C54.2482 6.748 54.0602 6.228 53.7082 5.876C53.3562 5.516 52.9002 5.336 52.3402 5.336C51.7802 5.336 51.3242 5.516 50.9722 5.876C50.6202 6.228 50.4322 6.748 50.4082 7.436C50.4002 7.556 50.3962 7.704 50.3962 7.88C50.3962 8.056 50.4002 8.204 50.4082 8.324C50.4322 9.004 50.6202 9.524 50.9722 9.884C51.3242 10.244 51.7802 10.424 52.3402 10.424ZM56.9316 11C56.8516 11 56.7876 10.976 56.7396 10.928C56.6916 10.88 56.6676 10.816 56.6676 10.736V2.744C56.6676 2.664 56.6916 2.6 56.7396 2.552C56.7876 2.504 56.8516 2.48 56.9316 2.48H57.1356C57.2156 2.48 57.2796 2.504 57.3276 2.552C57.3756 2.6 57.3996 2.664 57.3996 2.744V10.736C57.3996 10.816 57.3756 10.88 57.3276 10.928C57.2796 10.976 57.2156 11 57.1356 11H56.9316ZM59.6149 11C59.5349 11 59.4709 10.976 59.4229 10.928C59.3749 10.88 59.3509 10.816 59.3509 10.736V5.024C59.3509 4.944 59.3749 4.88 59.4229 4.832C59.4709 4.784 59.5349 4.76 59.6149 4.76H59.8189C59.8989 4.76 59.9629 4.784 60.0109 4.832C60.0589 4.88 60.0829 4.944 60.0829 5.024V10.736C60.0829 10.816 60.0589 10.88 60.0109 10.928C59.9629 10.976 59.8989 11 59.8189 11H59.6149ZM59.4829 3.476C59.4029 3.476 59.3389 3.452 59.2909 3.404C59.2429 3.356 59.2189 3.292 59.2189 3.212V2.756C59.2189 2.676 59.2429 2.612 59.2909 2.564C59.3389 2.508 59.4029 2.48 59.4829 2.48H59.9389C60.0189 2.48 60.0829 2.508 60.1309 2.564C60.1869 2.612 60.2149 2.676 60.2149 2.756V3.212C60.2149 3.292 60.1869 3.356 60.1309 3.404C60.0829 3.452 60.0189 3.476 59.9389 3.476H59.4829ZM64.3868 11.12C63.8268 11.12 63.3508 11.012 62.9588 10.796C62.5668 10.572 62.2668 10.252 62.0588 9.836C61.8588 9.42 61.7508 8.928 61.7348 8.36C61.7268 8.24 61.7228 8.08 61.7228 7.88C61.7228 7.68 61.7268 7.52 61.7348 7.4C61.7508 6.824 61.8588 6.332 62.0588 5.924C62.2668 5.508 62.5668 5.192 62.9588 4.976C63.3508 4.752 63.8268 4.64 64.3868 4.64C64.8108 4.64 65.1748 4.7 65.4788 4.82C65.7908 4.932 66.0468 5.084 66.2468 5.276C66.4468 5.46 66.5988 5.664 66.7028 5.888C66.8068 6.112 66.8628 6.332 66.8708 6.548C66.8788 6.628 66.8548 6.692 66.7988 6.74C66.7428 6.788 66.6788 6.812 66.6068 6.812H66.4388C66.3588 6.812 66.2988 6.796 66.2588 6.764C66.2268 6.724 66.1908 6.656 66.1508 6.56C65.9828 6.104 65.7508 5.788 65.4548 5.612C65.1668 5.428 64.8108 5.336 64.3868 5.336C63.8428 5.336 63.3908 5.504 63.0308 5.84C62.6788 6.168 62.4908 6.708 62.4668 7.46C62.4508 7.74 62.4508 8.02 62.4668 8.3C62.4908 9.052 62.6788 9.596 63.0308 9.932C63.3908 10.26 63.8428 10.424 64.3868 10.424C64.8108 10.424 65.1668 10.336 65.4548 10.16C65.7508 9.976 65.9828 9.656 66.1508 9.2C66.1908 9.104 66.2268 9.04 66.2588 9.008C66.2988 8.968 66.3588 8.948 66.4388 8.948H66.6068C66.6788 8.948 66.7428 8.972 66.7988 9.02C66.8548 9.068 66.8788 9.132 66.8708 9.212C66.8628 9.388 66.8268 9.564 66.7628 9.74C66.6988 9.916 66.5988 10.088 66.4628 10.256C66.3348 10.424 66.1748 10.572 65.9828 10.7C65.7908 10.828 65.5588 10.928 65.2868 11C65.0228 11.08 64.7228 11.12 64.3868 11.12ZM69.3483 13.28C69.2843 13.28 69.2283 13.256 69.1803 13.208C69.1323 13.16 69.1083 13.104 69.1083 13.04C69.1083 13.008 69.1123 12.972 69.1203 12.932C69.1363 12.9 69.1563 12.856 69.1803 12.8L70.1043 10.64L67.8123 5.24C67.7643 5.12 67.7403 5.04 67.7403 5C67.7403 4.936 67.7643 4.88 67.8123 4.832C67.8603 4.784 67.9163 4.76 67.9803 4.76H68.2323C68.3123 4.76 68.3723 4.78 68.4123 4.82C68.4603 4.852 68.4923 4.892 68.5083 4.94L70.5243 9.692L72.5883 4.94C72.6123 4.892 72.6443 4.852 72.6843 4.82C72.7243 4.78 72.7843 4.76 72.8643 4.76H73.1043C73.1683 4.76 73.2243 4.784 73.2723 4.832C73.3203 4.88 73.3443 4.936 73.3443 5C73.3443 5.04 73.3203 5.12 73.2723 5.24L69.8643 13.1C69.8403 13.148 69.8083 13.188 69.7683 13.22C69.7283 13.26 69.6683 13.28 69.5883 13.28H69.3483ZM79.1247 11.12C78.7407 11.12 78.3847 11.04 78.0567 10.88C77.7367 10.72 77.4767 10.508 77.2767 10.244C77.0767 9.972 76.9767 9.668 76.9767 9.332C76.9767 8.788 77.1967 8.352 77.6367 8.024C78.0767 7.696 78.6487 7.484 79.3527 7.388L81.2487 7.124V6.704C81.2487 6.28 81.1167 5.948 80.8527 5.708C80.5967 5.46 80.1847 5.336 79.6167 5.336C79.2007 5.336 78.8647 5.42 78.6087 5.588C78.3527 5.748 78.1767 5.96 78.0807 6.224C78.0407 6.344 77.9647 6.404 77.8527 6.404H77.6607C77.5647 6.404 77.4967 6.38 77.4567 6.332C77.4167 6.276 77.3967 6.212 77.3967 6.14C77.3967 6.028 77.4367 5.888 77.5167 5.72C77.6047 5.552 77.7367 5.388 77.9127 5.228C78.0887 5.06 78.3167 4.92 78.5967 4.808C78.8767 4.696 79.2167 4.64 79.6167 4.64C80.0887 4.64 80.4767 4.704 80.7807 4.832C81.0927 4.96 81.3327 5.128 81.5007 5.336C81.6767 5.536 81.8007 5.76 81.8727 6.008C81.9447 6.256 81.9807 6.5 81.9807 6.74V10.736C81.9807 10.816 81.9567 10.88 81.9087 10.928C81.8607 10.976 81.7967 11 81.7167 11H81.5127C81.4327 11 81.3687 10.976 81.3207 10.928C81.2727 10.88 81.2487 10.816 81.2487 10.736V10.172C81.1527 10.316 81.0167 10.46 80.8407 10.604C80.6647 10.748 80.4367 10.872 80.1567 10.976C79.8847 11.072 79.5407 11.12 79.1247 11.12ZM79.2447 10.424C79.6127 10.424 79.9487 10.344 80.2527 10.184C80.5567 10.024 80.7967 9.78 80.9727 9.452C81.1567 9.116 81.2487 8.696 81.2487 8.192V7.784L79.7007 8C79.0447 8.088 78.5487 8.24 78.2127 8.456C77.8767 8.672 77.7087 8.944 77.7087 9.272C77.7087 9.536 77.7847 9.752 77.9367 9.92C78.0887 10.088 78.2807 10.216 78.5127 10.304C78.7527 10.384 78.9967 10.424 79.2447 10.424ZM84.1423 11C84.0623 11 83.9983 10.976 83.9503 10.928C83.9023 10.88 83.8783 10.816 83.8783 10.736V5.024C83.8783 4.944 83.9023 4.88 83.9503 4.832C83.9983 4.784 84.0623 4.76 84.1423 4.76H84.3463C84.4263 4.76 84.4903 4.784 84.5383 4.832C84.5863 4.88 84.6103 4.944 84.6103 5.024V5.588C84.8263 5.308 85.0863 5.08 85.3903 4.904C85.7023 4.728 86.1143 4.64 86.6263 4.64C87.1703 4.64 87.6223 4.76 87.9823 5C88.3503 5.232 88.6223 5.552 88.7983 5.96C88.9823 6.36 89.0742 6.816 89.0742 7.328V10.736C89.0742 10.816 89.0503 10.88 89.0023 10.928C88.9543 10.976 88.8903 11 88.8103 11H88.6063C88.5263 11 88.4623 10.976 88.4143 10.928C88.3663 10.88 88.3423 10.816 88.3423 10.736V7.388C88.3423 6.748 88.1863 6.248 87.8743 5.888C87.5623 5.52 87.1063 5.336 86.5063 5.336C85.9383 5.336 85.4783 5.52 85.1263 5.888C84.7823 6.248 84.6103 6.748 84.6103 7.388V10.736C84.6103 10.816 84.5863 10.88 84.5383 10.928C84.4903 10.976 84.4263 11 84.3463 11H84.1423ZM93.2124 11.12C92.7484 11.12 92.3524 11.036 92.0244 10.868C91.7044 10.7 91.4444 10.476 91.2444 10.196C91.0444 9.916 90.8964 9.604 90.8004 9.26C90.7124 8.916 90.6604 8.568 90.6444 8.216C90.6364 8.096 90.6324 7.984 90.6324 7.88C90.6324 7.776 90.6364 7.664 90.6444 7.544C90.6604 7.192 90.7124 6.844 90.8004 6.5C90.8964 6.156 91.0444 5.844 91.2444 5.564C91.4444 5.284 91.7044 5.06 92.0244 4.892C92.3524 4.724 92.7484 4.64 93.2124 4.64C93.7084 4.64 94.1164 4.732 94.4364 4.916C94.7644 5.1 95.0284 5.324 95.2284 5.588V2.744C95.2284 2.664 95.2524 2.6 95.3004 2.552C95.3484 2.504 95.4124 2.48 95.4924 2.48H95.6964C95.7764 2.48 95.8404 2.504 95.8884 2.552C95.9364 2.6 95.9604 2.664 95.9604 2.744V10.736C95.9604 10.816 95.9364 10.88 95.8884 10.928C95.8404 10.976 95.7764 11 95.6964 11H95.4924C95.4124 11 95.3484 10.976 95.3004 10.928C95.2524 10.88 95.2284 10.816 95.2284 10.736V10.172C95.0284 10.444 94.7644 10.672 94.4364 10.856C94.1164 11.032 93.7084 11.12 93.2124 11.12ZM93.2844 10.424C93.7404 10.424 94.1084 10.316 94.3884 10.1C94.6684 9.884 94.8764 9.616 95.0124 9.296C95.1484 8.968 95.2204 8.64 95.2284 8.312C95.2364 8.192 95.2404 8.036 95.2404 7.844C95.2404 7.652 95.2364 7.496 95.2284 7.376C95.2204 7.056 95.1444 6.74 95.0004 6.428C94.8644 6.116 94.6564 5.856 94.3764 5.648C94.0964 5.44 93.7324 5.336 93.2844 5.336C92.8204 5.336 92.4484 5.44 92.1684 5.648C91.8964 5.856 91.7004 6.128 91.5804 6.464C91.4604 6.8 91.3924 7.16 91.3764 7.544C91.3684 7.768 91.3684 7.992 91.3764 8.216C91.3924 8.6 91.4604 8.96 91.5804 9.296C91.7004 9.632 91.8964 9.904 92.1684 10.112C92.4484 10.32 92.8204 10.424 93.2844 10.424ZM104.011 11.12C103.283 11.12 102.687 10.98 102.223 10.7C101.767 10.412 101.427 10.024 101.203 9.536C100.979 9.048 100.855 8.492 100.831 7.868C100.823 7.54 100.819 7.188 100.819 6.812C100.819 6.436 100.823 6.076 100.831 5.732C100.855 5.108 100.979 4.552 101.203 4.064C101.427 3.568 101.767 3.18 102.223 2.9C102.687 2.62 103.283 2.48 104.011 2.48C104.579 2.48 105.063 2.56 105.463 2.72C105.863 2.88 106.187 3.092 106.435 3.356C106.691 3.612 106.879 3.892 106.999 4.196C107.127 4.492 107.199 4.784 107.215 5.072C107.223 5.144 107.199 5.204 107.143 5.252C107.095 5.292 107.035 5.312 106.963 5.312H106.723C106.659 5.312 106.603 5.296 106.555 5.264C106.507 5.224 106.475 5.156 106.459 5.06C106.307 4.348 106.019 3.86 105.595 3.596C105.179 3.332 104.651 3.2 104.011 3.2C103.283 3.2 102.703 3.408 102.271 3.824C101.847 4.232 101.619 4.888 101.587 5.792C101.563 6.448 101.563 7.12 101.587 7.808C101.619 8.712 101.847 9.372 102.271 9.788C102.703 10.196 103.283 10.4 104.011 10.4C104.651 10.4 105.179 10.268 105.595 10.004C106.019 9.74 106.307 9.252 106.459 8.54C106.475 8.444 106.507 8.38 106.555 8.348C106.603 8.308 106.659 8.288 106.723 8.288H106.963C107.035 8.288 107.095 8.312 107.143 8.36C107.199 8.4 107.223 8.456 107.215 8.528C107.199 8.816 107.127 9.112 106.999 9.416C106.879 9.712 106.691 9.992 106.435 10.256C106.187 10.512 105.863 10.72 105.463 10.88C105.063 11.04 104.579 11.12 104.011 11.12ZM111.203 11.12C110.627 11.12 110.143 11 109.751 10.76C109.367 10.52 109.071 10.192 108.863 9.776C108.663 9.36 108.555 8.896 108.539 8.384C108.531 8.264 108.527 8.096 108.527 7.88C108.527 7.664 108.531 7.496 108.539 7.376C108.555 6.856 108.663 6.392 108.863 5.984C109.071 5.568 109.367 5.24 109.751 5C110.143 4.76 110.627 4.64 111.203 4.64C111.779 4.64 112.259 4.76 112.643 5C113.035 5.24 113.331 5.568 113.531 5.984C113.739 6.392 113.851 6.856 113.867 7.376C113.875 7.496 113.879 7.664 113.879 7.88C113.879 8.096 113.875 8.264 113.867 8.384C113.851 8.896 113.739 9.36 113.531 9.776C113.331 10.192 113.035 10.52 112.643 10.76C112.259 11 111.779 11.12 111.203 11.12ZM111.203 10.424C111.763 10.424 112.219 10.244 112.571 9.884C112.923 9.524 113.111 9.004 113.135 8.324C113.143 8.204 113.147 8.056 113.147 7.88C113.147 7.704 113.143 7.556 113.135 7.436C113.111 6.748 112.923 6.228 112.571 5.876C112.219 5.516 111.763 5.336 111.203 5.336C110.643 5.336 110.187 5.516 109.835 5.876C109.483 6.228 109.295 6.748 109.271 7.436C109.263 7.556 109.259 7.704 109.259 7.88C109.259 8.056 109.263 8.204 109.271 8.324C109.295 9.004 109.483 9.524 109.835 9.884C110.187 10.244 110.643 10.424 111.203 10.424ZM117.895 11.12C117.319 11.12 116.835 11 116.443 10.76C116.059 10.52 115.763 10.192 115.555 9.776C115.355 9.36 115.247 8.896 115.231 8.384C115.223 8.264 115.219 8.096 115.219 7.88C115.219 7.664 115.223 7.496 115.231 7.376C115.247 6.856 115.355 6.392 115.555 5.984C115.763 5.568 116.059 5.24 116.443 5C116.835 4.76 117.319 4.64 117.895 4.64C118.471 4.64 118.951 4.76 119.335 5C119.727 5.24 120.023 5.568 120.223 5.984C120.431 6.392 120.543 6.856 120.559 7.376C120.567 7.496 120.571 7.664 120.571 7.88C120.571 8.096 120.567 8.264 120.559 8.384C120.543 8.896 120.431 9.36 120.223 9.776C120.023 10.192 119.727 10.52 119.335 10.76C118.951 11 118.471 11.12 117.895 11.12ZM117.895 10.424C118.455 10.424 118.911 10.244 119.263 9.884C119.615 9.524 119.803 9.004 119.827 8.324C119.835 8.204 119.839 8.056 119.839 7.88C119.839 7.704 119.835 7.556 119.827 7.436C119.803 6.748 119.615 6.228 119.263 5.876C118.911 5.516 118.455 5.336 117.895 5.336C117.335 5.336 116.879 5.516 116.527 5.876C116.175 6.228 115.987 6.748 115.963 7.436C115.955 7.556 115.951 7.704 115.951 7.88C115.951 8.056 115.955 8.204 115.963 8.324C115.987 9.004 116.175 9.524 116.527 9.884C116.879 10.244 117.335 10.424 117.895 10.424ZM122.486 11C122.406 11 122.342 10.976 122.294 10.928C122.246 10.88 122.222 10.816 122.222 10.736V2.744C122.222 2.664 122.246 2.6 122.294 2.552C122.342 2.504 122.406 2.48 122.486 2.48H122.69C122.77 2.48 122.834 2.504 122.882 2.552C122.93 2.6 122.954 2.664 122.954 2.744V6.992L125.63 4.964C125.742 4.876 125.822 4.82 125.87 4.796C125.926 4.772 126.014 4.76 126.134 4.76H126.362C126.434 4.76 126.49 4.784 126.53 4.832C126.578 4.872 126.602 4.928 126.602 5C126.602 5.032 126.59 5.072 126.566 5.12C126.55 5.16 126.51 5.2 126.446 5.24L123.41 7.544L126.746 10.52C126.85 10.616 126.902 10.696 126.902 10.76C126.902 10.832 126.878 10.892 126.83 10.94C126.79 10.98 126.734 11 126.662 11H126.47C126.35 11 126.262 10.992 126.206 10.976C126.158 10.952 126.078 10.892 125.966 10.796L122.954 8.12V10.736C122.954 10.816 122.93 10.88 122.882 10.928C122.834 10.976 122.77 11 122.69 11H122.486ZM128.322 11C128.242 11 128.178 10.976 128.13 10.928C128.082 10.88 128.058 10.816 128.058 10.736V5.024C128.058 4.944 128.082 4.88 128.13 4.832C128.178 4.784 128.242 4.76 128.322 4.76H128.526C128.606 4.76 128.67 4.784 128.718 4.832C128.766 4.88 128.79 4.944 128.79 5.024V10.736C128.79 10.816 128.766 10.88 128.718 10.928C128.67 10.976 128.606 11 128.526 11H128.322ZM128.19 3.476C128.11 3.476 128.046 3.452 127.998 3.404C127.95 3.356 127.926 3.292 127.926 3.212V2.756C127.926 2.676 127.95 2.612 127.998 2.564C128.046 2.508 128.11 2.48 128.19 2.48H128.646C128.726 2.48 128.79 2.508 128.838 2.564C128.894 2.612 128.922 2.676 128.922 2.756V3.212C128.922 3.292 128.894 3.356 128.838 3.404C128.79 3.452 128.726 3.476 128.646 3.476H128.19ZM133.046 11.12C132.27 11.12 131.654 10.868 131.198 10.364C130.742 9.852 130.482 9.184 130.418 8.36C130.41 8.24 130.406 8.08 130.406 7.88C130.406 7.68 130.41 7.52 130.418 7.4C130.458 6.856 130.586 6.376 130.802 5.96C131.018 5.544 131.314 5.22 131.69 4.988C132.074 4.756 132.526 4.64 133.046 4.64C133.606 4.64 134.082 4.764 134.474 5.012C134.866 5.26 135.166 5.616 135.374 6.08C135.59 6.544 135.698 7.096 135.698 7.736V7.916C135.698 7.996 135.67 8.06 135.614 8.108C135.566 8.156 135.502 8.18 135.422 8.18H131.15C131.15 8.18 131.15 8.196 131.15 8.228C131.15 8.26 131.15 8.284 131.15 8.3C131.166 8.66 131.25 9.004 131.402 9.332C131.554 9.652 131.77 9.916 132.05 10.124C132.33 10.324 132.662 10.424 133.046 10.424C133.39 10.424 133.674 10.372 133.898 10.268C134.13 10.164 134.314 10.052 134.45 9.932C134.586 9.804 134.674 9.708 134.714 9.644C134.786 9.54 134.842 9.48 134.882 9.464C134.922 9.44 134.986 9.428 135.074 9.428H135.266C135.338 9.428 135.398 9.452 135.446 9.5C135.502 9.54 135.526 9.596 135.518 9.668C135.51 9.78 135.446 9.92 135.326 10.088C135.214 10.248 135.05 10.408 134.834 10.568C134.626 10.728 134.37 10.86 134.066 10.964C133.762 11.068 133.422 11.12 133.046 11.12ZM131.15 7.508H134.966V7.46C134.966 7.06 134.89 6.7 134.738 6.38C134.586 6.06 134.366 5.808 134.078 5.624C133.79 5.432 133.446 5.336 133.046 5.336C132.646 5.336 132.302 5.432 132.014 5.624C131.734 5.808 131.518 6.06 131.366 6.38C131.222 6.7 131.15 7.06 131.15 7.46V7.508ZM139.261 11.12C138.845 11.12 138.485 11.064 138.181 10.952C137.885 10.84 137.641 10.708 137.449 10.556C137.257 10.396 137.113 10.24 137.017 10.088C136.929 9.936 136.881 9.82 136.873 9.74C136.865 9.652 136.893 9.588 136.957 9.548C137.021 9.5 137.081 9.476 137.137 9.476H137.317C137.365 9.476 137.405 9.484 137.437 9.5C137.477 9.516 137.525 9.56 137.581 9.632C137.685 9.768 137.805 9.9 137.941 10.028C138.077 10.148 138.249 10.244 138.457 10.316C138.673 10.388 138.941 10.424 139.261 10.424C139.741 10.424 140.137 10.332 140.449 10.148C140.761 9.964 140.917 9.692 140.917 9.332C140.917 9.108 140.853 8.928 140.725 8.792C140.605 8.656 140.397 8.536 140.101 8.432C139.805 8.328 139.405 8.22 138.901 8.108C138.397 7.988 138.009 7.844 137.737 7.676C137.473 7.508 137.293 7.316 137.197 7.1C137.101 6.876 137.053 6.636 137.053 6.38C137.053 6.1 137.133 5.828 137.293 5.564C137.453 5.292 137.689 5.072 138.001 4.904C138.321 4.728 138.721 4.64 139.201 4.64C139.593 4.64 139.925 4.692 140.197 4.796C140.477 4.9 140.705 5.028 140.881 5.18C141.057 5.324 141.185 5.468 141.265 5.612C141.353 5.756 141.401 5.872 141.409 5.96C141.417 6.04 141.393 6.104 141.337 6.152C141.281 6.2 141.217 6.224 141.145 6.224H140.965C140.901 6.224 140.849 6.212 140.809 6.188C140.769 6.156 140.733 6.116 140.701 6.068C140.621 5.94 140.525 5.82 140.413 5.708C140.301 5.596 140.149 5.508 139.957 5.444C139.773 5.372 139.521 5.336 139.201 5.336C138.721 5.336 138.365 5.436 138.133 5.636C137.901 5.828 137.785 6.076 137.785 6.38C137.785 6.556 137.833 6.712 137.929 6.848C138.025 6.976 138.205 7.096 138.469 7.208C138.733 7.312 139.117 7.424 139.621 7.544C140.133 7.656 140.537 7.796 140.833 7.964C141.129 8.124 141.337 8.316 141.457 8.54C141.585 8.764 141.649 9.028 141.649 9.332C141.649 9.652 141.557 9.948 141.373 10.22C141.197 10.492 140.929 10.712 140.569 10.88C140.217 11.04 139.781 11.12 139.261 11.12ZM149.614 13.496C149.534 13.496 149.47 13.472 149.422 13.424C149.374 13.376 149.35 13.312 149.35 13.232V0.512C149.35 0.431999 149.374 0.367999 149.422 0.319999C149.47 0.272 149.534 0.248 149.614 0.248H149.818C149.898 0.248 149.962 0.272 150.01 0.319999C150.058 0.367999 150.082 0.431999 150.082 0.512V13.232C150.082 13.312 150.058 13.376 150.01 13.424C149.962 13.472 149.898 13.496 149.818 13.496H149.614ZM160.126 11C160.046 11 159.982 10.976 159.934 10.928C159.886 10.88 159.862 10.816 159.862 10.736V3.32H157.486C157.406 3.32 157.342 3.296 157.294 3.248C157.246 3.2 157.222 3.136 157.222 3.056V2.876C157.222 2.788 157.246 2.72 157.294 2.672C157.342 2.624 157.406 2.6 157.486 2.6H162.982C163.07 2.6 163.138 2.624 163.186 2.672C163.234 2.72 163.258 2.788 163.258 2.876V3.056C163.258 3.136 163.234 3.2 163.186 3.248C163.138 3.296 163.07 3.32 162.982 3.32H160.618V10.736C160.618 10.816 160.594 10.88 160.546 10.928C160.498 10.976 160.43 11 160.342 11H160.126ZM165.683 11.12C164.907 11.12 164.291 10.868 163.835 10.364C163.379 9.852 163.119 9.184 163.055 8.36C163.047 8.24 163.043 8.08 163.043 7.88C163.043 7.68 163.047 7.52 163.055 7.4C163.095 6.856 163.223 6.376 163.439 5.96C163.655 5.544 163.951 5.22 164.327 4.988C164.711 4.756 165.163 4.64 165.683 4.64C166.243 4.64 166.719 4.764 167.111 5.012C167.503 5.26 167.803 5.616 168.011 6.08C168.227 6.544 168.335 7.096 168.335 7.736V7.916C168.335 7.996 168.307 8.06 168.251 8.108C168.203 8.156 168.139 8.18 168.059 8.18H163.787C163.787 8.18 163.787 8.196 163.787 8.228C163.787 8.26 163.787 8.284 163.787 8.3C163.803 8.66 163.887 9.004 164.039 9.332C164.191 9.652 164.407 9.916 164.687 10.124C164.967 10.324 165.299 10.424 165.683 10.424C166.027 10.424 166.311 10.372 166.535 10.268C166.767 10.164 166.951 10.052 167.087 9.932C167.223 9.804 167.311 9.708 167.351 9.644C167.423 9.54 167.479 9.48 167.519 9.464C167.559 9.44 167.623 9.428 167.711 9.428H167.903C167.975 9.428 168.035 9.452 168.083 9.5C168.139 9.54 168.163 9.596 168.155 9.668C168.147 9.78 168.083 9.92 167.963 10.088C167.851 10.248 167.687 10.408 167.471 10.568C167.263 10.728 167.007 10.86 166.703 10.964C166.399 11.068 166.059 11.12 165.683 11.12ZM163.787 7.508H167.603V7.46C167.603 7.06 167.527 6.7 167.375 6.38C167.223 6.06 167.003 5.808 166.715 5.624C166.427 5.432 166.083 5.336 165.683 5.336C165.283 5.336 164.939 5.432 164.651 5.624C164.371 5.808 164.155 6.06 164.003 6.38C163.859 6.7 163.787 7.06 163.787 7.46V7.508ZM170.181 11C170.101 11 170.037 10.976 169.989 10.928C169.941 10.88 169.917 10.816 169.917 10.736V5.036C169.917 4.956 169.941 4.892 169.989 4.844C170.037 4.788 170.101 4.76 170.181 4.76H170.373C170.453 4.76 170.517 4.788 170.565 4.844C170.621 4.892 170.649 4.956 170.649 5.036V5.588C170.793 5.308 171.001 5.1 171.273 4.964C171.545 4.828 171.881 4.76 172.281 4.76H172.725C172.805 4.76 172.869 4.784 172.917 4.832C172.965 4.88 172.989 4.944 172.989 5.024V5.192C172.989 5.272 172.965 5.336 172.917 5.384C172.869 5.432 172.805 5.456 172.725 5.456H172.209C171.729 5.456 171.349 5.596 171.069 5.876C170.789 6.156 170.649 6.536 170.649 7.016V10.736C170.649 10.816 170.621 10.88 170.565 10.928C170.517 10.976 170.453 11 170.373 11H170.181ZM174.353 11C174.273 11 174.209 10.976 174.161 10.928C174.113 10.88 174.089 10.816 174.089 10.736V5.024C174.089 4.944 174.113 4.88 174.161 4.832C174.209 4.784 174.273 4.76 174.353 4.76H174.557C174.637 4.76 174.701 4.784 174.749 4.832C174.797 4.88 174.821 4.944 174.821 5.024V5.444C175.021 5.188 175.257 4.992 175.529 4.856C175.809 4.712 176.145 4.64 176.537 4.64C177.433 4.64 178.073 5.016 178.457 5.768C178.641 5.424 178.909 5.152 179.261 4.952C179.621 4.744 180.033 4.64 180.497 4.64C180.921 4.64 181.301 4.74 181.637 4.94C181.981 5.132 182.249 5.42 182.441 5.804C182.641 6.188 182.741 6.668 182.741 7.244V10.736C182.741 10.816 182.717 10.88 182.669 10.928C182.621 10.976 182.557 11 182.477 11H182.273C182.193 11 182.129 10.976 182.081 10.928C182.033 10.88 182.009 10.816 182.009 10.736V7.364C182.009 6.836 181.933 6.428 181.781 6.14C181.629 5.844 181.429 5.636 181.181 5.516C180.933 5.396 180.665 5.336 180.377 5.336C180.137 5.336 179.893 5.396 179.645 5.516C179.397 5.636 179.189 5.844 179.021 6.14C178.861 6.428 178.781 6.836 178.781 7.364V10.736C178.781 10.816 178.757 10.88 178.709 10.928C178.661 10.976 178.597 11 178.517 11H178.313C178.233 11 178.169 10.976 178.121 10.928C178.073 10.88 178.049 10.816 178.049 10.736V7.364C178.049 6.836 177.969 6.428 177.809 6.14C177.649 5.844 177.445 5.636 177.197 5.516C176.949 5.396 176.689 5.336 176.417 5.336C176.177 5.336 175.933 5.396 175.685 5.516C175.437 5.636 175.229 5.844 175.061 6.14C174.901 6.428 174.821 6.832 174.821 7.352V10.736C174.821 10.816 174.797 10.88 174.749 10.928C174.701 10.976 174.637 11 174.557 11H174.353ZM186.604 11.12C186.188 11.12 185.828 11.064 185.524 10.952C185.228 10.84 184.984 10.708 184.792 10.556C184.6 10.396 184.456 10.24 184.36 10.088C184.272 9.936 184.224 9.82 184.216 9.74C184.208 9.652 184.236 9.588 184.3 9.548C184.364 9.5 184.424 9.476 184.48 9.476H184.66C184.708 9.476 184.748 9.484 184.78 9.5C184.82 9.516 184.868 9.56 184.924 9.632C185.028 9.768 185.148 9.9 185.284 10.028C185.42 10.148 185.592 10.244 185.8 10.316C186.016 10.388 186.284 10.424 186.604 10.424C187.084 10.424 187.48 10.332 187.792 10.148C188.104 9.964 188.26 9.692 188.26 9.332C188.26 9.108 188.196 8.928 188.068 8.792C187.948 8.656 187.74 8.536 187.444 8.432C187.148 8.328 186.748 8.22 186.244 8.108C185.74 7.988 185.352 7.844 185.08 7.676C184.816 7.508 184.636 7.316 184.54 7.1C184.444 6.876 184.396 6.636 184.396 6.38C184.396 6.1 184.476 5.828 184.636 5.564C184.796 5.292 185.032 5.072 185.344 4.904C185.664 4.728 186.064 4.64 186.544 4.64C186.936 4.64 187.268 4.692 187.54 4.796C187.82 4.9 188.048 5.028 188.224 5.18C188.4 5.324 188.528 5.468 188.608 5.612C188.696 5.756 188.744 5.872 188.752 5.96C188.76 6.04 188.736 6.104 188.68 6.152C188.624 6.2 188.56 6.224 188.488 6.224H188.308C188.244 6.224 188.192 6.212 188.152 6.188C188.112 6.156 188.076 6.116 188.044 6.068C187.964 5.94 187.868 5.82 187.756 5.708C187.644 5.596 187.492 5.508 187.3 5.444C187.116 5.372 186.864 5.336 186.544 5.336C186.064 5.336 185.708 5.436 185.476 5.636C185.244 5.828 185.128 6.076 185.128 6.38C185.128 6.556 185.176 6.712 185.272 6.848C185.368 6.976 185.548 7.096 185.812 7.208C186.076 7.312 186.46 7.424 186.964 7.544C187.476 7.656 187.88 7.796 188.176 7.964C188.472 8.124 188.68 8.316 188.8 8.54C188.928 8.764 188.992 9.028 188.992 9.332C188.992 9.652 188.9 9.948 188.716 10.22C188.54 10.492 188.272 10.712 187.912 10.88C187.56 11.04 187.124 11.12 186.604 11.12ZM196 11.12C195.424 11.12 194.94 11 194.548 10.76C194.164 10.52 193.868 10.192 193.66 9.776C193.46 9.36 193.352 8.896 193.336 8.384C193.328 8.264 193.324 8.096 193.324 7.88C193.324 7.664 193.328 7.496 193.336 7.376C193.352 6.856 193.46 6.392 193.66 5.984C193.868 5.568 194.164 5.24 194.548 5C194.94 4.76 195.424 4.64 196 4.64C196.576 4.64 197.056 4.76 197.44 5C197.832 5.24 198.128 5.568 198.328 5.984C198.536 6.392 198.648 6.856 198.664 7.376C198.672 7.496 198.676 7.664 198.676 7.88C198.676 8.096 198.672 8.264 198.664 8.384C198.648 8.896 198.536 9.36 198.328 9.776C198.128 10.192 197.832 10.52 197.44 10.76C197.056 11 196.576 11.12 196 11.12ZM196 10.424C196.56 10.424 197.016 10.244 197.368 9.884C197.72 9.524 197.908 9.004 197.932 8.324C197.94 8.204 197.944 8.056 197.944 7.88C197.944 7.704 197.94 7.556 197.932 7.436C197.908 6.748 197.72 6.228 197.368 5.876C197.016 5.516 196.56 5.336 196 5.336C195.44 5.336 194.984 5.516 194.632 5.876C194.28 6.228 194.092 6.748 194.068 7.436C194.06 7.556 194.056 7.704 194.056 7.88C194.056 8.056 194.06 8.204 194.068 8.324C194.092 9.004 194.28 9.524 194.632 9.884C194.984 10.244 195.44 10.424 196 10.424ZM201.086 11C201.006 11 200.942 10.976 200.894 10.928C200.846 10.88 200.822 10.816 200.822 10.736V5.456H199.754C199.674 5.456 199.61 5.432 199.562 5.384C199.514 5.336 199.49 5.272 199.49 5.192V5.024C199.49 4.944 199.514 4.88 199.562 4.832C199.61 4.784 199.674 4.76 199.754 4.76H200.822V4.076C200.822 3.716 200.87 3.388 200.966 3.092C201.07 2.796 201.25 2.56 201.506 2.384C201.77 2.208 202.146 2.12 202.634 2.12H203.258C203.338 2.12 203.402 2.144 203.45 2.192C203.498 2.24 203.522 2.304 203.522 2.384V2.552C203.522 2.632 203.498 2.696 203.45 2.744C203.402 2.792 203.338 2.816 203.258 2.816H202.634C202.21 2.816 201.922 2.932 201.77 3.164C201.626 3.388 201.554 3.712 201.554 4.136V4.76H203.138C203.218 4.76 203.282 4.784 203.33 4.832C203.378 4.88 203.402 4.944 203.402 5.024V5.192C203.402 5.272 203.378 5.336 203.33 5.384C203.282 5.432 203.218 5.456 203.138 5.456H201.554V10.736C201.554 10.816 201.53 10.88 201.482 10.928C201.434 10.976 201.37 11 201.29 11H201.086ZM210.046 11.12C209.398 11.12 208.846 11.016 208.39 10.808C207.942 10.6 207.598 10.332 207.358 10.004C207.118 9.676 206.99 9.328 206.974 8.96C206.974 8.896 206.998 8.84 207.046 8.792C207.094 8.744 207.154 8.72 207.226 8.72H207.466C207.546 8.72 207.606 8.744 207.646 8.792C207.694 8.84 207.722 8.896 207.73 8.96C207.762 9.184 207.862 9.408 208.03 9.632C208.198 9.848 208.446 10.032 208.774 10.184C209.102 10.328 209.526 10.4 210.046 10.4C210.83 10.4 211.402 10.26 211.762 9.98C212.122 9.692 212.302 9.308 212.302 8.828C212.302 8.508 212.206 8.252 212.014 8.06C211.83 7.86 211.546 7.684 211.162 7.532C210.778 7.372 210.286 7.196 209.686 7.004C209.118 6.82 208.65 6.632 208.282 6.44C207.914 6.24 207.642 6 207.466 5.72C207.298 5.44 207.214 5.08 207.214 4.64C207.214 4.232 207.322 3.868 207.538 3.548C207.754 3.22 208.066 2.96 208.474 2.768C208.89 2.576 209.394 2.48 209.986 2.48C210.458 2.48 210.87 2.544 211.222 2.672C211.574 2.8 211.866 2.972 212.098 3.188C212.33 3.396 212.506 3.624 212.626 3.872C212.746 4.112 212.81 4.348 212.818 4.58C212.818 4.636 212.798 4.692 212.758 4.748C212.718 4.796 212.654 4.82 212.566 4.82H212.326C212.286 4.82 212.234 4.804 212.17 4.772C212.114 4.74 212.078 4.676 212.062 4.58C212.014 4.18 211.802 3.852 211.426 3.596C211.058 3.332 210.578 3.2 209.986 3.2C209.394 3.2 208.91 3.316 208.534 3.548C208.158 3.78 207.97 4.144 207.97 4.64C207.97 4.96 208.054 5.224 208.222 5.432C208.39 5.632 208.654 5.812 209.014 5.972C209.374 6.124 209.838 6.292 210.406 6.476C211.006 6.668 211.502 6.86 211.894 7.052C212.286 7.244 212.578 7.48 212.77 7.76C212.962 8.032 213.058 8.388 213.058 8.828C213.058 9.316 212.934 9.732 212.686 10.076C212.446 10.412 212.102 10.672 211.654 10.856C211.206 11.032 210.67 11.12 210.046 11.12ZM216.316 11.12C215.932 11.12 215.576 11.04 215.248 10.88C214.928 10.72 214.668 10.508 214.468 10.244C214.268 9.972 214.168 9.668 214.168 9.332C214.168 8.788 214.388 8.352 214.828 8.024C215.268 7.696 215.84 7.484 216.544 7.388L218.44 7.124V6.704C218.44 6.28 218.308 5.948 218.044 5.708C217.788 5.46 217.376 5.336 216.808 5.336C216.392 5.336 216.056 5.42 215.8 5.588C215.544 5.748 215.368 5.96 215.272 6.224C215.232 6.344 215.156 6.404 215.044 6.404H214.852C214.756 6.404 214.688 6.38 214.648 6.332C214.608 6.276 214.588 6.212 214.588 6.14C214.588 6.028 214.628 5.888 214.708 5.72C214.796 5.552 214.928 5.388 215.104 5.228C215.28 5.06 215.508 4.92 215.788 4.808C216.068 4.696 216.408 4.64 216.808 4.64C217.28 4.64 217.668 4.704 217.972 4.832C218.284 4.96 218.524 5.128 218.692 5.336C218.868 5.536 218.992 5.76 219.064 6.008C219.136 6.256 219.172 6.5 219.172 6.74V10.736C219.172 10.816 219.148 10.88 219.1 10.928C219.052 10.976 218.988 11 218.908 11H218.704C218.624 11 218.56 10.976 218.512 10.928C218.464 10.88 218.44 10.816 218.44 10.736V10.172C218.344 10.316 218.208 10.46 218.032 10.604C217.856 10.748 217.628 10.872 217.348 10.976C217.076 11.072 216.732 11.12 216.316 11.12ZM216.436 10.424C216.804 10.424 217.14 10.344 217.444 10.184C217.748 10.024 217.988 9.78 218.164 9.452C218.348 9.116 218.44 8.696 218.44 8.192V7.784L216.892 8C216.236 8.088 215.74 8.24 215.404 8.456C215.068 8.672 214.9 8.944 214.9 9.272C214.9 9.536 214.976 9.752 215.128 9.92C215.28 10.088 215.472 10.216 215.704 10.304C215.944 10.384 216.188 10.424 216.436 10.424ZM221.346 11C221.266 11 221.202 10.976 221.154 10.928C221.106 10.88 221.082 10.816 221.082 10.736V2.744C221.082 2.664 221.106 2.6 221.154 2.552C221.202 2.504 221.266 2.48 221.346 2.48H221.55C221.63 2.48 221.694 2.504 221.742 2.552C221.79 2.6 221.814 2.664 221.814 2.744V10.736C221.814 10.816 221.79 10.88 221.742 10.928C221.694 10.976 221.63 11 221.55 11H221.346ZM226.081 11.12C225.305 11.12 224.689 10.868 224.233 10.364C223.777 9.852 223.517 9.184 223.453 8.36C223.445 8.24 223.441 8.08 223.441 7.88C223.441 7.68 223.445 7.52 223.453 7.4C223.493 6.856 223.621 6.376 223.837 5.96C224.053 5.544 224.349 5.22 224.725 4.988C225.109 4.756 225.561 4.64 226.081 4.64C226.641 4.64 227.117 4.764 227.509 5.012C227.901 5.26 228.201 5.616 228.409 6.08C228.625 6.544 228.733 7.096 228.733 7.736V7.916C228.733 7.996 228.705 8.06 228.649 8.108C228.601 8.156 228.537 8.18 228.457 8.18H224.185C224.185 8.18 224.185 8.196 224.185 8.228C224.185 8.26 224.185 8.284 224.185 8.3C224.201 8.66 224.285 9.004 224.437 9.332C224.589 9.652 224.805 9.916 225.085 10.124C225.365 10.324 225.697 10.424 226.081 10.424C226.425 10.424 226.709 10.372 226.933 10.268C227.165 10.164 227.349 10.052 227.485 9.932C227.621 9.804 227.709 9.708 227.749 9.644C227.821 9.54 227.877 9.48 227.917 9.464C227.957 9.44 228.021 9.428 228.109 9.428H228.301C228.373 9.428 228.433 9.452 228.481 9.5C228.537 9.54 228.561 9.596 228.553 9.668C228.545 9.78 228.481 9.92 228.361 10.088C228.249 10.248 228.085 10.408 227.869 10.568C227.661 10.728 227.405 10.86 227.101 10.964C226.797 11.068 226.457 11.12 226.081 11.12ZM224.185 7.508H228.001V7.46C228.001 7.06 227.925 6.7 227.773 6.38C227.621 6.06 227.401 5.808 227.113 5.624C226.825 5.432 226.481 5.336 226.081 5.336C225.681 5.336 225.337 5.432 225.049 5.624C224.769 5.808 224.553 6.06 224.401 6.38C224.257 6.7 224.185 7.06 224.185 7.46V7.508ZM235.09 11.12C234.706 11.12 234.35 11.04 234.021 10.88C233.702 10.72 233.442 10.508 233.242 10.244C233.042 9.972 232.942 9.668 232.942 9.332C232.942 8.788 233.162 8.352 233.602 8.024C234.042 7.696 234.614 7.484 235.318 7.388L237.214 7.124V6.704C237.214 6.28 237.082 5.948 236.818 5.708C236.562 5.46 236.15 5.336 235.582 5.336C235.166 5.336 234.83 5.42 234.574 5.588C234.318 5.748 234.142 5.96 234.046 6.224C234.006 6.344 233.93 6.404 233.818 6.404H233.626C233.53 6.404 233.462 6.38 233.422 6.332C233.382 6.276 233.362 6.212 233.362 6.14C233.362 6.028 233.402 5.888 233.482 5.72C233.57 5.552 233.702 5.388 233.878 5.228C234.054 5.06 234.282 4.92 234.562 4.808C234.842 4.696 235.182 4.64 235.582 4.64C236.054 4.64 236.442 4.704 236.746 4.832C237.058 4.96 237.298 5.128 237.466 5.336C237.642 5.536 237.766 5.76 237.838 6.008C237.91 6.256 237.946 6.5 237.946 6.74V10.736C237.946 10.816 237.922 10.88 237.874 10.928C237.826 10.976 237.762 11 237.682 11H237.478C237.398 11 237.334 10.976 237.286 10.928C237.238 10.88 237.214 10.816 237.214 10.736V10.172C237.118 10.316 236.982 10.46 236.806 10.604C236.63 10.748 236.402 10.872 236.122 10.976C235.85 11.072 235.506 11.12 235.09 11.12ZM235.21 10.424C235.578 10.424 235.914 10.344 236.218 10.184C236.522 10.024 236.762 9.78 236.938 9.452C237.122 9.116 237.214 8.696 237.214 8.192V7.784L235.666 8C235.01 8.088 234.514 8.24 234.178 8.456C233.842 8.672 233.674 8.944 233.674 9.272C233.674 9.536 233.75 9.752 233.902 9.92C234.054 10.088 234.246 10.216 234.478 10.304C234.718 10.384 234.962 10.424 235.21 10.424ZM240.107 11C240.027 11 239.963 10.976 239.915 10.928C239.867 10.88 239.843 10.816 239.843 10.736V5.024C239.843 4.944 239.867 4.88 239.915 4.832C239.963 4.784 240.027 4.76 240.107 4.76H240.311C240.391 4.76 240.455 4.784 240.503 4.832C240.551 4.88 240.575 4.944 240.575 5.024V5.588C240.791 5.308 241.051 5.08 241.355 4.904C241.667 4.728 242.079 4.64 242.591 4.64C243.135 4.64 243.587 4.76 243.947 5C244.315 5.232 244.587 5.552 244.763 5.96C244.947 6.36 245.039 6.816 245.039 7.328V10.736C245.039 10.816 245.015 10.88 244.967 10.928C244.919 10.976 244.855 11 244.775 11H244.571C244.491 11 244.427 10.976 244.379 10.928C244.331 10.88 244.307 10.816 244.307 10.736V7.388C244.307 6.748 244.151 6.248 243.839 5.888C243.527 5.52 243.071 5.336 242.471 5.336C241.903 5.336 241.443 5.52 241.091 5.888C240.747 6.248 240.575 6.748 240.575 7.388V10.736C240.575 10.816 240.551 10.88 240.503 10.928C240.455 10.976 240.391 11 240.311 11H240.107ZM249.177 11.12C248.713 11.12 248.317 11.036 247.989 10.868C247.669 10.7 247.409 10.476 247.209 10.196C247.009 9.916 246.861 9.604 246.765 9.26C246.677 8.916 246.625 8.568 246.609 8.216C246.601 8.096 246.597 7.984 246.597 7.88C246.597 7.776 246.601 7.664 246.609 7.544C246.625 7.192 246.677 6.844 246.765 6.5C246.861 6.156 247.009 5.844 247.209 5.564C247.409 5.284 247.669 5.06 247.989 4.892C248.317 4.724 248.713 4.64 249.177 4.64C249.673 4.64 250.081 4.732 250.401 4.916C250.729 5.1 250.993 5.324 251.193 5.588V2.744C251.193 2.664 251.217 2.6 251.265 2.552C251.313 2.504 251.377 2.48 251.457 2.48H251.661C251.741 2.48 251.805 2.504 251.853 2.552C251.901 2.6 251.925 2.664 251.925 2.744V10.736C251.925 10.816 251.901 10.88 251.853 10.928C251.805 10.976 251.741 11 251.661 11H251.457C251.377 11 251.313 10.976 251.265 10.928C251.217 10.88 251.193 10.816 251.193 10.736V10.172C250.993 10.444 250.729 10.672 250.401 10.856C250.081 11.032 249.673 11.12 249.177 11.12ZM249.249 10.424C249.705 10.424 250.073 10.316 250.353 10.1C250.633 9.884 250.841 9.616 250.977 9.296C251.113 8.968 251.185 8.64 251.193 8.312C251.201 8.192 251.205 8.036 251.205 7.844C251.205 7.652 251.201 7.496 251.193 7.376C251.185 7.056 251.109 6.74 250.965 6.428C250.829 6.116 250.621 5.856 250.341 5.648C250.061 5.44 249.697 5.336 249.249 5.336C248.785 5.336 248.413 5.44 248.133 5.648C247.861 5.856 247.665 6.128 247.545 6.464C247.425 6.8 247.357 7.16 247.341 7.544C247.333 7.768 247.333 7.992 247.341 8.216C247.357 8.6 247.425 8.96 247.545 9.296C247.665 9.632 247.861 9.904 248.133 10.112C248.413 10.32 248.785 10.424 249.249 10.424ZM260.156 11.12C259.508 11.12 258.952 11 258.488 10.76C258.032 10.52 257.68 10.152 257.432 9.656C257.184 9.16 257.06 8.524 257.06 7.748V2.876C257.06 2.788 257.084 2.72 257.132 2.672C257.18 2.624 257.244 2.6 257.324 2.6H257.54C257.628 2.6 257.696 2.624 257.744 2.672C257.792 2.72 257.816 2.788 257.816 2.876V7.784C257.816 8.68 258.024 9.34 258.44 9.764C258.864 10.188 259.436 10.4 260.156 10.4C260.868 10.4 261.432 10.188 261.848 9.764C262.272 9.34 262.484 8.68 262.484 7.784V2.876C262.484 2.788 262.508 2.72 262.556 2.672C262.612 2.624 262.68 2.6 262.76 2.6H262.976C263.056 2.6 263.12 2.624 263.168 2.672C263.216 2.72 263.24 2.788 263.24 2.876V7.748C263.24 8.524 263.116 9.16 262.868 9.656C262.628 10.152 262.28 10.52 261.824 10.76C261.368 11 260.812 11.12 260.156 11.12ZM267.194 11.12C266.778 11.12 266.418 11.064 266.114 10.952C265.818 10.84 265.574 10.708 265.382 10.556C265.19 10.396 265.046 10.24 264.95 10.088C264.862 9.936 264.814 9.82 264.806 9.74C264.798 9.652 264.826 9.588 264.89 9.548C264.954 9.5 265.014 9.476 265.07 9.476H265.25C265.298 9.476 265.338 9.484 265.37 9.5C265.41 9.516 265.458 9.56 265.514 9.632C265.618 9.768 265.738 9.9 265.874 10.028C266.01 10.148 266.182 10.244 266.39 10.316C266.606 10.388 266.874 10.424 267.194 10.424C267.674 10.424 268.07 10.332 268.382 10.148C268.694 9.964 268.85 9.692 268.85 9.332C268.85 9.108 268.786 8.928 268.658 8.792C268.538 8.656 268.33 8.536 268.034 8.432C267.738 8.328 267.338 8.22 266.834 8.108C266.33 7.988 265.942 7.844 265.67 7.676C265.406 7.508 265.226 7.316 265.13 7.1C265.034 6.876 264.986 6.636 264.986 6.38C264.986 6.1 265.066 5.828 265.226 5.564C265.386 5.292 265.622 5.072 265.934 4.904C266.254 4.728 266.654 4.64 267.134 4.64C267.526 4.64 267.858 4.692 268.13 4.796C268.41 4.9 268.638 5.028 268.814 5.18C268.99 5.324 269.118 5.468 269.198 5.612C269.286 5.756 269.334 5.872 269.342 5.96C269.35 6.04 269.326 6.104 269.27 6.152C269.214 6.2 269.15 6.224 269.078 6.224H268.898C268.834 6.224 268.782 6.212 268.742 6.188C268.702 6.156 268.666 6.116 268.634 6.068C268.554 5.94 268.458 5.82 268.346 5.708C268.234 5.596 268.082 5.508 267.89 5.444C267.706 5.372 267.454 5.336 267.134 5.336C266.654 5.336 266.298 5.436 266.066 5.636C265.834 5.828 265.718 6.076 265.718 6.38C265.718 6.556 265.766 6.712 265.862 6.848C265.958 6.976 266.138 7.096 266.402 7.208C266.666 7.312 267.05 7.424 267.554 7.544C268.066 7.656 268.47 7.796 268.766 7.964C269.062 8.124 269.27 8.316 269.39 8.54C269.518 8.764 269.582 9.028 269.582 9.332C269.582 9.652 269.49 9.948 269.306 10.22C269.13 10.492 268.862 10.712 268.502 10.88C268.15 11.04 267.714 11.12 267.194 11.12ZM273.436 11.12C272.66 11.12 272.044 10.868 271.588 10.364C271.132 9.852 270.872 9.184 270.808 8.36C270.8 8.24 270.796 8.08 270.796 7.88C270.796 7.68 270.8 7.52 270.808 7.4C270.848 6.856 270.976 6.376 271.192 5.96C271.408 5.544 271.704 5.22 272.08 4.988C272.464 4.756 272.916 4.64 273.436 4.64C273.996 4.64 274.472 4.764 274.864 5.012C275.256 5.26 275.556 5.616 275.764 6.08C275.98 6.544 276.088 7.096 276.088 7.736V7.916C276.088 7.996 276.06 8.06 276.004 8.108C275.956 8.156 275.892 8.18 275.812 8.18H271.54C271.54 8.18 271.54 8.196 271.54 8.228C271.54 8.26 271.54 8.284 271.54 8.3C271.556 8.66 271.64 9.004 271.792 9.332C271.944 9.652 272.16 9.916 272.44 10.124C272.72 10.324 273.052 10.424 273.436 10.424C273.78 10.424 274.064 10.372 274.288 10.268C274.52 10.164 274.704 10.052 274.84 9.932C274.976 9.804 275.064 9.708 275.104 9.644C275.176 9.54 275.232 9.48 275.272 9.464C275.312 9.44 275.376 9.428 275.464 9.428H275.656C275.728 9.428 275.788 9.452 275.836 9.5C275.892 9.54 275.916 9.596 275.908 9.668C275.9 9.78 275.836 9.92 275.716 10.088C275.604 10.248 275.44 10.408 275.224 10.568C275.016 10.728 274.76 10.86 274.456 10.964C274.152 11.068 273.812 11.12 273.436 11.12ZM271.54 7.508H275.356V7.46C275.356 7.06 275.28 6.7 275.128 6.38C274.976 6.06 274.756 5.808 274.468 5.624C274.18 5.432 273.836 5.336 273.436 5.336C273.036 5.336 272.692 5.432 272.404 5.624C272.124 5.808 271.908 6.06 271.756 6.38C271.612 6.7 271.54 7.06 271.54 7.46V7.508Z" fill="#616161"/>
</svg>
