<svg width="264" height="80" viewBox="0 0 264 80" fill="none" xmlns="http://www.w3.org/2000/svg">
<path opacity="0.2" d="M69.76 12.59C72.98 13.01 75.885 13.815 78.475 15.005C81.065 16.195 83.235 17.7 84.985 19.52C86.805 21.27 88.205 23.3 89.185 25.61C90.165 27.85 90.655 30.23 90.655 32.75C90.655 36.04 89.99 39.12 88.66 41.99C87.4 44.86 85.58 47.345 83.2 49.445C80.89 51.545 78.055 53.225 74.695 54.485C71.335 55.675 67.555 56.27 63.355 56.27C58.805 56.27 55.025 55.15 52.015 52.91C47.605 62.36 42.425 69.255 36.475 73.595C30.525 77.865 24.12 80 17.26 80C11.45 80 7.145 78.565 4.345 75.695C1.615 72.755 0.25 69.08 0.25 64.67C0.25 63.34 0.46 62.01 0.88 60.68C1.37 59.28 2.035 57.985 2.875 56.795C3.715 55.535 4.73 54.415 5.92 53.435C7.18 52.455 8.58 51.65 10.12 51.02C10.33 50.88 10.505 50.88 10.645 51.02C10.855 51.16 10.89 51.405 10.75 51.755C8.65 52.875 7.11 54.38 6.13 56.27C5.15 58.16 4.66 60.19 4.66 62.36C4.66 64.25 4.975 66.07 5.605 67.82C6.235 69.5 7.215 70.97 8.545 72.23C9.945 73.49 11.695 74.505 13.795 75.275C15.895 75.975 18.415 76.325 21.355 76.325C24.715 76.325 27.655 75.905 30.175 75.065C32.695 74.225 34.97 72.755 37 70.655C39.1 68.555 40.99 65.72 42.67 62.15C44.42 58.51 46.17 53.925 47.92 48.395C46.66 46.365 45.785 44.16 45.295 41.78C45.365 41.5 45.505 41.29 45.715 41.15C45.925 41.01 46.1 41.045 46.24 41.255C46.73 43.285 47.465 45.105 48.445 46.715C48.725 45.805 48.97 44.86 49.18 43.88C49.46 42.9 49.74 41.92 50.02 40.94C51.77 34.71 53.695 29.53 55.795 25.4C57.895 21.27 60.275 17.945 62.935 15.425C62.585 15.355 62.06 15.32 61.36 15.32C53.94 15.32 47.71 17.035 42.67 20.465C37.63 23.825 34.095 29.005 32.065 36.005C31.855 36.215 31.61 36.25 31.33 36.11C31.12 35.9 31.015 35.55 31.015 35.06C33.395 28.06 37.35 22.53 42.88 18.47C48.48 14.41 55.83 12.38 64.93 12.38H66.61C69.27 10.63 72.245 9.335 75.535 8.49499C75.885 8.49499 76.06 8.66999 76.06 9.01999C76.06 9.29999 75.885 9.51 75.535 9.65C73.435 10.28 71.51 11.26 69.76 12.59ZM64.51 54.17C67.45 54.17 70.11 53.68 72.49 52.7C74.87 51.72 76.9 50.355 78.58 48.605C80.33 46.855 81.66 44.825 82.57 42.515C83.48 40.205 83.935 37.72 83.935 35.06C83.935 30.09 82.43 25.89 79.42 22.46C76.48 18.96 72.245 16.72 66.715 15.74C63.215 20.15 60.31 26.87 58 35.9C57.23 38.77 56.39 41.5 55.48 44.09C54.64 46.61 53.73 48.99 52.75 51.23C55.62 53.19 59.54 54.17 64.51 54.17ZM95.5154 56.165C95.5154 57.215 95.4104 58.405 95.2004 59.735C94.9904 61.065 94.7104 62.43 94.3604 63.83C95.7604 60.47 97.3004 57.845 98.9804 55.955C100.66 54.065 102.48 53.12 104.44 53.12C105.49 53.12 106.295 53.365 106.855 53.855C107.415 54.345 107.695 54.975 107.695 55.745C107.695 56.445 107.415 57.355 106.855 58.475C106.365 59.595 105.945 60.365 105.595 60.785C105.455 60.855 105.315 60.855 105.175 60.785C105.035 60.645 104.965 60.505 104.965 60.365C104.965 59.875 104.755 59.455 104.335 59.105C103.985 58.755 103.425 58.58 102.655 58.58C100.205 58.58 97.9654 60.26 95.9354 63.62C93.9754 66.91 92.1554 71.67 90.4754 77.9C90.4054 78.25 90.1604 78.565 89.7404 78.845C89.3204 79.055 88.8304 79.265 88.2704 79.475C87.7804 79.615 87.2554 79.755 86.6954 79.895C86.1354 79.965 85.6454 80 85.2254 80C84.4554 80 84.2454 79.58 84.5954 78.74C85.2254 77.27 85.8204 75.695 86.3804 74.015C87.0104 72.265 87.5704 70.515 88.0604 68.765C88.5504 67.015 88.9704 65.335 89.3204 63.725C89.6704 62.045 89.9504 60.505 90.1604 59.105C90.3004 58.055 90.3354 57.25 90.2654 56.69C90.2654 56.13 89.9854 55.85 89.4254 55.85C88.7254 55.85 87.9904 56.165 87.2204 56.795C86.5204 57.355 85.8554 58.09 85.2254 59C84.9454 59.21 84.6654 59.245 84.3854 59.105C84.1754 58.895 84.1404 58.65 84.2804 58.37C84.7004 57.81 85.1904 57.25 85.7504 56.69C86.3804 56.06 87.0454 55.5 87.7454 55.01C88.5154 54.45 89.2854 53.995 90.0554 53.645C90.8954 53.295 91.7354 53.12 92.5754 53.12C93.6954 53.12 94.4654 53.4 94.8854 53.96C95.3054 54.45 95.5154 55.185 95.5154 56.165ZM122.281 53.12C124.731 53.12 126.551 53.855 127.741 55.325C128.931 56.795 129.526 58.51 129.526 60.47C129.526 63.2 128.966 65.755 127.846 68.135C126.796 70.445 125.466 72.51 123.856 74.33C122.316 76.08 120.636 77.48 118.816 78.53C116.996 79.51 115.351 80 113.881 80C111.501 80 109.681 79.3 108.421 77.9C107.231 76.43 106.636 74.575 106.636 72.335C106.636 70.305 107.056 68.17 107.896 65.93C108.806 63.69 109.961 61.625 111.361 59.735C112.831 57.845 114.511 56.27 116.401 55.01C118.291 53.75 120.251 53.12 122.281 53.12ZM116.506 76.745C118.676 76.745 120.496 75.625 121.966 73.385C123.506 71.075 124.276 67.925 124.276 63.935C124.276 61.835 123.856 60.085 123.016 58.685C122.176 57.285 120.951 56.585 119.341 56.585C117.101 56.585 115.281 57.67 113.881 59.84C112.481 62.01 111.781 65.195 111.781 69.395C111.781 71.845 112.201 73.7 113.041 74.96C113.951 76.15 115.106 76.745 116.506 76.745ZM195.447 0.619996C196.497 0.619996 197.337 0.899996 197.967 1.46C198.667 2.02 199.157 2.755 199.437 3.66499C199.717 4.57499 199.787 5.625 199.647 6.815C199.507 7.935 199.157 9.055 198.597 10.175C198.457 10.315 198.282 10.385 198.072 10.385C197.862 10.315 197.722 10.14 197.652 9.86C197.792 8.81 197.512 8.04 196.812 7.54999C196.112 6.99 195.132 6.71 193.872 6.71C190.092 6.71 186.452 7.97 182.952 10.49C179.452 13.01 176.127 16.895 172.977 22.145C169.897 27.325 167.027 33.94 164.367 41.99C161.777 49.97 159.432 59.49 157.332 70.55C156.982 72.09 156.947 73.42 157.227 74.54C157.507 75.59 158.032 76.115 158.802 76.115C159.572 76.115 160.307 75.8 161.007 75.17C161.707 74.54 162.337 73.735 162.897 72.755C163.037 72.615 163.212 72.615 163.422 72.755C163.702 72.895 163.807 73.105 163.737 73.385C163.387 74.085 162.862 74.82 162.162 75.59C161.532 76.36 160.797 77.095 159.957 77.795C159.187 78.425 158.347 78.95 157.437 79.37C156.597 79.79 155.827 80 155.127 80C153.587 80 152.502 79.44 151.872 78.32C151.242 77.2 150.997 75.94 151.137 74.54C151.277 73.35 151.452 72.23 151.662 71.18C151.872 70.13 152.117 69.01 152.397 67.82C150.997 70.83 149.037 73.455 146.517 75.695C143.997 77.865 141.512 79.3 139.062 80C137.452 80 136.157 79.405 135.177 78.215C134.197 77.025 133.707 75.485 133.707 73.595C133.707 70.865 134.197 68.275 135.177 65.825C136.157 63.305 137.487 61.1 139.167 59.21C140.847 57.32 142.842 55.815 145.152 54.695C147.462 53.575 149.947 53.015 152.607 53.015C154.077 53.015 155.372 53.26 156.492 53.75C157.752 49.97 159.257 46.05 161.007 41.99C162.757 37.86 164.682 33.835 166.782 29.915C168.882 25.995 171.087 22.25 173.397 18.68C175.777 15.11 178.192 11.995 180.642 9.335C183.092 6.675 185.577 4.575 188.097 3.035C190.617 1.425 193.067 0.619996 195.447 0.619996ZM142.422 75.905C143.192 75.905 144.102 75.52 145.152 74.75C146.202 73.91 147.287 72.825 148.407 71.495C149.527 70.095 150.577 68.52 151.557 66.77C152.537 64.95 153.377 63.025 154.077 60.995C154.357 60.365 154.602 59.735 154.812 59.105C155.022 58.405 155.197 57.74 155.337 57.11C155.057 56.27 154.497 55.675 153.657 55.325C152.887 54.905 152.012 54.695 151.032 54.695C149.562 54.695 148.127 55.15 146.727 56.06C145.327 56.9 144.102 58.09 143.052 59.63C142.002 61.17 141.127 62.99 140.427 65.09C139.797 67.19 139.482 69.5 139.482 72.02C139.482 73.14 139.727 74.085 140.217 74.855C140.777 75.555 141.512 75.905 142.422 75.905ZM171.652 80C168.712 80 167.242 78.39 167.242 75.17C167.242 74.05 167.347 72.755 167.557 71.285C167.837 69.815 168.222 68.31 168.712 66.77C169.272 65.16 169.902 63.55 170.602 61.94C171.302 60.33 172.142 58.79 173.122 57.32C172.352 57.81 171.617 58.335 170.917 58.895C170.217 59.385 169.587 59.91 169.027 60.47C168.817 60.61 168.607 60.575 168.397 60.365C168.257 60.085 168.257 59.84 168.397 59.63C169.587 58.37 171.267 57.075 173.437 55.745C175.677 54.415 177.812 53.365 179.842 52.595C180.192 52.595 180.437 52.7 180.577 52.91C180.787 53.05 180.822 53.26 180.682 53.54C178.442 56.48 176.622 59.665 175.222 63.095C173.892 66.525 173.227 69.85 173.227 73.07C173.227 75.1 173.857 76.115 175.117 76.115C176.027 76.115 177.147 75.52 178.477 74.33C179.807 73.07 181.207 71.46 182.677 69.5C184.147 67.47 185.617 65.195 187.087 62.675C188.627 60.155 190.027 57.6 191.287 55.01C191.497 54.59 192.092 54.17 193.072 53.75C194.122 53.33 195.172 53.12 196.222 53.12C197.272 53.12 197.587 53.4 197.167 53.96C196.187 55.78 195.312 57.495 194.542 59.105C193.842 60.645 193.247 62.185 192.757 63.725C192.267 65.265 191.882 66.84 191.602 68.45C191.392 69.99 191.287 71.705 191.287 73.595C191.287 75.835 191.882 76.955 193.072 76.955C194.262 76.955 195.592 75.905 197.062 73.805C197.272 73.665 197.482 73.665 197.692 73.805C197.902 73.945 197.972 74.155 197.902 74.435C196.712 76.255 195.382 77.655 193.912 78.635C192.512 79.545 191.217 80 190.027 80C187.087 80 185.617 78.285 185.617 74.855C185.617 71.285 186.247 67.75 187.507 64.25C184.847 69.08 182.047 72.93 179.107 75.8C176.167 78.6 173.682 80 171.652 80ZM219.535 62.57C219.115 62.71 218.905 62.535 218.905 62.045C219.395 60.575 219.29 59.28 218.59 58.16C217.96 57.04 216.77 56.48 215.02 56.48C212.78 56.48 210.96 57.88 209.56 60.68C208.23 63.48 207.565 67.12 207.565 71.6C207.565 74.89 208.86 76.535 211.45 76.535C212.64 76.535 213.935 76.115 215.335 75.275C216.805 74.365 218.135 73.21 219.325 71.81C219.605 71.67 219.85 71.705 220.06 71.915C220.27 72.125 220.305 72.37 220.165 72.65C218.415 74.89 216.455 76.675 214.285 78.005C212.115 79.335 209.805 80 207.355 80C205.815 80 204.52 79.475 203.47 78.425C202.42 77.305 201.895 75.765 201.895 73.805C201.895 71.355 202.385 68.905 203.365 66.455C204.415 63.935 205.745 61.695 207.355 59.735C208.965 57.775 210.715 56.2 212.605 55.01C214.495 53.75 216.35 53.12 218.17 53.12C219.78 53.12 221.04 53.575 221.95 54.485C222.86 55.395 223.315 56.41 223.315 57.53C223.315 57.95 223.175 58.405 222.895 58.895C222.685 59.385 222.37 59.875 221.95 60.365C221.6 60.855 221.18 61.31 220.69 61.73C220.27 62.15 219.885 62.43 219.535 62.57ZM246.049 53.645C246.399 53.785 246.539 53.995 246.469 54.275C246.399 54.485 246.084 54.66 245.524 54.8C244.474 54.8 243.249 54.835 241.849 54.905C240.519 54.975 239.084 55.08 237.544 55.22C236.144 58.65 234.989 62.01 234.079 65.3C233.169 68.52 232.714 71.145 232.714 73.175C232.714 75.555 233.624 76.745 235.444 76.745C237.264 76.745 239.294 75.17 241.534 72.02C241.744 71.88 241.919 71.88 242.059 72.02C242.269 72.16 242.339 72.405 242.269 72.755C241.079 74.715 239.574 76.43 237.754 77.9C235.934 79.3 234.149 80 232.399 80C230.579 80 229.214 79.58 228.304 78.74C227.464 77.83 227.044 76.605 227.044 75.065C227.044 73.035 227.534 70.235 228.514 66.665C229.494 63.095 230.754 59.455 232.294 55.745C230.474 55.955 228.794 56.235 227.254 56.585C226.904 56.515 226.799 56.34 226.939 56.06C227.149 55.78 227.464 55.5 227.884 55.22C228.374 54.87 228.934 54.59 229.564 54.38C230.194 54.1 230.789 53.96 231.349 53.96C231.629 53.96 231.909 53.96 232.189 53.96C232.469 53.96 232.749 53.925 233.029 53.855C233.939 51.825 234.884 49.865 235.864 47.975C236.844 46.085 237.824 44.37 238.804 42.83C239.224 42.34 239.784 41.92 240.484 41.57C241.254 41.15 241.989 40.835 242.689 40.625C243.389 40.415 243.949 40.31 244.369 40.31C244.859 40.24 245.069 40.345 244.999 40.625C243.809 42.445 242.619 44.475 241.429 46.715C240.309 48.955 239.224 51.3 238.174 53.75C239.504 53.68 240.834 53.645 242.164 53.645C243.564 53.645 244.859 53.645 246.049 53.645ZM258.599 53.12C260.139 53.12 261.364 53.33 262.274 53.75C263.254 54.17 263.744 54.695 263.744 55.325C263.744 56.095 263.534 56.97 263.114 57.95C262.764 58.93 262.414 59.735 262.064 60.365C261.924 60.505 261.749 60.54 261.539 60.47C261.329 60.33 261.224 60.12 261.224 59.84C261.434 59.35 261.539 58.65 261.539 57.74C261.539 56.76 261.259 55.955 260.699 55.325C260.209 54.695 259.509 54.38 258.599 54.38C257.409 54.38 256.429 54.765 255.659 55.535C254.959 56.235 254.609 57.25 254.609 58.58C254.609 59.7 254.889 60.785 255.449 61.835C256.079 62.815 256.744 63.83 257.444 64.88C258.214 65.86 258.914 66.945 259.544 68.135C260.174 69.255 260.489 70.55 260.489 72.02C260.489 74.54 259.474 76.5 257.444 77.9C255.414 79.3 252.754 80 249.464 80C247.084 80 245.194 79.615 243.794 78.845C242.464 78.075 241.799 77.235 241.799 76.325C241.799 76.045 241.904 75.66 242.114 75.17C242.324 74.68 242.604 74.155 242.954 73.595C243.304 73.035 243.689 72.475 244.109 71.915C244.529 71.355 244.984 70.9 245.474 70.55C245.684 70.41 245.859 70.445 245.999 70.655C246.209 70.865 246.244 71.075 246.104 71.285C245.684 71.705 245.369 72.16 245.159 72.65C244.949 73.07 244.844 73.665 244.844 74.435C244.844 75.695 245.264 76.745 246.104 77.585C246.944 78.355 248.029 78.74 249.359 78.74C251.179 78.74 252.579 78.25 253.559 77.27C254.609 76.22 255.134 74.96 255.134 73.49C255.134 72.16 254.819 70.935 254.189 69.815C253.629 68.625 252.999 67.505 252.299 66.455C251.599 65.335 250.934 64.215 250.304 63.095C249.744 61.975 249.464 60.785 249.464 59.525C249.464 57.705 250.234 56.2 251.774 55.01C253.314 53.75 255.589 53.12 258.599 53.12Z" fill="#394149"/>
</svg>
