<svg width="39" height="39" viewBox="0 0 39 39" fill="none" xmlns="http://www.w3.org/2000/svg">
<path d="M33.6822 17.3686C34.4332 18.351 34.4332 19.6772 33.6822 20.658C31.3165 23.7461 25.6409 30.1047 19.0146 30.1047C12.3882 30.1047 6.71261 23.7461 4.34697 20.658C3.98156 20.1876 3.7832 19.6089 3.7832 19.0133C3.7832 18.4176 3.98156 17.839 4.34697 17.3686C6.71261 14.2804 12.3882 7.92188 19.0146 7.92188C25.6409 7.92188 31.3165 14.2804 33.6822 17.3686V17.3686Z" stroke="white" stroke-width="3" stroke-linecap="round" stroke-linejoin="round"/>
<path d="M19.0142 23.7647C21.6395 23.7647 23.7677 21.6365 23.7677 19.0113C23.7677 16.386 21.6395 14.2578 19.0142 14.2578C16.3889 14.2578 14.2607 16.386 14.2607 19.0113C14.2607 21.6365 16.3889 23.7647 19.0142 23.7647Z" stroke="white" stroke-width="3" stroke-linecap="round" stroke-linejoin="round"/>
</svg>
