<svg width="287" height="112" viewBox="0 0 287 112" fill="none" xmlns="http://www.w3.org/2000/svg">
<path opacity="0.2" d="M30.24 24.085C30.24 26.535 31.08 28.635 32.76 30.385C34.44 32.065 37.275 33.5 41.265 34.69C41.475 34.83 41.44 35.11 41.16 35.53C40.95 35.88 40.635 36.3 40.215 36.79C39.795 37.21 39.34 37.595 38.85 37.945C38.36 38.295 37.975 38.505 37.695 38.575C29.925 38.225 23.905 39.905 19.635 43.615C15.435 47.255 13.335 52.68 13.335 59.89C13.335 62.34 13.685 64.615 14.385 66.715C15.155 68.815 16.205 70.635 17.535 72.175C18.935 73.715 20.58 74.94 22.47 75.85C24.43 76.69 26.635 77.11 29.085 77.11C34.825 77.11 39.515 75.78 43.155 73.12C46.795 70.46 49.42 66.155 51.03 60.205C51.24 59.855 51.45 59.75 51.66 59.89C51.94 60.03 52.115 60.31 52.185 60.73C51.345 64.65 50.33 67.905 49.14 70.495C48.02 73.085 46.97 74.59 45.99 75.01C43.05 76.34 40.075 77.355 37.065 78.055C34.055 78.685 30.52 79 26.46 79C19.88 79 14.875 77.565 11.445 74.695C8.015 71.755 6.3 67.66 6.3 62.41C6.3 59.05 6.965 55.97 8.295 53.17C9.625 50.3 11.445 47.745 13.755 45.505C16.135 43.265 18.935 41.375 22.155 39.835C25.375 38.295 28.91 37.175 32.76 36.475C30.1 35.355 27.965 33.85 26.355 31.96C24.745 30.07 23.94 27.9 23.94 25.45C23.94 23.56 24.395 21.775 25.305 20.095C26.285 18.345 27.685 16.84 29.505 15.58C31.325 14.32 33.565 13.305 36.225 12.535C38.885 11.765 41.93 11.38 45.36 11.38C47.25 11.38 49.035 11.555 50.715 11.905C52.395 12.255 53.865 12.71 55.125 13.27C56.455 13.83 57.47 14.495 58.17 15.265C58.94 15.965 59.325 16.665 59.325 17.365C59.325 17.925 59.185 18.625 58.905 19.465C58.695 20.305 58.38 21.145 57.96 21.985C57.61 22.825 57.225 23.63 56.805 24.4C56.455 25.1 56.175 25.59 55.965 25.87C55.755 26.01 55.545 26.01 55.335 25.87C55.125 25.73 55.055 25.52 55.125 25.24C55.545 24.47 55.825 23.63 55.965 22.72C56.105 21.81 55.965 20.865 55.545 19.885C54.705 18.135 53.13 16.665 50.82 15.475C48.58 14.215 45.92 13.585 42.84 13.585C38.64 13.585 35.49 14.565 33.39 16.525C31.29 18.415 30.24 20.935 30.24 24.085ZM81.868 72.175C82.078 72.035 82.288 72.035 82.498 72.175C82.708 72.315 82.778 72.525 82.708 72.805C81.728 74.345 80.433 75.78 78.823 77.11C77.213 78.37 75.533 79 73.783 79C72.033 79 70.528 78.23 69.268 76.69C68.008 75.08 66.853 72.56 65.803 69.13C63.983 72.35 62.128 74.8 60.238 76.48C58.418 78.16 56.598 79 54.778 79C53.658 79 53.098 78.265 53.098 76.795C53.098 74.835 53.693 72.77 54.883 70.6C55.023 70.46 55.198 70.46 55.408 70.6C55.618 70.74 55.688 70.915 55.618 71.125C55.198 72.175 55.128 73.05 55.408 73.75C55.758 74.45 56.353 74.8 57.193 74.8C59.713 74.8 62.408 72.35 65.278 67.45C64.788 65.7 64.473 64.09 64.333 62.62C64.193 61.08 64.088 59.75 64.018 58.63C63.948 57.51 63.843 56.67 63.703 56.11C63.633 55.48 63.423 55.165 63.073 55.165C62.513 55.165 61.953 55.585 61.393 56.425C60.833 57.195 60.378 58 60.028 58.84C59.888 59.05 59.678 59.12 59.398 59.05C59.188 58.98 59.118 58.84 59.188 58.63C59.328 58 59.608 57.335 60.028 56.635C60.448 55.865 60.938 55.165 61.498 54.535C62.128 53.835 62.793 53.275 63.493 52.855C64.263 52.365 65.068 52.12 65.908 52.12C66.678 52.12 67.238 52.435 67.588 53.065C68.008 53.695 68.323 54.5 68.533 55.48C68.743 56.46 68.883 57.615 68.953 58.945C69.093 60.275 69.268 61.605 69.478 62.935C71.158 59.855 73.048 57.3 75.148 55.27C77.318 53.17 79.383 52.12 81.343 52.12C82.323 52.12 83.128 52.435 83.758 53.065C84.388 53.625 84.703 54.395 84.703 55.375C84.703 56.005 84.458 56.845 83.968 57.895C83.548 58.945 83.093 59.855 82.603 60.625C82.393 60.765 82.183 60.765 81.973 60.625C81.833 60.485 81.763 60.31 81.763 60.1C82.463 58.98 82.638 58 82.288 57.16C82.008 56.32 81.343 55.9 80.293 55.9C78.473 55.9 76.723 56.565 75.043 57.895C73.433 59.225 71.718 61.57 69.898 64.93C70.738 68.29 71.788 70.985 73.048 73.015C74.378 75.045 75.708 76.06 77.038 76.06C77.948 76.06 78.788 75.675 79.558 74.905C80.398 74.135 81.168 73.225 81.868 72.175ZM108.349 52.12C109.889 52.12 111.114 52.89 112.024 54.43C113.004 55.9 113.494 57.65 113.494 59.68C113.494 62.55 112.899 65.175 111.709 67.555C110.589 69.865 109.084 71.895 107.194 73.645C105.304 75.325 103.134 76.655 100.684 77.635C98.2343 78.545 95.7493 79 93.2293 79C92.0393 79 91.0243 78.86 90.1843 78.58C88.9943 82.01 87.9093 85.685 86.9293 89.605C86.0193 93.525 85.5643 97.165 85.5643 100.525C85.5643 102.135 86.3343 102.765 87.8743 102.415C88.4343 102.345 88.9593 102.205 89.4493 101.995C90.0093 101.785 90.5343 101.505 91.0243 101.155C91.3043 101.155 91.4443 101.295 91.4443 101.575C91.5143 101.855 91.4793 102.135 91.3393 102.415C90.9193 102.625 90.2893 102.835 89.4493 103.045C88.6793 103.325 87.8393 103.57 86.9293 103.78C86.0193 104.06 85.1093 104.27 84.1993 104.41C83.2893 104.55 82.5193 104.62 81.8893 104.62C81.3293 104.62 80.8743 104.48 80.5243 104.2C80.1743 103.92 79.9993 103.5 79.9993 102.94C79.9993 99.37 80.5943 95.205 81.7843 90.445C82.9043 85.755 84.3743 80.89 86.1943 75.85C85.7743 75.29 85.5293 74.835 85.4593 74.485C85.3893 74.205 85.9143 73.89 87.0343 73.54C87.9443 71.02 88.9243 68.5 89.9743 65.98C91.0243 63.46 92.0743 60.975 93.1243 58.525C94.4543 55.655 95.0493 53.87 94.9093 53.17C94.8393 52.47 94.4193 52.33 93.6493 52.75C92.5993 53.31 91.4443 54.29 90.1843 55.69C90.0443 55.83 89.8693 55.795 89.6593 55.585C89.5193 55.305 89.4843 55.095 89.5543 54.955C90.0443 54.395 90.6743 53.8 91.4443 53.17C92.2143 52.47 93.0193 51.84 93.8593 51.28C94.7693 50.72 95.6443 50.265 96.4843 49.915C97.3243 49.495 98.0593 49.285 98.6893 49.285C99.4593 49.285 99.9493 49.635 100.159 50.335C100.439 50.965 100.404 51.665 100.054 52.435C99.1443 54.885 97.9543 57.65 96.4843 60.73C97.1843 59.75 97.9893 58.77 98.8993 57.79C99.8093 56.74 100.754 55.795 101.734 54.955C102.784 54.115 103.869 53.45 104.989 52.96C106.109 52.4 107.229 52.12 108.349 52.12ZM95.8543 76.9C97.5343 76.9 99.1093 76.585 100.579 75.955C102.049 75.255 103.309 74.275 104.359 73.015C105.479 71.685 106.354 70.075 106.984 68.185C107.684 66.225 108.034 63.985 108.034 61.465C108.034 59.785 107.719 58.42 107.089 57.37C106.459 56.32 105.549 55.795 104.359 55.795C102.749 55.795 100.824 57.23 98.5843 60.1C96.3443 62.97 94.2793 66.995 92.3893 72.175C92.1793 72.735 91.9693 73.33 91.7593 73.96C91.5493 74.52 91.3393 75.115 91.1293 75.745C92.2493 76.515 93.8243 76.9 95.8543 76.9ZM139.421 57.37C139.421 61.36 134.136 64.09 123.566 65.56C123.496 66.26 123.426 66.96 123.356 67.66C123.356 68.36 123.356 69.095 123.356 69.865C123.356 71.685 123.776 73.085 124.616 74.065C125.456 75.045 126.786 75.535 128.606 75.535C129.936 75.535 131.301 75.15 132.701 74.38C134.101 73.61 135.221 72.63 136.061 71.44C136.341 71.3 136.551 71.37 136.691 71.65C136.831 71.86 136.866 72.105 136.796 72.385C135.396 74.205 133.611 75.78 131.441 77.11C129.341 78.37 127.066 79 124.616 79C122.166 79 120.381 78.405 119.261 77.215C118.211 75.955 117.686 74.205 117.686 71.965C117.686 69.795 118.141 67.555 119.051 65.245C119.961 62.865 121.116 60.695 122.516 58.735C123.986 56.775 125.631 55.2 127.451 54.01C129.341 52.75 131.231 52.12 133.121 52.12C135.011 52.12 136.516 52.68 137.636 53.8C138.826 54.85 139.421 56.04 139.421 57.37ZM130.286 54.85C128.676 54.85 127.276 55.62 126.086 57.16C124.966 58.63 124.196 60.94 123.776 64.09C127.136 63.74 129.621 63.11 131.231 62.2C132.841 61.22 133.646 60.03 133.646 58.63C133.646 57.58 133.331 56.705 132.701 56.005C132.071 55.235 131.266 54.85 130.286 54.85ZM153.733 55.165C153.733 56.215 153.628 57.405 153.418 58.735C153.208 60.065 152.928 61.43 152.578 62.83C153.978 59.47 155.518 56.845 157.198 54.955C158.878 53.065 160.698 52.12 162.658 52.12C163.708 52.12 164.513 52.365 165.073 52.855C165.633 53.345 165.913 53.975 165.913 54.745C165.913 55.445 165.633 56.355 165.073 57.475C164.583 58.595 164.163 59.365 163.813 59.785C163.673 59.855 163.533 59.855 163.393 59.785C163.253 59.645 163.183 59.505 163.183 59.365C163.183 58.875 162.973 58.455 162.553 58.105C162.203 57.755 161.643 57.58 160.873 57.58C158.423 57.58 156.183 59.26 154.153 62.62C152.193 65.91 150.373 70.67 148.693 76.9C148.623 77.25 148.378 77.565 147.958 77.845C147.538 78.055 147.048 78.265 146.488 78.475C145.998 78.615 145.473 78.755 144.913 78.895C144.353 78.965 143.863 79 143.443 79C142.673 79 142.463 78.58 142.813 77.74C143.443 76.27 144.038 74.695 144.598 73.015C145.228 71.265 145.788 69.515 146.278 67.765C146.768 66.015 147.188 64.335 147.538 62.725C147.888 61.045 148.168 59.505 148.378 58.105C148.518 57.055 148.553 56.25 148.483 55.69C148.483 55.13 148.203 54.85 147.643 54.85C146.943 54.85 146.208 55.165 145.438 55.795C144.738 56.355 144.073 57.09 143.443 58C143.163 58.21 142.883 58.245 142.603 58.105C142.393 57.895 142.358 57.65 142.498 57.37C142.918 56.81 143.408 56.25 143.968 55.69C144.598 55.06 145.263 54.5 145.963 54.01C146.733 53.45 147.503 52.995 148.273 52.645C149.113 52.295 149.953 52.12 150.793 52.12C151.913 52.12 152.683 52.4 153.103 52.96C153.523 53.45 153.733 54.185 153.733 55.165ZM178.399 47.605C178.189 47.815 177.944 47.815 177.664 47.605C177.454 47.395 177.279 47.115 177.139 46.765C176.999 46.345 176.929 45.925 176.929 45.505C176.929 45.015 177.034 44.595 177.244 44.245C178.014 43.265 179.134 42.04 180.604 40.57C182.144 39.03 183.719 37.735 185.329 36.685C185.469 36.615 185.644 36.685 185.854 36.895C186.064 37.035 186.134 37.175 186.064 37.315C184.594 38.645 183.194 40.255 181.864 42.145C180.534 43.965 179.379 45.785 178.399 47.605ZM167.164 59.47C166.954 59.61 166.779 59.575 166.639 59.365C166.499 59.085 166.464 58.84 166.534 58.63C169.124 56.53 172.729 54.36 177.349 52.12C177.909 52.12 178.189 52.435 178.189 53.065C177.279 54.675 176.369 56.425 175.459 58.315C174.619 60.205 173.849 62.095 173.149 63.985C172.519 65.805 171.994 67.59 171.574 69.34C171.154 71.02 170.944 72.42 170.944 73.54C170.944 74.94 171.434 75.64 172.414 75.64C173.184 75.64 173.919 75.325 174.619 74.695C175.389 73.995 176.264 73.12 177.244 72.07C177.384 71.93 177.559 71.965 177.769 72.175C177.979 72.315 178.014 72.56 177.874 72.91C176.334 74.73 174.794 76.2 173.254 77.32C171.784 78.44 170.349 79 168.949 79C166.499 79 165.274 77.845 165.274 75.535C165.274 74.275 165.449 72.805 165.799 71.125C166.219 69.375 166.744 67.625 167.374 65.875C168.074 64.055 168.809 62.305 169.579 60.625C170.419 58.875 171.259 57.37 172.099 56.11C171.329 56.53 170.454 57.055 169.474 57.685C168.564 58.315 167.794 58.91 167.164 59.47ZM204.021 57.37C204.021 61.36 198.736 64.09 188.166 65.56C188.096 66.26 188.026 66.96 187.956 67.66C187.956 68.36 187.956 69.095 187.956 69.865C187.956 71.685 188.376 73.085 189.216 74.065C190.056 75.045 191.386 75.535 193.206 75.535C194.536 75.535 195.901 75.15 197.301 74.38C198.701 73.61 199.821 72.63 200.661 71.44C200.941 71.3 201.151 71.37 201.291 71.65C201.431 71.86 201.466 72.105 201.396 72.385C199.996 74.205 198.211 75.78 196.041 77.11C193.941 78.37 191.666 79 189.216 79C186.766 79 184.981 78.405 183.861 77.215C182.811 75.955 182.286 74.205 182.286 71.965C182.286 69.795 182.741 67.555 183.651 65.245C184.561 62.865 185.716 60.695 187.116 58.735C188.586 56.775 190.231 55.2 192.051 54.01C193.941 52.75 195.831 52.12 197.721 52.12C199.611 52.12 201.116 52.68 202.236 53.8C203.426 54.85 204.021 56.04 204.021 57.37ZM194.886 54.85C193.276 54.85 191.876 55.62 190.686 57.16C189.566 58.63 188.796 60.94 188.376 64.09C191.736 63.74 194.221 63.11 195.831 62.2C197.441 61.22 198.246 60.03 198.246 58.63C198.246 57.58 197.931 56.705 197.301 56.005C196.671 55.235 195.866 54.85 194.886 54.85ZM237.023 71.65C237.163 71.51 237.338 71.545 237.548 71.755C237.758 71.895 237.828 72.105 237.758 72.385C236.498 74.135 235.028 75.675 233.348 77.005C231.738 78.335 230.128 79 228.518 79C227.328 79 226.383 78.615 225.683 77.845C225.053 77.075 224.738 76.06 224.738 74.8C224.738 72.35 225.158 69.69 225.998 66.82C226.908 63.95 228.098 61.045 229.568 58.105C229.778 57.615 229.883 57.09 229.883 56.53C229.883 55.83 229.568 55.48 228.938 55.48C226.348 55.48 223.478 57.265 220.328 60.835C217.178 64.335 214.273 69.935 211.613 77.635C211.543 77.845 211.298 78.055 210.878 78.265C210.528 78.405 210.108 78.545 209.618 78.685C209.128 78.755 208.638 78.825 208.148 78.895C207.658 78.965 207.273 79 206.993 79C206.643 79 206.363 78.93 206.153 78.79C206.013 78.65 206.013 78.405 206.153 78.055C207.343 75.045 208.533 71.755 209.723 68.185C210.983 64.545 212.068 60.905 212.978 57.265C213.188 56.565 213.223 56.075 213.083 55.795C212.943 55.445 212.698 55.27 212.348 55.27C211.578 55.27 210.843 55.62 210.143 56.32C209.443 56.95 208.813 57.65 208.253 58.42C208.043 58.56 207.833 58.525 207.623 58.315C207.483 58.105 207.448 57.895 207.518 57.685C207.868 57.195 208.323 56.635 208.883 56.005C209.513 55.375 210.213 54.78 210.983 54.22C211.753 53.59 212.558 53.1 213.398 52.75C214.238 52.33 215.078 52.12 215.918 52.12C217.108 52.12 217.878 52.505 218.228 53.275C218.648 53.975 218.753 54.85 218.543 55.9C218.193 57.44 217.808 58.91 217.388 60.31C217.038 61.64 216.583 63.145 216.023 64.825C216.863 63.285 217.878 61.78 219.068 60.31C220.328 58.77 221.693 57.405 223.163 56.215C224.703 54.955 226.348 53.975 228.098 53.275C229.848 52.505 231.703 52.12 233.663 52.12C234.503 52.12 235.133 52.33 235.553 52.75C236.043 53.17 236.288 53.66 236.288 54.22C236.288 55.2 236.043 56.075 235.553 56.845C234.083 59.505 232.823 62.27 231.773 65.14C230.793 67.94 230.303 70.46 230.303 72.7C230.303 74.52 230.898 75.43 232.088 75.43C232.858 75.43 233.628 75.115 234.398 74.485C235.168 73.855 236.043 72.91 237.023 71.65ZM258.681 61.57C258.261 61.71 258.051 61.535 258.051 61.045C258.541 59.575 258.436 58.28 257.736 57.16C257.106 56.04 255.916 55.48 254.166 55.48C251.926 55.48 250.106 56.88 248.706 59.68C247.376 62.48 246.711 66.12 246.711 70.6C246.711 73.89 248.006 75.535 250.596 75.535C251.786 75.535 253.081 75.115 254.481 74.275C255.951 73.365 257.281 72.21 258.471 70.81C258.751 70.67 258.996 70.705 259.206 70.915C259.416 71.125 259.451 71.37 259.311 71.65C257.561 73.89 255.601 75.675 253.431 77.005C251.261 78.335 248.951 79 246.501 79C244.961 79 243.666 78.475 242.616 77.425C241.566 76.305 241.041 74.765 241.041 72.805C241.041 70.355 241.531 67.905 242.511 65.455C243.561 62.935 244.891 60.695 246.501 58.735C248.111 56.775 249.861 55.2 251.751 54.01C253.641 52.75 255.496 52.12 257.316 52.12C258.926 52.12 260.186 52.575 261.096 53.485C262.006 54.395 262.461 55.41 262.461 56.53C262.461 56.95 262.321 57.405 262.041 57.895C261.831 58.385 261.516 58.875 261.096 59.365C260.746 59.855 260.326 60.31 259.836 60.73C259.416 61.15 259.031 61.43 258.681 61.57ZM286.77 57.37C286.77 61.36 281.485 64.09 270.915 65.56C270.845 66.26 270.775 66.96 270.705 67.66C270.705 68.36 270.705 69.095 270.705 69.865C270.705 71.685 271.125 73.085 271.965 74.065C272.805 75.045 274.135 75.535 275.955 75.535C277.285 75.535 278.65 75.15 280.05 74.38C281.45 73.61 282.57 72.63 283.41 71.44C283.69 71.3 283.9 71.37 284.04 71.65C284.18 71.86 284.215 72.105 284.145 72.385C282.745 74.205 280.96 75.78 278.79 77.11C276.69 78.37 274.415 79 271.965 79C269.515 79 267.73 78.405 266.61 77.215C265.56 75.955 265.035 74.205 265.035 71.965C265.035 69.795 265.49 67.555 266.4 65.245C267.31 62.865 268.465 60.695 269.865 58.735C271.335 56.775 272.98 55.2 274.8 54.01C276.69 52.75 278.58 52.12 280.47 52.12C282.36 52.12 283.865 52.68 284.985 53.8C286.175 54.85 286.77 56.04 286.77 57.37ZM277.635 54.85C276.025 54.85 274.625 55.62 273.435 57.16C272.315 58.63 271.545 60.94 271.125 64.09C274.485 63.74 276.97 63.11 278.58 62.2C280.19 61.22 280.995 60.03 280.995 58.63C280.995 57.58 280.68 56.705 280.05 56.005C279.42 55.235 278.615 54.85 277.635 54.85Z" fill="#394149"/>
<path d="M40.36 72.6V79.6H49.76V84.04H40.36V91.44H50.96V96H34.76V68.04H50.96V72.6H40.36ZM68.2891 96L63.7291 89.12L59.6891 96H53.6891L60.9291 84.88L53.6091 73.84H59.9291L64.4491 80.68L68.5291 73.84H74.5291L67.2491 84.88L74.6091 96H68.2891ZM83.2506 77.04C83.9706 76.0267 84.9573 75.1867 86.2106 74.52C87.4906 73.8267 88.944 73.48 90.5706 73.48C92.464 73.48 94.1706 73.9467 95.6906 74.88C97.2373 75.8133 98.4506 77.1467 99.3306 78.88C100.237 80.5867 100.691 82.5733 100.691 84.84C100.691 87.1067 100.237 89.12 99.3306 90.88C98.4506 92.6133 97.2373 93.96 95.6906 94.92C94.1706 95.88 92.464 96.36 90.5706 96.36C88.944 96.36 87.504 96.0267 86.2506 95.36C85.024 94.6933 84.024 93.8533 83.2506 92.84V106.56H77.6506V73.84H83.2506V77.04ZM94.9706 84.84C94.9706 83.5067 94.6906 82.36 94.1306 81.4C93.5973 80.4133 92.8773 79.6667 91.9706 79.16C91.0906 78.6533 90.1306 78.4 89.0906 78.4C88.0773 78.4 87.1173 78.6667 86.2106 79.2C85.3306 79.7067 84.6106 80.4533 84.0506 81.44C83.5173 82.4267 83.2506 83.5867 83.2506 84.92C83.2506 86.2533 83.5173 87.4133 84.0506 88.4C84.6106 89.3867 85.3306 90.1467 86.2106 90.68C87.1173 91.1867 88.0773 91.44 89.0906 91.44C90.1306 91.44 91.0906 91.1733 91.9706 90.64C92.8773 90.1067 93.5973 89.3467 94.1306 88.36C94.6906 87.3733 94.9706 86.2 94.9706 84.84ZM125.36 84.44C125.36 85.24 125.307 85.96 125.2 86.6H109C109.133 88.2 109.693 89.4533 110.68 90.36C111.667 91.2667 112.88 91.72 114.32 91.72C116.4 91.72 117.88 90.8267 118.76 89.04H124.8C124.16 91.1733 122.933 92.9333 121.12 94.32C119.307 95.68 117.08 96.36 114.44 96.36C112.307 96.36 110.387 95.8933 108.68 94.96C107 94 105.68 92.6533 104.72 90.92C103.787 89.1867 103.32 87.1867 103.32 84.92C103.32 82.6267 103.787 80.6133 104.72 78.88C105.653 77.1467 106.96 75.8133 108.64 74.88C110.32 73.9467 112.253 73.48 114.44 73.48C116.547 73.48 118.427 73.9333 120.08 74.84C121.76 75.7467 123.053 77.04 123.96 78.72C124.893 80.3733 125.36 82.28 125.36 84.44ZM119.56 82.84C119.533 81.4 119.013 80.2533 118 79.4C116.987 78.52 115.747 78.08 114.28 78.08C112.893 78.08 111.72 78.5067 110.76 79.36C109.827 80.1867 109.253 81.3467 109.04 82.84H119.56ZM135.048 77.28C135.768 76.1067 136.701 75.1867 137.848 74.52C139.021 73.8533 140.354 73.52 141.848 73.52V79.4H140.368C138.608 79.4 137.274 79.8133 136.368 80.64C135.488 81.4667 135.048 82.9067 135.048 84.96V96H129.448V73.84H135.048V77.28ZM148.459 71.2C147.473 71.2 146.646 70.8933 145.979 70.28C145.339 69.64 145.019 68.8533 145.019 67.92C145.019 66.9867 145.339 66.2133 145.979 65.6C146.646 64.96 147.473 64.64 148.459 64.64C149.446 64.64 150.259 64.96 150.899 65.6C151.566 66.2133 151.899 66.9867 151.899 67.92C151.899 68.8533 151.566 69.64 150.899 70.28C150.259 70.8933 149.446 71.2 148.459 71.2ZM151.219 73.84V96H145.619V73.84H151.219ZM177.352 84.44C177.352 85.24 177.299 85.96 177.192 86.6H160.992C161.126 88.2 161.686 89.4533 162.672 90.36C163.659 91.2667 164.872 91.72 166.312 91.72C168.392 91.72 169.872 90.8267 170.752 89.04H176.792C176.152 91.1733 174.926 92.9333 173.112 94.32C171.299 95.68 169.072 96.36 166.432 96.36C164.299 96.36 162.379 95.8933 160.672 94.96C158.992 94 157.672 92.6533 156.712 90.92C155.779 89.1867 155.312 87.1867 155.312 84.92C155.312 82.6267 155.779 80.6133 156.712 78.88C157.646 77.1467 158.952 75.8133 160.632 74.88C162.312 73.9467 164.246 73.48 166.432 73.48C168.539 73.48 170.419 73.9333 172.072 74.84C173.752 75.7467 175.046 77.04 175.952 78.72C176.886 80.3733 177.352 82.28 177.352 84.44ZM171.552 82.84C171.526 81.4 171.006 80.2533 169.992 79.4C168.979 78.52 167.739 78.08 166.272 78.08C164.886 78.08 163.712 78.5067 162.752 79.36C161.819 80.1867 161.246 81.3467 161.032 82.84H171.552ZM193.72 73.52C196.36 73.52 198.493 74.36 200.12 76.04C201.746 77.6933 202.56 80.0133 202.56 83V96H196.96V83.76C196.96 82 196.52 80.6533 195.64 79.72C194.76 78.76 193.56 78.28 192.04 78.28C190.493 78.28 189.266 78.76 188.36 79.72C187.48 80.6533 187.04 82 187.04 83.76V96H181.44V73.84H187.04V76.6C187.786 75.64 188.733 74.8933 189.88 74.36C191.053 73.8 192.333 73.52 193.72 73.52ZM206.445 84.92C206.445 82.6267 206.912 80.6267 207.845 78.92C208.778 77.1867 210.072 75.8533 211.725 74.92C213.378 73.96 215.272 73.48 217.405 73.48C220.152 73.48 222.418 74.1733 224.205 75.56C226.018 76.92 227.232 78.84 227.845 81.32H221.805C221.485 80.36 220.938 79.6133 220.165 79.08C219.418 78.52 218.485 78.24 217.365 78.24C215.765 78.24 214.498 78.8267 213.565 80C212.632 81.1467 212.165 82.7867 212.165 84.92C212.165 87.0267 212.632 88.6667 213.565 89.84C214.498 90.9867 215.765 91.56 217.365 91.56C219.632 91.56 221.112 90.5467 221.805 88.52H227.845C227.232 90.92 226.018 92.8267 224.205 94.24C222.392 95.6533 220.125 96.36 217.405 96.36C215.272 96.36 213.378 95.8933 211.725 94.96C210.072 94 208.778 92.6667 207.845 90.96C206.912 89.2267 206.445 87.2133 206.445 84.92ZM252.548 84.44C252.548 85.24 252.494 85.96 252.388 86.6H236.188C236.321 88.2 236.881 89.4533 237.868 90.36C238.854 91.2667 240.068 91.72 241.508 91.72C243.588 91.72 245.068 90.8267 245.948 89.04H251.988C251.348 91.1733 250.121 92.9333 248.308 94.32C246.494 95.68 244.268 96.36 241.628 96.36C239.494 96.36 237.574 95.8933 235.868 94.96C234.188 94 232.868 92.6533 231.908 90.92C230.974 89.1867 230.507 87.1867 230.507 84.92C230.507 82.6267 230.974 80.6133 231.908 78.88C232.841 77.1467 234.148 75.8133 235.828 74.88C237.508 73.9467 239.441 73.48 241.628 73.48C243.734 73.48 245.614 73.9333 247.268 74.84C248.948 75.7467 250.241 77.04 251.148 78.72C252.081 80.3733 252.548 82.28 252.548 84.44ZM246.748 82.84C246.721 81.4 246.201 80.2533 245.188 79.4C244.174 78.52 242.934 78.08 241.468 78.08C240.081 78.08 238.908 78.5067 237.948 79.36C237.014 80.1867 236.441 81.3467 236.228 82.84H246.748Z" fill="#394149"/>
</svg>
