<svg width="537" height="113" viewBox="0 0 537 113" fill="none" xmlns="http://www.w3.org/2000/svg">
<path opacity="0.2" d="M74.76 12.59C77.98 13.01 80.885 13.815 83.475 15.005C86.065 16.195 88.235 17.7 89.985 19.52C91.805 21.27 93.205 23.3 94.185 25.61C95.165 27.85 95.655 30.23 95.655 32.75C95.655 36.04 94.99 39.12 93.66 41.99C92.4 44.86 90.58 47.345 88.2 49.445C85.89 51.545 83.055 53.225 79.695 54.485C76.335 55.675 72.555 56.27 68.355 56.27C63.805 56.27 60.025 55.15 57.015 52.91C52.605 62.36 47.425 69.255 41.475 73.595C35.525 77.865 29.12 80 22.26 80C16.45 80 12.145 78.565 9.345 75.695C6.615 72.755 5.25 69.08 5.25 64.67C5.25 63.34 5.46 62.01 5.88 60.68C6.37 59.28 7.035 57.985 7.875 56.795C8.715 55.535 9.73 54.415 10.92 53.435C12.18 52.455 13.58 51.65 15.12 51.02C15.33 50.88 15.505 50.88 15.645 51.02C15.855 51.16 15.89 51.405 15.75 51.755C13.65 52.875 12.11 54.38 11.13 56.27C10.15 58.16 9.66 60.19 9.66 62.36C9.66 64.25 9.975 66.07 10.605 67.82C11.235 69.5 12.215 70.97 13.545 72.23C14.945 73.49 16.695 74.505 18.795 75.275C20.895 75.975 23.415 76.325 26.355 76.325C29.715 76.325 32.655 75.905 35.175 75.065C37.695 74.225 39.97 72.755 42 70.655C44.1 68.555 45.99 65.72 47.67 62.15C49.42 58.51 51.17 53.925 52.92 48.395C51.66 46.365 50.785 44.16 50.295 41.78C50.365 41.5 50.505 41.29 50.715 41.15C50.925 41.01 51.1 41.045 51.24 41.255C51.73 43.285 52.465 45.105 53.445 46.715C53.725 45.805 53.97 44.86 54.18 43.88C54.46 42.9 54.74 41.92 55.02 40.94C56.77 34.71 58.695 29.53 60.795 25.4C62.895 21.27 65.275 17.945 67.935 15.425C67.585 15.355 67.06 15.32 66.36 15.32C58.94 15.32 52.71 17.035 47.67 20.465C42.63 23.825 39.095 29.005 37.065 36.005C36.855 36.215 36.61 36.25 36.33 36.11C36.12 35.9 36.015 35.55 36.015 35.06C38.395 28.06 42.35 22.53 47.88 18.47C53.48 14.41 60.83 12.38 69.93 12.38H71.61C74.27 10.63 77.245 9.335 80.535 8.49499C80.885 8.49499 81.06 8.66999 81.06 9.01999C81.06 9.29999 80.885 9.51 80.535 9.65C78.435 10.28 76.51 11.26 74.76 12.59ZM69.51 54.17C72.45 54.17 75.11 53.68 77.49 52.7C79.87 51.72 81.9 50.355 83.58 48.605C85.33 46.855 86.66 44.825 87.57 42.515C88.48 40.205 88.935 37.72 88.935 35.06C88.935 30.09 87.43 25.89 84.42 22.46C81.48 18.96 77.245 16.72 71.715 15.74C68.215 20.15 65.31 26.87 63 35.9C62.23 38.77 61.39 41.5 60.48 44.09C59.64 46.61 58.73 48.99 57.75 51.23C60.62 53.19 64.54 54.17 69.51 54.17ZM105.03 53.12C107.48 53.12 109.3 53.855 110.49 55.325C111.68 56.795 112.275 58.51 112.275 60.47C112.275 63.2 111.715 65.755 110.595 68.135C109.545 70.445 108.215 72.51 106.605 74.33C105.065 76.08 103.385 77.48 101.565 78.53C99.7454 79.51 98.1004 80 96.6304 80C94.2504 80 92.4304 79.3 91.1704 77.9C89.9804 76.43 89.3854 74.575 89.3854 72.335C89.3854 70.305 89.8054 68.17 90.6454 65.93C91.5554 63.69 92.7104 61.625 94.1104 59.735C95.5804 57.845 97.2604 56.27 99.1504 55.01C101.04 53.75 103 53.12 105.03 53.12ZM99.2554 76.745C101.425 76.745 103.245 75.625 104.715 73.385C106.255 71.075 107.025 67.925 107.025 63.935C107.025 61.835 106.605 60.085 105.765 58.685C104.925 57.285 103.7 56.585 102.09 56.585C99.8504 56.585 98.0304 57.67 96.6304 59.84C95.2304 62.01 94.5304 65.195 94.5304 69.395C94.5304 71.845 94.9504 73.7 95.7904 74.96C96.7004 76.15 97.8554 76.745 99.2554 76.745ZM138.086 53.12C139.626 53.12 140.851 53.89 141.761 55.43C142.741 56.9 143.231 58.65 143.231 60.68C143.231 63.55 142.636 66.175 141.446 68.555C140.326 70.865 138.821 72.895 136.931 74.645C135.041 76.325 132.871 77.655 130.421 78.635C127.971 79.545 125.486 80 122.966 80C121.776 80 120.761 79.86 119.921 79.58C118.731 83.01 117.646 86.685 116.666 90.605C115.756 94.525 115.301 98.165 115.301 101.525C115.301 103.135 116.071 103.765 117.611 103.415C118.171 103.345 118.696 103.205 119.186 102.995C119.746 102.785 120.271 102.505 120.761 102.155C121.041 102.155 121.181 102.295 121.181 102.575C121.251 102.855 121.216 103.135 121.076 103.415C120.656 103.625 120.026 103.835 119.186 104.045C118.416 104.325 117.576 104.57 116.666 104.78C115.756 105.06 114.846 105.27 113.936 105.41C113.026 105.55 112.256 105.62 111.626 105.62C111.066 105.62 110.611 105.48 110.261 105.2C109.911 104.92 109.736 104.5 109.736 103.94C109.736 100.37 110.331 96.205 111.521 91.445C112.641 86.755 114.111 81.89 115.931 76.85C115.511 76.29 115.266 75.835 115.196 75.485C115.126 75.205 115.651 74.89 116.771 74.54C117.681 72.02 118.661 69.5 119.711 66.98C120.761 64.46 121.811 61.975 122.861 59.525C124.191 56.655 124.786 54.87 124.646 54.17C124.576 53.47 124.156 53.33 123.386 53.75C122.336 54.31 121.181 55.29 119.921 56.69C119.781 56.83 119.606 56.795 119.396 56.585C119.256 56.305 119.221 56.095 119.291 55.955C119.781 55.395 120.411 54.8 121.181 54.17C121.951 53.47 122.756 52.84 123.596 52.28C124.506 51.72 125.381 51.265 126.221 50.915C127.061 50.495 127.796 50.285 128.426 50.285C129.196 50.285 129.686 50.635 129.896 51.335C130.176 51.965 130.141 52.665 129.791 53.435C128.881 55.885 127.691 58.65 126.221 61.73C126.921 60.75 127.726 59.77 128.636 58.79C129.546 57.74 130.491 56.795 131.471 55.955C132.521 55.115 133.606 54.45 134.726 53.96C135.846 53.4 136.966 53.12 138.086 53.12ZM125.591 77.9C127.271 77.9 128.846 77.585 130.316 76.955C131.786 76.255 133.046 75.275 134.096 74.015C135.216 72.685 136.091 71.075 136.721 69.185C137.421 67.225 137.771 64.985 137.771 62.465C137.771 60.785 137.456 59.42 136.826 58.37C136.196 57.32 135.286 56.795 134.096 56.795C132.486 56.795 130.561 58.23 128.321 61.1C126.081 63.97 124.016 67.995 122.126 73.175C121.916 73.735 121.706 74.33 121.496 74.96C121.286 75.52 121.076 76.115 120.866 76.745C121.986 77.515 123.561 77.9 125.591 77.9ZM152.042 80C149.102 80 147.632 78.39 147.632 75.17C147.632 74.05 147.737 72.755 147.947 71.285C148.227 69.815 148.612 68.31 149.102 66.77C149.662 65.16 150.292 63.55 150.992 61.94C151.692 60.33 152.532 58.79 153.512 57.32C152.742 57.81 152.007 58.335 151.307 58.895C150.607 59.385 149.977 59.91 149.417 60.47C149.207 60.61 148.997 60.575 148.787 60.365C148.647 60.085 148.647 59.84 148.787 59.63C149.977 58.37 151.657 57.075 153.827 55.745C156.067 54.415 158.202 53.365 160.232 52.595C160.582 52.595 160.827 52.7 160.967 52.91C161.177 53.05 161.212 53.26 161.072 53.54C158.832 56.48 157.012 59.665 155.612 63.095C154.282 66.525 153.617 69.85 153.617 73.07C153.617 75.1 154.247 76.115 155.507 76.115C156.417 76.115 157.537 75.52 158.867 74.33C160.197 73.07 161.597 71.46 163.067 69.5C164.537 67.47 166.007 65.195 167.477 62.675C169.017 60.155 170.417 57.6 171.677 55.01C171.887 54.59 172.482 54.17 173.462 53.75C174.512 53.33 175.562 53.12 176.612 53.12C177.662 53.12 177.977 53.4 177.557 53.96C176.577 55.78 175.702 57.495 174.932 59.105C174.232 60.645 173.637 62.185 173.147 63.725C172.657 65.265 172.272 66.84 171.992 68.45C171.782 69.99 171.677 71.705 171.677 73.595C171.677 75.835 172.272 76.955 173.462 76.955C174.652 76.955 175.982 75.905 177.452 73.805C177.662 73.665 177.872 73.665 178.082 73.805C178.292 73.945 178.362 74.155 178.292 74.435C177.102 76.255 175.772 77.655 174.302 78.635C172.902 79.545 171.607 80 170.417 80C167.477 80 166.007 78.285 166.007 74.855C166.007 71.285 166.637 67.75 167.897 64.25C165.237 69.08 162.437 72.93 159.497 75.8C156.557 78.6 154.072 80 152.042 80ZM227.226 1.985C228.276 1.985 229.116 2.265 229.746 2.825C230.446 3.315 230.901 4.015 231.111 4.925C231.391 5.765 231.426 6.745 231.216 7.865C231.076 8.985 230.691 10.105 230.061 11.225C229.921 11.365 229.746 11.365 229.536 11.225C229.326 11.085 229.186 10.91 229.116 10.7C229.256 9.86 228.941 9.16 228.171 8.6C227.471 8.04 226.351 7.76 224.811 7.76C221.941 7.76 219.036 8.845 216.096 11.015C213.226 13.115 210.426 15.915 207.696 19.415C204.966 22.915 202.411 26.94 200.031 31.49C197.651 36.04 195.586 40.73 193.836 45.56C192.086 50.39 190.686 55.185 189.636 59.945C188.656 64.705 188.166 69.045 188.166 72.965C188.166 75.065 188.761 76.115 189.951 76.115C190.791 76.115 191.596 75.765 192.366 75.065C193.206 74.365 194.151 73.315 195.201 71.915C195.411 71.775 195.586 71.81 195.726 72.02C195.936 72.16 196.006 72.37 195.936 72.65C194.536 74.75 192.891 76.5 191.001 77.9C189.111 79.3 187.396 80 185.856 80C184.526 80 183.581 79.615 183.021 78.845C182.531 78.075 182.286 77.095 182.286 75.905C182.286 72.615 182.986 68.52 184.386 63.62C185.786 58.65 187.641 53.435 189.951 47.975C192.331 42.445 195.061 36.95 198.141 31.49C201.221 26.03 204.406 21.13 207.696 16.79C211.056 12.38 214.416 8.81 217.776 6.07999C221.136 3.35 224.286 1.985 227.226 1.985ZM226.847 73.385C226.987 73.245 227.162 73.245 227.372 73.385C227.582 73.525 227.652 73.735 227.582 74.015C226.322 75.835 224.922 77.305 223.382 78.425C221.842 79.475 220.372 80 218.972 80C217.362 80 216.312 78.88 215.822 76.64C215.402 74.33 215.647 71.6 216.557 68.45C214.667 71.46 212.602 74.05 210.362 76.22C208.192 78.32 205.882 79.58 203.432 80C201.752 80 200.457 79.23 199.547 77.69C198.637 76.15 198.182 74.365 198.182 72.335C198.182 70.025 198.742 67.75 199.862 65.51C200.982 63.2 202.452 61.135 204.272 59.315C206.162 57.495 208.227 56.025 210.467 54.905C212.777 53.715 215.087 53.12 217.397 53.12C219.847 53.12 221.772 53.715 223.172 54.905C223.872 54.415 224.747 53.995 225.797 53.645C226.917 53.295 227.897 53.12 228.737 53.12C229.017 53.12 229.157 53.295 229.157 53.645C227.547 55.605 226.147 57.775 224.957 60.155C223.837 62.465 222.962 64.705 222.332 66.875C221.702 68.975 221.317 70.865 221.177 72.545C221.037 74.225 221.177 75.38 221.597 76.01C221.947 76.43 222.542 76.57 223.382 76.43C224.222 76.22 225.377 75.205 226.847 73.385ZM206.687 76.115C207.527 76.115 208.542 75.59 209.732 74.54C210.992 73.49 212.287 72.09 213.617 70.34C214.947 68.59 216.242 66.63 217.502 64.46C218.832 62.29 219.987 60.085 220.967 57.845C220.687 56.935 220.022 56.2 218.972 55.64C217.992 55.08 216.837 54.8 215.507 54.8C213.897 54.8 212.392 55.22 210.992 56.06C209.592 56.83 208.367 57.95 207.317 59.42C206.337 60.82 205.532 62.535 204.902 64.565C204.342 66.525 204.062 68.695 204.062 71.075C204.062 72.615 204.307 73.84 204.797 74.75C205.357 75.66 205.987 76.115 206.687 76.115ZM243.557 56.165C243.557 57.215 243.452 58.405 243.242 59.735C243.032 61.065 242.752 62.43 242.402 63.83C243.802 60.47 245.342 57.845 247.022 55.955C248.702 54.065 250.522 53.12 252.482 53.12C253.532 53.12 254.337 53.365 254.897 53.855C255.457 54.345 255.737 54.975 255.737 55.745C255.737 56.445 255.457 57.355 254.897 58.475C254.407 59.595 253.987 60.365 253.637 60.785C253.497 60.855 253.357 60.855 253.217 60.785C253.077 60.645 253.007 60.505 253.007 60.365C253.007 59.875 252.797 59.455 252.377 59.105C252.027 58.755 251.467 58.58 250.697 58.58C248.247 58.58 246.007 60.26 243.977 63.62C242.017 66.91 240.197 71.67 238.517 77.9C238.447 78.25 238.202 78.565 237.782 78.845C237.362 79.055 236.872 79.265 236.312 79.475C235.822 79.615 235.297 79.755 234.737 79.895C234.177 79.965 233.687 80 233.267 80C232.497 80 232.287 79.58 232.637 78.74C233.267 77.27 233.862 75.695 234.422 74.015C235.052 72.265 235.612 70.515 236.102 68.765C236.592 67.015 237.012 65.335 237.362 63.725C237.712 62.045 237.992 60.505 238.202 59.105C238.342 58.055 238.377 57.25 238.307 56.69C238.307 56.13 238.027 55.85 237.467 55.85C236.767 55.85 236.032 56.165 235.262 56.795C234.562 57.355 233.897 58.09 233.267 59C232.987 59.21 232.707 59.245 232.427 59.105C232.217 58.895 232.182 58.65 232.322 58.37C232.742 57.81 233.232 57.25 233.792 56.69C234.422 56.06 235.087 55.5 235.787 55.01C236.557 54.45 237.327 53.995 238.097 53.645C238.937 53.295 239.777 53.12 240.617 53.12C241.737 53.12 242.507 53.4 242.927 53.96C243.347 54.45 243.557 55.185 243.557 56.165ZM342.079 12.59C345.299 13.01 348.204 13.815 350.794 15.005C353.384 16.195 355.554 17.7 357.304 19.52C359.124 21.27 360.524 23.3 361.504 25.61C362.484 27.85 362.974 30.23 362.974 32.75C362.974 36.04 362.309 39.12 360.979 41.99C359.719 44.86 357.899 47.345 355.519 49.445C353.209 51.545 350.374 53.225 347.014 54.485C343.654 55.675 339.874 56.27 335.674 56.27C331.124 56.27 327.344 55.15 324.334 52.91C319.924 62.36 314.744 69.255 308.794 73.595C302.844 77.865 296.439 80 289.579 80C283.769 80 279.464 78.565 276.664 75.695C273.934 72.755 272.569 69.08 272.569 64.67C272.569 63.34 272.779 62.01 273.199 60.68C273.689 59.28 274.354 57.985 275.194 56.795C276.034 55.535 277.049 54.415 278.239 53.435C279.499 52.455 280.899 51.65 282.439 51.02C282.649 50.88 282.824 50.88 282.964 51.02C283.174 51.16 283.209 51.405 283.069 51.755C280.969 52.875 279.429 54.38 278.449 56.27C277.469 58.16 276.979 60.19 276.979 62.36C276.979 64.25 277.294 66.07 277.924 67.82C278.554 69.5 279.534 70.97 280.864 72.23C282.264 73.49 284.014 74.505 286.114 75.275C288.214 75.975 290.734 76.325 293.674 76.325C297.034 76.325 299.974 75.905 302.494 75.065C305.014 74.225 307.289 72.755 309.319 70.655C311.419 68.555 313.309 65.72 314.989 62.15C316.739 58.51 318.489 53.925 320.239 48.395C318.979 46.365 318.104 44.16 317.614 41.78C317.684 41.5 317.824 41.29 318.034 41.15C318.244 41.01 318.419 41.045 318.559 41.255C319.049 43.285 319.784 45.105 320.764 46.715C321.044 45.805 321.289 44.86 321.499 43.88C321.779 42.9 322.059 41.92 322.339 40.94C324.089 34.71 326.014 29.53 328.114 25.4C330.214 21.27 332.594 17.945 335.254 15.425C334.904 15.355 334.379 15.32 333.679 15.32C326.259 15.32 320.029 17.035 314.989 20.465C309.949 23.825 306.414 29.005 304.384 36.005C304.174 36.215 303.929 36.25 303.649 36.11C303.439 35.9 303.334 35.55 303.334 35.06C305.714 28.06 309.669 22.53 315.199 18.47C320.799 14.41 328.149 12.38 337.249 12.38H338.929C341.589 10.63 344.564 9.335 347.854 8.49499C348.204 8.49499 348.379 8.66999 348.379 9.01999C348.379 9.29999 348.204 9.51 347.854 9.65C345.754 10.28 343.829 11.26 342.079 12.59ZM336.829 54.17C339.769 54.17 342.429 53.68 344.809 52.7C347.189 51.72 349.219 50.355 350.899 48.605C352.649 46.855 353.979 44.825 354.889 42.515C355.799 40.205 356.254 37.72 356.254 35.06C356.254 30.09 354.749 25.89 351.739 22.46C348.799 18.96 344.564 16.72 339.034 15.74C335.534 20.15 332.629 26.87 330.319 35.9C329.549 38.77 328.709 41.5 327.799 44.09C326.959 46.61 326.049 48.99 325.069 51.23C327.939 53.19 331.859 54.17 336.829 54.17ZM367.835 56.165C367.835 57.215 367.73 58.405 367.52 59.735C367.31 61.065 367.03 62.43 366.68 63.83C368.08 60.47 369.62 57.845 371.3 55.955C372.98 54.065 374.8 53.12 376.76 53.12C377.81 53.12 378.615 53.365 379.175 53.855C379.735 54.345 380.015 54.975 380.015 55.745C380.015 56.445 379.735 57.355 379.175 58.475C378.685 59.595 378.265 60.365 377.915 60.785C377.775 60.855 377.635 60.855 377.495 60.785C377.355 60.645 377.285 60.505 377.285 60.365C377.285 59.875 377.075 59.455 376.655 59.105C376.305 58.755 375.745 58.58 374.975 58.58C372.525 58.58 370.285 60.26 368.255 63.62C366.295 66.91 364.475 71.67 362.795 77.9C362.725 78.25 362.48 78.565 362.06 78.845C361.64 79.055 361.15 79.265 360.59 79.475C360.1 79.615 359.575 79.755 359.015 79.895C358.455 79.965 357.965 80 357.545 80C356.775 80 356.565 79.58 356.915 78.74C357.545 77.27 358.14 75.695 358.7 74.015C359.33 72.265 359.89 70.515 360.38 68.765C360.87 67.015 361.29 65.335 361.64 63.725C361.99 62.045 362.27 60.505 362.48 59.105C362.62 58.055 362.655 57.25 362.585 56.69C362.585 56.13 362.305 55.85 361.745 55.85C361.045 55.85 360.31 56.165 359.54 56.795C358.84 57.355 358.175 58.09 357.545 59C357.265 59.21 356.985 59.245 356.705 59.105C356.495 58.895 356.46 58.65 356.6 58.37C357.02 57.81 357.51 57.25 358.07 56.69C358.7 56.06 359.365 55.5 360.065 55.01C360.835 54.45 361.605 53.995 362.375 53.645C363.215 53.295 364.055 53.12 364.895 53.12C366.015 53.12 366.785 53.4 367.205 53.96C367.625 54.45 367.835 55.185 367.835 56.165ZM394.601 53.12C397.051 53.12 398.871 53.855 400.061 55.325C401.251 56.795 401.846 58.51 401.846 60.47C401.846 63.2 401.286 65.755 400.166 68.135C399.116 70.445 397.786 72.51 396.176 74.33C394.636 76.08 392.956 77.48 391.136 78.53C389.316 79.51 387.671 80 386.201 80C383.821 80 382.001 79.3 380.741 77.9C379.551 76.43 378.956 74.575 378.956 72.335C378.956 70.305 379.376 68.17 380.216 65.93C381.126 63.69 382.281 61.625 383.681 59.735C385.151 57.845 386.831 56.27 388.721 55.01C390.611 53.75 392.571 53.12 394.601 53.12ZM388.826 76.745C390.996 76.745 392.816 75.625 394.286 73.385C395.826 71.075 396.596 67.925 396.596 63.935C396.596 61.835 396.176 60.085 395.336 58.685C394.496 57.285 393.271 56.585 391.661 56.585C389.421 56.585 387.601 57.67 386.201 59.84C384.801 62.01 384.101 65.195 384.101 69.395C384.101 71.845 384.521 73.7 385.361 74.96C386.271 76.15 387.426 76.745 388.826 76.745ZM467.766 0.619996C468.816 0.619996 469.656 0.899996 470.286 1.46C470.986 2.02 471.476 2.755 471.756 3.66499C472.036 4.57499 472.106 5.625 471.966 6.815C471.826 7.935 471.476 9.055 470.916 10.175C470.776 10.315 470.601 10.385 470.391 10.385C470.181 10.315 470.041 10.14 469.971 9.86C470.111 8.81 469.831 8.04 469.131 7.54999C468.431 6.99 467.451 6.71 466.191 6.71C462.411 6.71 458.771 7.97 455.271 10.49C451.771 13.01 448.446 16.895 445.296 22.145C442.216 27.325 439.346 33.94 436.686 41.99C434.096 49.97 431.751 59.49 429.651 70.55C429.301 72.09 429.266 73.42 429.546 74.54C429.826 75.59 430.351 76.115 431.121 76.115C431.891 76.115 432.626 75.8 433.326 75.17C434.026 74.54 434.656 73.735 435.216 72.755C435.356 72.615 435.531 72.615 435.741 72.755C436.021 72.895 436.126 73.105 436.056 73.385C435.706 74.085 435.181 74.82 434.481 75.59C433.851 76.36 433.116 77.095 432.276 77.795C431.506 78.425 430.666 78.95 429.756 79.37C428.916 79.79 428.146 80 427.446 80C425.906 80 424.821 79.44 424.191 78.32C423.561 77.2 423.316 75.94 423.456 74.54C423.596 73.35 423.771 72.23 423.981 71.18C424.191 70.13 424.436 69.01 424.716 67.82C423.316 70.83 421.356 73.455 418.836 75.695C416.316 77.865 413.831 79.3 411.381 80C409.771 80 408.476 79.405 407.496 78.215C406.516 77.025 406.026 75.485 406.026 73.595C406.026 70.865 406.516 68.275 407.496 65.825C408.476 63.305 409.806 61.1 411.486 59.21C413.166 57.32 415.161 55.815 417.471 54.695C419.781 53.575 422.266 53.015 424.926 53.015C426.396 53.015 427.691 53.26 428.811 53.75C430.071 49.97 431.576 46.05 433.326 41.99C435.076 37.86 437.001 33.835 439.101 29.915C441.201 25.995 443.406 22.25 445.716 18.68C448.096 15.11 450.511 11.995 452.961 9.335C455.411 6.675 457.896 4.575 460.416 3.035C462.936 1.425 465.386 0.619996 467.766 0.619996ZM414.741 75.905C415.511 75.905 416.421 75.52 417.471 74.75C418.521 73.91 419.606 72.825 420.726 71.495C421.846 70.095 422.896 68.52 423.876 66.77C424.856 64.95 425.696 63.025 426.396 60.995C426.676 60.365 426.921 59.735 427.131 59.105C427.341 58.405 427.516 57.74 427.656 57.11C427.376 56.27 426.816 55.675 425.976 55.325C425.206 54.905 424.331 54.695 423.351 54.695C421.881 54.695 420.446 55.15 419.046 56.06C417.646 56.9 416.421 58.09 415.371 59.63C414.321 61.17 413.446 62.99 412.746 65.09C412.116 67.19 411.801 69.5 411.801 72.02C411.801 73.14 412.046 74.085 412.536 74.855C413.096 75.555 413.831 75.905 414.741 75.905ZM443.971 80C441.031 80 439.561 78.39 439.561 75.17C439.561 74.05 439.666 72.755 439.876 71.285C440.156 69.815 440.541 68.31 441.031 66.77C441.591 65.16 442.221 63.55 442.921 61.94C443.621 60.33 444.461 58.79 445.441 57.32C444.671 57.81 443.936 58.335 443.236 58.895C442.536 59.385 441.906 59.91 441.346 60.47C441.136 60.61 440.926 60.575 440.716 60.365C440.576 60.085 440.576 59.84 440.716 59.63C441.906 58.37 443.586 57.075 445.756 55.745C447.996 54.415 450.131 53.365 452.161 52.595C452.511 52.595 452.756 52.7 452.896 52.91C453.106 53.05 453.141 53.26 453.001 53.54C450.761 56.48 448.941 59.665 447.541 63.095C446.211 66.525 445.546 69.85 445.546 73.07C445.546 75.1 446.176 76.115 447.436 76.115C448.346 76.115 449.466 75.52 450.796 74.33C452.126 73.07 453.526 71.46 454.996 69.5C456.466 67.47 457.936 65.195 459.406 62.675C460.946 60.155 462.346 57.6 463.606 55.01C463.816 54.59 464.411 54.17 465.391 53.75C466.441 53.33 467.491 53.12 468.541 53.12C469.591 53.12 469.906 53.4 469.486 53.96C468.506 55.78 467.631 57.495 466.861 59.105C466.161 60.645 465.566 62.185 465.076 63.725C464.586 65.265 464.201 66.84 463.921 68.45C463.711 69.99 463.606 71.705 463.606 73.595C463.606 75.835 464.201 76.955 465.391 76.955C466.581 76.955 467.911 75.905 469.381 73.805C469.591 73.665 469.801 73.665 470.011 73.805C470.221 73.945 470.291 74.155 470.221 74.435C469.031 76.255 467.701 77.655 466.231 78.635C464.831 79.545 463.536 80 462.346 80C459.406 80 457.936 78.285 457.936 74.855C457.936 71.285 458.566 67.75 459.826 64.25C457.166 69.08 454.366 72.93 451.426 75.8C448.486 78.6 446.001 80 443.971 80ZM491.854 62.57C491.434 62.71 491.224 62.535 491.224 62.045C491.714 60.575 491.609 59.28 490.909 58.16C490.279 57.04 489.089 56.48 487.339 56.48C485.099 56.48 483.279 57.88 481.879 60.68C480.549 63.48 479.884 67.12 479.884 71.6C479.884 74.89 481.179 76.535 483.769 76.535C484.959 76.535 486.254 76.115 487.654 75.275C489.124 74.365 490.454 73.21 491.644 71.81C491.924 71.67 492.169 71.705 492.379 71.915C492.589 72.125 492.624 72.37 492.484 72.65C490.734 74.89 488.774 76.675 486.604 78.005C484.434 79.335 482.124 80 479.674 80C478.134 80 476.839 79.475 475.789 78.425C474.739 77.305 474.214 75.765 474.214 73.805C474.214 71.355 474.704 68.905 475.684 66.455C476.734 63.935 478.064 61.695 479.674 59.735C481.284 57.775 483.034 56.2 484.924 55.01C486.814 53.75 488.669 53.12 490.489 53.12C492.099 53.12 493.359 53.575 494.269 54.485C495.179 55.395 495.634 56.41 495.634 57.53C495.634 57.95 495.494 58.405 495.214 58.895C495.004 59.385 494.689 59.875 494.269 60.365C493.919 60.855 493.499 61.31 493.009 61.73C492.589 62.15 492.204 62.43 491.854 62.57ZM518.369 53.645C518.719 53.785 518.859 53.995 518.789 54.275C518.719 54.485 518.404 54.66 517.844 54.8C516.794 54.8 515.569 54.835 514.169 54.905C512.839 54.975 511.404 55.08 509.864 55.22C508.464 58.65 507.309 62.01 506.399 65.3C505.489 68.52 505.034 71.145 505.034 73.175C505.034 75.555 505.944 76.745 507.764 76.745C509.584 76.745 511.614 75.17 513.854 72.02C514.064 71.88 514.239 71.88 514.379 72.02C514.589 72.16 514.659 72.405 514.589 72.755C513.399 74.715 511.894 76.43 510.074 77.9C508.254 79.3 506.469 80 504.719 80C502.899 80 501.534 79.58 500.624 78.74C499.784 77.83 499.364 76.605 499.364 75.065C499.364 73.035 499.854 70.235 500.834 66.665C501.814 63.095 503.074 59.455 504.614 55.745C502.794 55.955 501.114 56.235 499.574 56.585C499.224 56.515 499.119 56.34 499.259 56.06C499.469 55.78 499.784 55.5 500.204 55.22C500.694 54.87 501.254 54.59 501.884 54.38C502.514 54.1 503.109 53.96 503.669 53.96C503.949 53.96 504.229 53.96 504.509 53.96C504.789 53.96 505.069 53.925 505.349 53.855C506.259 51.825 507.204 49.865 508.184 47.975C509.164 46.085 510.144 44.37 511.124 42.83C511.544 42.34 512.104 41.92 512.804 41.57C513.574 41.15 514.309 40.835 515.009 40.625C515.709 40.415 516.269 40.31 516.689 40.31C517.179 40.24 517.389 40.345 517.319 40.625C516.129 42.445 514.939 44.475 513.749 46.715C512.629 48.955 511.544 51.3 510.494 53.75C511.824 53.68 513.154 53.645 514.484 53.645C515.884 53.645 517.179 53.645 518.369 53.645ZM530.919 53.12C532.459 53.12 533.684 53.33 534.594 53.75C535.574 54.17 536.064 54.695 536.064 55.325C536.064 56.095 535.854 56.97 535.434 57.95C535.084 58.93 534.734 59.735 534.384 60.365C534.244 60.505 534.069 60.54 533.859 60.47C533.649 60.33 533.544 60.12 533.544 59.84C533.754 59.35 533.859 58.65 533.859 57.74C533.859 56.76 533.579 55.955 533.019 55.325C532.529 54.695 531.829 54.38 530.919 54.38C529.729 54.38 528.749 54.765 527.979 55.535C527.279 56.235 526.929 57.25 526.929 58.58C526.929 59.7 527.209 60.785 527.769 61.835C528.399 62.815 529.064 63.83 529.764 64.88C530.534 65.86 531.234 66.945 531.864 68.135C532.494 69.255 532.809 70.55 532.809 72.02C532.809 74.54 531.794 76.5 529.764 77.9C527.734 79.3 525.074 80 521.784 80C519.404 80 517.514 79.615 516.114 78.845C514.784 78.075 514.119 77.235 514.119 76.325C514.119 76.045 514.224 75.66 514.434 75.17C514.644 74.68 514.924 74.155 515.274 73.595C515.624 73.035 516.009 72.475 516.429 71.915C516.849 71.355 517.304 70.9 517.794 70.55C518.004 70.41 518.179 70.445 518.319 70.655C518.529 70.865 518.564 71.075 518.424 71.285C518.004 71.705 517.689 72.16 517.479 72.65C517.269 73.07 517.164 73.665 517.164 74.435C517.164 75.695 517.584 76.745 518.424 77.585C519.264 78.355 520.349 78.74 521.679 78.74C523.499 78.74 524.899 78.25 525.879 77.27C526.929 76.22 527.454 74.96 527.454 73.49C527.454 72.16 527.139 70.935 526.509 69.815C525.949 68.625 525.319 67.505 524.619 66.455C523.919 65.335 523.254 64.215 522.624 63.095C522.064 61.975 521.784 60.785 521.784 59.525C521.784 57.705 522.554 56.2 524.094 55.01C525.634 53.75 527.909 53.12 530.919 53.12Z" fill="#394149"/>
<path d="M117.12 77.72C117.12 79.2133 116.76 80.6133 116.04 81.92C115.347 83.2267 114.24 84.28 112.72 85.08C111.227 85.88 109.333 86.28 107.04 86.28H102.36V97H96.76V69.08H107.04C109.2 69.08 111.04 69.4533 112.56 70.2C114.08 70.9467 115.213 71.9733 115.96 73.28C116.733 74.5867 117.12 76.0667 117.12 77.72ZM106.8 81.76C108.347 81.76 109.493 81.4133 110.24 80.72C110.987 80 111.36 79 111.36 77.72C111.36 75 109.84 73.64 106.8 73.64H102.36V81.76H106.8ZM130.936 97.36C128.803 97.36 126.883 96.8933 125.176 95.96C123.469 95 122.123 93.6533 121.136 91.92C120.176 90.1867 119.696 88.1867 119.696 85.92C119.696 83.6533 120.189 81.6533 121.176 79.92C122.189 78.1867 123.563 76.8533 125.296 75.92C127.029 74.96 128.963 74.48 131.096 74.48C133.229 74.48 135.163 74.96 136.896 75.92C138.629 76.8533 139.989 78.1867 140.976 79.92C141.989 81.6533 142.496 83.6533 142.496 85.92C142.496 88.1867 141.976 90.1867 140.936 91.92C139.923 93.6533 138.536 95 136.776 95.96C135.043 96.8933 133.096 97.36 130.936 97.36ZM130.936 92.48C131.949 92.48 132.896 92.24 133.776 91.76C134.683 91.2533 135.403 90.5067 135.936 89.52C136.469 88.5333 136.736 87.3333 136.736 85.92C136.736 83.8133 136.176 82.2 135.056 81.08C133.963 79.9333 132.616 79.36 131.016 79.36C129.416 79.36 128.069 79.9333 126.976 81.08C125.909 82.2 125.376 83.8133 125.376 85.92C125.376 88.0267 125.896 89.6533 126.936 90.8C128.003 91.92 129.336 92.48 130.936 92.48ZM152.204 78.04C152.924 77.0267 153.91 76.1867 155.164 75.52C156.444 74.8267 157.897 74.48 159.524 74.48C161.417 74.48 163.124 74.9467 164.644 75.88C166.19 76.8133 167.404 78.1467 168.284 79.88C169.19 81.5867 169.644 83.5733 169.644 85.84C169.644 88.1067 169.19 90.12 168.284 91.88C167.404 93.6133 166.19 94.96 164.644 95.92C163.124 96.88 161.417 97.36 159.524 97.36C157.897 97.36 156.457 97.0267 155.204 96.36C153.977 95.6933 152.977 94.8533 152.204 93.84V107.56H146.604V74.84H152.204V78.04ZM163.924 85.84C163.924 84.5067 163.644 83.36 163.084 82.4C162.55 81.4133 161.83 80.6667 160.924 80.16C160.044 79.6533 159.084 79.4 158.044 79.4C157.03 79.4 156.07 79.6667 155.164 80.2C154.284 80.7067 153.564 81.4533 153.004 82.44C152.47 83.4267 152.204 84.5867 152.204 85.92C152.204 87.2533 152.47 88.4133 153.004 89.4C153.564 90.3867 154.284 91.1467 155.164 91.68C156.07 92.1867 157.03 92.44 158.044 92.44C159.084 92.44 160.044 92.1733 160.924 91.64C161.83 91.1067 162.55 90.3467 163.084 89.36C163.644 88.3733 163.924 87.2 163.924 85.84ZM194.633 74.84V97H188.993V94.2C188.273 95.16 187.326 95.92 186.153 96.48C185.006 97.0133 183.753 97.28 182.393 97.28C180.66 97.28 179.126 96.92 177.793 96.2C176.46 95.4533 175.406 94.3733 174.633 92.96C173.886 91.52 173.513 89.8133 173.513 87.84V74.84H179.113V87.04C179.113 88.8 179.553 90.16 180.433 91.12C181.313 92.0533 182.513 92.52 184.033 92.52C185.58 92.52 186.793 92.0533 187.673 91.12C188.553 90.16 188.993 88.8 188.993 87.04V74.84H194.633ZM205.758 67.4V97H200.158V67.4H205.758ZM209.851 85.84C209.851 83.6 210.291 81.6133 211.171 79.88C212.078 78.1467 213.291 76.8133 214.811 75.88C216.358 74.9467 218.078 74.48 219.971 74.48C221.625 74.48 223.065 74.8133 224.291 75.48C225.545 76.1467 226.545 76.9867 227.291 78V74.84H232.931V97H227.291V93.76C226.571 94.8 225.571 95.6667 224.291 96.36C223.038 97.0267 221.585 97.36 219.931 97.36C218.065 97.36 216.358 96.88 214.811 95.92C213.291 94.96 212.078 93.6133 211.171 91.88C210.291 90.12 209.851 88.1067 209.851 85.84ZM227.291 85.92C227.291 84.56 227.025 83.4 226.491 82.44C225.958 81.4533 225.238 80.7067 224.331 80.2C223.425 79.6667 222.451 79.4 221.411 79.4C220.371 79.4 219.411 79.6533 218.531 80.16C217.651 80.6667 216.931 81.4133 216.371 82.4C215.838 83.36 215.571 84.5067 215.571 85.84C215.571 87.1733 215.838 88.3467 216.371 89.36C216.931 90.3467 217.651 91.1067 218.531 91.64C219.438 92.1733 220.398 92.44 221.411 92.44C222.451 92.44 223.425 92.1867 224.331 91.68C225.238 91.1467 225.958 90.4 226.491 89.44C227.025 88.4533 227.291 87.28 227.291 85.92ZM244.001 78.28C244.721 77.1067 245.654 76.1867 246.801 75.52C247.974 74.8533 249.307 74.52 250.801 74.52V80.4H249.321C247.561 80.4 246.227 80.8133 245.321 81.64C244.441 82.4667 244.001 83.9067 244.001 85.96V97H238.401V74.84H244.001V78.28ZM284.464 77.72C284.464 79.2133 284.104 80.6133 283.384 81.92C282.69 83.2267 281.584 84.28 280.064 85.08C278.57 85.88 276.677 86.28 274.384 86.28H269.704V97H264.104V69.08H274.384C276.544 69.08 278.384 69.4533 279.904 70.2C281.424 70.9467 282.557 71.9733 283.304 73.28C284.077 74.5867 284.464 76.0667 284.464 77.72ZM274.144 81.76C275.69 81.76 276.837 81.4133 277.584 80.72C278.33 80 278.704 79 278.704 77.72C278.704 75 277.184 73.64 274.144 73.64H269.704V81.76H274.144ZM294.04 78.28C294.76 77.1067 295.693 76.1867 296.84 75.52C298.013 74.8533 299.346 74.52 300.84 74.52V80.4H299.36C297.6 80.4 296.266 80.8133 295.36 81.64C294.48 82.4667 294.04 83.9067 294.04 85.96V97H288.44V74.84H294.04V78.28ZM314.452 97.36C312.318 97.36 310.398 96.8933 308.692 95.96C306.985 95 305.638 93.6533 304.652 91.92C303.692 90.1867 303.212 88.1867 303.212 85.92C303.212 83.6533 303.705 81.6533 304.692 79.92C305.705 78.1867 307.078 76.8533 308.812 75.92C310.545 74.96 312.478 74.48 314.612 74.48C316.745 74.48 318.678 74.96 320.412 75.92C322.145 76.8533 323.505 78.1867 324.492 79.92C325.505 81.6533 326.012 83.6533 326.012 85.92C326.012 88.1867 325.492 90.1867 324.452 91.92C323.438 93.6533 322.052 95 320.292 95.96C318.558 96.8933 316.612 97.36 314.452 97.36ZM314.452 92.48C315.465 92.48 316.412 92.24 317.292 91.76C318.198 91.2533 318.918 90.5067 319.452 89.52C319.985 88.5333 320.252 87.3333 320.252 85.92C320.252 83.8133 319.692 82.2 318.572 81.08C317.478 79.9333 316.132 79.36 314.532 79.36C312.932 79.36 311.585 79.9333 310.492 81.08C309.425 82.2 308.892 83.8133 308.892 85.92C308.892 88.0267 309.412 89.6533 310.452 90.8C311.518 91.92 312.852 92.48 314.452 92.48ZM328.679 85.84C328.679 83.6 329.119 81.6133 329.999 79.88C330.906 78.1467 332.133 76.8133 333.679 75.88C335.226 74.9467 336.946 74.48 338.839 74.48C340.279 74.48 341.653 74.8 342.959 75.44C344.266 76.0533 345.306 76.88 346.079 77.92V67.4H351.759V97H346.079V93.72C345.386 94.8133 344.413 95.6933 343.159 96.36C341.906 97.0267 340.453 97.36 338.799 97.36C336.933 97.36 335.226 96.88 333.679 95.92C332.133 94.96 330.906 93.6133 329.999 91.88C329.119 90.12 328.679 88.1067 328.679 85.84ZM346.119 85.92C346.119 84.56 345.853 83.4 345.319 82.44C344.786 81.4533 344.066 80.7067 343.159 80.2C342.253 79.6667 341.279 79.4 340.239 79.4C339.199 79.4 338.239 79.6533 337.359 80.16C336.479 80.6667 335.759 81.4133 335.199 82.4C334.666 83.36 334.399 84.5067 334.399 85.84C334.399 87.1733 334.666 88.3467 335.199 89.36C335.759 90.3467 336.479 91.1067 337.359 91.64C338.266 92.1733 339.226 92.44 340.239 92.44C341.279 92.44 342.253 92.1867 343.159 91.68C344.066 91.1467 344.786 90.4 345.319 89.44C345.853 88.4533 346.119 87.28 346.119 85.92ZM378.149 74.84V97H372.509V94.2C371.789 95.16 370.842 95.92 369.669 96.48C368.522 97.0133 367.269 97.28 365.909 97.28C364.175 97.28 362.642 96.92 361.309 96.2C359.975 95.4533 358.922 94.3733 358.149 92.96C357.402 91.52 357.029 89.8133 357.029 87.84V74.84H362.629V87.04C362.629 88.8 363.069 90.16 363.949 91.12C364.829 92.0533 366.029 92.52 367.549 92.52C369.095 92.52 370.309 92.0533 371.189 91.12C372.069 90.16 372.509 88.8 372.509 87.04V74.84H378.149ZM382.234 85.92C382.234 83.6267 382.701 81.6267 383.634 79.92C384.567 78.1867 385.861 76.8533 387.514 75.92C389.167 74.96 391.061 74.48 393.194 74.48C395.941 74.48 398.207 75.1733 399.994 76.56C401.807 77.92 403.021 79.84 403.634 82.32H397.594C397.274 81.36 396.727 80.6133 395.954 80.08C395.207 79.52 394.274 79.24 393.154 79.24C391.554 79.24 390.287 79.8267 389.354 81C388.421 82.1467 387.954 83.7867 387.954 85.92C387.954 88.0267 388.421 89.6667 389.354 90.84C390.287 91.9867 391.554 92.56 393.154 92.56C395.421 92.56 396.901 91.5467 397.594 89.52H403.634C403.021 91.92 401.807 93.8267 399.994 95.24C398.181 96.6533 395.914 97.36 393.194 97.36C391.061 97.36 389.167 96.8933 387.514 95.96C385.861 95 384.567 93.6667 383.634 91.96C382.701 90.2267 382.234 88.2133 382.234 85.92ZM414.257 79.44V90.16C414.257 90.9067 414.43 91.4533 414.777 91.8C415.15 92.12 415.763 92.28 416.617 92.28H419.217V97H415.697C410.977 97 408.617 94.7067 408.617 90.12V79.44H405.977V74.84H408.617V69.36H414.257V74.84H419.217V79.44H414.257ZM431.724 97.36C429.911 97.36 428.284 97.04 426.844 96.4C425.404 95.7333 424.258 94.84 423.404 93.72C422.578 92.6 422.124 91.36 422.044 90H427.684C427.791 90.8533 428.204 91.56 428.924 92.12C429.671 92.68 430.591 92.96 431.684 92.96C432.751 92.96 433.578 92.7467 434.164 92.32C434.778 91.8933 435.084 91.3467 435.084 90.68C435.084 89.96 434.711 89.4267 433.964 89.08C433.244 88.7067 432.084 88.3067 430.484 87.88C428.831 87.48 427.471 87.0667 426.404 86.64C425.364 86.2133 424.458 85.56 423.684 84.68C422.938 83.8 422.564 82.6133 422.564 81.12C422.564 79.8933 422.911 78.7733 423.604 77.76C424.324 76.7467 425.338 75.9467 426.644 75.36C427.978 74.7733 429.538 74.48 431.324 74.48C433.964 74.48 436.071 75.1467 437.644 76.48C439.218 77.7867 440.084 79.56 440.244 81.8H434.884C434.804 80.92 434.431 80.2267 433.764 79.72C433.124 79.1867 432.258 78.92 431.164 78.92C430.151 78.92 429.364 79.1067 428.804 79.48C428.271 79.8533 428.004 80.3733 428.004 81.04C428.004 81.7867 428.378 82.36 429.124 82.76C429.871 83.1333 431.031 83.52 432.604 83.92C434.204 84.32 435.524 84.7333 436.564 85.16C437.604 85.5867 438.498 86.2533 439.244 87.16C440.018 88.04 440.418 89.2133 440.444 90.68C440.444 91.96 440.084 93.1067 439.364 94.12C438.671 95.1333 437.658 95.9333 436.324 96.52C435.018 97.08 433.484 97.36 431.724 97.36Z" fill="#394149"/>
</svg>
