<svg width="22" height="23" viewBox="0 0 22 23" fill="none" xmlns="http://www.w3.org/2000/svg">
<g clip-path="url(#clip0_6_6877)">
<path d="M5.5 1.84375L2.75 5.51396V18.3597C2.75 18.8464 2.94315 19.3132 3.28697 19.6573C3.63079 20.0015 4.0971 20.1948 4.58333 20.1948H17.4167C17.9029 20.1948 18.3692 20.0015 18.713 19.6573C19.0568 19.3132 19.25 18.8464 19.25 18.3597V5.51396L16.5 1.84375H5.5Z" stroke="#394149" stroke-width="2" stroke-linecap="round" stroke-linejoin="round"/>
<path d="M2.75 5.51172H19.25" stroke="#394149" stroke-width="2" stroke-linecap="round" stroke-linejoin="round"/>
<path d="M14.6673 9.18359C14.6673 10.157 14.281 11.0905 13.5934 11.7788C12.9057 12.4671 11.9731 12.8538 11.0007 12.8538C10.0282 12.8538 9.09556 12.4671 8.40793 11.7788C7.72029 11.0905 7.33398 10.157 7.33398 9.18359" stroke="#394149" stroke-width="2" stroke-linecap="round" stroke-linejoin="round"/>
</g>
<defs>
<clipPath id="clip0_6_6877">
<rect width="22" height="22.0213" fill="white" transform="translate(0 0.0078125)"/>
</clipPath>
</defs>
</svg>
