<svg width="30" height="30" viewBox="0 0 30 30" fill="none" xmlns="http://www.w3.org/2000/svg">
<g id="akar-icons:search" clip-path="url(#clip0_6_1739)">
<path id="Vector" d="M26.2568 26.25L20.6493 20.6325L26.2568 26.25ZM23.7568 13.125C23.7568 15.9429 22.6374 18.6454 20.6448 20.638C18.6523 22.6306 15.9498 23.75 13.1318 23.75C10.3139 23.75 7.6114 22.6306 5.61883 20.638C3.62625 18.6454 2.50684 15.9429 2.50684 13.125C2.50684 10.3071 3.62625 7.60456 5.61883 5.61199C7.6114 3.61942 10.3139 2.5 13.1318 2.5C15.9498 2.5 18.6523 3.61942 20.6448 5.61199C22.6374 7.60456 23.7568 10.3071 23.7568 13.125V13.125Z" stroke="white" stroke-width="4" stroke-linecap="round"/>
</g>
<defs>
<clipPath id="clip0_6_1739">
<rect width="30" height="30" fill="white" transform="translate(0.00683594)"/>
</clipPath>
</defs>
</svg>
