<svg width="14" height="11" viewBox="0 0 14 11" fill="none" xmlns="http://www.w3.org/2000/svg">
<path d="M13.4621 1.58683C12.9868 1.79061 12.4755 1.92844 11.9392 1.99C12.4867 1.67285 12.9069 1.17104 13.1052 0.57211C12.5929 0.865934 12.0253 1.07908 11.4216 1.19398C10.938 0.695986 10.2489 0.384766 9.48584 0.384766C8.02186 0.384766 6.83451 1.53272 6.83451 2.94813C6.83451 3.14904 6.85804 3.34461 6.90352 3.53233C4.70004 3.42547 2.7463 2.40502 1.43853 0.853699C1.21035 1.23221 1.07945 1.67285 1.07945 2.14255C1.07945 3.03167 1.54787 3.8166 2.2589 4.27617C1.82449 4.26297 1.41539 4.1477 1.0581 3.9552C1.0579 3.96609 1.0579 3.97699 1.0579 3.98769C1.0579 5.22971 1.97219 6.26564 3.18485 6.50097C2.96261 6.55985 2.72791 6.59101 2.48648 6.59101C2.31525 6.59101 2.14936 6.57514 1.98761 6.54532C2.32494 7.56348 3.30389 8.30463 4.46435 8.32547C3.55678 9.0131 2.41372 9.42277 1.1712 9.42277C0.957652 9.42277 0.746083 9.41073 0.539062 9.38683C1.71178 10.1144 3.10576 10.5386 4.60296 10.5386C9.47971 10.5386 12.1467 6.63268 12.1467 3.24501C12.1467 3.13394 12.1441 3.02326 12.1389 2.91353C12.6574 2.55222 13.1068 2.10087 13.4621 1.58683Z" fill="#394149"/>
</svg>
