<svg width="34" height="34" viewBox="0 0 34 34" fill="none" xmlns="http://www.w3.org/2000/svg">
<path d="M13.8885 25.9674C21.428 25.9674 25.5505 19.7199 25.5505 14.3054C25.5505 14.1269 25.5505 13.9484 25.542 13.7784C26.341 13.2004 27.038 12.4779 27.5905 11.6534C26.8595 11.9764 26.069 12.1974 25.236 12.2994C26.086 11.7894 26.732 10.9904 27.038 10.0299C26.2475 10.4974 25.372 10.8374 24.437 11.0244C23.689 10.2254 22.6265 9.73242 21.445 9.73242C19.184 9.73242 17.348 11.5684 17.348 13.8294C17.348 14.1524 17.382 14.4669 17.4585 14.7644C14.05 14.5944 11.0325 12.9624 9.00952 10.4804C8.66102 11.0839 8.45702 11.7894 8.45702 12.5374C8.45702 13.9569 9.17952 15.2149 10.2845 15.9459C9.61302 15.9289 8.98402 15.7419 8.43152 15.4359C8.43152 15.4529 8.43152 15.4699 8.43152 15.4869C8.43152 17.4759 9.84252 19.1249 11.721 19.5074C11.381 19.6009 11.0155 19.6519 10.6415 19.6519C10.378 19.6519 10.123 19.6264 9.86802 19.5754C10.3865 21.2074 11.8995 22.3889 13.693 22.4229C12.2905 23.5194 10.5225 24.1739 8.60152 24.1739C8.27002 24.1739 7.94702 24.1569 7.62402 24.1144C9.41752 25.2874 11.5765 25.9674 13.8885 25.9674Z" fill="#1D9BF0"/>
</svg>
