<svg width="170" height="14" viewBox="0 0 170 14" fill="none" xmlns="http://www.w3.org/2000/svg">
<g clip-path="url(#clip0_6_7414)">
<path d="M3.68838 5.69633C5.01938 5.69633 6.41376 5.637 7.74476 5.57766C8.31519 5.57766 8.82224 5.51832 9.39266 5.51832C11.8011 5.39965 14.2096 5.28098 16.6181 5.1623C19.5336 5.04363 22.3858 4.86562 25.3013 4.74695C29.421 4.5096 33.5408 4.33159 37.6606 4.09424C38.6113 4.0349 39.562 4.0349 40.5127 3.97557C42.9212 3.85689 45.3297 3.73822 47.7381 3.67888C50.1466 3.56021 52.5551 3.44154 54.9636 3.3822C55.9143 3.32286 56.865 3.26353 57.8157 3.26353C61.6186 3.14485 65.4848 3.02618 69.2877 2.9075C71.6328 2.84817 73.9779 2.78883 76.3863 2.67016C77.337 2.67016 78.2244 2.61082 79.1751 2.61082C82.8512 2.55148 86.5907 2.49215 90.2668 2.43281C93.9428 2.37347 97.5556 2.31414 101.232 2.2548C102.182 2.2548 103.133 2.2548 104.147 2.2548C106.556 2.2548 108.901 2.2548 111.309 2.2548C115.049 2.2548 118.725 2.2548 122.464 2.19546C123.669 2.19546 124.873 2.19546 126.077 2.19546C128.612 2.19546 131.147 2.19546 133.683 2.19546C133.873 2.19546 134.126 2.19546 134.317 2.19546C128.612 2.2548 122.845 2.31414 117.14 2.43281C114.732 2.49215 112.387 2.49215 109.978 2.55148C108.964 2.55148 107.887 2.55148 106.873 2.61082C103.387 2.67016 99.964 2.78883 96.4781 2.84817C92.4851 2.96684 88.4921 3.02618 84.4991 3.14485C83.8019 3.14485 83.1681 3.20419 82.4709 3.20419C80.3159 3.32286 78.2244 3.3822 76.0694 3.50087C71.7595 3.67888 67.4496 3.85689 63.1397 4.0349C62.5059 4.0349 61.8721 4.09424 61.2383 4.15358C59.1467 4.27225 56.9918 4.45026 54.9002 4.56894C51.0973 4.80628 47.3578 5.04363 43.555 5.28098C42.5409 5.34031 41.4634 5.45899 40.4493 5.51832C38.0409 5.69634 35.6324 5.87435 33.2239 6.11169C30.1816 6.34904 27.076 6.58639 24.0337 6.82373C19.7871 7.17976 15.4772 7.53578 11.2307 7.8918C10.2166 7.95113 9.20252 8.06981 8.12505 8.12914C6.287 8.30716 4.44895 8.48517 2.6109 8.66318C2.42076 8.66318 2.23062 8.78185 2.23062 9.0192C2.23062 9.19721 2.42076 9.37522 2.6109 9.37522C3.30809 9.37522 3.9419 9.43456 4.63909 9.43456C4.51233 9.73124 4.44895 9.90925 4.44895 10.0873C4.44895 10.74 5.01938 11.3333 5.77995 11.3333C11.0406 11.0366 16.2378 10.6806 21.4984 10.4433C26.0619 10.2653 30.6253 10.0279 35.1887 9.84991C40.1958 9.61257 45.2663 9.37522 50.2734 9.19721C51.8579 9.13787 53.4424 9.07853 55.027 8.95986C55.4706 8.95986 55.9143 8.90052 56.4213 8.90052C64.5341 8.72251 72.6469 8.48517 80.7596 8.30716C85.0695 8.18848 89.4428 8.06981 93.7527 8.01047C95.3372 7.95113 96.8584 7.95113 98.4429 7.8918C106.746 7.77312 115.049 7.65445 123.352 7.53578C126.901 7.47644 130.45 7.4171 134 7.35777C137.042 7.29843 140.084 7.29843 143.126 7.17976C145.662 7.12042 148.134 7.00175 150.669 6.94241C151.936 6.88307 153.204 6.88307 154.408 6.82373C157.26 6.64572 160.113 6.46771 162.965 6.2897C162.775 6.52705 162.775 6.88307 162.838 7.12042C162.901 7.4171 163.091 7.65445 163.408 7.77312C163.662 7.8918 164.042 8.01047 164.296 7.8918C164.93 7.65445 165.563 7.4171 166.134 7.17976C166.134 7.17976 166.134 7.17976 166.07 7.17976C166.134 7.17976 166.134 7.12042 166.197 7.12042C166.261 7.12042 166.324 7.06108 166.324 7.06108H166.261C166.577 6.94241 166.894 6.82373 167.275 6.64572C167.592 6.52705 167.972 6.34904 168.289 6.23037C168.669 6.05236 168.986 5.87435 169.366 5.69633C169.746 5.51832 170 5.04363 170 4.62827C170 4.39092 169.937 4.21291 169.81 3.97557C169.683 3.73822 169.366 3.44154 169.049 3.3822C168.732 3.32286 168.415 3.26353 168.099 3.26353C168.035 3.26353 167.972 3.26353 167.908 3.26353C167.718 3.26353 167.465 3.26353 167.275 3.32286C166.768 3.3822 166.324 3.44154 165.817 3.44154C165.437 3.44154 165.056 3.50087 164.613 3.50087C163.535 3.56021 162.521 3.61955 161.444 3.73822C161.19 3.73822 160.873 3.79756 160.62 3.79756C160.746 3.67888 160.81 3.56021 160.81 3.44154C160.873 3.32286 160.873 3.20419 160.873 3.08551C160.873 3.02618 160.873 2.9075 160.937 2.84817C160.937 2.72949 160.937 2.61082 160.873 2.55148C160.873 2.55148 160.937 2.55148 160.937 2.49215C161.127 2.37347 161.317 2.2548 161.444 2.01745C161.57 1.83944 161.634 1.60209 161.634 1.36475C161.634 1.1274 161.57 0.949389 161.444 0.712042C161.38 0.652705 161.317 0.534031 161.253 0.474695C161.063 0.296684 160.873 0.237347 160.683 0.17801C160.303 0.0593368 159.859 0 159.415 0C159.035 0 158.718 0 158.338 0C157.831 0 157.324 0 156.817 0C156.12 0 155.359 0 154.662 0C152.76 0 150.859 0 148.958 0C147.183 0 145.345 0 143.57 0C141.922 0 140.338 0 138.69 0C132.162 0 125.697 0.0593368 119.168 0.118674C114.288 0.17801 109.408 0.237347 104.527 0.237347C102.373 0.237347 100.154 0.296684 97.9992 0.356021C93.1189 0.474695 88.2386 0.534031 83.3582 0.652705C81.9639 0.652705 80.5695 0.712042 79.1751 0.712042C78.3511 0.712042 77.5906 0.771379 76.7666 0.771379C71.9497 0.949389 67.1327 1.1274 62.3158 1.30541C60.858 1.36475 59.4002 1.42408 57.8791 1.48342C57.0551 1.48342 56.2312 1.54276 55.4072 1.60209C50.5903 1.83944 45.8367 2.07679 41.0198 2.31414C38.5479 2.43281 36.076 2.55148 33.6042 2.72949C29.3577 2.96684 25.1111 3.20419 20.928 3.50087C17.2519 3.73822 13.5758 3.91623 9.89971 4.09424C9.32928 4.15358 8.75886 4.15358 8.12505 4.21291C7.17433 4.27225 6.22362 4.27225 5.2729 4.33159C4.44895 4.56894 3.56162 4.56894 2.73767 4.56894C2.67428 4.33159 2.42076 4.15358 2.23062 4.21291C1.66019 4.21291 1.15314 4.27225 0.582713 4.33159C0.329189 4.39092 0.0756651 4.5096 0.0122842 4.74695C-0.0510968 5.04363 0.139046 5.34031 0.39257 5.39965C0.646094 5.45899 0.899617 5.51832 1.15314 5.57766C1.40667 5.637 1.59681 5.637 1.85033 5.637C2.48414 5.69633 3.05457 5.69633 3.68838 5.69633ZM152 3.79756C152.76 3.79756 153.584 3.79756 154.345 3.79756C154.408 3.97557 154.535 4.09424 154.662 4.21291C154.345 4.21291 154.028 4.27225 153.774 4.27225C153.204 4.27225 152.634 4.33159 152.063 4.33159C149.528 4.39092 147.056 4.5096 144.521 4.56894C143.38 4.62827 142.239 4.68761 141.098 4.68761C139.324 4.68761 137.486 4.74695 135.711 4.74695C131.591 4.80628 127.535 4.86562 123.415 4.92496C115.429 5.04363 107.506 5.1623 99.5204 5.28098C93.8161 5.34031 88.1118 5.51832 82.4075 5.69633C73.8511 5.93368 65.2313 6.11169 56.6749 6.34904C54.9636 6.40838 53.2523 6.46771 51.541 6.58639C46.6607 6.82373 41.7803 7.00175 36.9 7.23909C32.1464 7.47644 27.3295 7.65445 22.5759 7.8918C22.1322 7.8918 21.6886 7.95113 21.2449 7.95113C22.5125 7.83246 23.8435 7.77312 25.1111 7.65445C29.6112 7.35777 34.1112 7.00175 38.6113 6.70506C40.1958 6.58639 41.7803 6.46771 43.3015 6.34904C44.1254 6.2897 44.9494 6.23037 45.7099 6.23037C50.4635 5.99302 55.1537 5.69633 59.8439 5.45899C60.7312 5.39965 61.6819 5.34031 62.5693 5.28098C63.9003 5.22164 65.2313 5.1623 66.4989 5.1623C71.3158 4.98429 76.1328 4.80628 80.9498 4.62827C82.0272 4.56894 83.1047 4.56894 84.1188 4.5096C84.3723 4.5096 84.6892 4.5096 84.9428 4.5096C85.7033 4.5096 86.4639 4.5096 87.1611 4.45026C91.978 4.33159 96.8584 4.27225 101.675 4.15358C103.894 4.09424 106.112 4.0349 108.33 4.0349C115.492 3.97557 122.718 3.91623 129.88 3.85689C137.359 3.85689 144.711 3.79756 152 3.79756Z" fill="#C28566"/>
<path d="M13.1839 13.9987C13.3755 13.9987 13.5308 13.8495 13.5308 13.6654C13.5308 13.4813 13.3755 13.332 13.1839 13.332C12.9922 13.332 12.8369 13.4813 12.8369 13.6654C12.8369 13.8495 12.9922 13.9987 13.1839 13.9987Z" fill="white"/>
</g>
<defs>
<clipPath id="clip0_6_7414">
<rect width="170" height="14" fill="white"/>
</clipPath>
</defs>
</svg>
