<svg width="65" height="41" viewBox="0 0 65 41" fill="none" xmlns="http://www.w3.org/2000/svg">
<path fill-rule="evenodd" clip-rule="evenodd" d="M2.55078 10H43.9997V15.9163H2.55078V10Z" fill="#0061B2"/>
<path fill-rule="evenodd" clip-rule="evenodd" d="M2.55078 28.6953H43.9997V34.6116H2.55078V28.6953Z" fill="#FDB827"/>
<path fill-rule="evenodd" clip-rule="evenodd" d="M9.44165 17.4219L9.44211 17.4247H7.73828V17.7161V17.7171C9.06802 17.7598 9.46503 18.3915 9.61199 19.127L10.396 26.9776H12.9759L18.4879 17.4219H15.908L12.5952 23.1653L12.0216 17.4219H9.44165Z" fill="#0061B2"/>
<path fill-rule="evenodd" clip-rule="evenodd" d="M19.8619 17.4141H22.3659L19.295 26.9791H16.791L19.8619 17.4141Z" fill="#0061B2"/>
<path fill-rule="evenodd" clip-rule="evenodd" d="M33.6571 17.6055L28.8145 26.9799H31.5311L32.2378 25.5486H35.3913L35.4995 26.9799H38.0034L37.2949 17.6055C36.0823 17.6055 34.8697 17.6055 33.6571 17.6055ZM34.9728 20.0111L35.2725 23.9746H33.0153L34.9728 20.0111Z" fill="#0061B2"/>
<path d="M22.9796 19.8491C23.3554 18.3324 24.5888 17.2969 26.6883 17.2969C28.6551 17.2969 30.1136 18.5372 30.1136 18.5372L28.6254 20.1115C28.6254 20.1115 27.5253 19.2528 26.8773 19.2528C26.0205 19.2528 25.6336 19.5687 25.5545 20.0877C25.3966 21.1224 29.048 21.7557 28.9325 24.1665C28.8553 25.7765 27.2051 27.3389 25.3182 27.3389C22.4889 27.3389 21.0898 26.194 21.0898 26.194L22.3655 24.3573C22.3655 24.3573 23.6441 25.3915 24.8458 25.3353C25.6565 25.2973 26.2814 24.9836 26.2395 24.4289C26.1445 23.1715 22.2995 22.5944 22.9796 19.8491Z" fill="#0061B2"/>
<path d="M38.2993 17.6055C38.2119 17.6055 38.1262 17.6281 38.043 17.6734C37.9597 17.7187 37.895 17.7839 37.8483 17.8683C37.8017 17.9526 37.7783 18.0405 37.7783 18.1321C37.7783 18.2227 37.8014 18.3098 37.8474 18.3935C37.8934 18.4771 37.9576 18.5421 38.0402 18.5883C38.1227 18.6346 38.2091 18.6577 38.2993 18.6577C38.3894 18.6577 38.4758 18.6346 38.5583 18.5883C38.6409 18.5421 38.7049 18.4771 38.7506 18.3935C38.7964 18.3098 38.8193 18.2227 38.8193 18.1321C38.8193 18.0405 38.7962 17.9526 38.7497 17.8683C38.7033 17.7839 38.6383 17.7187 38.5551 17.6734C38.4718 17.6281 38.3866 17.6055 38.2993 17.6055ZM38.2993 17.6929C38.3719 17.6929 38.4427 17.7116 38.5121 17.7495C38.5816 17.7873 38.6357 17.8416 38.6746 17.912C38.7134 17.9824 38.7329 18.0558 38.7329 18.1321C38.7329 18.2078 38.7141 18.2803 38.676 18.3497C38.6378 18.4192 38.5839 18.4735 38.5149 18.5123C38.4459 18.5511 38.3742 18.5703 38.2993 18.5703C38.2243 18.5703 38.1521 18.5511 38.0831 18.5123C38.0141 18.4735 37.9605 18.4192 37.9221 18.3497C37.8837 18.2803 37.8647 18.2078 37.8647 18.1321C37.8647 18.0558 37.8839 17.9824 37.923 17.912C37.9621 17.8416 38.0162 17.7873 38.0855 17.7495C38.1547 17.7116 38.2261 17.6929 38.2993 17.6929Z" fill="#0061B2"/>
<path d="M38.084 17.8438V18.4639H38.1749V18.2004H38.2284C38.2603 18.2004 38.2844 18.2075 38.3011 18.2218C38.3251 18.2411 38.357 18.2896 38.3963 18.3665L38.446 18.4639H38.5566L38.4882 18.3426C38.4554 18.285 38.4278 18.2441 38.4052 18.2197C38.3932 18.207 38.3772 18.1961 38.3573 18.1869C38.4059 18.1828 38.4448 18.1637 38.4741 18.1301C38.5034 18.0965 38.5182 18.0573 38.5182 18.0119C38.5182 17.9799 38.509 17.9498 38.4914 17.9213C38.4739 17.8928 38.4507 17.8724 38.4211 17.8609C38.3915 17.8495 38.3437 17.8438 38.2776 17.8438H38.084ZM38.1749 17.9281H38.2781C38.3225 17.9281 38.3531 17.9314 38.3695 17.9385C38.3859 17.9456 38.3987 17.9568 38.408 17.9713C38.4172 17.9858 38.4216 18.0019 38.4216 18.0203C38.4216 18.0488 38.4122 18.0717 38.393 18.089C38.3738 18.1063 38.3378 18.115 38.2851 18.115H38.1749V17.9281Z" fill="#0061B2"/>
<path d="M43.101 33.1992C43.0136 33.1992 42.928 33.2219 42.8447 33.2672C42.7615 33.3125 42.6968 33.3777 42.6501 33.462C42.6034 33.5464 42.5801 33.6343 42.5801 33.7258C42.5801 33.8164 42.6032 33.9036 42.6492 33.9872C42.6952 34.0709 42.7594 34.1358 42.8419 34.1821C42.9245 34.2283 43.0109 34.2515 43.101 34.2515C43.1912 34.2515 43.2775 34.2283 43.3601 34.1821C43.4427 34.1358 43.5066 34.0709 43.5524 33.9872C43.5982 33.9036 43.621 33.8164 43.621 33.7258C43.621 33.6343 43.5979 33.5464 43.5515 33.462C43.505 33.3777 43.4401 33.3125 43.3568 33.2672C43.2736 33.2219 43.1884 33.1992 43.101 33.1992ZM43.101 33.2867C43.1737 33.2867 43.2444 33.3053 43.3139 33.3432C43.3833 33.3811 43.4375 33.4354 43.4763 33.5058C43.5152 33.5762 43.5347 33.6496 43.5347 33.7258C43.5347 33.8016 43.5159 33.874 43.4777 33.9435C43.4395 34.013 43.3857 34.0672 43.3167 34.106C43.2477 34.1448 43.176 34.164 43.101 34.164C43.026 34.164 42.9539 34.1448 42.8849 34.106C42.8159 34.0672 42.7623 34.013 42.7239 33.9435C42.6854 33.874 42.6664 33.8016 42.6664 33.7258C42.6664 33.6496 42.6857 33.5762 42.7248 33.5058C42.7639 33.4354 42.818 33.3811 42.8872 33.3432C42.9564 33.3053 43.0279 33.2867 43.101 33.2867Z" fill="#0061B2"/>
<path d="M42.8857 33.4375V34.0576H42.9767V33.7942H43.0302C43.062 33.7942 43.0862 33.8013 43.1028 33.8155C43.1269 33.8349 43.1588 33.8834 43.198 33.9603L43.2477 34.0576H43.3584L43.2899 33.9363C43.2571 33.8788 43.2296 33.8379 43.2069 33.8134C43.1949 33.8007 43.179 33.7898 43.1591 33.7806C43.2076 33.7766 43.2465 33.7575 43.2759 33.7239C43.3052 33.6903 43.3199 33.651 43.3199 33.6057C43.3199 33.5736 43.3108 33.5436 43.2932 33.5151C43.2757 33.4866 43.2525 33.4661 43.2229 33.4547C43.1933 33.4432 43.1455 33.4375 43.0794 33.4375H42.8857ZM42.9767 33.5218H43.0799C43.1242 33.5219 43.1549 33.5251 43.1713 33.5323C43.1877 33.5394 43.2005 33.5506 43.2098 33.5651C43.219 33.5796 43.2233 33.5957 43.2233 33.614C43.2233 33.6425 43.2139 33.6654 43.1947 33.6827C43.1756 33.7 43.1396 33.7088 43.0869 33.7088H42.9767V33.5218Z" fill="#0061B2"/>
</svg>
