<svg width="267" height="17" viewBox="0 0 267 17" fill="none" xmlns="http://www.w3.org/2000/svg">
<path d="M7.434 13.18C6.534 13.18 5.694 13.012 4.914 12.676C4.134 12.34 3.444 11.878 2.844 11.29C2.256 10.69 1.794 10 1.458 9.22C1.122 8.44 0.954 7.6 0.954 6.7C0.954 5.8 1.122 4.96 1.458 4.18C1.794 3.4 2.256 2.716 2.844 2.128C3.444 1.528 4.134 1.06 4.914 0.723999C5.694 0.387999 6.534 0.219999 7.434 0.219999C8.334 0.219999 9.174 0.387999 9.954 0.723999C10.734 1.06 11.418 1.528 12.006 2.128C12.606 2.716 13.074 3.4 13.41 4.18C13.746 4.96 13.914 5.8 13.914 6.7C13.914 7.6 13.746 8.44 13.41 9.22C13.074 10 12.606 10.69 12.006 11.29C11.418 11.878 10.734 12.34 9.954 12.676C9.174 13.012 8.334 13.18 7.434 13.18ZM7.434 12.064C8.166 12.064 8.85 11.926 9.486 11.65C10.122 11.362 10.68 10.972 11.16 10.48C11.64 9.988 12.018 9.418 12.294 8.77C12.57 8.122 12.708 7.432 12.708 6.7C12.708 5.968 12.57 5.278 12.294 4.63C12.018 3.982 11.64 3.412 11.16 2.92C10.68 2.428 10.122 2.044 9.486 1.768C8.85 1.48 8.166 1.336 7.434 1.336C6.702 1.336 6.018 1.48 5.382 1.768C4.746 2.044 4.188 2.428 3.708 2.92C3.228 3.412 2.85 3.982 2.574 4.63C2.31 5.278 2.178 5.968 2.178 6.7C2.178 7.432 2.31 8.122 2.574 8.77C2.85 9.418 3.228 9.988 3.708 10.48C4.188 10.972 4.746 11.362 5.382 11.65C6.018 11.926 6.702 12.064 7.434 12.064ZM7.434 10.156C6.822 10.156 6.3 10.03 5.868 9.778C5.436 9.514 5.1 9.172 4.86 8.752C4.632 8.32 4.506 7.84 4.482 7.312C4.482 7.204 4.476 7.072 4.464 6.916C4.464 6.76 4.464 6.604 4.464 6.448C4.476 6.292 4.482 6.16 4.482 6.052C4.506 5.524 4.632 5.05 4.86 4.63C5.1 4.198 5.436 3.856 5.868 3.604C6.3 3.34 6.822 3.208 7.434 3.208C8.106 3.208 8.658 3.316 9.09 3.532C9.522 3.736 9.84 3.994 10.044 4.306C10.248 4.606 10.356 4.906 10.368 5.206C10.368 5.326 10.332 5.422 10.26 5.494C10.188 5.566 10.092 5.602 9.972 5.602H9.396C9.264 5.602 9.168 5.566 9.108 5.494C9.048 5.422 9 5.344 8.964 5.26C8.868 4.984 8.7 4.774 8.46 4.63C8.232 4.486 7.89 4.414 7.434 4.414C7.014 4.414 6.69 4.504 6.462 4.684C6.234 4.852 6.072 5.068 5.976 5.332C5.892 5.584 5.844 5.83 5.832 6.07C5.832 6.178 5.826 6.31 5.814 6.466C5.814 6.61 5.814 6.76 5.814 6.916C5.826 7.06 5.832 7.186 5.832 7.294C5.844 7.522 5.892 7.768 5.976 8.032C6.072 8.296 6.234 8.518 6.462 8.698C6.69 8.866 7.014 8.95 7.434 8.95C7.89 8.95 8.232 8.878 8.46 8.734C8.7 8.59 8.868 8.38 8.964 8.104C9 8.02 9.048 7.942 9.108 7.87C9.168 7.798 9.264 7.762 9.396 7.762H9.972C10.092 7.762 10.188 7.798 10.26 7.87C10.332 7.942 10.368 8.038 10.368 8.158C10.356 8.446 10.248 8.746 10.044 9.058C9.84 9.37 9.522 9.634 9.09 9.85C8.658 10.054 8.106 10.156 7.434 10.156ZM20.5792 13C20.4592 13 20.3572 12.964 20.2732 12.892C20.2012 12.808 20.1652 12.706 20.1652 12.586V12.01C20.1652 11.902 20.1952 11.782 20.2552 11.65C20.3152 11.518 20.4352 11.374 20.6152 11.218L24.4312 7.402C25.0432 6.886 25.5232 6.448 25.8712 6.088C26.2312 5.716 26.4832 5.362 26.6272 5.026C26.7832 4.69 26.8612 4.342 26.8612 3.982C26.8612 3.298 26.6692 2.758 26.2852 2.362C25.9012 1.954 25.3312 1.75 24.5752 1.75C24.0952 1.75 23.6812 1.852 23.3332 2.056C22.9852 2.248 22.7092 2.518 22.5052 2.866C22.3132 3.202 22.1872 3.586 22.1272 4.018C22.1032 4.174 22.0372 4.282 21.9292 4.342C21.8332 4.402 21.7432 4.432 21.6592 4.432H20.7232C20.6152 4.432 20.5252 4.402 20.4532 4.342C20.3812 4.27 20.3452 4.186 20.3452 4.09C20.3572 3.634 20.4532 3.178 20.6332 2.722C20.8132 2.254 21.0772 1.834 21.4252 1.462C21.7852 1.09 22.2232 0.789999 22.7392 0.561999C23.2672 0.321999 23.8792 0.202 24.5752 0.202C25.5232 0.202 26.2972 0.375999 26.8972 0.723999C27.5092 1.06 27.9592 1.51 28.2472 2.074C28.5352 2.638 28.6792 3.256 28.6792 3.928C28.6792 4.456 28.5892 4.942 28.4092 5.386C28.2292 5.818 27.9652 6.244 27.6172 6.664C27.2812 7.072 26.8612 7.492 26.3572 7.924L22.9012 11.434H28.5172C28.6492 11.434 28.7512 11.47 28.8232 11.542C28.9072 11.614 28.9492 11.716 28.9492 11.848V12.586C28.9492 12.706 28.9072 12.808 28.8232 12.892C28.7512 12.964 28.6492 13 28.5172 13H20.5792ZM35.5537 13.18C34.7257 13.18 34.0237 13.054 33.4477 12.802C32.8837 12.538 32.4217 12.178 32.0617 11.722C31.7017 11.266 31.4377 10.744 31.2697 10.156C31.1137 9.568 31.0237 8.944 30.9997 8.284C30.9877 7.96 30.9757 7.618 30.9637 7.258C30.9637 6.898 30.9637 6.538 30.9637 6.178C30.9757 5.806 30.9877 5.452 30.9997 5.116C31.0117 4.456 31.1017 3.832 31.2697 3.244C31.4497 2.644 31.7137 2.122 32.0617 1.678C32.4217 1.222 32.8897 0.867999 33.4657 0.616C34.0417 0.351999 34.7377 0.219999 35.5537 0.219999C36.3817 0.219999 37.0777 0.351999 37.6417 0.616C38.2177 0.867999 38.6857 1.222 39.0457 1.678C39.4057 2.122 39.6697 2.644 39.8377 3.244C40.0177 3.832 40.1137 4.456 40.1257 5.116C40.1377 5.452 40.1437 5.806 40.1437 6.178C40.1557 6.538 40.1557 6.898 40.1437 7.258C40.1437 7.618 40.1377 7.96 40.1257 8.284C40.1137 8.944 40.0177 9.568 39.8377 10.156C39.6697 10.744 39.4057 11.266 39.0457 11.722C38.6977 12.178 38.2357 12.538 37.6597 12.802C37.0957 13.054 36.3937 13.18 35.5537 13.18ZM35.5537 11.65C36.4897 11.65 37.1797 11.344 37.6237 10.732C38.0797 10.108 38.3137 9.262 38.3257 8.194C38.3497 7.846 38.3617 7.51 38.3617 7.186C38.3617 6.85 38.3617 6.52 38.3617 6.196C38.3617 5.86 38.3497 5.53 38.3257 5.206C38.3137 4.162 38.0797 3.328 37.6237 2.704C37.1797 2.068 36.4897 1.75 35.5537 1.75C34.6297 1.75 33.9397 2.068 33.4837 2.704C33.0397 3.328 32.8057 4.162 32.7817 5.206C32.7817 5.53 32.7757 5.86 32.7637 6.196C32.7637 6.52 32.7637 6.85 32.7637 7.186C32.7757 7.51 32.7817 7.846 32.7817 8.194C32.8057 9.262 33.0457 10.108 33.5017 10.732C33.9577 11.344 34.6417 11.65 35.5537 11.65ZM42.5694 13C42.4494 13 42.3474 12.964 42.2634 12.892C42.1914 12.808 42.1554 12.706 42.1554 12.586V12.01C42.1554 11.902 42.1854 11.782 42.2454 11.65C42.3054 11.518 42.4254 11.374 42.6054 11.218L46.4214 7.402C47.0334 6.886 47.5134 6.448 47.8614 6.088C48.2214 5.716 48.4734 5.362 48.6174 5.026C48.7734 4.69 48.8514 4.342 48.8514 3.982C48.8514 3.298 48.6594 2.758 48.2754 2.362C47.8914 1.954 47.3214 1.75 46.5654 1.75C46.0854 1.75 45.6714 1.852 45.3234 2.056C44.9754 2.248 44.6994 2.518 44.4954 2.866C44.3034 3.202 44.1774 3.586 44.1174 4.018C44.0934 4.174 44.0274 4.282 43.9194 4.342C43.8234 4.402 43.7334 4.432 43.6494 4.432H42.7134C42.6054 4.432 42.5154 4.402 42.4434 4.342C42.3714 4.27 42.3354 4.186 42.3354 4.09C42.3474 3.634 42.4434 3.178 42.6234 2.722C42.8034 2.254 43.0674 1.834 43.4154 1.462C43.7754 1.09 44.2134 0.789999 44.7294 0.561999C45.2574 0.321999 45.8694 0.202 46.5654 0.202C47.5134 0.202 48.2874 0.375999 48.8874 0.723999C49.4994 1.06 49.9494 1.51 50.2374 2.074C50.5254 2.638 50.6694 3.256 50.6694 3.928C50.6694 4.456 50.5794 4.942 50.3994 5.386C50.2194 5.818 49.9554 6.244 49.6074 6.664C49.2714 7.072 48.8514 7.492 48.3474 7.924L44.8914 11.434H50.5074C50.6394 11.434 50.7414 11.47 50.8134 11.542C50.8974 11.614 50.9394 11.716 50.9394 11.848V12.586C50.9394 12.706 50.8974 12.808 50.8134 12.892C50.7414 12.964 50.6394 13 50.5074 13H42.5694ZM53.1339 13C53.0139 13 52.9119 12.964 52.8279 12.892C52.7559 12.808 52.7199 12.706 52.7199 12.586V12.01C52.7199 11.902 52.7499 11.782 52.8099 11.65C52.8699 11.518 52.9899 11.374 53.1699 11.218L56.9859 7.402C57.5979 6.886 58.0779 6.448 58.4259 6.088C58.7859 5.716 59.0379 5.362 59.1819 5.026C59.3379 4.69 59.4159 4.342 59.4159 3.982C59.4159 3.298 59.2239 2.758 58.8399 2.362C58.4559 1.954 57.8859 1.75 57.1299 1.75C56.6499 1.75 56.2359 1.852 55.8879 2.056C55.5399 2.248 55.2639 2.518 55.0599 2.866C54.8679 3.202 54.7419 3.586 54.6819 4.018C54.6579 4.174 54.5919 4.282 54.4839 4.342C54.3879 4.402 54.2979 4.432 54.2139 4.432H53.2779C53.1699 4.432 53.0799 4.402 53.0079 4.342C52.9359 4.27 52.8999 4.186 52.8999 4.09C52.9119 3.634 53.0079 3.178 53.1879 2.722C53.3679 2.254 53.6319 1.834 53.9799 1.462C54.3399 1.09 54.7779 0.789999 55.2939 0.561999C55.8219 0.321999 56.4339 0.202 57.1299 0.202C58.0779 0.202 58.8519 0.375999 59.4519 0.723999C60.0639 1.06 60.5139 1.51 60.8019 2.074C61.0899 2.638 61.2339 3.256 61.2339 3.928C61.2339 4.456 61.1439 4.942 60.9639 5.386C60.7839 5.818 60.5199 6.244 60.1719 6.664C59.8359 7.072 59.4159 7.492 58.9119 7.924L55.4559 11.434H61.0719C61.2039 11.434 61.3059 11.47 61.3779 11.542C61.4619 11.614 61.5039 11.716 61.5039 11.848V12.586C61.5039 12.706 61.4619 12.808 61.3779 12.892C61.3059 12.964 61.2039 13 61.0719 13H53.1339ZM68.7945 13C68.6625 13 68.5605 12.964 68.4885 12.892C68.4165 12.808 68.3805 12.706 68.3805 12.586V0.813999C68.3805 0.693999 68.4165 0.597999 68.4885 0.526C68.5605 0.441999 68.6625 0.399999 68.7945 0.399999H69.7485C69.8685 0.399999 69.9645 0.441999 70.0365 0.526C70.1085 0.597999 70.1445 0.693999 70.1445 0.813999V11.434H76.1385C76.2705 11.434 76.3725 11.476 76.4445 11.56C76.5165 11.632 76.5525 11.734 76.5525 11.866V12.586C76.5525 12.706 76.5165 12.808 76.4445 12.892C76.3725 12.964 76.2705 13 76.1385 13H68.7945ZM81.4998 13.18C80.7318 13.18 80.0778 13.012 79.5378 12.676C79.0098 12.328 78.6078 11.848 78.3318 11.236C78.0558 10.624 77.9178 9.922 77.9178 9.13V4.054C77.9178 3.934 77.9538 3.838 78.0258 3.766C78.1098 3.682 78.2118 3.64 78.3318 3.64H79.2318C79.3518 3.64 79.4478 3.682 79.5198 3.766C79.6038 3.838 79.6458 3.934 79.6458 4.054V9.04C79.6458 10.828 80.4258 11.722 81.9858 11.722C82.7298 11.722 83.3238 11.488 83.7678 11.02C84.2238 10.54 84.4518 9.88 84.4518 9.04V4.054C84.4518 3.934 84.4878 3.838 84.5598 3.766C84.6438 3.682 84.7458 3.64 84.8658 3.64H85.7478C85.8798 3.64 85.9818 3.682 86.0538 3.766C86.1258 3.838 86.1618 3.934 86.1618 4.054V12.586C86.1618 12.706 86.1258 12.808 86.0538 12.892C85.9818 12.964 85.8798 13 85.7478 13H84.9198C84.7998 13 84.6978 12.964 84.6138 12.892C84.5418 12.808 84.5058 12.706 84.5058 12.586V11.794C84.1818 12.214 83.7858 12.55 83.3178 12.802C82.8618 13.054 82.2558 13.18 81.4998 13.18ZM92.0939 13C91.9139 13 91.7699 12.958 91.6619 12.874C91.5659 12.79 91.4879 12.682 91.4279 12.55L88.0979 4.198C88.0739 4.138 88.0619 4.078 88.0619 4.018C88.0619 3.91 88.0979 3.82 88.1699 3.748C88.2419 3.676 88.3319 3.64 88.4399 3.64H89.3039C89.4359 3.64 89.5379 3.676 89.6099 3.748C89.6819 3.82 89.7239 3.886 89.7359 3.946L92.4899 11.038L95.2259 3.946C95.2499 3.886 95.2919 3.82 95.3519 3.748C95.4239 3.676 95.5259 3.64 95.6579 3.64H96.5399C96.6359 3.64 96.7199 3.676 96.7919 3.748C96.8759 3.82 96.9179 3.91 96.9179 4.018C96.9179 4.078 96.9059 4.138 96.8819 4.198L93.5339 12.55C93.4859 12.682 93.4079 12.79 93.2999 12.874C93.2039 12.958 93.0599 13 92.8679 13H92.0939ZM99.2167 13C99.0967 13 98.9947 12.964 98.9107 12.892C98.8387 12.808 98.8027 12.706 98.8027 12.586V4.072C98.8027 3.952 98.8387 3.85 98.9107 3.766C98.9947 3.682 99.0967 3.64 99.2167 3.64H100.045C100.165 3.64 100.267 3.682 100.351 3.766C100.435 3.85 100.477 3.952 100.477 4.072V4.864C100.717 4.456 101.047 4.15 101.467 3.946C101.887 3.742 102.391 3.64 102.979 3.64H103.699C103.819 3.64 103.915 3.682 103.987 3.766C104.059 3.838 104.095 3.934 104.095 4.054V4.792C104.095 4.912 104.059 5.008 103.987 5.08C103.915 5.152 103.819 5.188 103.699 5.188H102.619C101.971 5.188 101.461 5.38 101.089 5.764C100.717 6.136 100.531 6.646 100.531 7.294V12.586C100.531 12.706 100.489 12.808 100.405 12.892C100.321 12.964 100.219 13 100.099 13H99.2167ZM104.962 13C104.842 13 104.74 12.964 104.656 12.892C104.584 12.808 104.548 12.706 104.548 12.586V11.29C104.548 11.17 104.584 11.074 104.656 11.002C104.74 10.918 104.842 10.876 104.962 10.876H106.258C106.378 10.876 106.474 10.918 106.546 11.002C106.63 11.074 106.672 11.17 106.672 11.29V12.586C106.672 12.706 106.63 12.808 106.546 12.892C106.474 12.964 106.378 13 106.258 13H104.962ZM112.534 13C112.438 13 112.354 12.964 112.282 12.892C112.21 12.82 112.174 12.736 112.174 12.64C112.174 12.58 112.18 12.514 112.192 12.442L116.656 0.795999C116.704 0.676 116.77 0.58 116.854 0.508C116.938 0.435999 117.064 0.399999 117.232 0.399999H118.456C118.612 0.399999 118.732 0.435999 118.816 0.508C118.912 0.58 118.984 0.676 119.032 0.795999L123.478 12.442C123.502 12.514 123.514 12.58 123.514 12.64C123.514 12.736 123.478 12.82 123.406 12.892C123.334 12.964 123.25 13 123.154 13H122.236C122.092 13 121.984 12.964 121.912 12.892C121.852 12.82 121.81 12.754 121.786 12.694L120.796 10.138H114.892L113.902 12.694C113.89 12.754 113.848 12.82 113.776 12.892C113.704 12.964 113.596 13 113.452 13H112.534ZM115.414 8.59H120.274L117.844 2.2L115.414 8.59ZM125.637 13C125.517 13 125.415 12.964 125.331 12.892C125.259 12.808 125.223 12.706 125.223 12.586V0.633999C125.223 0.513999 125.259 0.418 125.331 0.346C125.415 0.261999 125.517 0.219999 125.637 0.219999H126.483C126.615 0.219999 126.717 0.261999 126.789 0.346C126.861 0.418 126.897 0.513999 126.897 0.633999V12.586C126.897 12.706 126.861 12.808 126.789 12.892C126.717 12.964 126.615 13 126.483 13H125.637ZM130.014 13C129.894 13 129.792 12.964 129.708 12.892C129.636 12.808 129.6 12.706 129.6 12.586V0.633999C129.6 0.513999 129.636 0.418 129.708 0.346C129.792 0.261999 129.894 0.219999 130.014 0.219999H130.86C130.992 0.219999 131.094 0.261999 131.166 0.346C131.238 0.418 131.274 0.513999 131.274 0.633999V12.586C131.274 12.706 131.238 12.808 131.166 12.892C131.094 12.964 130.992 13 130.86 13H130.014ZM138.785 13C138.665 13 138.563 12.964 138.479 12.892C138.407 12.808 138.371 12.706 138.371 12.586V4.072C138.371 3.952 138.407 3.85 138.479 3.766C138.563 3.682 138.665 3.64 138.785 3.64H139.613C139.733 3.64 139.835 3.682 139.919 3.766C140.003 3.85 140.045 3.952 140.045 4.072V4.864C140.285 4.456 140.615 4.15 141.035 3.946C141.455 3.742 141.959 3.64 142.547 3.64H143.267C143.387 3.64 143.483 3.682 143.555 3.766C143.627 3.838 143.663 3.934 143.663 4.054V4.792C143.663 4.912 143.627 5.008 143.555 5.08C143.483 5.152 143.387 5.188 143.267 5.188H142.187C141.539 5.188 141.029 5.38 140.657 5.764C140.285 6.136 140.099 6.646 140.099 7.294V12.586C140.099 12.706 140.057 12.808 139.973 12.892C139.889 12.964 139.787 13 139.667 13H138.785ZM145.623 13C145.503 13 145.401 12.964 145.317 12.892C145.245 12.808 145.209 12.706 145.209 12.586V4.054C145.209 3.934 145.245 3.838 145.317 3.766C145.401 3.682 145.503 3.64 145.623 3.64H146.487C146.607 3.64 146.703 3.682 146.775 3.766C146.847 3.838 146.883 3.934 146.883 4.054V12.586C146.883 12.706 146.847 12.808 146.775 12.892C146.703 12.964 146.607 13 146.487 13H145.623ZM145.479 1.894C145.359 1.894 145.257 1.858 145.173 1.786C145.101 1.702 145.065 1.6 145.065 1.48V0.508C145.065 0.387999 145.101 0.291999 145.173 0.219999C145.257 0.136 145.359 0.0939999 145.479 0.0939999H146.613C146.733 0.0939999 146.829 0.136 146.901 0.219999C146.985 0.291999 147.027 0.387999 147.027 0.508V1.48C147.027 1.6 146.985 1.702 146.901 1.786C146.829 1.858 146.733 1.894 146.613 1.894H145.479ZM153.402 16.96C152.586 16.96 151.914 16.852 151.386 16.636C150.87 16.42 150.462 16.156 150.162 15.844C149.874 15.544 149.664 15.238 149.532 14.926C149.412 14.626 149.346 14.386 149.334 14.206C149.322 14.086 149.358 13.984 149.442 13.9C149.538 13.816 149.64 13.774 149.748 13.774H150.612C150.72 13.774 150.81 13.798 150.882 13.846C150.954 13.894 151.014 13.996 151.062 14.152C151.134 14.332 151.242 14.53 151.386 14.746C151.53 14.974 151.752 15.166 152.052 15.322C152.352 15.49 152.772 15.574 153.312 15.574C153.876 15.574 154.35 15.496 154.734 15.34C155.118 15.196 155.406 14.932 155.598 14.548C155.802 14.176 155.904 13.66 155.904 13V11.776C155.616 12.148 155.238 12.46 154.77 12.712C154.302 12.952 153.714 13.072 153.006 13.072C152.334 13.072 151.758 12.958 151.278 12.73C150.798 12.49 150.402 12.172 150.09 11.776C149.79 11.368 149.562 10.906 149.406 10.39C149.262 9.874 149.178 9.334 149.154 8.77C149.142 8.434 149.142 8.104 149.154 7.78C149.178 7.216 149.262 6.676 149.406 6.16C149.562 5.644 149.79 5.182 150.09 4.774C150.402 4.366 150.798 4.048 151.278 3.82C151.758 3.58 152.334 3.46 153.006 3.46C153.726 3.46 154.32 3.598 154.788 3.874C155.268 4.138 155.658 4.462 155.958 4.846V4.072C155.958 3.952 155.994 3.85 156.066 3.766C156.15 3.682 156.252 3.64 156.372 3.64H157.2C157.32 3.64 157.422 3.682 157.506 3.766C157.59 3.85 157.632 3.952 157.632 4.072V12.802C157.632 13.606 157.494 14.32 157.218 14.944C156.954 15.568 156.51 16.06 155.886 16.42C155.274 16.78 154.446 16.96 153.402 16.96ZM153.366 11.632C153.966 11.632 154.446 11.494 154.806 11.218C155.178 10.942 155.448 10.594 155.616 10.174C155.796 9.754 155.892 9.328 155.904 8.896C155.916 8.728 155.922 8.524 155.922 8.284C155.922 8.032 155.916 7.822 155.904 7.654C155.892 7.222 155.796 6.796 155.616 6.376C155.448 5.956 155.178 5.608 154.806 5.332C154.446 5.056 153.966 4.918 153.366 4.918C152.766 4.918 152.286 5.056 151.926 5.332C151.566 5.596 151.308 5.95 151.152 6.394C150.996 6.826 150.906 7.294 150.882 7.798C150.87 8.11 150.87 8.428 150.882 8.752C150.906 9.256 150.996 9.73 151.152 10.174C151.308 10.606 151.566 10.96 151.926 11.236C152.286 11.5 152.766 11.632 153.366 11.632ZM160.741 13C160.621 13 160.519 12.964 160.435 12.892C160.363 12.808 160.327 12.706 160.327 12.586V0.633999C160.327 0.513999 160.363 0.418 160.435 0.346C160.519 0.261999 160.621 0.219999 160.741 0.219999H161.641C161.773 0.219999 161.875 0.261999 161.947 0.346C162.019 0.418 162.055 0.513999 162.055 0.633999V4.828C162.379 4.42 162.775 4.09 163.243 3.838C163.711 3.586 164.305 3.46 165.025 3.46C165.805 3.46 166.465 3.634 167.005 3.982C167.557 4.318 167.971 4.792 168.247 5.404C168.535 6.004 168.679 6.706 168.679 7.51V12.586C168.679 12.706 168.643 12.808 168.571 12.892C168.499 12.964 168.397 13 168.265 13H167.365C167.245 13 167.143 12.964 167.059 12.892C166.987 12.808 166.951 12.706 166.951 12.586V7.6C166.951 6.76 166.747 6.106 166.339 5.638C165.931 5.158 165.331 4.918 164.539 4.918C163.795 4.918 163.195 5.158 162.739 5.638C162.283 6.106 162.055 6.76 162.055 7.6V12.586C162.055 12.706 162.019 12.808 161.947 12.892C161.875 12.964 161.773 13 161.641 13H160.741ZM174.808 13C174.136 13 173.59 12.874 173.17 12.622C172.75 12.358 172.444 11.992 172.252 11.524C172.06 11.044 171.964 10.48 171.964 9.832V5.08H170.56C170.44 5.08 170.338 5.044 170.254 4.972C170.182 4.888 170.146 4.786 170.146 4.666V4.054C170.146 3.934 170.182 3.838 170.254 3.766C170.338 3.682 170.44 3.64 170.56 3.64H171.964V0.633999C171.964 0.513999 172 0.418 172.072 0.346C172.156 0.261999 172.258 0.219999 172.378 0.219999H173.224C173.344 0.219999 173.44 0.261999 173.512 0.346C173.596 0.418 173.638 0.513999 173.638 0.633999V3.64H175.87C175.99 3.64 176.086 3.682 176.158 3.766C176.242 3.838 176.284 3.934 176.284 4.054V4.666C176.284 4.786 176.242 4.888 176.158 4.972C176.086 5.044 175.99 5.08 175.87 5.08H173.638V9.706C173.638 10.27 173.734 10.714 173.926 11.038C174.118 11.362 174.46 11.524 174.952 11.524H176.05C176.17 11.524 176.266 11.566 176.338 11.65C176.422 11.722 176.464 11.818 176.464 11.938V12.586C176.464 12.706 176.422 12.808 176.338 12.892C176.266 12.964 176.17 13 176.05 13H174.808ZM181.426 13.18C180.754 13.18 180.178 13.096 179.698 12.928C179.218 12.76 178.828 12.556 178.528 12.316C178.228 12.076 178 11.836 177.844 11.596C177.7 11.356 177.622 11.164 177.61 11.02C177.598 10.888 177.64 10.786 177.736 10.714C177.832 10.642 177.928 10.606 178.024 10.606H178.816C178.888 10.606 178.942 10.618 178.978 10.642C179.026 10.654 179.086 10.702 179.158 10.786C179.314 10.954 179.488 11.122 179.68 11.29C179.872 11.458 180.106 11.596 180.382 11.704C180.67 11.812 181.024 11.866 181.444 11.866C182.056 11.866 182.56 11.752 182.956 11.524C183.352 11.284 183.55 10.936 183.55 10.48C183.55 10.18 183.466 9.94 183.298 9.76C183.142 9.58 182.854 9.418 182.434 9.274C182.026 9.13 181.462 8.98 180.742 8.824C180.022 8.656 179.452 8.452 179.032 8.212C178.612 7.96 178.312 7.666 178.132 7.33C177.952 6.982 177.862 6.592 177.862 6.16C177.862 5.716 177.994 5.29 178.258 4.882C178.522 4.462 178.906 4.12 179.41 3.856C179.926 3.592 180.568 3.46 181.336 3.46C181.96 3.46 182.494 3.538 182.938 3.694C183.382 3.85 183.748 4.048 184.036 4.288C184.324 4.516 184.54 4.744 184.684 4.972C184.828 5.2 184.906 5.392 184.918 5.548C184.93 5.668 184.894 5.77 184.81 5.854C184.726 5.926 184.63 5.962 184.522 5.962H183.766C183.682 5.962 183.61 5.944 183.55 5.908C183.502 5.872 183.454 5.83 183.406 5.782C183.286 5.626 183.142 5.47 182.974 5.314C182.818 5.158 182.608 5.032 182.344 4.936C182.092 4.828 181.756 4.774 181.336 4.774C180.736 4.774 180.286 4.9 179.986 5.152C179.686 5.404 179.536 5.722 179.536 6.106C179.536 6.334 179.602 6.538 179.734 6.718C179.866 6.898 180.118 7.06 180.49 7.204C180.862 7.348 181.414 7.504 182.146 7.672C182.938 7.828 183.562 8.038 184.018 8.302C184.474 8.566 184.798 8.872 184.99 9.22C185.182 9.568 185.278 9.97 185.278 10.426C185.278 10.93 185.128 11.392 184.828 11.812C184.54 12.232 184.108 12.568 183.532 12.82C182.968 13.06 182.266 13.18 181.426 13.18ZM192.187 13C192.067 13 191.965 12.964 191.881 12.892C191.809 12.808 191.773 12.706 191.773 12.586V4.072C191.773 3.952 191.809 3.85 191.881 3.766C191.965 3.682 192.067 3.64 192.187 3.64H193.015C193.135 3.64 193.237 3.682 193.321 3.766C193.405 3.85 193.447 3.952 193.447 4.072V4.864C193.687 4.456 194.017 4.15 194.437 3.946C194.857 3.742 195.361 3.64 195.949 3.64H196.669C196.789 3.64 196.885 3.682 196.957 3.766C197.029 3.838 197.065 3.934 197.065 4.054V4.792C197.065 4.912 197.029 5.008 196.957 5.08C196.885 5.152 196.789 5.188 196.669 5.188H195.589C194.941 5.188 194.431 5.38 194.059 5.764C193.687 6.136 193.501 6.646 193.501 7.294V12.586C193.501 12.706 193.459 12.808 193.375 12.892C193.291 12.964 193.189 13 193.069 13H192.187ZM202.162 13.18C200.926 13.18 199.942 12.802 199.21 12.046C198.478 11.278 198.076 10.234 198.004 8.914C197.992 8.758 197.986 8.56 197.986 8.32C197.986 8.068 197.992 7.864 198.004 7.708C198.052 6.856 198.25 6.112 198.598 5.476C198.946 4.828 199.42 4.33 200.02 3.982C200.632 3.634 201.346 3.46 202.162 3.46C203.074 3.46 203.836 3.652 204.448 4.036C205.072 4.42 205.546 4.966 205.87 5.674C206.194 6.382 206.356 7.21 206.356 8.158V8.464C206.356 8.596 206.314 8.698 206.23 8.77C206.158 8.842 206.062 8.878 205.942 8.878H199.714C199.714 8.89 199.714 8.914 199.714 8.95C199.714 8.986 199.714 9.016 199.714 9.04C199.738 9.532 199.846 9.994 200.038 10.426C200.23 10.846 200.506 11.188 200.866 11.452C201.226 11.716 201.658 11.848 202.162 11.848C202.594 11.848 202.954 11.782 203.242 11.65C203.53 11.518 203.764 11.374 203.944 11.218C204.124 11.05 204.244 10.924 204.304 10.84C204.412 10.684 204.496 10.594 204.556 10.57C204.616 10.534 204.712 10.516 204.844 10.516H205.708C205.828 10.516 205.924 10.552 205.996 10.624C206.08 10.684 206.116 10.774 206.104 10.894C206.092 11.074 205.996 11.296 205.816 11.56C205.636 11.812 205.378 12.064 205.042 12.316C204.706 12.568 204.298 12.778 203.818 12.946C203.338 13.102 202.786 13.18 202.162 13.18ZM199.714 7.636H204.646V7.582C204.646 7.042 204.544 6.562 204.34 6.142C204.148 5.722 203.866 5.392 203.494 5.152C203.122 4.9 202.678 4.774 202.162 4.774C201.646 4.774 201.202 4.9 200.83 5.152C200.47 5.392 200.194 5.722 200.002 6.142C199.81 6.562 199.714 7.042 199.714 7.582V7.636ZM211.748 13.18C211.076 13.18 210.5 13.096 210.02 12.928C209.54 12.76 209.15 12.556 208.85 12.316C208.55 12.076 208.322 11.836 208.166 11.596C208.022 11.356 207.944 11.164 207.932 11.02C207.92 10.888 207.962 10.786 208.058 10.714C208.154 10.642 208.25 10.606 208.346 10.606H209.138C209.21 10.606 209.264 10.618 209.3 10.642C209.348 10.654 209.408 10.702 209.48 10.786C209.636 10.954 209.81 11.122 210.002 11.29C210.194 11.458 210.428 11.596 210.704 11.704C210.992 11.812 211.346 11.866 211.766 11.866C212.378 11.866 212.882 11.752 213.278 11.524C213.674 11.284 213.872 10.936 213.872 10.48C213.872 10.18 213.788 9.94 213.62 9.76C213.464 9.58 213.176 9.418 212.756 9.274C212.348 9.13 211.784 8.98 211.064 8.824C210.344 8.656 209.774 8.452 209.354 8.212C208.934 7.96 208.634 7.666 208.454 7.33C208.274 6.982 208.184 6.592 208.184 6.16C208.184 5.716 208.316 5.29 208.58 4.882C208.844 4.462 209.228 4.12 209.732 3.856C210.248 3.592 210.89 3.46 211.658 3.46C212.282 3.46 212.816 3.538 213.26 3.694C213.704 3.85 214.07 4.048 214.358 4.288C214.646 4.516 214.862 4.744 215.006 4.972C215.15 5.2 215.228 5.392 215.24 5.548C215.252 5.668 215.216 5.77 215.132 5.854C215.048 5.926 214.952 5.962 214.844 5.962H214.088C214.004 5.962 213.932 5.944 213.872 5.908C213.824 5.872 213.776 5.83 213.728 5.782C213.608 5.626 213.464 5.47 213.296 5.314C213.14 5.158 212.93 5.032 212.666 4.936C212.414 4.828 212.078 4.774 211.658 4.774C211.058 4.774 210.608 4.9 210.308 5.152C210.008 5.404 209.858 5.722 209.858 6.106C209.858 6.334 209.924 6.538 210.056 6.718C210.188 6.898 210.44 7.06 210.812 7.204C211.184 7.348 211.736 7.504 212.468 7.672C213.26 7.828 213.884 8.038 214.34 8.302C214.796 8.566 215.12 8.872 215.312 9.22C215.504 9.568 215.6 9.97 215.6 10.426C215.6 10.93 215.45 11.392 215.15 11.812C214.862 12.232 214.43 12.568 213.854 12.82C213.29 13.06 212.588 13.18 211.748 13.18ZM221.41 13.18C220.174 13.18 219.19 12.802 218.458 12.046C217.726 11.278 217.324 10.234 217.252 8.914C217.24 8.758 217.234 8.56 217.234 8.32C217.234 8.068 217.24 7.864 217.252 7.708C217.3 6.856 217.498 6.112 217.846 5.476C218.194 4.828 218.668 4.33 219.268 3.982C219.88 3.634 220.594 3.46 221.41 3.46C222.322 3.46 223.084 3.652 223.696 4.036C224.32 4.42 224.794 4.966 225.118 5.674C225.442 6.382 225.604 7.21 225.604 8.158V8.464C225.604 8.596 225.562 8.698 225.478 8.77C225.406 8.842 225.31 8.878 225.19 8.878H218.962C218.962 8.89 218.962 8.914 218.962 8.95C218.962 8.986 218.962 9.016 218.962 9.04C218.986 9.532 219.094 9.994 219.286 10.426C219.478 10.846 219.754 11.188 220.114 11.452C220.474 11.716 220.906 11.848 221.41 11.848C221.842 11.848 222.202 11.782 222.49 11.65C222.778 11.518 223.012 11.374 223.192 11.218C223.372 11.05 223.492 10.924 223.552 10.84C223.66 10.684 223.744 10.594 223.804 10.57C223.864 10.534 223.96 10.516 224.092 10.516H224.956C225.076 10.516 225.172 10.552 225.244 10.624C225.328 10.684 225.364 10.774 225.352 10.894C225.34 11.074 225.244 11.296 225.064 11.56C224.884 11.812 224.626 12.064 224.29 12.316C223.954 12.568 223.546 12.778 223.066 12.946C222.586 13.102 222.034 13.18 221.41 13.18ZM218.962 7.636H223.894V7.582C223.894 7.042 223.792 6.562 223.588 6.142C223.396 5.722 223.114 5.392 222.742 5.152C222.37 4.9 221.926 4.774 221.41 4.774C220.894 4.774 220.45 4.9 220.078 5.152C219.718 5.392 219.442 5.722 219.25 6.142C219.058 6.562 218.962 7.042 218.962 7.582V7.636ZM228.17 13C228.05 13 227.948 12.964 227.864 12.892C227.792 12.808 227.756 12.706 227.756 12.586V4.072C227.756 3.952 227.792 3.85 227.864 3.766C227.948 3.682 228.05 3.64 228.17 3.64H228.998C229.118 3.64 229.22 3.682 229.304 3.766C229.388 3.85 229.43 3.952 229.43 4.072V4.864C229.67 4.456 230 4.15 230.42 3.946C230.84 3.742 231.344 3.64 231.932 3.64H232.652C232.772 3.64 232.868 3.682 232.94 3.766C233.012 3.838 233.048 3.934 233.048 4.054V4.792C233.048 4.912 233.012 5.008 232.94 5.08C232.868 5.152 232.772 5.188 232.652 5.188H231.572C230.924 5.188 230.414 5.38 230.042 5.764C229.67 6.136 229.484 6.646 229.484 7.294V12.586C229.484 12.706 229.442 12.808 229.358 12.892C229.274 12.964 229.172 13 229.052 13H228.17ZM237.852 13C237.672 13 237.528 12.958 237.42 12.874C237.324 12.79 237.246 12.682 237.186 12.55L233.856 4.198C233.832 4.138 233.82 4.078 233.82 4.018C233.82 3.91 233.856 3.82 233.928 3.748C234 3.676 234.09 3.64 234.198 3.64H235.062C235.194 3.64 235.296 3.676 235.368 3.748C235.44 3.82 235.482 3.886 235.494 3.946L238.248 11.038L240.984 3.946C241.008 3.886 241.05 3.82 241.11 3.748C241.182 3.676 241.284 3.64 241.416 3.64H242.298C242.394 3.64 242.478 3.676 242.55 3.748C242.634 3.82 242.676 3.91 242.676 4.018C242.676 4.078 242.664 4.138 242.64 4.198L239.292 12.55C239.244 12.682 239.166 12.79 239.058 12.874C238.962 12.958 238.818 13 238.626 13H237.852ZM247.953 13.18C246.717 13.18 245.733 12.802 245.001 12.046C244.269 11.278 243.867 10.234 243.795 8.914C243.783 8.758 243.777 8.56 243.777 8.32C243.777 8.068 243.783 7.864 243.795 7.708C243.843 6.856 244.041 6.112 244.389 5.476C244.737 4.828 245.211 4.33 245.811 3.982C246.423 3.634 247.137 3.46 247.953 3.46C248.865 3.46 249.627 3.652 250.239 4.036C250.863 4.42 251.337 4.966 251.661 5.674C251.985 6.382 252.147 7.21 252.147 8.158V8.464C252.147 8.596 252.105 8.698 252.021 8.77C251.949 8.842 251.853 8.878 251.733 8.878H245.505C245.505 8.89 245.505 8.914 245.505 8.95C245.505 8.986 245.505 9.016 245.505 9.04C245.529 9.532 245.637 9.994 245.829 10.426C246.021 10.846 246.297 11.188 246.657 11.452C247.017 11.716 247.449 11.848 247.953 11.848C248.385 11.848 248.745 11.782 249.033 11.65C249.321 11.518 249.555 11.374 249.735 11.218C249.915 11.05 250.035 10.924 250.095 10.84C250.203 10.684 250.287 10.594 250.347 10.57C250.407 10.534 250.503 10.516 250.635 10.516H251.499C251.619 10.516 251.715 10.552 251.787 10.624C251.871 10.684 251.907 10.774 251.895 10.894C251.883 11.074 251.787 11.296 251.607 11.56C251.427 11.812 251.169 12.064 250.833 12.316C250.497 12.568 250.089 12.778 249.609 12.946C249.129 13.102 248.577 13.18 247.953 13.18ZM245.505 7.636H250.437V7.582C250.437 7.042 250.335 6.562 250.131 6.142C249.939 5.722 249.657 5.392 249.285 5.152C248.913 4.9 248.469 4.774 247.953 4.774C247.437 4.774 246.993 4.9 246.621 5.152C246.261 5.392 245.985 5.722 245.793 6.142C245.601 6.562 245.505 7.042 245.505 7.582V7.636ZM257.719 13.18C257.059 13.18 256.489 13.066 256.009 12.838C255.529 12.598 255.133 12.28 254.821 11.884C254.521 11.476 254.293 11.014 254.137 10.498C253.993 9.982 253.909 9.436 253.885 8.86C253.873 8.668 253.867 8.488 253.867 8.32C253.867 8.152 253.873 7.972 253.885 7.78C253.909 7.216 253.993 6.676 254.137 6.16C254.293 5.644 254.521 5.182 254.821 4.774C255.133 4.366 255.529 4.048 256.009 3.82C256.489 3.58 257.059 3.46 257.719 3.46C258.427 3.46 259.015 3.586 259.483 3.838C259.951 4.09 260.335 4.402 260.635 4.774V0.633999C260.635 0.513999 260.671 0.418 260.743 0.346C260.827 0.261999 260.929 0.219999 261.049 0.219999H261.913C262.033 0.219999 262.129 0.261999 262.201 0.346C262.285 0.418 262.327 0.513999 262.327 0.633999V12.586C262.327 12.706 262.285 12.808 262.201 12.892C262.129 12.964 262.033 13 261.913 13H261.103C260.971 13 260.869 12.964 260.797 12.892C260.725 12.808 260.689 12.706 260.689 12.586V11.83C260.389 12.214 259.999 12.538 259.519 12.802C259.039 13.054 258.439 13.18 257.719 13.18ZM258.097 11.722C258.697 11.722 259.177 11.584 259.537 11.308C259.897 11.032 260.167 10.684 260.347 10.264C260.527 9.832 260.623 9.394 260.635 8.95C260.647 8.758 260.653 8.53 260.653 8.266C260.653 7.99 260.647 7.756 260.635 7.564C260.623 7.144 260.521 6.73 260.329 6.322C260.149 5.914 259.873 5.578 259.501 5.314C259.141 5.05 258.673 4.918 258.097 4.918C257.485 4.918 256.999 5.056 256.639 5.332C256.279 5.596 256.021 5.95 255.865 6.394C255.709 6.826 255.619 7.294 255.595 7.798C255.583 8.146 255.583 8.494 255.595 8.842C255.619 9.346 255.709 9.82 255.865 10.264C256.021 10.696 256.279 11.05 256.639 11.326C256.999 11.59 257.485 11.722 258.097 11.722ZM265.292 13C265.172 13 265.07 12.964 264.986 12.892C264.914 12.808 264.878 12.706 264.878 12.586V11.29C264.878 11.17 264.914 11.074 264.986 11.002C265.07 10.918 265.172 10.876 265.292 10.876H266.588C266.708 10.876 266.804 10.918 266.876 11.002C266.96 11.074 267.002 11.17 267.002 11.29V12.586C267.002 12.706 266.96 12.808 266.876 12.892C266.804 12.964 266.708 13 266.588 13H265.292Z" fill="#394149"/>
</svg>
